%TF.GenerationSoftware,KiCad,Pcbnew,10.0.6*%
%TF.CreationDate,2026-10-09T15:13:20+05:30*%
%TF.ProjectId,Starbie,53746172-6269-4652-9e6b-696361645f70,rev?*%
%TF.SameCoordinates,Original*%
%TF.FileFunction,Legend,Top*%
%TF.FilePolarity,Positive*%
%FSLAX46Y46*%
G04 Gerber Fmt 4.6, Leading zero omitted, Abs format (unit mm)*
G04 Created by KiCad (PCBNEW 10.0.6) date 2026-10-09 15:13:20*
%MOMM*%
%LPD*%
G01*
G04 APERTURE LIST*
%ADD10C,0.150000*%
%ADD11C,0.101600*%
%ADD12C,0.000000*%
%ADD13C,0.120000*%
%ADD14C,0.127000*%
%ADD15C,0.100000*%
%ADD16C,0.504000*%
G04 APERTURE END LIST*
D10*
X166166666Y-99494819D02*
X166166666Y-100209104D01*
X166166666Y-100209104D02*
X166119047Y-100351961D01*
X166119047Y-100351961D02*
X166023809Y-100447200D01*
X166023809Y-100447200D02*
X165880952Y-100494819D01*
X165880952Y-100494819D02*
X165785714Y-100494819D01*
X166595238Y-99590057D02*
X166642857Y-99542438D01*
X166642857Y-99542438D02*
X166738095Y-99494819D01*
X166738095Y-99494819D02*
X166976190Y-99494819D01*
X166976190Y-99494819D02*
X167071428Y-99542438D01*
X167071428Y-99542438D02*
X167119047Y-99590057D01*
X167119047Y-99590057D02*
X167166666Y-99685295D01*
X167166666Y-99685295D02*
X167166666Y-99780533D01*
X167166666Y-99780533D02*
X167119047Y-99923390D01*
X167119047Y-99923390D02*
X166547619Y-100494819D01*
X166547619Y-100494819D02*
X167166666Y-100494819D01*
X154523333Y-68874819D02*
X154190000Y-68398628D01*
X153951905Y-68874819D02*
X153951905Y-67874819D01*
X153951905Y-67874819D02*
X154332857Y-67874819D01*
X154332857Y-67874819D02*
X154428095Y-67922438D01*
X154428095Y-67922438D02*
X154475714Y-67970057D01*
X154475714Y-67970057D02*
X154523333Y-68065295D01*
X154523333Y-68065295D02*
X154523333Y-68208152D01*
X154523333Y-68208152D02*
X154475714Y-68303390D01*
X154475714Y-68303390D02*
X154428095Y-68351009D01*
X154428095Y-68351009D02*
X154332857Y-68398628D01*
X154332857Y-68398628D02*
X153951905Y-68398628D01*
X155475714Y-68874819D02*
X154904286Y-68874819D01*
X155190000Y-68874819D02*
X155190000Y-67874819D01*
X155190000Y-67874819D02*
X155094762Y-68017676D01*
X155094762Y-68017676D02*
X154999524Y-68112914D01*
X154999524Y-68112914D02*
X154904286Y-68160533D01*
X126166667Y-80033200D02*
X126309524Y-80080819D01*
X126309524Y-80080819D02*
X126547619Y-80080819D01*
X126547619Y-80080819D02*
X126642857Y-80033200D01*
X126642857Y-80033200D02*
X126690476Y-79985580D01*
X126690476Y-79985580D02*
X126738095Y-79890342D01*
X126738095Y-79890342D02*
X126738095Y-79795104D01*
X126738095Y-79795104D02*
X126690476Y-79699866D01*
X126690476Y-79699866D02*
X126642857Y-79652247D01*
X126642857Y-79652247D02*
X126547619Y-79604628D01*
X126547619Y-79604628D02*
X126357143Y-79557009D01*
X126357143Y-79557009D02*
X126261905Y-79509390D01*
X126261905Y-79509390D02*
X126214286Y-79461771D01*
X126214286Y-79461771D02*
X126166667Y-79366533D01*
X126166667Y-79366533D02*
X126166667Y-79271295D01*
X126166667Y-79271295D02*
X126214286Y-79176057D01*
X126214286Y-79176057D02*
X126261905Y-79128438D01*
X126261905Y-79128438D02*
X126357143Y-79080819D01*
X126357143Y-79080819D02*
X126595238Y-79080819D01*
X126595238Y-79080819D02*
X126738095Y-79128438D01*
X127071429Y-79080819D02*
X127309524Y-80080819D01*
X127309524Y-80080819D02*
X127500000Y-79366533D01*
X127500000Y-79366533D02*
X127690476Y-80080819D01*
X127690476Y-80080819D02*
X127928572Y-79080819D01*
X128833333Y-80080819D02*
X128261905Y-80080819D01*
X128547619Y-80080819D02*
X128547619Y-79080819D01*
X128547619Y-79080819D02*
X128452381Y-79223676D01*
X128452381Y-79223676D02*
X128357143Y-79318914D01*
X128357143Y-79318914D02*
X128261905Y-79366533D01*
X135086667Y-104033200D02*
X135229524Y-104080819D01*
X135229524Y-104080819D02*
X135467619Y-104080819D01*
X135467619Y-104080819D02*
X135562857Y-104033200D01*
X135562857Y-104033200D02*
X135610476Y-103985580D01*
X135610476Y-103985580D02*
X135658095Y-103890342D01*
X135658095Y-103890342D02*
X135658095Y-103795104D01*
X135658095Y-103795104D02*
X135610476Y-103699866D01*
X135610476Y-103699866D02*
X135562857Y-103652247D01*
X135562857Y-103652247D02*
X135467619Y-103604628D01*
X135467619Y-103604628D02*
X135277143Y-103557009D01*
X135277143Y-103557009D02*
X135181905Y-103509390D01*
X135181905Y-103509390D02*
X135134286Y-103461771D01*
X135134286Y-103461771D02*
X135086667Y-103366533D01*
X135086667Y-103366533D02*
X135086667Y-103271295D01*
X135086667Y-103271295D02*
X135134286Y-103176057D01*
X135134286Y-103176057D02*
X135181905Y-103128438D01*
X135181905Y-103128438D02*
X135277143Y-103080819D01*
X135277143Y-103080819D02*
X135515238Y-103080819D01*
X135515238Y-103080819D02*
X135658095Y-103128438D01*
X135991429Y-103080819D02*
X136229524Y-104080819D01*
X136229524Y-104080819D02*
X136420000Y-103366533D01*
X136420000Y-103366533D02*
X136610476Y-104080819D01*
X136610476Y-104080819D02*
X136848572Y-103080819D01*
X137181905Y-103176057D02*
X137229524Y-103128438D01*
X137229524Y-103128438D02*
X137324762Y-103080819D01*
X137324762Y-103080819D02*
X137562857Y-103080819D01*
X137562857Y-103080819D02*
X137658095Y-103128438D01*
X137658095Y-103128438D02*
X137705714Y-103176057D01*
X137705714Y-103176057D02*
X137753333Y-103271295D01*
X137753333Y-103271295D02*
X137753333Y-103366533D01*
X137753333Y-103366533D02*
X137705714Y-103509390D01*
X137705714Y-103509390D02*
X137134286Y-104080819D01*
X137134286Y-104080819D02*
X137753333Y-104080819D01*
D11*
X165948479Y-88988809D02*
X166462526Y-88988809D01*
X166462526Y-88988809D02*
X166523002Y-88958571D01*
X166523002Y-88958571D02*
X166553241Y-88928333D01*
X166553241Y-88928333D02*
X166583479Y-88867857D01*
X166583479Y-88867857D02*
X166583479Y-88746904D01*
X166583479Y-88746904D02*
X166553241Y-88686428D01*
X166553241Y-88686428D02*
X166523002Y-88656190D01*
X166523002Y-88656190D02*
X166462526Y-88625952D01*
X166462526Y-88625952D02*
X165948479Y-88625952D01*
X166008955Y-88353809D02*
X165978717Y-88323571D01*
X165978717Y-88323571D02*
X165948479Y-88263095D01*
X165948479Y-88263095D02*
X165948479Y-88111904D01*
X165948479Y-88111904D02*
X165978717Y-88051428D01*
X165978717Y-88051428D02*
X166008955Y-88021190D01*
X166008955Y-88021190D02*
X166069431Y-87990952D01*
X166069431Y-87990952D02*
X166129907Y-87990952D01*
X166129907Y-87990952D02*
X166220621Y-88021190D01*
X166220621Y-88021190D02*
X166583479Y-88384047D01*
X166583479Y-88384047D02*
X166583479Y-87990952D01*
D10*
X159454819Y-70761904D02*
X160264342Y-70761904D01*
X160264342Y-70761904D02*
X160359580Y-70714285D01*
X160359580Y-70714285D02*
X160407200Y-70666666D01*
X160407200Y-70666666D02*
X160454819Y-70571428D01*
X160454819Y-70571428D02*
X160454819Y-70380952D01*
X160454819Y-70380952D02*
X160407200Y-70285714D01*
X160407200Y-70285714D02*
X160359580Y-70238095D01*
X160359580Y-70238095D02*
X160264342Y-70190476D01*
X160264342Y-70190476D02*
X159454819Y-70190476D01*
X160454819Y-69190476D02*
X160454819Y-69761904D01*
X160454819Y-69476190D02*
X159454819Y-69476190D01*
X159454819Y-69476190D02*
X159597676Y-69571428D01*
X159597676Y-69571428D02*
X159692914Y-69666666D01*
X159692914Y-69666666D02*
X159740533Y-69761904D01*
X151219266Y-88718619D02*
X151219266Y-89432904D01*
X151219266Y-89432904D02*
X151171647Y-89575761D01*
X151171647Y-89575761D02*
X151076409Y-89671000D01*
X151076409Y-89671000D02*
X150933552Y-89718619D01*
X150933552Y-89718619D02*
X150838314Y-89718619D01*
X152219266Y-89718619D02*
X151647838Y-89718619D01*
X151933552Y-89718619D02*
X151933552Y-88718619D01*
X151933552Y-88718619D02*
X151838314Y-88861476D01*
X151838314Y-88861476D02*
X151743076Y-88956714D01*
X151743076Y-88956714D02*
X151647838Y-89004333D01*
X146537000Y-98383200D02*
X146637000Y-98430819D01*
X146637000Y-98430819D02*
X146803667Y-98430819D01*
X146803667Y-98430819D02*
X146870333Y-98383200D01*
X146870333Y-98383200D02*
X146903667Y-98335580D01*
X146903667Y-98335580D02*
X146937000Y-98240342D01*
X146937000Y-98240342D02*
X146937000Y-98145104D01*
X146937000Y-98145104D02*
X146903667Y-98049866D01*
X146903667Y-98049866D02*
X146870333Y-98002247D01*
X146870333Y-98002247D02*
X146803667Y-97954628D01*
X146803667Y-97954628D02*
X146670333Y-97907009D01*
X146670333Y-97907009D02*
X146603667Y-97859390D01*
X146603667Y-97859390D02*
X146570333Y-97811771D01*
X146570333Y-97811771D02*
X146537000Y-97716533D01*
X146537000Y-97716533D02*
X146537000Y-97621295D01*
X146537000Y-97621295D02*
X146570333Y-97526057D01*
X146570333Y-97526057D02*
X146603667Y-97478438D01*
X146603667Y-97478438D02*
X146670333Y-97430819D01*
X146670333Y-97430819D02*
X146837000Y-97430819D01*
X146837000Y-97430819D02*
X146937000Y-97478438D01*
X147237000Y-98430819D02*
X147237000Y-97430819D01*
X147237000Y-97430819D02*
X147403667Y-97430819D01*
X147403667Y-97430819D02*
X147503667Y-97478438D01*
X147503667Y-97478438D02*
X147570334Y-97573676D01*
X147570334Y-97573676D02*
X147603667Y-97668914D01*
X147603667Y-97668914D02*
X147637000Y-97859390D01*
X147637000Y-97859390D02*
X147637000Y-98002247D01*
X147637000Y-98002247D02*
X147603667Y-98192723D01*
X147603667Y-98192723D02*
X147570334Y-98287961D01*
X147570334Y-98287961D02*
X147503667Y-98383200D01*
X147503667Y-98383200D02*
X147403667Y-98430819D01*
X147403667Y-98430819D02*
X147237000Y-98430819D01*
X147903667Y-98145104D02*
X148237000Y-98145104D01*
X147837000Y-98430819D02*
X148070334Y-97430819D01*
X148070334Y-97430819D02*
X148303667Y-98430819D01*
X149220666Y-98383200D02*
X149320666Y-98430819D01*
X149320666Y-98430819D02*
X149487333Y-98430819D01*
X149487333Y-98430819D02*
X149553999Y-98383200D01*
X149553999Y-98383200D02*
X149587333Y-98335580D01*
X149587333Y-98335580D02*
X149620666Y-98240342D01*
X149620666Y-98240342D02*
X149620666Y-98145104D01*
X149620666Y-98145104D02*
X149587333Y-98049866D01*
X149587333Y-98049866D02*
X149553999Y-98002247D01*
X149553999Y-98002247D02*
X149487333Y-97954628D01*
X149487333Y-97954628D02*
X149353999Y-97907009D01*
X149353999Y-97907009D02*
X149287333Y-97859390D01*
X149287333Y-97859390D02*
X149253999Y-97811771D01*
X149253999Y-97811771D02*
X149220666Y-97716533D01*
X149220666Y-97716533D02*
X149220666Y-97621295D01*
X149220666Y-97621295D02*
X149253999Y-97526057D01*
X149253999Y-97526057D02*
X149287333Y-97478438D01*
X149287333Y-97478438D02*
X149353999Y-97430819D01*
X149353999Y-97430819D02*
X149520666Y-97430819D01*
X149520666Y-97430819D02*
X149620666Y-97478438D01*
X150320666Y-98335580D02*
X150287333Y-98383200D01*
X150287333Y-98383200D02*
X150187333Y-98430819D01*
X150187333Y-98430819D02*
X150120666Y-98430819D01*
X150120666Y-98430819D02*
X150020666Y-98383200D01*
X150020666Y-98383200D02*
X149954000Y-98287961D01*
X149954000Y-98287961D02*
X149920666Y-98192723D01*
X149920666Y-98192723D02*
X149887333Y-98002247D01*
X149887333Y-98002247D02*
X149887333Y-97859390D01*
X149887333Y-97859390D02*
X149920666Y-97668914D01*
X149920666Y-97668914D02*
X149954000Y-97573676D01*
X149954000Y-97573676D02*
X150020666Y-97478438D01*
X150020666Y-97478438D02*
X150120666Y-97430819D01*
X150120666Y-97430819D02*
X150187333Y-97430819D01*
X150187333Y-97430819D02*
X150287333Y-97478438D01*
X150287333Y-97478438D02*
X150320666Y-97526057D01*
X150954000Y-98430819D02*
X150620666Y-98430819D01*
X150620666Y-98430819D02*
X150620666Y-97430819D01*
X151660666Y-97430819D02*
X151894000Y-98430819D01*
X151894000Y-98430819D02*
X152127333Y-97430819D01*
X152360666Y-98430819D02*
X152360666Y-97430819D01*
X152360666Y-97430819D02*
X152527333Y-97430819D01*
X152527333Y-97430819D02*
X152627333Y-97478438D01*
X152627333Y-97478438D02*
X152694000Y-97573676D01*
X152694000Y-97573676D02*
X152727333Y-97668914D01*
X152727333Y-97668914D02*
X152760666Y-97859390D01*
X152760666Y-97859390D02*
X152760666Y-98002247D01*
X152760666Y-98002247D02*
X152727333Y-98192723D01*
X152727333Y-98192723D02*
X152694000Y-98287961D01*
X152694000Y-98287961D02*
X152627333Y-98383200D01*
X152627333Y-98383200D02*
X152527333Y-98430819D01*
X152527333Y-98430819D02*
X152360666Y-98430819D01*
X153060666Y-98430819D02*
X153060666Y-97430819D01*
X153060666Y-97430819D02*
X153227333Y-97430819D01*
X153227333Y-97430819D02*
X153327333Y-97478438D01*
X153327333Y-97478438D02*
X153394000Y-97573676D01*
X153394000Y-97573676D02*
X153427333Y-97668914D01*
X153427333Y-97668914D02*
X153460666Y-97859390D01*
X153460666Y-97859390D02*
X153460666Y-98002247D01*
X153460666Y-98002247D02*
X153427333Y-98192723D01*
X153427333Y-98192723D02*
X153394000Y-98287961D01*
X153394000Y-98287961D02*
X153327333Y-98383200D01*
X153327333Y-98383200D02*
X153227333Y-98430819D01*
X153227333Y-98430819D02*
X153060666Y-98430819D01*
X154600667Y-97478438D02*
X154534000Y-97430819D01*
X154534000Y-97430819D02*
X154434000Y-97430819D01*
X154434000Y-97430819D02*
X154334000Y-97478438D01*
X154334000Y-97478438D02*
X154267334Y-97573676D01*
X154267334Y-97573676D02*
X154234000Y-97668914D01*
X154234000Y-97668914D02*
X154200667Y-97859390D01*
X154200667Y-97859390D02*
X154200667Y-98002247D01*
X154200667Y-98002247D02*
X154234000Y-98192723D01*
X154234000Y-98192723D02*
X154267334Y-98287961D01*
X154267334Y-98287961D02*
X154334000Y-98383200D01*
X154334000Y-98383200D02*
X154434000Y-98430819D01*
X154434000Y-98430819D02*
X154500667Y-98430819D01*
X154500667Y-98430819D02*
X154600667Y-98383200D01*
X154600667Y-98383200D02*
X154634000Y-98335580D01*
X154634000Y-98335580D02*
X154634000Y-98002247D01*
X154634000Y-98002247D02*
X154500667Y-98002247D01*
X154934000Y-98430819D02*
X154934000Y-97430819D01*
X154934000Y-97430819D02*
X155334000Y-98430819D01*
X155334000Y-98430819D02*
X155334000Y-97430819D01*
X155667333Y-98430819D02*
X155667333Y-97430819D01*
X155667333Y-97430819D02*
X155834000Y-97430819D01*
X155834000Y-97430819D02*
X155934000Y-97478438D01*
X155934000Y-97478438D02*
X156000667Y-97573676D01*
X156000667Y-97573676D02*
X156034000Y-97668914D01*
X156034000Y-97668914D02*
X156067333Y-97859390D01*
X156067333Y-97859390D02*
X156067333Y-98002247D01*
X156067333Y-98002247D02*
X156034000Y-98192723D01*
X156034000Y-98192723D02*
X156000667Y-98287961D01*
X156000667Y-98287961D02*
X155934000Y-98383200D01*
X155934000Y-98383200D02*
X155834000Y-98430819D01*
X155834000Y-98430819D02*
X155667333Y-98430819D01*
D12*
%TO.C,G\u002A\u002A\u002A*%
G36*
X174985502Y-122144764D02*
G01*
X174990133Y-122161079D01*
X175031773Y-122224914D01*
X175117348Y-122296656D01*
X175232413Y-122367095D01*
X175362521Y-122427022D01*
X175456109Y-122458138D01*
X175694495Y-122536658D01*
X175963439Y-122649141D01*
X176248044Y-122789111D01*
X176371218Y-122855963D01*
X176491738Y-122922004D01*
X176593440Y-122975367D01*
X176664224Y-123009848D01*
X176690619Y-123019679D01*
X176729348Y-123038739D01*
X176793348Y-123085270D01*
X176822255Y-123109130D01*
X176866875Y-123152752D01*
X176900552Y-123202785D01*
X176924283Y-123267338D01*
X176939068Y-123354522D01*
X176945902Y-123472449D01*
X176945785Y-123629228D01*
X176939713Y-123832970D01*
X176932545Y-124005794D01*
X176910349Y-124508982D01*
X176205506Y-124508982D01*
X175951121Y-124508689D01*
X175750717Y-124505365D01*
X175597436Y-124495341D01*
X175484424Y-124474947D01*
X175404826Y-124440515D01*
X175351785Y-124388375D01*
X175318446Y-124314858D01*
X175297955Y-124216295D01*
X175283455Y-124089017D01*
X175276130Y-124011565D01*
X175251009Y-123820455D01*
X175217215Y-123688490D01*
X175174360Y-123614545D01*
X175133139Y-123596407D01*
X175093043Y-123617582D01*
X175033872Y-123670816D01*
X175009530Y-123697144D01*
X174953565Y-123777079D01*
X174913729Y-123878269D01*
X174882375Y-124020281D01*
X174881699Y-124024150D01*
X174856991Y-124155148D01*
X174830194Y-124280400D01*
X174807295Y-124372095D01*
X174781781Y-124446958D01*
X174748365Y-124483954D01*
X174686268Y-124498650D01*
X174632765Y-124502840D01*
X174493254Y-124511908D01*
X174502852Y-124350744D01*
X174507189Y-124261466D01*
X174512483Y-124127446D01*
X174518150Y-123964763D01*
X174523609Y-123789494D01*
X174525219Y-123733293D01*
X174537988Y-123277006D01*
X174708155Y-122790299D01*
X174764793Y-122624631D01*
X174813473Y-122475238D01*
X174850790Y-122353132D01*
X174873344Y-122269324D01*
X174878532Y-122238874D01*
X174899791Y-122167526D01*
X174925910Y-122135009D01*
X174964377Y-122114160D01*
X174985502Y-122144764D01*
G37*
G36*
X183462639Y-122068463D02*
G01*
X183474276Y-122077209D01*
X183511286Y-122136604D01*
X183517784Y-122173583D01*
X183526103Y-122229760D01*
X183548224Y-122326041D01*
X183579891Y-122444436D01*
X183590639Y-122481654D01*
X183648736Y-122706768D01*
X183704160Y-122972112D01*
X183754348Y-123260416D01*
X183796735Y-123554410D01*
X183828757Y-123836826D01*
X183847849Y-124090392D01*
X183852149Y-124242814D01*
X183852395Y-124508982D01*
X183667149Y-124508982D01*
X183481903Y-124508982D01*
X183502911Y-124256784D01*
X183511340Y-124109696D01*
X183506795Y-124003937D01*
X183487979Y-123921130D01*
X183477246Y-123892880D01*
X183441170Y-123753893D01*
X183425144Y-123557803D01*
X183429184Y-123304952D01*
X183441927Y-123118005D01*
X183451875Y-122983498D01*
X183453675Y-122897626D01*
X183446385Y-122848616D01*
X183429061Y-122824693D01*
X183418005Y-122819076D01*
X183345056Y-122816729D01*
X183281878Y-122870895D01*
X183226984Y-122983210D01*
X183204317Y-123054108D01*
X183154768Y-123213369D01*
X183110730Y-123320291D01*
X183068221Y-123382629D01*
X183023257Y-123408138D01*
X183022427Y-123408302D01*
X182979866Y-123398992D01*
X182971075Y-123362709D01*
X182994010Y-123321664D01*
X183032321Y-123300704D01*
X183079864Y-123274286D01*
X183068996Y-123234566D01*
X182999454Y-123180702D01*
X182993794Y-123177235D01*
X182933088Y-123146082D01*
X182891541Y-123151439D01*
X182849364Y-123185022D01*
X182806948Y-123237157D01*
X182797826Y-123274785D01*
X182797009Y-123326281D01*
X182782702Y-123379568D01*
X182774515Y-123461406D01*
X182790795Y-123493640D01*
X182807916Y-123527399D01*
X182776239Y-123535568D01*
X182742489Y-123506930D01*
X182723715Y-123424820D01*
X182720774Y-123294941D01*
X182726361Y-123203486D01*
X182745386Y-123135797D01*
X182784172Y-123063291D01*
X182830324Y-123003715D01*
X182871447Y-122974812D01*
X182884921Y-122976485D01*
X182922121Y-122967488D01*
X182980367Y-122922472D01*
X183046465Y-122855706D01*
X183107219Y-122781458D01*
X183149434Y-122713995D01*
X183160915Y-122678053D01*
X183179088Y-122609389D01*
X183201265Y-122577365D01*
X183235025Y-122525479D01*
X183253219Y-122470898D01*
X183286770Y-122355686D01*
X183337772Y-122223459D01*
X183391528Y-122111509D01*
X183427251Y-122064527D01*
X183462639Y-122068463D01*
G37*
G36*
X182871826Y-123577584D02*
G01*
X182959943Y-123595720D01*
X183020617Y-123619360D01*
X183033111Y-123630117D01*
X183039845Y-123678747D01*
X183031461Y-123759269D01*
X183026048Y-123786232D01*
X182993681Y-123968838D01*
X182973928Y-124158218D01*
X182972773Y-124178428D01*
X182944141Y-124227190D01*
X182872688Y-124246034D01*
X182787724Y-124235823D01*
X182748698Y-124222219D01*
X182725412Y-124195962D01*
X182713196Y-124143095D01*
X182707376Y-124049655D01*
X182705592Y-123990404D01*
X182704687Y-123862550D01*
X182708143Y-123744472D01*
X182715214Y-123661546D01*
X182715297Y-123661003D01*
X182731086Y-123558294D01*
X182871826Y-123577584D01*
G37*
G36*
X177101444Y-114502080D02*
G01*
X177268286Y-114514020D01*
X177447752Y-114533296D01*
X177616466Y-114557427D01*
X177732289Y-114575237D01*
X177840588Y-114589062D01*
X177950757Y-114599253D01*
X178072194Y-114606163D01*
X178214293Y-114610145D01*
X178386451Y-114611550D01*
X178598063Y-114610730D01*
X178858525Y-114608038D01*
X178939700Y-114607020D01*
X179455835Y-114600940D01*
X179912900Y-114596759D01*
X180312633Y-114594489D01*
X180656771Y-114594140D01*
X180947053Y-114595723D01*
X181185218Y-114599248D01*
X181373004Y-114604727D01*
X181512148Y-114612170D01*
X181604390Y-114621587D01*
X181616586Y-114623570D01*
X181800354Y-114655771D01*
X181933059Y-114678091D01*
X182023457Y-114691723D01*
X182080309Y-114697858D01*
X182112371Y-114697689D01*
X182127362Y-114693076D01*
X182168227Y-114684356D01*
X182257241Y-114674169D01*
X182381769Y-114663549D01*
X182529171Y-114653531D01*
X182686813Y-114645147D01*
X182742095Y-114642789D01*
X182830434Y-114630385D01*
X182879086Y-114595888D01*
X182893799Y-114569520D01*
X182925773Y-114517141D01*
X182948941Y-114501077D01*
X182973024Y-114526698D01*
X183012546Y-114594039D01*
X183059171Y-114688819D01*
X183061536Y-114694014D01*
X183209720Y-115069937D01*
X183330732Y-115477885D01*
X183421962Y-115902699D01*
X183480800Y-116329219D01*
X183504637Y-116742286D01*
X183490863Y-117126739D01*
X183487045Y-117165626D01*
X183471946Y-117311764D01*
X183459231Y-117438815D01*
X183450274Y-117532776D01*
X183446492Y-117578784D01*
X183432428Y-117614450D01*
X183418311Y-117613964D01*
X183405349Y-117632666D01*
X183397563Y-117697250D01*
X183396484Y-117775898D01*
X183393017Y-117913027D01*
X183379935Y-118059004D01*
X183370842Y-118120958D01*
X183357961Y-118219952D01*
X183356102Y-118296728D01*
X183361724Y-118325130D01*
X183368723Y-118371006D01*
X183369442Y-118460491D01*
X183363922Y-118576685D01*
X183361064Y-118614112D01*
X183353341Y-118735047D01*
X183346140Y-118898832D01*
X183340091Y-119087479D01*
X183335824Y-119282999D01*
X183334655Y-119368143D01*
X183331370Y-119542394D01*
X183325808Y-119700040D01*
X183318596Y-119828926D01*
X183310362Y-119916901D01*
X183304850Y-119946107D01*
X183290686Y-119988365D01*
X183281122Y-120002953D01*
X183274135Y-119982121D01*
X183267703Y-119918119D01*
X183259805Y-119803197D01*
X183257234Y-119763592D01*
X183245066Y-119625181D01*
X183226673Y-119475167D01*
X183204199Y-119325596D01*
X183179786Y-119188517D01*
X183155576Y-119075977D01*
X183133712Y-119000023D01*
X183116578Y-118972694D01*
X183086455Y-118997587D01*
X183063493Y-119041137D01*
X183037030Y-119109580D01*
X183005814Y-119033532D01*
X182974597Y-118957485D01*
X182935330Y-119056347D01*
X182898993Y-119122489D01*
X182861572Y-119154624D01*
X182857103Y-119155209D01*
X182822911Y-119180343D01*
X182815724Y-119208443D01*
X182806511Y-119336667D01*
X182790722Y-119485854D01*
X182770985Y-119636245D01*
X182749926Y-119768082D01*
X182730169Y-119861605D01*
X182727792Y-119870059D01*
X182710607Y-119930141D01*
X182694829Y-119991240D01*
X182677596Y-120066153D01*
X182656046Y-120167678D01*
X182627316Y-120308612D01*
X182606014Y-120414559D01*
X182575528Y-120534684D01*
X182536273Y-120648662D01*
X182511567Y-120703090D01*
X182466314Y-120796349D01*
X182456103Y-120843442D01*
X182480463Y-120847602D01*
X182491137Y-120842707D01*
X182494351Y-120847877D01*
X182459252Y-120883249D01*
X182430024Y-120909354D01*
X182368474Y-120974304D01*
X182333912Y-121032956D01*
X182331162Y-121047732D01*
X182307054Y-121102407D01*
X182270598Y-121132455D01*
X182221929Y-121181018D01*
X182209760Y-121221058D01*
X182187711Y-121286880D01*
X182163008Y-121315902D01*
X182127481Y-121370404D01*
X182124153Y-121403279D01*
X182106366Y-121469977D01*
X182036174Y-121567047D01*
X181963181Y-121645707D01*
X181928912Y-121698787D01*
X181902450Y-121770191D01*
X181888732Y-121839192D01*
X181892696Y-121885068D01*
X181904279Y-121892934D01*
X181934497Y-121918040D01*
X181951337Y-121954214D01*
X181976389Y-121996722D01*
X181995557Y-122000185D01*
X182021317Y-122012409D01*
X182036949Y-122048432D01*
X182063740Y-122092280D01*
X182090736Y-122089019D01*
X182113834Y-122083435D01*
X182107803Y-122098570D01*
X182111554Y-122135304D01*
X182125837Y-122143802D01*
X182145876Y-122162559D01*
X182115406Y-122184444D01*
X182044451Y-122206511D01*
X181943035Y-122225815D01*
X181821183Y-122239411D01*
X181794140Y-122241253D01*
X181651610Y-122251548D01*
X181478958Y-122266470D01*
X181306462Y-122283343D01*
X181251556Y-122289232D01*
X181139775Y-122300775D01*
X181024733Y-122310773D01*
X180900671Y-122319399D01*
X180761827Y-122326824D01*
X180602441Y-122333221D01*
X180416754Y-122338762D01*
X180199005Y-122343618D01*
X179943433Y-122347961D01*
X179644279Y-122351964D01*
X179295783Y-122355798D01*
X178894071Y-122359618D01*
X178606853Y-122361643D01*
X178333542Y-122362498D01*
X178081191Y-122362239D01*
X177856851Y-122360921D01*
X177667576Y-122358597D01*
X177520419Y-122355322D01*
X177422431Y-122351152D01*
X177388323Y-122347968D01*
X177265227Y-122333456D01*
X177124789Y-122323585D01*
X177060340Y-122321467D01*
X176939141Y-122311180D01*
X176823110Y-122287833D01*
X176771358Y-122270480D01*
X176635052Y-122217635D01*
X176473823Y-122163422D01*
X176302752Y-122112023D01*
X176136921Y-122067620D01*
X175991413Y-122034394D01*
X175881308Y-122016529D01*
X175848598Y-122014610D01*
X175784736Y-122002312D01*
X175695273Y-121971350D01*
X175657916Y-121955360D01*
X175549397Y-121907837D01*
X175423934Y-121855525D01*
X175370033Y-121833902D01*
X175257039Y-121779050D01*
X175149598Y-121710527D01*
X175108795Y-121677587D01*
X175047021Y-121603746D01*
X174979892Y-121495776D01*
X174914400Y-121369039D01*
X174857537Y-121238898D01*
X174816296Y-121120716D01*
X174797670Y-121029856D01*
X174798382Y-121016713D01*
X177314546Y-121016713D01*
X177333853Y-121125692D01*
X177373603Y-121209376D01*
X177453483Y-121330546D01*
X177544556Y-121416061D01*
X177659073Y-121483415D01*
X177754641Y-121548945D01*
X177841544Y-121635861D01*
X177856798Y-121656031D01*
X177921015Y-121732141D01*
X177984525Y-121765201D01*
X178031015Y-121770103D01*
X178143542Y-121788062D01*
X178270338Y-121831809D01*
X178380439Y-121889605D01*
X178414514Y-121915475D01*
X178469063Y-121944071D01*
X178553640Y-121950874D01*
X178627448Y-121945371D01*
X178728225Y-121932121D01*
X178808678Y-121917072D01*
X178835967Y-121909263D01*
X178886006Y-121917651D01*
X178946524Y-121981362D01*
X178957050Y-121996291D01*
X179006066Y-122058020D01*
X179060475Y-122094714D01*
X179141490Y-122117372D01*
X179212879Y-122128979D01*
X179330801Y-122139594D01*
X179490786Y-122144986D01*
X179678708Y-122145595D01*
X179880440Y-122141857D01*
X180081856Y-122134210D01*
X180268829Y-122123091D01*
X180427234Y-122108939D01*
X180542944Y-122092191D01*
X180565911Y-122087060D01*
X180670888Y-122063407D01*
X180760648Y-122048162D01*
X180797935Y-122045029D01*
X180868893Y-122025091D01*
X180901736Y-121999401D01*
X180961180Y-121960382D01*
X180995609Y-121953772D01*
X181044092Y-121930216D01*
X181113840Y-121868305D01*
X181193711Y-121781173D01*
X181272565Y-121681955D01*
X181339261Y-121583786D01*
X181382659Y-121499801D01*
X181384255Y-121495565D01*
X181424551Y-121395717D01*
X181433751Y-121375808D01*
X181996826Y-121375808D01*
X182007956Y-121400846D01*
X182017105Y-121396087D01*
X182020746Y-121359987D01*
X182017105Y-121355528D01*
X181999021Y-121359704D01*
X181996826Y-121375808D01*
X181433751Y-121375808D01*
X181467233Y-121303357D01*
X181495937Y-121222490D01*
X181520350Y-121111871D01*
X181529809Y-121044254D01*
X181537894Y-120945375D01*
X181532507Y-120888389D01*
X181508676Y-120854946D01*
X181472436Y-120832515D01*
X181418120Y-120811156D01*
X181363161Y-120815112D01*
X181283854Y-120847057D01*
X181265403Y-120855870D01*
X181117538Y-120904446D01*
X180979675Y-120919963D01*
X180803545Y-120938686D01*
X180637843Y-120989134D01*
X180503603Y-121064227D01*
X180472393Y-121090708D01*
X180404970Y-121138213D01*
X180312439Y-121183843D01*
X180214182Y-121220392D01*
X180129579Y-121240657D01*
X180078012Y-121237434D01*
X180077877Y-121237351D01*
X180044841Y-121247484D01*
X180012970Y-121285567D01*
X179958412Y-121341369D01*
X179878654Y-121390048D01*
X179872348Y-121392808D01*
X179799894Y-121437705D01*
X179756850Y-121490706D01*
X179754728Y-121497078D01*
X179742593Y-121534332D01*
X179721434Y-121552387D01*
X179676884Y-121553063D01*
X179594577Y-121538178D01*
X179533201Y-121525132D01*
X179443238Y-121503004D01*
X179400736Y-121480993D01*
X179393052Y-121449799D01*
X179398802Y-121426270D01*
X179432763Y-121362756D01*
X179460810Y-121336272D01*
X179495910Y-121288271D01*
X179502454Y-121252620D01*
X179495825Y-121220337D01*
X179466984Y-121202405D01*
X179402502Y-121194754D01*
X179306710Y-121193293D01*
X179189809Y-121188541D01*
X179086378Y-121176215D01*
X179030403Y-121162663D01*
X178964591Y-121148809D01*
X178856692Y-121137661D01*
X178725446Y-121130901D01*
X178663639Y-121129737D01*
X178537572Y-121125885D01*
X178435793Y-121117445D01*
X178372691Y-121105878D01*
X178359768Y-121098852D01*
X178325643Y-121072573D01*
X178251210Y-121028787D01*
X178151155Y-120976010D01*
X178128041Y-120964472D01*
X178016383Y-120912077D01*
X177926783Y-120880510D01*
X177835539Y-120864586D01*
X177718947Y-120859117D01*
X177644619Y-120858682D01*
X177512833Y-120860259D01*
X177428802Y-120866691D01*
X177379487Y-120880527D01*
X177351847Y-120904319D01*
X177343764Y-120917521D01*
X177314546Y-121016713D01*
X174798382Y-121016713D01*
X174799405Y-120997841D01*
X174803818Y-120951247D01*
X174808131Y-120852006D01*
X174812161Y-120708310D01*
X174815726Y-120528349D01*
X174818644Y-120320316D01*
X174820731Y-120092401D01*
X174821087Y-120034586D01*
X177044891Y-120034586D01*
X177046983Y-120083288D01*
X177067335Y-120093847D01*
X177108126Y-120073449D01*
X177160528Y-120037116D01*
X177251261Y-119987401D01*
X177341256Y-119957042D01*
X177410419Y-119950740D01*
X177448031Y-119978481D01*
X177469485Y-120025733D01*
X177511625Y-120091353D01*
X177584247Y-120167294D01*
X177669979Y-120238959D01*
X177751449Y-120291754D01*
X177809187Y-120311137D01*
X177863658Y-120332652D01*
X177890239Y-120356766D01*
X177942942Y-120395467D01*
X177971726Y-120402395D01*
X178015032Y-120422071D01*
X178073346Y-120470027D01*
X178130609Y-120529654D01*
X178170762Y-120584343D01*
X178178593Y-120616345D01*
X178191497Y-120647027D01*
X178237957Y-120706487D01*
X178301923Y-120775612D01*
X178438234Y-120913877D01*
X178719386Y-120932184D01*
X178858176Y-120941798D01*
X178986326Y-120951680D01*
X179082822Y-120960175D01*
X179107005Y-120962716D01*
X179176549Y-120966290D01*
X179292046Y-120967473D01*
X179438660Y-120966295D01*
X179601554Y-120962782D01*
X179638211Y-120961696D01*
X179833261Y-120953395D01*
X179974939Y-120941888D01*
X180070670Y-120926292D01*
X180127877Y-120905721D01*
X180132523Y-120902865D01*
X180190251Y-120842705D01*
X180195984Y-120783270D01*
X180157534Y-120736435D01*
X180082713Y-120714074D01*
X180011900Y-120719543D01*
X179892975Y-120736433D01*
X179731064Y-120748854D01*
X179543877Y-120756500D01*
X179349123Y-120759066D01*
X179164513Y-120756247D01*
X179007756Y-120747737D01*
X178924490Y-120738294D01*
X178788304Y-120717845D01*
X178653292Y-120698776D01*
X178551856Y-120685612D01*
X178449835Y-120660558D01*
X178405908Y-120618982D01*
X178420788Y-120564588D01*
X178495187Y-120501075D01*
X178514037Y-120489501D01*
X178595626Y-120422581D01*
X178639716Y-120347763D01*
X178640149Y-120346036D01*
X178672172Y-120262411D01*
X178718832Y-120180776D01*
X178737004Y-120147065D01*
X180091913Y-120147065D01*
X180109123Y-120218066D01*
X180171777Y-120293995D01*
X180266835Y-120363017D01*
X180381257Y-120413292D01*
X180387119Y-120415062D01*
X180471947Y-120435435D01*
X180541256Y-120434656D01*
X180623404Y-120410261D01*
X180674011Y-120390144D01*
X180784187Y-120337946D01*
X180887800Y-120277809D01*
X180926977Y-120250299D01*
X181048711Y-120154504D01*
X181128088Y-120087538D01*
X181171344Y-120041617D01*
X181184712Y-120008960D01*
X181179671Y-119995641D01*
X181387531Y-119995641D01*
X181416867Y-120069167D01*
X181484070Y-120142841D01*
X181563274Y-120194549D01*
X181611008Y-120195889D01*
X181621993Y-120151407D01*
X181590951Y-120065646D01*
X181585582Y-120055439D01*
X181529375Y-119978296D01*
X181467858Y-119933911D01*
X181415679Y-119931729D01*
X181405413Y-119939276D01*
X181387531Y-119995641D01*
X181179671Y-119995641D01*
X181174426Y-119981785D01*
X181157352Y-119962716D01*
X181113780Y-119932405D01*
X181052356Y-119921735D01*
X180953791Y-119927877D01*
X180934713Y-119930061D01*
X180812174Y-119947856D01*
X180692159Y-119970407D01*
X180643173Y-119981827D01*
X180547988Y-120003679D01*
X180422257Y-120028827D01*
X180311527Y-120048666D01*
X180197925Y-120070537D01*
X180131888Y-120092522D01*
X180100411Y-120120450D01*
X180091913Y-120147065D01*
X178737004Y-120147065D01*
X178755337Y-120113057D01*
X178764618Y-120062026D01*
X178763727Y-120059099D01*
X178729299Y-120033293D01*
X178653101Y-119999338D01*
X178552623Y-119962854D01*
X178445353Y-119929463D01*
X178348780Y-119904785D01*
X178280395Y-119894441D01*
X178260362Y-119897331D01*
X178217315Y-119898392D01*
X178139627Y-119881544D01*
X178093804Y-119867344D01*
X177990665Y-119839765D01*
X177920657Y-119842006D01*
X177894281Y-119852686D01*
X177816962Y-119877269D01*
X177747748Y-119884257D01*
X177662095Y-119883245D01*
X177736669Y-119821183D01*
X177821671Y-119775690D01*
X177906738Y-119777037D01*
X178013275Y-119776093D01*
X178112565Y-119748853D01*
X178209281Y-119717854D01*
X178299965Y-119702980D01*
X178309046Y-119702754D01*
X178382188Y-119693562D01*
X178424095Y-119674732D01*
X178470680Y-119648571D01*
X178556566Y-119613961D01*
X178662088Y-119577429D01*
X178767580Y-119545500D01*
X178853376Y-119524700D01*
X178889634Y-119520239D01*
X178957838Y-119534034D01*
X179035085Y-119565680D01*
X179145758Y-119602514D01*
X179280698Y-119606277D01*
X179450793Y-119576717D01*
X179536234Y-119554047D01*
X179622227Y-119530431D01*
X179693271Y-119515982D01*
X179762709Y-119511296D01*
X179843886Y-119516967D01*
X179950146Y-119533589D01*
X180094834Y-119561758D01*
X180202095Y-119583718D01*
X180356640Y-119614137D01*
X180516044Y-119643258D01*
X180652774Y-119666114D01*
X180688802Y-119671517D01*
X180906440Y-119708642D01*
X181102873Y-119753541D01*
X181263834Y-119802581D01*
X181355096Y-119841122D01*
X181424064Y-119873721D01*
X181462023Y-119876654D01*
X181491315Y-119849498D01*
X181499587Y-119838388D01*
X181531818Y-119787525D01*
X181540214Y-119765383D01*
X181518013Y-119724008D01*
X181462451Y-119659996D01*
X181388641Y-119587475D01*
X181311693Y-119520573D01*
X181246718Y-119473420D01*
X181212950Y-119459401D01*
X181143448Y-119437631D01*
X181114670Y-119413772D01*
X181065503Y-119377181D01*
X181017240Y-119370133D01*
X180993176Y-119395413D01*
X180992993Y-119399215D01*
X181017681Y-119433184D01*
X181070227Y-119465476D01*
X181121967Y-119506289D01*
X181136632Y-119552046D01*
X181113931Y-119583649D01*
X181072081Y-119586554D01*
X181019955Y-119565127D01*
X180936417Y-119518230D01*
X180839416Y-119455951D01*
X180838057Y-119455025D01*
X180715733Y-119380457D01*
X180631511Y-119350162D01*
X180600752Y-119351915D01*
X180536768Y-119345633D01*
X180495485Y-119304367D01*
X180447378Y-119258368D01*
X180381387Y-119252495D01*
X180354304Y-119257091D01*
X180246966Y-119255911D01*
X180192781Y-119233752D01*
X180126449Y-119214063D01*
X180016798Y-119204542D01*
X179878879Y-119204114D01*
X179727744Y-119211699D01*
X179578445Y-119226221D01*
X179446034Y-119246600D01*
X179345562Y-119271761D01*
X179294399Y-119298081D01*
X179256153Y-119323447D01*
X179214687Y-119307548D01*
X179186804Y-119284794D01*
X179077682Y-119219810D01*
X178917402Y-119167426D01*
X178787604Y-119141263D01*
X178668701Y-119119201D01*
X178595668Y-119095834D01*
X178553814Y-119064056D01*
X178528449Y-119016760D01*
X178528052Y-119015720D01*
X178480816Y-118961224D01*
X178408695Y-118943901D01*
X178330916Y-118959023D01*
X178266706Y-119001865D01*
X178235289Y-119067699D01*
X178234851Y-119087800D01*
X178230684Y-119140224D01*
X178197151Y-119163329D01*
X178133592Y-119170225D01*
X177927536Y-119186498D01*
X177773271Y-119213307D01*
X177662326Y-119252824D01*
X177586233Y-119307224D01*
X177581850Y-119311798D01*
X177500732Y-119374992D01*
X177416789Y-119405203D01*
X177414049Y-119405448D01*
X177315546Y-119440823D01*
X177221250Y-119522831D01*
X177142748Y-119637716D01*
X177091625Y-119771722D01*
X177086761Y-119794012D01*
X177058877Y-119940556D01*
X177044891Y-120034586D01*
X174821087Y-120034586D01*
X174821175Y-120020199D01*
X174823302Y-119773755D01*
X174826839Y-119532028D01*
X174831520Y-119305959D01*
X174837074Y-119106491D01*
X174843235Y-118944566D01*
X174849734Y-118831126D01*
X174850582Y-118820598D01*
X174870614Y-118557196D01*
X174881403Y-118386289D01*
X177829401Y-118386289D01*
X177851895Y-118418581D01*
X177898004Y-118422627D01*
X177933610Y-118398383D01*
X177980687Y-118365021D01*
X178069990Y-118332091D01*
X178183051Y-118304181D01*
X178301401Y-118285878D01*
X178403580Y-118281635D01*
X178499429Y-118279445D01*
X178566098Y-118266160D01*
X178583366Y-118254800D01*
X178629912Y-118214153D01*
X178650718Y-118203968D01*
X178678595Y-118189426D01*
X178647205Y-118184224D01*
X178646661Y-118184197D01*
X178623767Y-118170775D01*
X180262458Y-118170775D01*
X180277488Y-118239902D01*
X180314755Y-118291451D01*
X180346586Y-118303235D01*
X180381971Y-118319363D01*
X180384610Y-118328527D01*
X180410877Y-118351830D01*
X180476193Y-118378732D01*
X180498682Y-118385521D01*
X180573175Y-118406776D01*
X180616704Y-118419949D01*
X180620359Y-118421305D01*
X180627309Y-118400754D01*
X180627963Y-118384736D01*
X180612094Y-118338390D01*
X180571258Y-118262062D01*
X180533839Y-118202221D01*
X180451437Y-118102388D01*
X180375954Y-118060883D01*
X180309041Y-118078303D01*
X180278774Y-118110029D01*
X180262458Y-118170775D01*
X178623767Y-118170775D01*
X178599400Y-118156490D01*
X178581066Y-118120958D01*
X178540203Y-118069536D01*
X178498622Y-118060119D01*
X178435831Y-118035051D01*
X178416178Y-117999281D01*
X178392101Y-117949968D01*
X178373398Y-117938443D01*
X178351427Y-117912981D01*
X178346526Y-117878675D01*
X178319330Y-117815554D01*
X178250247Y-117770393D01*
X178171151Y-117755928D01*
X178133775Y-117764506D01*
X178099350Y-117796626D01*
X178061825Y-117861862D01*
X178015151Y-117969791D01*
X177981130Y-118056697D01*
X177938235Y-118159448D01*
X177895714Y-118247048D01*
X177873824Y-118284005D01*
X177839460Y-118347370D01*
X177829401Y-118386289D01*
X174881403Y-118386289D01*
X174889378Y-118259960D01*
X174906317Y-117942499D01*
X174920871Y-117618420D01*
X174930782Y-117347751D01*
X177933797Y-117347751D01*
X177935868Y-117349441D01*
X177983375Y-117372175D01*
X178042335Y-117403600D01*
X178145584Y-117441770D01*
X178240774Y-117444460D01*
X178294577Y-117421402D01*
X178334369Y-117389922D01*
X178409003Y-117331970D01*
X178504978Y-117258008D01*
X178545498Y-117226914D01*
X178698000Y-117095471D01*
X178780613Y-116993023D01*
X179976958Y-116993023D01*
X179980407Y-117069618D01*
X179990079Y-117104331D01*
X180039589Y-117167521D01*
X180092313Y-117195059D01*
X180171539Y-117231543D01*
X180215831Y-117267592D01*
X180278577Y-117301830D01*
X180356856Y-117305229D01*
X180421060Y-117278361D01*
X180433845Y-117263386D01*
X180426281Y-117223007D01*
X180380172Y-117160688D01*
X180308095Y-117087471D01*
X180222628Y-117014397D01*
X180136350Y-116952505D01*
X180061838Y-116912838D01*
X180024639Y-116904191D01*
X179993023Y-116930226D01*
X179976958Y-116993023D01*
X178780613Y-116993023D01*
X178793652Y-116976854D01*
X178834148Y-116867337D01*
X178833056Y-116858562D01*
X180278143Y-116858562D01*
X180284568Y-116889490D01*
X180311831Y-116910212D01*
X180371912Y-116924787D01*
X180476792Y-116937271D01*
X180523468Y-116941641D01*
X180670716Y-116958683D01*
X180822808Y-116982162D01*
X180947293Y-117007058D01*
X180949336Y-117007550D01*
X181047189Y-117023849D01*
X181184628Y-117037170D01*
X181346235Y-117047062D01*
X181516590Y-117053074D01*
X181680274Y-117054753D01*
X181821866Y-117051648D01*
X181925947Y-117043308D01*
X181958802Y-117037114D01*
X182017723Y-117014247D01*
X182021043Y-116996155D01*
X181974000Y-116987475D01*
X181905830Y-116990210D01*
X181813492Y-116984457D01*
X181761443Y-116951382D01*
X181757620Y-116898685D01*
X181777574Y-116865780D01*
X181805837Y-116807226D01*
X181819001Y-116752095D01*
X181830895Y-116706827D01*
X181861299Y-116684501D01*
X181926906Y-116677433D01*
X181981616Y-116677246D01*
X182094761Y-116688313D01*
X182200427Y-116714758D01*
X182232574Y-116728148D01*
X182304352Y-116755939D01*
X182333668Y-116749950D01*
X182322841Y-116717585D01*
X182274188Y-116666247D01*
X182194405Y-116606224D01*
X182034968Y-116521730D01*
X181895211Y-116491736D01*
X181777641Y-116516769D01*
X181774430Y-116518403D01*
X181703087Y-116542188D01*
X181614389Y-116540785D01*
X181544976Y-116528793D01*
X181431140Y-116513394D01*
X181335803Y-116524522D01*
X181261339Y-116549018D01*
X181171809Y-116579839D01*
X181101369Y-116598236D01*
X181083234Y-116600465D01*
X181017448Y-116616646D01*
X180997390Y-116627058D01*
X180974144Y-116654937D01*
X180987920Y-116699586D01*
X181008339Y-116732824D01*
X181049005Y-116812273D01*
X181044892Y-116863886D01*
X180992232Y-116890518D01*
X180887259Y-116895025D01*
X180802652Y-116888797D01*
X180686413Y-116872174D01*
X180589944Y-116848903D01*
X180533271Y-116823870D01*
X180531947Y-116822754D01*
X180462864Y-116792685D01*
X180379851Y-116787980D01*
X180307066Y-116804145D01*
X180279701Y-116840180D01*
X180278143Y-116858562D01*
X178833056Y-116858562D01*
X178821183Y-116763194D01*
X178785879Y-116698025D01*
X178713858Y-116639297D01*
X178625534Y-116628994D01*
X178535408Y-116663074D01*
X178457981Y-116737500D01*
X178424076Y-116798821D01*
X178379401Y-116878109D01*
X178329591Y-116899210D01*
X178264200Y-116864303D01*
X178234716Y-116838333D01*
X178176304Y-116794735D01*
X178123204Y-116793598D01*
X178088264Y-116807262D01*
X178024773Y-116848140D01*
X178021766Y-116884073D01*
X178078972Y-116913251D01*
X178105228Y-116919852D01*
X178184508Y-116948171D01*
X178213761Y-116990682D01*
X178192335Y-117052290D01*
X178119578Y-117137903D01*
X178069907Y-117185578D01*
X177994870Y-117259804D01*
X177946568Y-117317446D01*
X177933797Y-117347751D01*
X174930782Y-117347751D01*
X174932482Y-117301332D01*
X174940592Y-117004842D01*
X174944641Y-116742558D01*
X174944557Y-116699837D01*
X175807337Y-116699837D01*
X175821679Y-116751990D01*
X175880395Y-116820605D01*
X175978875Y-116873429D01*
X176125506Y-116914277D01*
X176214142Y-116930537D01*
X176330593Y-116952298D01*
X176427341Y-116975500D01*
X176485065Y-116995447D01*
X176487915Y-116997062D01*
X176531240Y-117005685D01*
X176620826Y-117012099D01*
X176743554Y-117016325D01*
X176886303Y-117018387D01*
X177035955Y-117018305D01*
X177179388Y-117016103D01*
X177303484Y-117011802D01*
X177395123Y-117005425D01*
X177441184Y-116996993D01*
X177443454Y-116995449D01*
X177452814Y-116959243D01*
X177459532Y-116904191D01*
X177753353Y-116904191D01*
X177763979Y-116926882D01*
X177810600Y-116934610D01*
X177875717Y-116923649D01*
X177905448Y-116904191D01*
X177894822Y-116881500D01*
X177848201Y-116873772D01*
X177783084Y-116884734D01*
X177753353Y-116904191D01*
X177459532Y-116904191D01*
X177462392Y-116880754D01*
X177468752Y-116797724D01*
X177479580Y-116615209D01*
X177320974Y-116562582D01*
X177128023Y-116517226D01*
X176895898Y-116492447D01*
X176642822Y-116488652D01*
X176387019Y-116506250D01*
X176186766Y-116537179D01*
X176014632Y-116576054D01*
X175897686Y-116613962D01*
X175830422Y-116654143D01*
X175807337Y-116699837D01*
X174944557Y-116699837D01*
X174944242Y-116539161D01*
X174945737Y-116202279D01*
X174947939Y-116162365D01*
X175365448Y-116162365D01*
X175368418Y-116208568D01*
X175387412Y-116230033D01*
X175437554Y-116232476D01*
X175525149Y-116222718D01*
X175636905Y-116209193D01*
X175779199Y-116192601D01*
X175922087Y-116176432D01*
X175928203Y-116175753D01*
X176069979Y-116159243D01*
X176243182Y-116137917D01*
X176418983Y-116115357D01*
X176490957Y-116105799D01*
X176698333Y-116084418D01*
X176897045Y-116079479D01*
X177107881Y-116091518D01*
X177351633Y-116121074D01*
X177408852Y-116129542D01*
X177508914Y-116138194D01*
X177580570Y-116122867D01*
X177641691Y-116086572D01*
X177720139Y-116042814D01*
X177790456Y-116022258D01*
X177796072Y-116022035D01*
X177847083Y-116011303D01*
X177859099Y-115996244D01*
X180799243Y-115996244D01*
X180814433Y-116078562D01*
X180865420Y-116136107D01*
X180894338Y-116156247D01*
X180927347Y-116167866D01*
X180975828Y-116170728D01*
X181051162Y-116164594D01*
X181164730Y-116149228D01*
X181312395Y-116126790D01*
X181480174Y-116102209D01*
X181661699Y-116077723D01*
X181825409Y-116057533D01*
X181871090Y-116052427D01*
X182032639Y-116029515D01*
X182139834Y-115998981D01*
X182199072Y-115956528D01*
X182216746Y-115897860D01*
X182203000Y-115829420D01*
X182173164Y-115748533D01*
X182139841Y-115691965D01*
X182092485Y-115655743D01*
X182020553Y-115635891D01*
X181913501Y-115628435D01*
X181760784Y-115629401D01*
X181677772Y-115631433D01*
X181511364Y-115636765D01*
X181390293Y-115644326D01*
X181299063Y-115656877D01*
X181222175Y-115677179D01*
X181144130Y-115707992D01*
X181078767Y-115738119D01*
X180933648Y-115821847D01*
X180839727Y-115909280D01*
X180799243Y-115996244D01*
X177859099Y-115996244D01*
X177859820Y-115995341D01*
X177829649Y-115942293D01*
X177739970Y-115892705D01*
X177592030Y-115846883D01*
X177387075Y-115805130D01*
X177126355Y-115767755D01*
X176811117Y-115735061D01*
X176789493Y-115733168D01*
X176500563Y-115711578D01*
X176262816Y-115702209D01*
X176067722Y-115705648D01*
X175906747Y-115722485D01*
X175771361Y-115753307D01*
X175653030Y-115798702D01*
X175622800Y-115813583D01*
X175510251Y-115893864D01*
X175422339Y-115998675D01*
X175372222Y-116110184D01*
X175365448Y-116162365D01*
X174947939Y-116162365D01*
X174961363Y-115918986D01*
X174991863Y-115683526D01*
X175037978Y-115490142D01*
X175099384Y-115335204D01*
X175145887Y-115234633D01*
X175181880Y-115143338D01*
X175193368Y-115105853D01*
X175218154Y-115037960D01*
X175263672Y-114940402D01*
X175312949Y-114847291D01*
X175413393Y-114668383D01*
X175670798Y-114649739D01*
X175806396Y-114638542D01*
X175965537Y-114623236D01*
X176136953Y-114605158D01*
X176309376Y-114585647D01*
X176471537Y-114566040D01*
X176612169Y-114547676D01*
X176720004Y-114531891D01*
X176783773Y-114520025D01*
X176795243Y-114516229D01*
X176853064Y-114502590D01*
X176959084Y-114498072D01*
X177101444Y-114502080D01*
G37*
G36*
X183341813Y-120636677D02*
G01*
X183359024Y-120730642D01*
X183372075Y-120859132D01*
X183375596Y-120916279D01*
X183367788Y-120995054D01*
X183339942Y-121035072D01*
X183300015Y-121025896D01*
X183295344Y-121021551D01*
X183282477Y-120978540D01*
X183276120Y-120895791D01*
X183275923Y-120794016D01*
X183281535Y-120693927D01*
X183292607Y-120616237D01*
X183302681Y-120587377D01*
X183322384Y-120586001D01*
X183341813Y-120636677D01*
G37*
G36*
X183304850Y-120052574D02*
G01*
X183289640Y-120067784D01*
X183274430Y-120052574D01*
X183289640Y-120037365D01*
X183304850Y-120052574D01*
G37*
G36*
X183020937Y-119165349D02*
G01*
X183016762Y-119183433D01*
X183000658Y-119185628D01*
X182975620Y-119174498D01*
X182980379Y-119165349D01*
X183016479Y-119161708D01*
X183020937Y-119165349D01*
G37*
G36*
X181296301Y-116744824D02*
G01*
X181297185Y-116752095D01*
X181274037Y-116781631D01*
X181266766Y-116782515D01*
X181237231Y-116759366D01*
X181236347Y-116752095D01*
X181259495Y-116722560D01*
X181266766Y-116721676D01*
X181296301Y-116744824D01*
G37*
G36*
X181565810Y-116738102D02*
G01*
X181570957Y-116752095D01*
X181546319Y-116779083D01*
X181525329Y-116782515D01*
X181484848Y-116766089D01*
X181479700Y-116752095D01*
X181504338Y-116725108D01*
X181525329Y-116721676D01*
X181565810Y-116738102D01*
G37*
G36*
X176716874Y-116637398D02*
G01*
X176733216Y-116660382D01*
X176734645Y-116679415D01*
X176739762Y-116747530D01*
X176751847Y-116838619D01*
X176753835Y-116850958D01*
X176762665Y-116925080D01*
X176750349Y-116956572D01*
X176708779Y-116962226D01*
X176700267Y-116961916D01*
X176615950Y-116951774D01*
X176536586Y-116935341D01*
X176392182Y-116890090D01*
X176305481Y-116843709D01*
X176278023Y-116799178D01*
X176306554Y-116741342D01*
X176384622Y-116690740D01*
X176500939Y-116653341D01*
X176578367Y-116640414D01*
X176670199Y-116631975D01*
X176716874Y-116637398D01*
G37*
G36*
X177063642Y-116714686D02*
G01*
X177068921Y-116735091D01*
X177052081Y-116784881D01*
X177016143Y-116801805D01*
X176997116Y-116791827D01*
X176977345Y-116743467D01*
X176995525Y-116701198D01*
X177023293Y-116691257D01*
X177063642Y-116714686D01*
G37*
G36*
X177308843Y-116715895D02*
G01*
X177312275Y-116736886D01*
X177295849Y-116777367D01*
X177281856Y-116782515D01*
X177254868Y-116757876D01*
X177251436Y-116736886D01*
X177267862Y-116696405D01*
X177281856Y-116691257D01*
X177308843Y-116715895D01*
G37*
G36*
X122069849Y-127902864D02*
G01*
X122076248Y-127905890D01*
X122090971Y-127919183D01*
X122106492Y-127942005D01*
X122120524Y-127969809D01*
X122130775Y-127998048D01*
X122134957Y-128022174D01*
X122134962Y-128022504D01*
X122136758Y-128040418D01*
X122141176Y-128066210D01*
X122146294Y-128090057D01*
X122157660Y-128143616D01*
X122167123Y-128201155D01*
X122175416Y-128267297D01*
X122177438Y-128286152D01*
X122180945Y-128315429D01*
X122184675Y-128339511D01*
X122188000Y-128354561D01*
X122189043Y-128357138D01*
X122192316Y-128368004D01*
X122196136Y-128388833D01*
X122199708Y-128415240D01*
X122199890Y-128416844D01*
X122207277Y-128462035D01*
X122220306Y-128514127D01*
X122239592Y-128575431D01*
X122249983Y-128605262D01*
X122263773Y-128644637D01*
X122277458Y-128684962D01*
X122289623Y-128721978D01*
X122298855Y-128751425D01*
X122301424Y-128760184D01*
X122307729Y-128780334D01*
X122316994Y-128807587D01*
X122325829Y-128832241D01*
X122335289Y-128857932D01*
X122348002Y-128892473D01*
X122362247Y-128931186D01*
X122375245Y-128966514D01*
X122401242Y-129043561D01*
X122425907Y-129128648D01*
X122447502Y-129215408D01*
X122461559Y-129282596D01*
X122468069Y-129316451D01*
X122474838Y-129350557D01*
X122481236Y-129381867D01*
X122486633Y-129407334D01*
X122490399Y-129423911D01*
X122491753Y-129428644D01*
X122498470Y-129427052D01*
X122515661Y-129421204D01*
X122540394Y-129412128D01*
X122558504Y-129405225D01*
X122587786Y-129394312D01*
X122612699Y-129385756D01*
X122629744Y-129380720D01*
X122634620Y-129379872D01*
X122645819Y-129376559D01*
X122667774Y-129367259D01*
X122698613Y-129352931D01*
X122736466Y-129334533D01*
X122779460Y-129313024D01*
X122825724Y-129289362D01*
X122873387Y-129264507D01*
X122920578Y-129239416D01*
X122965425Y-129215048D01*
X123006057Y-129192363D01*
X123040602Y-129172318D01*
X123045290Y-129169509D01*
X123082406Y-129147391D01*
X123116785Y-129127329D01*
X123145898Y-129110766D01*
X123167213Y-129099147D01*
X123176791Y-129094448D01*
X123195049Y-129084771D01*
X123218324Y-129069793D01*
X123234436Y-129058136D01*
X123260040Y-129038534D01*
X123289451Y-129015988D01*
X123309234Y-129000807D01*
X123333433Y-128981228D01*
X123359845Y-128958254D01*
X123386209Y-128934057D01*
X123410267Y-128910811D01*
X123429760Y-128890691D01*
X123442428Y-128875870D01*
X123446141Y-128869077D01*
X123452269Y-128860370D01*
X123467220Y-128850767D01*
X123485850Y-128842915D01*
X123503013Y-128839457D01*
X123503787Y-128839447D01*
X123533151Y-128845920D01*
X123556103Y-128863973D01*
X123570906Y-128891556D01*
X123575844Y-128924656D01*
X123572327Y-128945223D01*
X123563057Y-128973605D01*
X123549954Y-129005415D01*
X123534938Y-129036268D01*
X123519927Y-129061780D01*
X123510378Y-129074191D01*
X123501843Y-129086352D01*
X123488914Y-129108421D01*
X123473340Y-129137274D01*
X123456870Y-129169782D01*
X123456741Y-129170045D01*
X123436760Y-129208714D01*
X123413964Y-129249583D01*
X123391555Y-129287052D01*
X123377142Y-129309245D01*
X123356735Y-129340225D01*
X123336849Y-129372413D01*
X123320813Y-129400358D01*
X123316529Y-129408518D01*
X123299877Y-129438211D01*
X123279925Y-129469308D01*
X123268686Y-129484927D01*
X123250911Y-129509739D01*
X123227463Y-129544866D01*
X123199714Y-129588050D01*
X123169032Y-129637030D01*
X123136786Y-129689547D01*
X123104347Y-129743344D01*
X123073084Y-129796160D01*
X123044366Y-129845737D01*
X123019562Y-129889814D01*
X123000042Y-129926135D01*
X122993875Y-129938277D01*
X122978998Y-129965929D01*
X122962048Y-129994158D01*
X122955179Y-130004582D01*
X122938967Y-130030929D01*
X122923792Y-130059939D01*
X122920028Y-130068246D01*
X122906283Y-130094766D01*
X122888499Y-130122293D01*
X122881401Y-130131643D01*
X122864422Y-130154529D01*
X122849412Y-130177921D01*
X122844496Y-130186908D01*
X122833228Y-130207029D01*
X122822118Y-130223240D01*
X122820811Y-130224797D01*
X122811584Y-130237227D01*
X122798015Y-130257704D01*
X122783021Y-130281825D01*
X122782832Y-130282139D01*
X122755964Y-130326811D01*
X122776112Y-130363143D01*
X122788443Y-130388038D01*
X122798005Y-130412088D01*
X122801219Y-130423338D01*
X122808020Y-130444639D01*
X122819109Y-130469364D01*
X122823434Y-130477380D01*
X122833758Y-130497466D01*
X122840088Y-130513677D01*
X122840991Y-130518369D01*
X122843760Y-130527345D01*
X122851991Y-130546342D01*
X122865916Y-130575833D01*
X122885767Y-130616294D01*
X122911775Y-130668197D01*
X122944171Y-130732017D01*
X122970294Y-130783098D01*
X122985530Y-130809967D01*
X123002816Y-130836416D01*
X123011419Y-130847949D01*
X123027368Y-130869478D01*
X123041087Y-130890754D01*
X123044376Y-130896683D01*
X123057445Y-130916852D01*
X123071446Y-130932695D01*
X123093172Y-130959700D01*
X123104902Y-130990215D01*
X123106661Y-131021057D01*
X123098471Y-131049047D01*
X123080354Y-131071003D01*
X123070401Y-131077349D01*
X123040615Y-131086376D01*
X123011105Y-131081958D01*
X122980839Y-131063800D01*
X122962099Y-131046408D01*
X122945023Y-131033226D01*
X122920088Y-131019182D01*
X122897248Y-131009148D01*
X122873490Y-130999436D01*
X122840836Y-130985085D01*
X122803280Y-130967896D01*
X122764818Y-130949672D01*
X122758000Y-130946369D01*
X122718897Y-130927859D01*
X122679047Y-130909866D01*
X122642776Y-130894291D01*
X122614412Y-130883035D01*
X122611205Y-130881872D01*
X122581116Y-130870204D01*
X122544053Y-130854462D01*
X122505856Y-130837173D01*
X122486315Y-130827839D01*
X122414547Y-130792743D01*
X122366500Y-130847681D01*
X122342998Y-130874107D01*
X122313145Y-130907022D01*
X122280540Y-130942489D01*
X122248781Y-130976572D01*
X122244463Y-130981162D01*
X122217315Y-131010403D01*
X122192900Y-131037483D01*
X122173356Y-131059974D01*
X122160819Y-131075448D01*
X122158285Y-131079065D01*
X122147681Y-131093452D01*
X122130427Y-131114336D01*
X122109812Y-131137774D01*
X122104483Y-131143608D01*
X122083475Y-131167652D01*
X122065111Y-131190863D01*
X122052708Y-131208996D01*
X122051016Y-131212062D01*
X122043328Y-131226399D01*
X122035382Y-131238405D01*
X122024005Y-131252332D01*
X122006024Y-131272428D01*
X122005507Y-131272997D01*
X121992744Y-131290788D01*
X121981019Y-131312828D01*
X121980018Y-131315153D01*
X121969102Y-131335632D01*
X121952849Y-131360036D01*
X121941522Y-131374765D01*
X121924515Y-131397501D01*
X121910327Y-131420078D01*
X121904440Y-131431963D01*
X121894252Y-131450178D01*
X121882350Y-131462363D01*
X121881512Y-131462846D01*
X121870839Y-131473091D01*
X121857872Y-131491669D01*
X121849822Y-131506064D01*
X121827626Y-131538940D01*
X121801114Y-131560300D01*
X121772091Y-131569313D01*
X121742365Y-131565146D01*
X121731984Y-131560341D01*
X121710235Y-131540632D01*
X121697523Y-131512896D01*
X121695418Y-131496299D01*
X121699693Y-131473756D01*
X121711478Y-131444945D01*
X121728529Y-131414204D01*
X121748602Y-131385874D01*
X121758229Y-131374850D01*
X121776446Y-131352398D01*
X121792166Y-131327707D01*
X121796171Y-131319702D01*
X121806157Y-131301335D01*
X121815862Y-131289532D01*
X121818646Y-131287846D01*
X121824469Y-131283003D01*
X121822396Y-131272105D01*
X121819376Y-131265046D01*
X121812802Y-131246864D01*
X121811679Y-131229682D01*
X121816708Y-131209848D01*
X121828589Y-131183711D01*
X121838616Y-131164738D01*
X121853812Y-131133252D01*
X121867103Y-131099605D01*
X121875728Y-131070827D01*
X121875996Y-131069603D01*
X121883479Y-131043249D01*
X121895576Y-131009878D01*
X121910146Y-130975202D01*
X121916287Y-130962041D01*
X121929603Y-130933226D01*
X121931384Y-130928967D01*
X122084269Y-130928967D01*
X122088850Y-130926238D01*
X122101312Y-130914920D01*
X122119733Y-130896988D01*
X122142192Y-130874417D01*
X122166766Y-130849181D01*
X122191534Y-130823255D01*
X122214574Y-130798615D01*
X122233964Y-130777234D01*
X122247783Y-130761088D01*
X122248475Y-130760226D01*
X122271109Y-130731871D01*
X122208313Y-130702006D01*
X122179009Y-130688084D01*
X122159313Y-130680498D01*
X122146896Y-130680746D01*
X122139429Y-130690324D01*
X122134583Y-130710730D01*
X122130030Y-130743462D01*
X122128742Y-130753172D01*
X122122136Y-130790980D01*
X122112514Y-130832830D01*
X122102597Y-130867581D01*
X122094105Y-130894195D01*
X122087702Y-130915406D01*
X122084463Y-130927613D01*
X122084269Y-130928967D01*
X121931384Y-130928967D01*
X121940066Y-130908207D01*
X121946270Y-130890481D01*
X121947361Y-130884846D01*
X121949913Y-130871167D01*
X121956465Y-130849876D01*
X121962143Y-130834479D01*
X121969958Y-130810001D01*
X121978081Y-130776981D01*
X121985150Y-130741194D01*
X121987297Y-130727929D01*
X121992635Y-130694781D01*
X121995582Y-130678553D01*
X122509404Y-130678553D01*
X122515561Y-130683064D01*
X122532037Y-130691727D01*
X122555838Y-130703174D01*
X122583971Y-130716036D01*
X122613443Y-130728945D01*
X122641260Y-130740531D01*
X122664326Y-130749389D01*
X122688570Y-130758548D01*
X122719935Y-130771053D01*
X122752339Y-130784471D01*
X122758000Y-130786875D01*
X122784031Y-130797759D01*
X122804409Y-130805857D01*
X122816008Y-130809944D01*
X122817509Y-130810172D01*
X122815352Y-130803573D01*
X122808093Y-130786610D01*
X122796887Y-130761897D01*
X122783760Y-130733875D01*
X122767979Y-130701503D01*
X122752813Y-130671892D01*
X122740190Y-130648724D01*
X122733188Y-130637262D01*
X122721161Y-130615303D01*
X122711403Y-130589994D01*
X122710501Y-130586822D01*
X122702840Y-130563802D01*
X122691494Y-130535734D01*
X122683549Y-130518369D01*
X122664326Y-130478737D01*
X122613011Y-130540481D01*
X122586786Y-130572597D01*
X122562016Y-130603945D01*
X122540303Y-130632391D01*
X122523250Y-130655799D01*
X122512458Y-130672035D01*
X122509404Y-130678553D01*
X121995582Y-130678553D01*
X121998183Y-130664232D01*
X122003057Y-130641016D01*
X122004849Y-130634028D01*
X122007583Y-130612507D01*
X122000094Y-130600722D01*
X121986356Y-130597741D01*
X121976760Y-130593974D01*
X121957195Y-130583640D01*
X121929773Y-130568027D01*
X121896610Y-130548421D01*
X121859818Y-130526109D01*
X121859587Y-130525966D01*
X122177943Y-130525966D01*
X122184081Y-130530721D01*
X122200642Y-130539792D01*
X122224844Y-130551723D01*
X122244595Y-130560883D01*
X122275478Y-130574904D01*
X122303717Y-130587781D01*
X122325225Y-130597646D01*
X122332865Y-130601188D01*
X122350772Y-130608035D01*
X122365078Y-130608158D01*
X122378996Y-130600084D01*
X122395736Y-130582340D01*
X122408378Y-130566558D01*
X122426143Y-130544047D01*
X122449826Y-130514390D01*
X122476216Y-130481592D01*
X122499945Y-130452311D01*
X122524479Y-130420854D01*
X122547333Y-130389219D01*
X122565910Y-130361142D01*
X122577401Y-130340816D01*
X122586178Y-130320198D01*
X122590710Y-130301822D01*
X122590595Y-130282696D01*
X122585429Y-130259830D01*
X122574809Y-130230232D01*
X122558331Y-130190912D01*
X122556668Y-130187073D01*
X122543605Y-130154802D01*
X122532124Y-130122585D01*
X122524184Y-130096042D01*
X122522738Y-130089796D01*
X122516725Y-130064282D01*
X122508065Y-130032013D01*
X122498621Y-129999922D01*
X122498509Y-129999560D01*
X122488608Y-129966837D01*
X122477036Y-129927296D01*
X122465864Y-129888035D01*
X122462813Y-129877064D01*
X122452080Y-129838639D01*
X122440269Y-129797067D01*
X122429503Y-129759806D01*
X122426907Y-129750964D01*
X122417433Y-129718760D01*
X122408158Y-129687068D01*
X122400908Y-129662130D01*
X122400204Y-129659692D01*
X122390510Y-129626065D01*
X122332865Y-129649286D01*
X122275219Y-129672508D01*
X122270524Y-129891878D01*
X122269098Y-129948826D01*
X122267355Y-130002955D01*
X122265393Y-130052071D01*
X122263314Y-130093979D01*
X122261219Y-130126483D01*
X122259208Y-130147390D01*
X122258671Y-130150879D01*
X122249195Y-130200743D01*
X122237988Y-130255693D01*
X122226423Y-130309182D01*
X122216365Y-130352638D01*
X122208895Y-130384040D01*
X122200970Y-130418332D01*
X122193270Y-130452439D01*
X122186478Y-130483286D01*
X122181276Y-130507797D01*
X122178344Y-130522898D01*
X122177943Y-130525966D01*
X121859587Y-130525966D01*
X121821511Y-130502378D01*
X121783804Y-130478515D01*
X121748809Y-130455807D01*
X121718642Y-130435541D01*
X121709574Y-130429234D01*
X121655950Y-130391427D01*
X121612501Y-130360591D01*
X121577559Y-130335481D01*
X121549459Y-130314852D01*
X121526533Y-130297460D01*
X121507116Y-130282059D01*
X121489542Y-130267406D01*
X121472143Y-130252254D01*
X121469541Y-130249947D01*
X121441858Y-130226222D01*
X121413187Y-130203063D01*
X121388452Y-130184407D01*
X121381716Y-130179723D01*
X121361608Y-130164714D01*
X121335002Y-130142779D01*
X121305664Y-130117107D01*
X121282485Y-130095759D01*
X121250663Y-130066659D01*
X121215540Y-130036112D01*
X121182200Y-130008473D01*
X121163591Y-129993901D01*
X121136351Y-129973967D01*
X121101996Y-129949802D01*
X121063489Y-129923389D01*
X121023794Y-129896715D01*
X120985875Y-129871762D01*
X120952693Y-129850515D01*
X120943068Y-129844638D01*
X121203483Y-129844638D01*
X121238557Y-129869740D01*
X121256484Y-129883518D01*
X121282188Y-129904521D01*
X121312754Y-129930311D01*
X121345269Y-129958448D01*
X121359077Y-129970619D01*
X121391056Y-129998625D01*
X121421863Y-130024967D01*
X121448739Y-130047333D01*
X121468929Y-130063409D01*
X121475154Y-130068014D01*
X121494452Y-130082669D01*
X121520030Y-130103489D01*
X121547545Y-130126904D01*
X121559042Y-130137014D01*
X121588210Y-130162036D01*
X121619542Y-130187437D01*
X121647615Y-130208861D01*
X121655532Y-130214519D01*
X121679413Y-130231299D01*
X121710562Y-130253380D01*
X121744562Y-130277624D01*
X121770822Y-130296451D01*
X121805343Y-130320658D01*
X121843416Y-130346328D01*
X121882976Y-130372178D01*
X121921956Y-130396926D01*
X121958287Y-130419286D01*
X121989905Y-130437978D01*
X122014742Y-130451717D01*
X122030730Y-130459221D01*
X122034635Y-130460230D01*
X122041855Y-130456554D01*
X122048355Y-130443440D01*
X122055066Y-130418766D01*
X122057325Y-130408482D01*
X122064639Y-130373856D01*
X122073029Y-130333946D01*
X122080427Y-130298596D01*
X122088076Y-130262902D01*
X122097291Y-130221298D01*
X122106275Y-130181883D01*
X122107622Y-130176099D01*
X122112423Y-130153712D01*
X122116221Y-130130830D01*
X122119178Y-130105206D01*
X122121453Y-130074593D01*
X122123205Y-130036745D01*
X122124594Y-129989413D01*
X122125779Y-129930352D01*
X122125998Y-129917399D01*
X122126904Y-129859523D01*
X122127429Y-129814508D01*
X122127497Y-129780806D01*
X122127031Y-129756869D01*
X122125958Y-129741149D01*
X122124201Y-129732099D01*
X122121685Y-129728172D01*
X122118334Y-129727819D01*
X122116773Y-129728320D01*
X122089075Y-129737318D01*
X122049996Y-129747772D01*
X122002421Y-129759095D01*
X121949234Y-129770703D01*
X121893322Y-129782010D01*
X121837568Y-129792433D01*
X121784858Y-129801386D01*
X121738077Y-129808283D01*
X121702368Y-129812346D01*
X121664326Y-129816117D01*
X121628318Y-129820391D01*
X121598533Y-129824627D01*
X121579872Y-129828113D01*
X121563456Y-129830513D01*
X121535132Y-129832997D01*
X121497403Y-129835413D01*
X121452770Y-129837615D01*
X121403737Y-129839454D01*
X121375465Y-129840264D01*
X121203483Y-129844638D01*
X120943068Y-129844638D01*
X120927214Y-129834958D01*
X120920553Y-129831163D01*
X120902335Y-129820991D01*
X120888357Y-129812991D01*
X120888127Y-129812855D01*
X120875076Y-129806297D01*
X120854954Y-129797303D01*
X120846198Y-129793614D01*
X120816872Y-129775365D01*
X120799664Y-129750909D01*
X120795334Y-129722131D01*
X120804642Y-129690915D01*
X120804722Y-129690761D01*
X120823128Y-129669719D01*
X120849981Y-129657144D01*
X120881547Y-129653798D01*
X120914095Y-129660443D01*
X120926315Y-129665942D01*
X120940365Y-129672228D01*
X120957684Y-129677452D01*
X120979751Y-129681742D01*
X121008043Y-129685226D01*
X121044038Y-129688031D01*
X121089214Y-129690287D01*
X121145050Y-129692121D01*
X121213022Y-129693660D01*
X121255177Y-129694412D01*
X121322658Y-129695383D01*
X121377770Y-129695791D01*
X121422547Y-129695579D01*
X121459022Y-129694696D01*
X121489228Y-129693087D01*
X121515199Y-129690698D01*
X121538969Y-129687475D01*
X121543404Y-129686763D01*
X121581324Y-129681148D01*
X121626568Y-129675345D01*
X121672086Y-129670227D01*
X121695163Y-129667976D01*
X121776989Y-129657642D01*
X121871240Y-129640309D01*
X121977979Y-129615965D01*
X122037432Y-129600796D01*
X122104968Y-129583013D01*
X122529858Y-129583013D01*
X122534311Y-129599598D01*
X122541698Y-129626465D01*
X122551019Y-129660034D01*
X122561274Y-129696723D01*
X122571464Y-129732950D01*
X122580589Y-129765134D01*
X122584784Y-129779787D01*
X122604267Y-129847714D01*
X122620091Y-129903372D01*
X122632689Y-129948311D01*
X122642496Y-129984081D01*
X122649944Y-130012231D01*
X122651314Y-130017574D01*
X122660165Y-130049330D01*
X122670200Y-130080670D01*
X122680296Y-130108587D01*
X122689331Y-130130074D01*
X122696183Y-130142124D01*
X122698370Y-130143674D01*
X122704481Y-130137833D01*
X122713934Y-130123027D01*
X122718940Y-130113731D01*
X122732267Y-130090949D01*
X122750169Y-130064448D01*
X122762320Y-130048232D01*
X122777068Y-130028221D01*
X122787245Y-130011822D01*
X122790425Y-130003633D01*
X122794135Y-129993558D01*
X122803938Y-129975222D01*
X122817847Y-129952298D01*
X122820329Y-129948436D01*
X122839370Y-129917896D01*
X122859075Y-129884482D01*
X122873214Y-129859049D01*
X122896120Y-129817084D01*
X122924279Y-129767218D01*
X122955215Y-129713714D01*
X122986451Y-129660835D01*
X123015510Y-129612841D01*
X123028178Y-129592440D01*
X123047514Y-129561362D01*
X123066147Y-129530948D01*
X123081352Y-129505663D01*
X123087496Y-129495163D01*
X123100898Y-129473606D01*
X123119489Y-129445955D01*
X123139671Y-129417533D01*
X123143527Y-129412298D01*
X123163646Y-129383759D01*
X123182760Y-129354239D01*
X123197244Y-129329383D01*
X123199085Y-129325830D01*
X123213379Y-129299707D01*
X123231494Y-129269593D01*
X123244949Y-129248840D01*
X123272673Y-129207879D01*
X123245918Y-129220061D01*
X123230399Y-129228034D01*
X123205487Y-129241877D01*
X123174081Y-129259935D01*
X123139080Y-129280553D01*
X123121886Y-129290853D01*
X123087421Y-129310945D01*
X123045682Y-129334198D01*
X122998694Y-129359586D01*
X122948478Y-129386083D01*
X122897057Y-129412662D01*
X122846455Y-129438297D01*
X122798693Y-129461961D01*
X122755794Y-129482629D01*
X122719782Y-129499273D01*
X122692678Y-129510868D01*
X122678273Y-129515955D01*
X122649287Y-129524902D01*
X122618231Y-129536302D01*
X122587978Y-129548857D01*
X122561401Y-129561269D01*
X122541374Y-129572239D01*
X122530771Y-129580469D01*
X122529858Y-129583013D01*
X122104968Y-129583013D01*
X122123900Y-129578028D01*
X122123373Y-129383475D01*
X122122890Y-129325100D01*
X122121817Y-129265287D01*
X122120256Y-129207422D01*
X122118309Y-129154894D01*
X122116078Y-129111089D01*
X122114453Y-129088042D01*
X122112808Y-129066425D01*
X122257761Y-129066425D01*
X122261303Y-129113262D01*
X122262466Y-129133797D01*
X122263810Y-129166061D01*
X122265246Y-129207377D01*
X122266686Y-129255065D01*
X122268040Y-129306446D01*
X122268786Y-129338440D01*
X122269916Y-129387417D01*
X122271019Y-129431254D01*
X122272040Y-129468011D01*
X122272922Y-129495751D01*
X122273609Y-129512535D01*
X122273972Y-129516774D01*
X122280782Y-129514420D01*
X122296964Y-129508374D01*
X122311248Y-129502924D01*
X122347276Y-129489079D01*
X122346088Y-129455846D01*
X122343924Y-129433512D01*
X122339176Y-129402630D01*
X122332721Y-129368644D01*
X122330039Y-129356207D01*
X122321207Y-129316425D01*
X122311260Y-129271133D01*
X122302081Y-129228916D01*
X122300450Y-129221347D01*
X122292181Y-129185326D01*
X122282941Y-129148797D01*
X122274328Y-129117988D01*
X122271742Y-129109659D01*
X122257761Y-129066425D01*
X122112808Y-129066425D01*
X122111415Y-129048124D01*
X122108043Y-128998157D01*
X122104606Y-128942492D01*
X122101373Y-128885480D01*
X122098670Y-128832648D01*
X122096150Y-128785233D01*
X122093341Y-128741227D01*
X122090444Y-128703197D01*
X122087660Y-128673710D01*
X122085189Y-128655331D01*
X122084576Y-128652506D01*
X122081425Y-128636776D01*
X122077025Y-128609777D01*
X122071832Y-128574554D01*
X122066301Y-128534147D01*
X122062709Y-128506303D01*
X122056739Y-128462844D01*
X122050127Y-128421348D01*
X122043485Y-128385252D01*
X122037429Y-128357995D01*
X122034352Y-128347377D01*
X122026126Y-128318024D01*
X122019116Y-128283664D01*
X122016113Y-128262592D01*
X122012302Y-128233224D01*
X122007677Y-128205429D01*
X122004331Y-128189782D01*
X121998076Y-128162501D01*
X121991185Y-128127991D01*
X121984286Y-128089986D01*
X121978010Y-128052220D01*
X121972983Y-128018427D01*
X121969836Y-127992341D01*
X121969088Y-127980509D01*
X121974408Y-127945657D01*
X121989269Y-127918987D01*
X122011546Y-127901979D01*
X122039114Y-127896111D01*
X122069849Y-127902864D01*
G37*
G36*
X130011436Y-121566750D02*
G01*
X130032391Y-121574651D01*
X130053229Y-121592082D01*
X130055293Y-121594130D01*
X130071549Y-121612033D01*
X130080331Y-121628672D01*
X130083902Y-121650681D01*
X130084532Y-121679860D01*
X130082918Y-121716070D01*
X130076725Y-121742433D01*
X130063925Y-121766804D01*
X130060914Y-121771360D01*
X130044236Y-121800995D01*
X130028262Y-121837171D01*
X130021720Y-121855560D01*
X130011932Y-121884123D01*
X130003062Y-121906077D01*
X129998590Y-121914361D01*
X129993146Y-121927386D01*
X129985839Y-121952750D01*
X129978161Y-121985222D01*
X129977414Y-121988736D01*
X129969706Y-122022642D01*
X129962234Y-122050963D01*
X129956532Y-122067924D01*
X129956226Y-122068562D01*
X129951620Y-122083856D01*
X129945753Y-122111905D01*
X129939619Y-122147720D01*
X129937169Y-122164117D01*
X129931080Y-122202855D01*
X129924706Y-122237059D01*
X129919114Y-122261207D01*
X129917369Y-122266720D01*
X129912430Y-122284512D01*
X129905617Y-122315199D01*
X129897939Y-122354021D01*
X129892305Y-122385112D01*
X129884999Y-122425103D01*
X129878210Y-122458730D01*
X129872791Y-122481959D01*
X129870021Y-122490338D01*
X129866490Y-122502494D01*
X129861352Y-122528196D01*
X129855389Y-122563260D01*
X129851154Y-122591065D01*
X129844132Y-122634814D01*
X129836273Y-122676619D01*
X129828792Y-122710285D01*
X129825276Y-122723095D01*
X129817013Y-122755669D01*
X129809618Y-122794883D01*
X129806521Y-122817004D01*
X129801047Y-122852770D01*
X129793693Y-122886772D01*
X129788845Y-122903331D01*
X129781938Y-122927338D01*
X129773616Y-122962555D01*
X129765366Y-123002541D01*
X129763015Y-123015127D01*
X129754226Y-123058337D01*
X129743851Y-123101725D01*
X129733837Y-123137277D01*
X129731809Y-123143448D01*
X129719625Y-123181593D01*
X129707168Y-123224487D01*
X129701359Y-123246300D01*
X129690927Y-123287431D01*
X129679552Y-123332300D01*
X129674148Y-123353624D01*
X129642133Y-123491181D01*
X129618472Y-123619433D01*
X129602141Y-123744305D01*
X129596925Y-123800807D01*
X129587186Y-123895447D01*
X129574600Y-123974848D01*
X129559356Y-124037865D01*
X129556550Y-124046757D01*
X129547366Y-124079683D01*
X129536751Y-124125792D01*
X129525639Y-124180540D01*
X129514963Y-124239381D01*
X129507382Y-124286218D01*
X129504927Y-124308427D01*
X129501899Y-124345367D01*
X129498510Y-124393902D01*
X129494969Y-124450894D01*
X129491487Y-124513204D01*
X129489382Y-124554528D01*
X129485981Y-124616786D01*
X129482184Y-124674062D01*
X129478224Y-124723622D01*
X129474338Y-124762733D01*
X129470759Y-124788661D01*
X129468517Y-124797604D01*
X129453225Y-124818457D01*
X129425333Y-124845015D01*
X129388189Y-124874890D01*
X129345142Y-124905692D01*
X129299543Y-124935033D01*
X129254741Y-124960522D01*
X129214086Y-124979772D01*
X129211865Y-124980671D01*
X129175500Y-124994583D01*
X129144069Y-125005440D01*
X129122133Y-125011720D01*
X129115871Y-125012673D01*
X129096898Y-125017577D01*
X129090430Y-125022078D01*
X129076649Y-125028153D01*
X129049115Y-125034890D01*
X129011917Y-125041680D01*
X128969143Y-125047914D01*
X128924884Y-125052984D01*
X128883228Y-125056280D01*
X128854331Y-125057231D01*
X128822784Y-125058656D01*
X128798126Y-125062219D01*
X128786434Y-125066707D01*
X128773327Y-125072731D01*
X128748004Y-125079503D01*
X128716615Y-125085442D01*
X128677254Y-125093921D01*
X128637728Y-125106161D01*
X128613283Y-125116373D01*
X128588055Y-125128440D01*
X128569428Y-125136245D01*
X128563514Y-125137884D01*
X128551764Y-125143117D01*
X128542454Y-125150076D01*
X128526056Y-125160013D01*
X128499913Y-125171818D01*
X128483616Y-125177996D01*
X128451703Y-125189676D01*
X128422049Y-125201258D01*
X128411508Y-125205675D01*
X128386033Y-125213112D01*
X128345981Y-125219433D01*
X128290885Y-125224659D01*
X128220279Y-125228811D01*
X128133694Y-125231910D01*
X128030663Y-125233979D01*
X127910720Y-125235038D01*
X127773396Y-125235109D01*
X127769060Y-125235096D01*
X127665830Y-125234625D01*
X127579242Y-125233863D01*
X127508052Y-125232774D01*
X127451016Y-125231322D01*
X127406892Y-125229468D01*
X127374435Y-125227176D01*
X127352402Y-125224409D01*
X127343299Y-125222401D01*
X127313389Y-125216385D01*
X127274264Y-125211853D01*
X127235975Y-125209839D01*
X127192019Y-125207208D01*
X127145034Y-125201404D01*
X127110764Y-125194894D01*
X127076936Y-125188390D01*
X127031988Y-125181928D01*
X126982669Y-125176399D01*
X126949778Y-125173606D01*
X126879758Y-125167498D01*
X126824861Y-125160058D01*
X126782339Y-125150728D01*
X126749444Y-125138950D01*
X126730938Y-125129114D01*
X126711335Y-125120200D01*
X126678661Y-125108749D01*
X126637291Y-125096171D01*
X126591601Y-125083874D01*
X126586669Y-125082641D01*
X126538529Y-125070365D01*
X126504014Y-125060351D01*
X126479287Y-125050976D01*
X126460511Y-125040621D01*
X126443851Y-125027663D01*
X126432992Y-125017697D01*
X126409056Y-124992252D01*
X126395566Y-124968654D01*
X126388084Y-124938826D01*
X126387430Y-124934774D01*
X126381465Y-124905888D01*
X126374238Y-124883489D01*
X126370265Y-124876245D01*
X126364264Y-124862799D01*
X126356068Y-124836179D01*
X126346938Y-124800762D01*
X126341138Y-124775271D01*
X126331711Y-124734985D01*
X126322020Y-124699194D01*
X126313493Y-124672926D01*
X126309551Y-124663870D01*
X126300484Y-124644998D01*
X126287603Y-124615144D01*
X126273378Y-124580074D01*
X126270320Y-124572249D01*
X126254122Y-124532493D01*
X126241116Y-124502884D01*
X126474559Y-124502884D01*
X126480551Y-124523007D01*
X126489176Y-124544693D01*
X126501993Y-124570068D01*
X126502959Y-124571769D01*
X126512991Y-124593986D01*
X126524910Y-124627285D01*
X126536496Y-124665338D01*
X126539020Y-124674621D01*
X126550067Y-124711172D01*
X126562088Y-124742808D01*
X126572931Y-124764066D01*
X126575573Y-124767537D01*
X126587719Y-124788151D01*
X126597343Y-124816707D01*
X126599195Y-124825671D01*
X126605911Y-124865103D01*
X126656986Y-124870616D01*
X126686965Y-124875074D01*
X126710352Y-124880746D01*
X126719360Y-124884702D01*
X126734461Y-124892221D01*
X126759306Y-124901145D01*
X126770905Y-124904630D01*
X126802252Y-124914344D01*
X126831232Y-124924689D01*
X126837982Y-124927431D01*
X126892829Y-124946277D01*
X126951161Y-124956365D01*
X127011473Y-124959011D01*
X127064409Y-124961541D01*
X127105114Y-124968807D01*
X127117759Y-124973185D01*
X127142905Y-124980213D01*
X127182784Y-124986736D01*
X127234243Y-124992305D01*
X127272247Y-124995190D01*
X127318876Y-124998728D01*
X127360651Y-125002868D01*
X127393499Y-125007139D01*
X127413346Y-125011068D01*
X127415346Y-125011751D01*
X127429484Y-125013841D01*
X127459238Y-125015656D01*
X127502336Y-125017191D01*
X127556507Y-125018441D01*
X127619480Y-125019402D01*
X127688986Y-125020068D01*
X127762754Y-125020436D01*
X127838513Y-125020499D01*
X127913991Y-125020255D01*
X127986920Y-125019697D01*
X128055027Y-125018822D01*
X128116043Y-125017624D01*
X128167697Y-125016099D01*
X128207718Y-125014242D01*
X128219778Y-125013419D01*
X128282042Y-125006354D01*
X128339923Y-124995607D01*
X128388965Y-124982191D01*
X128424711Y-124967118D01*
X128425482Y-124966679D01*
X128444027Y-124957276D01*
X128461257Y-124949546D01*
X128483373Y-124938242D01*
X128509617Y-124922281D01*
X128514919Y-124918734D01*
X128539739Y-124906240D01*
X128576658Y-124893147D01*
X128620065Y-124881387D01*
X128629279Y-124879312D01*
X128666574Y-124870779D01*
X128697710Y-124862848D01*
X128718188Y-124856704D01*
X128723157Y-124854593D01*
X128736180Y-124851310D01*
X128762795Y-124847728D01*
X128798726Y-124844350D01*
X128827917Y-124842327D01*
X128875578Y-124837984D01*
X128927084Y-124830779D01*
X128978609Y-124821524D01*
X129026328Y-124811034D01*
X129066414Y-124800119D01*
X129095042Y-124789595D01*
X129105787Y-124783270D01*
X129124122Y-124773357D01*
X129149292Y-124765635D01*
X129150506Y-124765391D01*
X129175124Y-124756309D01*
X129204605Y-124739633D01*
X129221468Y-124727585D01*
X129243402Y-124710390D01*
X129258601Y-124698720D01*
X129263141Y-124695485D01*
X129264468Y-124686868D01*
X129266306Y-124663638D01*
X129268500Y-124629056D01*
X129270894Y-124586384D01*
X129273333Y-124538884D01*
X129275663Y-124489816D01*
X129277726Y-124442442D01*
X129279369Y-124400025D01*
X129280436Y-124365825D01*
X129280771Y-124343104D01*
X129280300Y-124335144D01*
X129270305Y-124335452D01*
X129249006Y-124340329D01*
X129221880Y-124348147D01*
X129194404Y-124357276D01*
X129172054Y-124366090D01*
X129165663Y-124369224D01*
X129149925Y-124374817D01*
X129121868Y-124382173D01*
X129086789Y-124389940D01*
X129076226Y-124392044D01*
X129036203Y-124401055D01*
X128997968Y-124411763D01*
X128968843Y-124422083D01*
X128965362Y-124423631D01*
X128934509Y-124435134D01*
X128896888Y-124445314D01*
X128876818Y-124449274D01*
X128842831Y-124455575D01*
X128811643Y-124462621D01*
X128797537Y-124466550D01*
X128766412Y-124474556D01*
X128721321Y-124483472D01*
X128666112Y-124492618D01*
X128604635Y-124501313D01*
X128590940Y-124503062D01*
X128553302Y-124508536D01*
X128506201Y-124516467D01*
X128457643Y-124525479D01*
X128438898Y-124529222D01*
X128420413Y-124532860D01*
X128402142Y-124535983D01*
X128382620Y-124538630D01*
X128360379Y-124540841D01*
X128333953Y-124542655D01*
X128301876Y-124544110D01*
X128262681Y-124545247D01*
X128214903Y-124546104D01*
X128157073Y-124546720D01*
X128087727Y-124547136D01*
X128005397Y-124547390D01*
X127908618Y-124547521D01*
X127795922Y-124547569D01*
X127753194Y-124547573D01*
X127631383Y-124547524D01*
X127526154Y-124547345D01*
X127436201Y-124547012D01*
X127360217Y-124546496D01*
X127296898Y-124545771D01*
X127244937Y-124544811D01*
X127203029Y-124543589D01*
X127169869Y-124542078D01*
X127144150Y-124540253D01*
X127124567Y-124538086D01*
X127109814Y-124535551D01*
X127104779Y-124534378D01*
X127067139Y-124527207D01*
X127014486Y-124520618D01*
X126949689Y-124514799D01*
X126875618Y-124509941D01*
X126795143Y-124506232D01*
X126711134Y-124503863D01*
X126629439Y-124503023D01*
X126474559Y-124502884D01*
X126241116Y-124502884D01*
X126236606Y-124492616D01*
X126221341Y-124460716D01*
X126220209Y-124458531D01*
X126209925Y-124436111D01*
X126202019Y-124411140D01*
X126195658Y-124379637D01*
X126190012Y-124337623D01*
X126185164Y-124290786D01*
X126180065Y-124242755D01*
X126174457Y-124198515D01*
X126168959Y-124162456D01*
X126164189Y-124138967D01*
X126163387Y-124136194D01*
X126157472Y-124111964D01*
X126151089Y-124076976D01*
X126145504Y-124038274D01*
X126144903Y-124033342D01*
X126128693Y-123938516D01*
X126101945Y-123843275D01*
X126069110Y-123756088D01*
X126050948Y-123709326D01*
X126032664Y-123657276D01*
X126017594Y-123609550D01*
X126014762Y-123599574D01*
X126003278Y-123559214D01*
X125991559Y-123520236D01*
X125981752Y-123489735D01*
X125979905Y-123484418D01*
X125971433Y-123457530D01*
X125966493Y-123435884D01*
X125965975Y-123430419D01*
X125962601Y-123415928D01*
X125953572Y-123389700D01*
X125940528Y-123356327D01*
X125933644Y-123339871D01*
X125917871Y-123301316D01*
X125903972Y-123264435D01*
X125894264Y-123235471D01*
X125892298Y-123228412D01*
X125882285Y-123195644D01*
X125869402Y-123161640D01*
X125867326Y-123156863D01*
X125857445Y-123129754D01*
X125846824Y-123092941D01*
X125837747Y-123054351D01*
X125837677Y-123054011D01*
X125829147Y-123017856D01*
X125816519Y-122971264D01*
X125801609Y-122920680D01*
X125788578Y-122879610D01*
X125771991Y-122828548D01*
X125754722Y-122774087D01*
X125739077Y-122723560D01*
X125729541Y-122691793D01*
X125717942Y-122652886D01*
X125707096Y-122617542D01*
X125698738Y-122591386D01*
X125696380Y-122584469D01*
X125690221Y-122565993D01*
X125680152Y-122534545D01*
X125667485Y-122494264D01*
X125653528Y-122449287D01*
X125651090Y-122441370D01*
X125635511Y-122390911D01*
X125619532Y-122339487D01*
X125605031Y-122293123D01*
X125593892Y-122257864D01*
X125583674Y-122224066D01*
X125576102Y-122195680D01*
X125575412Y-122192233D01*
X125805832Y-122192233D01*
X125819070Y-122249724D01*
X125828181Y-122284783D01*
X125838290Y-122316995D01*
X125845480Y-122335398D01*
X125854642Y-122360060D01*
X125858645Y-122380856D01*
X125858651Y-122381443D01*
X125861525Y-122397718D01*
X125869188Y-122425705D01*
X125880207Y-122460344D01*
X125884905Y-122473999D01*
X125900413Y-122519887D01*
X125917343Y-122572721D01*
X125932405Y-122622192D01*
X125934445Y-122629187D01*
X125945894Y-122668117D01*
X125956621Y-122703476D01*
X125964904Y-122729629D01*
X125967240Y-122736511D01*
X125983798Y-122785951D01*
X126002205Y-122845239D01*
X126020202Y-122906813D01*
X126035533Y-122963111D01*
X126039312Y-122977990D01*
X126050089Y-123017344D01*
X126062092Y-123055030D01*
X126072935Y-123083629D01*
X126074136Y-123086293D01*
X126084664Y-123112691D01*
X126090659Y-123134903D01*
X126091187Y-123140293D01*
X126094581Y-123155907D01*
X126103659Y-123183075D01*
X126116767Y-123217038D01*
X126123517Y-123233222D01*
X126139279Y-123271774D01*
X126153148Y-123308653D01*
X126162815Y-123337618D01*
X126164765Y-123344680D01*
X126171435Y-123369296D01*
X126181736Y-123404887D01*
X126193893Y-123445376D01*
X126199512Y-123463625D01*
X126210608Y-123500309D01*
X126219317Y-123530915D01*
X126224459Y-123551196D01*
X126225341Y-123556566D01*
X126228477Y-123568263D01*
X126237020Y-123592957D01*
X126249677Y-123627060D01*
X126265153Y-123666985D01*
X126265590Y-123668091D01*
X126283754Y-123715977D01*
X126301405Y-123765908D01*
X126316230Y-123811170D01*
X126324205Y-123838386D01*
X126333409Y-123871588D01*
X126341302Y-123898020D01*
X126346459Y-123912954D01*
X126347109Y-123914266D01*
X126350013Y-123925962D01*
X126353898Y-123950941D01*
X126358097Y-123984673D01*
X126359774Y-124000185D01*
X126365190Y-124041557D01*
X126372304Y-124081212D01*
X126379787Y-124111997D01*
X126381588Y-124117547D01*
X126390039Y-124151209D01*
X126394923Y-124189416D01*
X126395393Y-124202160D01*
X126394987Y-124224355D01*
X126394792Y-124242239D01*
X126396537Y-124256309D01*
X126401952Y-124267061D01*
X126412767Y-124274991D01*
X126430713Y-124280595D01*
X126457518Y-124284369D01*
X126494913Y-124286810D01*
X126544628Y-124288412D01*
X126608392Y-124289674D01*
X126687935Y-124291089D01*
X126706752Y-124291452D01*
X126807324Y-124293954D01*
X126899095Y-124297277D01*
X126980721Y-124301322D01*
X127050857Y-124305989D01*
X127108159Y-124311177D01*
X127151284Y-124316786D01*
X127178888Y-124322715D01*
X127188656Y-124327372D01*
X127198347Y-124328350D01*
X127224392Y-124329267D01*
X127265256Y-124330109D01*
X127319407Y-124330862D01*
X127385309Y-124331509D01*
X127461430Y-124332038D01*
X127546236Y-124332434D01*
X127638193Y-124332680D01*
X127735767Y-124332764D01*
X127753962Y-124332761D01*
X127868299Y-124332701D01*
X127966252Y-124332577D01*
X128049323Y-124332343D01*
X128119016Y-124331956D01*
X128176833Y-124331369D01*
X128224279Y-124330540D01*
X128262855Y-124329421D01*
X128294066Y-124327970D01*
X128319413Y-124326142D01*
X128340400Y-124323890D01*
X128358530Y-124321172D01*
X128375306Y-124317941D01*
X128392231Y-124314153D01*
X128394179Y-124313698D01*
X128434779Y-124304738D01*
X128473218Y-124297214D01*
X128503057Y-124292354D01*
X128510447Y-124291494D01*
X128568468Y-124285306D01*
X128622742Y-124278071D01*
X128669635Y-124270378D01*
X128705515Y-124262816D01*
X128725095Y-124256735D01*
X128749033Y-124249219D01*
X128782094Y-124242244D01*
X128805588Y-124238773D01*
X128836809Y-124233416D01*
X128862013Y-124226119D01*
X128873083Y-124220349D01*
X128888296Y-124212672D01*
X128915536Y-124203674D01*
X128949217Y-124195172D01*
X128953078Y-124194345D01*
X129006267Y-124181909D01*
X129063037Y-124166552D01*
X129118034Y-124149891D01*
X129165905Y-124133544D01*
X129199827Y-124119813D01*
X129229467Y-124106130D01*
X129264349Y-124090073D01*
X129279647Y-124083046D01*
X129303577Y-124071280D01*
X129318382Y-124059864D01*
X129328038Y-124043565D01*
X129336520Y-124017152D01*
X129340308Y-124003204D01*
X129355464Y-123939492D01*
X129368069Y-123872582D01*
X129377179Y-123808475D01*
X129381849Y-123753171D01*
X129382261Y-123736688D01*
X129384670Y-123695275D01*
X129390599Y-123650843D01*
X129394930Y-123629364D01*
X129402113Y-123595268D01*
X129409971Y-123551628D01*
X129417046Y-123506659D01*
X129418447Y-123496722D01*
X129426433Y-123447669D01*
X129437336Y-123392392D01*
X129448978Y-123341812D01*
X129450541Y-123335736D01*
X129459741Y-123300789D01*
X129467996Y-123270150D01*
X129476453Y-123239790D01*
X129486259Y-123205680D01*
X129498560Y-123163788D01*
X129514504Y-123110086D01*
X129520552Y-123089786D01*
X129539060Y-123024948D01*
X129551608Y-122974155D01*
X129558768Y-122934797D01*
X129561109Y-122904787D01*
X129564817Y-122875129D01*
X129571915Y-122851125D01*
X129577682Y-122834492D01*
X129584550Y-122808879D01*
X129592863Y-122772674D01*
X129602966Y-122724269D01*
X129615203Y-122662052D01*
X129629919Y-122584416D01*
X129636231Y-122550540D01*
X129644794Y-122505502D01*
X129652529Y-122466818D01*
X129658730Y-122437874D01*
X129662692Y-122422055D01*
X129663376Y-122420310D01*
X129666471Y-122409250D01*
X129671722Y-122384290D01*
X129678384Y-122349184D01*
X129685405Y-122309471D01*
X129693131Y-122266975D01*
X129700716Y-122229892D01*
X129707247Y-122202423D01*
X129711528Y-122189278D01*
X129716912Y-122171806D01*
X129722154Y-122143529D01*
X129725170Y-122119398D01*
X129727130Y-122091963D01*
X129726107Y-122080496D01*
X129722701Y-122084535D01*
X129710537Y-122102163D01*
X129690539Y-122121480D01*
X129686318Y-122124781D01*
X129665071Y-122142853D01*
X129634586Y-122171645D01*
X129597467Y-122208471D01*
X129556318Y-122250646D01*
X129513740Y-122295481D01*
X129472339Y-122340292D01*
X129434716Y-122382391D01*
X129418528Y-122401124D01*
X129389183Y-122434828D01*
X129351475Y-122477068D01*
X129309389Y-122523434D01*
X129266909Y-122569521D01*
X129247358Y-122590452D01*
X129212649Y-122627803D01*
X129182632Y-122660836D01*
X129159304Y-122687292D01*
X129144665Y-122704911D01*
X129140546Y-122711191D01*
X129134261Y-122719063D01*
X129116680Y-122737761D01*
X129089382Y-122765693D01*
X129053945Y-122801268D01*
X129011947Y-122842891D01*
X128964966Y-122888972D01*
X128947039Y-122906441D01*
X128847765Y-123003314D01*
X128761191Y-123088452D01*
X128686894Y-123162277D01*
X128624456Y-123225211D01*
X128573454Y-123277677D01*
X128533468Y-123320096D01*
X128517608Y-123337522D01*
X128471107Y-123389398D01*
X128413017Y-123389398D01*
X128380333Y-123388611D01*
X128358922Y-123384765D01*
X128342190Y-123375631D01*
X128323826Y-123359255D01*
X128303826Y-123336300D01*
X128289785Y-123313692D01*
X128286955Y-123306118D01*
X128278132Y-123286829D01*
X128261343Y-123260929D01*
X128246009Y-123241111D01*
X128227412Y-123217631D01*
X128214662Y-123199110D01*
X128210834Y-123190770D01*
X128205430Y-123179793D01*
X128191555Y-123160561D01*
X128179532Y-123145872D01*
X128162057Y-123124380D01*
X128150695Y-123108339D01*
X128148229Y-123103021D01*
X128142990Y-123093255D01*
X128129401Y-123074322D01*
X128114376Y-123055252D01*
X128094215Y-123029842D01*
X128074068Y-123002703D01*
X128051039Y-122969771D01*
X128022232Y-122926979D01*
X128012123Y-122911751D01*
X127998590Y-122888894D01*
X127985018Y-122862293D01*
X127974322Y-122838099D01*
X127969417Y-122822465D01*
X127969356Y-122821479D01*
X127963297Y-122810720D01*
X127956515Y-122804066D01*
X127945628Y-122788092D01*
X127937632Y-122764960D01*
X127928573Y-122739275D01*
X127914972Y-122717684D01*
X127900747Y-122705947D01*
X127896981Y-122705208D01*
X127889801Y-122712604D01*
X127877540Y-122732049D01*
X127862776Y-122759430D01*
X127861931Y-122761106D01*
X127846690Y-122791222D01*
X127833832Y-122816178D01*
X127826224Y-122830419D01*
X127819159Y-122844359D01*
X127806939Y-122869937D01*
X127791775Y-122902492D01*
X127785857Y-122915384D01*
X127770138Y-122949345D01*
X127756500Y-122978052D01*
X127747170Y-122996844D01*
X127745257Y-123000349D01*
X127736455Y-123016463D01*
X127723919Y-123040652D01*
X127719430Y-123049539D01*
X127709598Y-123068838D01*
X127700629Y-123085200D01*
X127689770Y-123103204D01*
X127674273Y-123127430D01*
X127654091Y-123158327D01*
X127639863Y-123181612D01*
X127630982Y-123199172D01*
X127629496Y-123204334D01*
X127623314Y-123216303D01*
X127614627Y-123225081D01*
X127601685Y-123240832D01*
X127587583Y-123265113D01*
X127583780Y-123273131D01*
X127569908Y-123296040D01*
X127547010Y-123325625D01*
X127519317Y-123356556D01*
X127510213Y-123365789D01*
X127480512Y-123394059D01*
X127458318Y-123411737D01*
X127439244Y-123421592D01*
X127418905Y-123426392D01*
X127413031Y-123427136D01*
X127368064Y-123425403D01*
X127333773Y-123414147D01*
X127302016Y-123400528D01*
X127270871Y-123387711D01*
X127262806Y-123384522D01*
X127240107Y-123372793D01*
X127210130Y-123353510D01*
X127179188Y-123330746D01*
X127177841Y-123329679D01*
X127154275Y-123310877D01*
X127130994Y-123292136D01*
X127105241Y-123271206D01*
X127074263Y-123245840D01*
X127035305Y-123213788D01*
X126985611Y-123172802D01*
X126979799Y-123168004D01*
X126954833Y-123147071D01*
X126920884Y-123118163D01*
X126882417Y-123085100D01*
X126843977Y-123051775D01*
X126810228Y-123022845D01*
X126781074Y-122998745D01*
X126759246Y-122981665D01*
X126747469Y-122973796D01*
X126746505Y-122973518D01*
X126736725Y-122967572D01*
X126718797Y-122952065D01*
X126698982Y-122932740D01*
X126670748Y-122906017D01*
X126640600Y-122880720D01*
X126623164Y-122867898D01*
X126555205Y-122818907D01*
X126479815Y-122758236D01*
X126408817Y-122696264D01*
X126374335Y-122665701D01*
X126340460Y-122636708D01*
X126311853Y-122613225D01*
X126297707Y-122602356D01*
X126268847Y-122580770D01*
X126235829Y-122555229D01*
X126218481Y-122541451D01*
X126189780Y-122520288D01*
X126161216Y-122502281D01*
X126146038Y-122494516D01*
X126126447Y-122482573D01*
X126096001Y-122459342D01*
X126056388Y-122426287D01*
X126009294Y-122384876D01*
X125956406Y-122336575D01*
X125899410Y-122282849D01*
X125870252Y-122254754D01*
X125805832Y-122192233D01*
X125575412Y-122192233D01*
X125572558Y-122177973D01*
X125572454Y-122176230D01*
X125566059Y-122158526D01*
X125559488Y-122151074D01*
X125549933Y-122135323D01*
X125540051Y-122106008D01*
X125530753Y-122067409D01*
X125522951Y-122023806D01*
X125517556Y-121979479D01*
X125515551Y-121944748D01*
X125515468Y-121911328D01*
X125518093Y-121889783D01*
X125525264Y-121874123D01*
X125538821Y-121858356D01*
X125543559Y-121853560D01*
X125563864Y-121835671D01*
X125583240Y-121827026D01*
X125609907Y-121824474D01*
X125619580Y-121824421D01*
X125664768Y-121829442D01*
X125707720Y-121845381D01*
X125752276Y-121874054D01*
X125788035Y-121904083D01*
X125818202Y-121930215D01*
X125848656Y-121954693D01*
X125872244Y-121971828D01*
X125883245Y-121979486D01*
X125896595Y-121989781D01*
X125913636Y-122003911D01*
X125935710Y-122023073D01*
X125964159Y-122048465D01*
X126000326Y-122081284D01*
X126045553Y-122122730D01*
X126101181Y-122173999D01*
X126167881Y-122235666D01*
X126199196Y-122263704D01*
X126228438Y-122288231D01*
X126251449Y-122305836D01*
X126260588Y-122311687D01*
X126293333Y-122330854D01*
X126328375Y-122355033D01*
X126370109Y-122387340D01*
X126389345Y-122402978D01*
X126415863Y-122423655D01*
X126437904Y-122438860D01*
X126451242Y-122445712D01*
X126452231Y-122445842D01*
X126463019Y-122451853D01*
X126482490Y-122467871D01*
X126507075Y-122490873D01*
X126516290Y-122500078D01*
X126572004Y-122553253D01*
X126634624Y-122607374D01*
X126697550Y-122656920D01*
X126739354Y-122686670D01*
X126766919Y-122706770D01*
X126802056Y-122734616D01*
X126839250Y-122765763D01*
X126859453Y-122783465D01*
X126890046Y-122809895D01*
X126916569Y-122831130D01*
X126935784Y-122844678D01*
X126943690Y-122848307D01*
X126956655Y-122854375D01*
X126975050Y-122869572D01*
X126981644Y-122876220D01*
X127004747Y-122899361D01*
X127035718Y-122928409D01*
X127071873Y-122961060D01*
X127110530Y-122995013D01*
X127149006Y-123027966D01*
X127184619Y-123057615D01*
X127214685Y-123081659D01*
X127236522Y-123097794D01*
X127246499Y-123103538D01*
X127263862Y-123112896D01*
X127288121Y-123130767D01*
X127310024Y-123149672D01*
X127334141Y-123169741D01*
X127354979Y-123183009D01*
X127367115Y-123186535D01*
X127380942Y-123177231D01*
X127395102Y-123158479D01*
X127396001Y-123156863D01*
X127408540Y-123135482D01*
X127427010Y-123105988D01*
X127445878Y-123077085D01*
X127475804Y-123031081D01*
X127499373Y-122991641D01*
X127521060Y-122951096D01*
X127530926Y-122931406D01*
X127543486Y-122908054D01*
X127553883Y-122892270D01*
X127556975Y-122889154D01*
X127563652Y-122878430D01*
X127571977Y-122856586D01*
X127575722Y-122844235D01*
X127585066Y-122817771D01*
X127595434Y-122798164D01*
X127599308Y-122793720D01*
X127609888Y-122781619D01*
X127611609Y-122776755D01*
X127615889Y-122762061D01*
X127627454Y-122736014D01*
X127644389Y-122702601D01*
X127664779Y-122665811D01*
X127665271Y-122664962D01*
X127682652Y-122633593D01*
X127698437Y-122602849D01*
X127704960Y-122588941D01*
X127716530Y-122564616D01*
X127726855Y-122545959D01*
X127728003Y-122544222D01*
X127737738Y-122528120D01*
X127750964Y-122503948D01*
X127755603Y-122495032D01*
X127774920Y-122458105D01*
X127789415Y-122432781D01*
X127801946Y-122414509D01*
X127815371Y-122398737D01*
X127817500Y-122396453D01*
X127848724Y-122375376D01*
X127887870Y-122366573D01*
X127929884Y-122370007D01*
X127969715Y-122385639D01*
X127986929Y-122397760D01*
X128003742Y-122417238D01*
X128023968Y-122448373D01*
X128044849Y-122486033D01*
X128063629Y-122525087D01*
X128077549Y-122560401D01*
X128081532Y-122573856D01*
X128090642Y-122595582D01*
X128100157Y-122607756D01*
X128109313Y-122619886D01*
X128123923Y-122644246D01*
X128141735Y-122676925D01*
X128155178Y-122703214D01*
X128174101Y-122741117D01*
X128191269Y-122775314D01*
X128204356Y-122801179D01*
X128209648Y-122811478D01*
X128224657Y-122837531D01*
X128245243Y-122869866D01*
X128268269Y-122903933D01*
X128290601Y-122935186D01*
X128309102Y-122959076D01*
X128318497Y-122969353D01*
X128331753Y-122985038D01*
X128336046Y-122995877D01*
X128342167Y-123009152D01*
X128355093Y-123023558D01*
X128371952Y-123041974D01*
X128390834Y-123067193D01*
X128396176Y-123075282D01*
X128418213Y-123109969D01*
X128473514Y-123055159D01*
X128499380Y-123030440D01*
X128520980Y-123011480D01*
X128534887Y-123001220D01*
X128537519Y-123000212D01*
X128546433Y-122994030D01*
X128566145Y-122976685D01*
X128594977Y-122949833D01*
X128631256Y-122915133D01*
X128673306Y-122874243D01*
X128719451Y-122828820D01*
X128768016Y-122780523D01*
X128817326Y-122731010D01*
X128865707Y-122681939D01*
X128911481Y-122634967D01*
X128952975Y-122591753D01*
X128988512Y-122553955D01*
X128989404Y-122552991D01*
X129023720Y-122515826D01*
X129067232Y-122468555D01*
X129117086Y-122414288D01*
X129170426Y-122356136D01*
X129224398Y-122297208D01*
X129272497Y-122244610D01*
X129323747Y-122189238D01*
X129384619Y-122124664D01*
X129451937Y-122054183D01*
X129522525Y-121981092D01*
X129593208Y-121908686D01*
X129660811Y-121840261D01*
X129694675Y-121806370D01*
X129937085Y-121564891D01*
X129981570Y-121564891D01*
X130011436Y-121566750D01*
G37*
G36*
X132928852Y-121316034D02*
G01*
X132949271Y-121330211D01*
X132966634Y-121355852D01*
X132979322Y-121385351D01*
X133013428Y-121469023D01*
X133050932Y-121545746D01*
X133086723Y-121606710D01*
X133103270Y-121632631D01*
X133124881Y-121667086D01*
X133149183Y-121706262D01*
X133173805Y-121746347D01*
X133183361Y-121762028D01*
X133228066Y-121834369D01*
X133270994Y-121901501D01*
X133311469Y-121962494D01*
X133348814Y-122016417D01*
X133382352Y-122062341D01*
X133411406Y-122099335D01*
X133435299Y-122126470D01*
X133453355Y-122142813D01*
X133463853Y-122147532D01*
X133471368Y-122146772D01*
X133486529Y-122144417D01*
X133509942Y-122140349D01*
X133542209Y-122134453D01*
X133583933Y-122126614D01*
X133635720Y-122116715D01*
X133698171Y-122104639D01*
X133771891Y-122090272D01*
X133857484Y-122073498D01*
X133955552Y-122054200D01*
X134066700Y-122032262D01*
X134157475Y-122014311D01*
X134307550Y-121985559D01*
X134458236Y-121958651D01*
X134612153Y-121933177D01*
X134771918Y-121908722D01*
X134940151Y-121884874D01*
X135119471Y-121861222D01*
X135169799Y-121854857D01*
X135212557Y-121849332D01*
X135258621Y-121843118D01*
X135301380Y-121837118D01*
X135324721Y-121833692D01*
X135383207Y-121826288D01*
X135429469Y-121823831D01*
X135464891Y-121826529D01*
X135490860Y-121834589D01*
X135508760Y-121848221D01*
X135517944Y-121862706D01*
X135525971Y-121891825D01*
X135521161Y-121919623D01*
X135516285Y-121930316D01*
X135499759Y-121949839D01*
X135476414Y-121963509D01*
X135457473Y-121967390D01*
X135443049Y-121971501D01*
X135419414Y-121982876D01*
X135388842Y-122000080D01*
X135353612Y-122021677D01*
X135316000Y-122046232D01*
X135278282Y-122072307D01*
X135242734Y-122098467D01*
X135215752Y-122119843D01*
X135197891Y-122133913D01*
X135171298Y-122153972D01*
X135139047Y-122177740D01*
X135104210Y-122202940D01*
X135089652Y-122213328D01*
X135055754Y-122237967D01*
X135013922Y-122269243D01*
X134967390Y-122304685D01*
X134919392Y-122341824D01*
X134873165Y-122378190D01*
X134860028Y-122388657D01*
X134790288Y-122444025D01*
X134723697Y-122496011D01*
X134657853Y-122546409D01*
X134590351Y-122597016D01*
X134518791Y-122649629D01*
X134440767Y-122706041D01*
X134353878Y-122768051D01*
X134324560Y-122788837D01*
X134278820Y-122821506D01*
X134237189Y-122851788D01*
X134201053Y-122878629D01*
X134171799Y-122900978D01*
X134150814Y-122917782D01*
X134139484Y-122927991D01*
X134137875Y-122930442D01*
X134142888Y-122938437D01*
X134155765Y-122955328D01*
X134174920Y-122979134D01*
X134198765Y-123007871D01*
X134218646Y-123031321D01*
X134248774Y-123067491D01*
X134283508Y-123110751D01*
X134320996Y-123158649D01*
X134359385Y-123208735D01*
X134396824Y-123258555D01*
X134431458Y-123305660D01*
X134461435Y-123347597D01*
X134484903Y-123381915D01*
X134492539Y-123393730D01*
X134508248Y-123418440D01*
X134523847Y-123442612D01*
X134530341Y-123452519D01*
X134544251Y-123484186D01*
X134545128Y-123514470D01*
X134534312Y-123540924D01*
X134513140Y-123561103D01*
X134482954Y-123572558D01*
X134463716Y-123574255D01*
X134442551Y-123571603D01*
X134421054Y-123564925D01*
X134403827Y-123556138D01*
X134395470Y-123547159D01*
X134395262Y-123545733D01*
X134389317Y-123538571D01*
X134380812Y-123534612D01*
X134365695Y-123526955D01*
X134347629Y-123514217D01*
X134345220Y-123512236D01*
X134329951Y-123502394D01*
X134303611Y-123488590D01*
X134268640Y-123471885D01*
X134227473Y-123453339D01*
X134182549Y-123434012D01*
X134136306Y-123414966D01*
X134091180Y-123397260D01*
X134049611Y-123381956D01*
X134031375Y-123375688D01*
X134007767Y-123368173D01*
X133975049Y-123358271D01*
X133935409Y-123346595D01*
X133891032Y-123333758D01*
X133844103Y-123320374D01*
X133796809Y-123307057D01*
X133751336Y-123294420D01*
X133709868Y-123283076D01*
X133674593Y-123273639D01*
X133647695Y-123266724D01*
X133631360Y-123262942D01*
X133627858Y-123262419D01*
X133621464Y-123264683D01*
X133607914Y-123271920D01*
X133586460Y-123284594D01*
X133556354Y-123303169D01*
X133516848Y-123328110D01*
X133467193Y-123359883D01*
X133406642Y-123398952D01*
X133373912Y-123420156D01*
X133329768Y-123448784D01*
X133278337Y-123482132D01*
X133224425Y-123517085D01*
X133172839Y-123550525D01*
X133142450Y-123570222D01*
X133020820Y-123649054D01*
X133012694Y-123684261D01*
X133007751Y-123713719D01*
X133004869Y-123746453D01*
X133004567Y-123758210D01*
X133001181Y-123796850D01*
X132990526Y-123824381D01*
X132971859Y-123842548D01*
X132967494Y-123845008D01*
X132936459Y-123854336D01*
X132906094Y-123849394D01*
X132896062Y-123844673D01*
X132879159Y-123830422D01*
X132868648Y-123814937D01*
X132865830Y-123801976D01*
X132863078Y-123777217D01*
X132860485Y-123743273D01*
X132858142Y-123702757D01*
X132856142Y-123658282D01*
X132854575Y-123612462D01*
X132853533Y-123567909D01*
X132853109Y-123527237D01*
X132853394Y-123493059D01*
X132854479Y-123467988D01*
X132855800Y-123457871D01*
X133033537Y-123457871D01*
X133037148Y-123462043D01*
X133049241Y-123456935D01*
X133056808Y-123452199D01*
X133073299Y-123441629D01*
X133097961Y-123426134D01*
X133126668Y-123408301D01*
X133141354Y-123399250D01*
X133168361Y-123382368D01*
X133203828Y-123359780D01*
X133244218Y-123333763D01*
X133285991Y-123306592D01*
X133313001Y-123288868D01*
X133423520Y-123216048D01*
X133377972Y-123207346D01*
X133355689Y-123202799D01*
X133322768Y-123195707D01*
X133282602Y-123186820D01*
X133238582Y-123176885D01*
X133205239Y-123169234D01*
X133163784Y-123160025D01*
X133127815Y-123152723D01*
X133803635Y-123152723D01*
X133809715Y-123157068D01*
X133827331Y-123164143D01*
X133854060Y-123173100D01*
X133887476Y-123183091D01*
X133902431Y-123187259D01*
X133961910Y-123204145D01*
X134022082Y-123222406D01*
X134079997Y-123241064D01*
X134132701Y-123259137D01*
X134177243Y-123275647D01*
X134209872Y-123289249D01*
X134232992Y-123299800D01*
X134245527Y-123305137D01*
X134250051Y-123305920D01*
X134249141Y-123302806D01*
X134246638Y-123298638D01*
X134231836Y-123276450D01*
X134209204Y-123245967D01*
X134180598Y-123209561D01*
X134147878Y-123169605D01*
X134118243Y-123134652D01*
X134092431Y-123104632D01*
X134068226Y-123076361D01*
X134048091Y-123052722D01*
X134034489Y-123036601D01*
X134032973Y-123034780D01*
X134012954Y-123010623D01*
X133908957Y-123078070D01*
X133874800Y-123100575D01*
X133845202Y-123120747D01*
X133822166Y-123137165D01*
X133807696Y-123148411D01*
X133803635Y-123152723D01*
X133127815Y-123152723D01*
X133126682Y-123152493D01*
X133096405Y-123147082D01*
X133075427Y-123144239D01*
X133066530Y-123144246D01*
X133059515Y-123150981D01*
X133055895Y-123166293D01*
X133054918Y-123190327D01*
X133054166Y-123212769D01*
X133052162Y-123245627D01*
X133049185Y-123284988D01*
X133045514Y-123326938D01*
X133044258Y-123340071D01*
X133040543Y-123378574D01*
X133037378Y-123412363D01*
X133035018Y-123438661D01*
X133033713Y-123454689D01*
X133033537Y-123457871D01*
X132855800Y-123457871D01*
X132856041Y-123456021D01*
X132865118Y-123436231D01*
X132877519Y-123420520D01*
X132884153Y-123412990D01*
X132889164Y-123403148D01*
X132893081Y-123388476D01*
X132896432Y-123366460D01*
X132899743Y-123334581D01*
X132902706Y-123300440D01*
X132906202Y-123258790D01*
X132909655Y-123218228D01*
X132912710Y-123182873D01*
X132915014Y-123156843D01*
X132915389Y-123152723D01*
X132919369Y-123109489D01*
X132844876Y-123092654D01*
X132811081Y-123085209D01*
X132767747Y-123075944D01*
X132719471Y-123065829D01*
X132670853Y-123055831D01*
X132649146Y-123051439D01*
X132599462Y-123041059D01*
X132545604Y-123029162D01*
X132493014Y-123016988D01*
X132447135Y-123005779D01*
X132432976Y-123002132D01*
X132397046Y-122993198D01*
X132350646Y-122982411D01*
X132297473Y-122970589D01*
X132241219Y-122958546D01*
X132185578Y-122947101D01*
X132168709Y-122943737D01*
X132115706Y-122933163D01*
X132062452Y-122922363D01*
X132012221Y-122912013D01*
X131968291Y-122902792D01*
X131933936Y-122895377D01*
X131923716Y-122893092D01*
X131888971Y-122885797D01*
X131844767Y-122877393D01*
X131795919Y-122868748D01*
X131747243Y-122860733D01*
X131729163Y-122857938D01*
X131641756Y-122844611D01*
X131567662Y-122833067D01*
X131505914Y-122823145D01*
X131455546Y-122814688D01*
X131415590Y-122807533D01*
X131385081Y-122801523D01*
X131376085Y-122799577D01*
X131341893Y-122793770D01*
X131303640Y-122789914D01*
X131280252Y-122788987D01*
X131238681Y-122785891D01*
X131208854Y-122776490D01*
X131189273Y-122760178D01*
X131182934Y-122749407D01*
X131175299Y-122718016D01*
X131179419Y-122694870D01*
X131647846Y-122694870D01*
X131652575Y-122697594D01*
X131669316Y-122701776D01*
X131695799Y-122706955D01*
X131729754Y-122712668D01*
X131752328Y-122716097D01*
X131799116Y-122723409D01*
X131848924Y-122731983D01*
X131896311Y-122740833D01*
X131935835Y-122748979D01*
X131941730Y-122750302D01*
X131970812Y-122756741D01*
X132011102Y-122765371D01*
X132059673Y-122775582D01*
X132113595Y-122786760D01*
X132169942Y-122798294D01*
X132215464Y-122807501D01*
X132271652Y-122818996D01*
X132327798Y-122830843D01*
X132380969Y-122842396D01*
X132428233Y-122853010D01*
X132466657Y-122862041D01*
X132489280Y-122867750D01*
X132523940Y-122876472D01*
X132568317Y-122886872D01*
X132617965Y-122897950D01*
X132668442Y-122908705D01*
X132698326Y-122914798D01*
X132742969Y-122923822D01*
X132785670Y-122932657D01*
X132823222Y-122940623D01*
X132852417Y-122947041D01*
X132867659Y-122950620D01*
X132890252Y-122956158D01*
X132906940Y-122960023D01*
X132912695Y-122961160D01*
X132913895Y-122954353D01*
X132915003Y-122934685D01*
X132915987Y-122903706D01*
X132916819Y-122862966D01*
X132917467Y-122814016D01*
X132917611Y-122795544D01*
X133061867Y-122795544D01*
X133062008Y-122847474D01*
X133062310Y-122893924D01*
X133062781Y-122933086D01*
X133063426Y-122963152D01*
X133064255Y-122982314D01*
X133065152Y-122988731D01*
X133072979Y-122991265D01*
X133092985Y-122996383D01*
X133123254Y-123003659D01*
X133161871Y-123012670D01*
X133206921Y-123022989D01*
X133256488Y-123034192D01*
X133308657Y-123045853D01*
X133361513Y-123057548D01*
X133413141Y-123068850D01*
X133461626Y-123079336D01*
X133505051Y-123088580D01*
X133541503Y-123096156D01*
X133569065Y-123101640D01*
X133585823Y-123104607D01*
X133588843Y-123104977D01*
X133598863Y-123101581D01*
X133618295Y-123091642D01*
X133644547Y-123076593D01*
X133675029Y-123057870D01*
X133682517Y-123053098D01*
X133722215Y-123027569D01*
X133766392Y-122999081D01*
X133809163Y-122971433D01*
X133839159Y-122951986D01*
X133913553Y-122903662D01*
X133868071Y-122851653D01*
X133847662Y-122828911D01*
X133819906Y-122798821D01*
X133787553Y-122764319D01*
X133753350Y-122728343D01*
X133728340Y-122702369D01*
X133693223Y-122665556D01*
X133656767Y-122626358D01*
X133622116Y-122588222D01*
X133592416Y-122554596D01*
X133577129Y-122536638D01*
X133547900Y-122501844D01*
X133515040Y-122463250D01*
X133483383Y-122426511D01*
X133465928Y-122406518D01*
X133442558Y-122379714D01*
X133421385Y-122355007D01*
X133405050Y-122335503D01*
X133397276Y-122325782D01*
X133382865Y-122306712D01*
X133228452Y-122338640D01*
X133182999Y-122348074D01*
X133142257Y-122356597D01*
X133108359Y-122363758D01*
X133083438Y-122369106D01*
X133069627Y-122372187D01*
X133067671Y-122372691D01*
X133066611Y-122379962D01*
X133065638Y-122399836D01*
X133064759Y-122430505D01*
X133063982Y-122470160D01*
X133063313Y-122516993D01*
X133062762Y-122569197D01*
X133062334Y-122624962D01*
X133062037Y-122682480D01*
X133061879Y-122739944D01*
X133061867Y-122795544D01*
X132917611Y-122795544D01*
X132917902Y-122758405D01*
X132918093Y-122697684D01*
X132918099Y-122684354D01*
X132918005Y-122622722D01*
X132917738Y-122565848D01*
X132917319Y-122515285D01*
X132916768Y-122472589D01*
X132916107Y-122439315D01*
X132915357Y-122417017D01*
X132914538Y-122407249D01*
X132914360Y-122406936D01*
X132906400Y-122408444D01*
X132886877Y-122412607D01*
X132858281Y-122418880D01*
X132823102Y-122426721D01*
X132800870Y-122431724D01*
X132752125Y-122442418D01*
X132695488Y-122454343D01*
X132637254Y-122466202D01*
X132583717Y-122476697D01*
X132572227Y-122478876D01*
X132530330Y-122487039D01*
X132476254Y-122498022D01*
X132411868Y-122511426D01*
X132339039Y-122526847D01*
X132259634Y-122543885D01*
X132175522Y-122562137D01*
X132088570Y-122581202D01*
X132000646Y-122600678D01*
X131913618Y-122620164D01*
X131880482Y-122627643D01*
X131830469Y-122639426D01*
X131782353Y-122651623D01*
X131738327Y-122663600D01*
X131700586Y-122674722D01*
X131671322Y-122684357D01*
X131652731Y-122691869D01*
X131647846Y-122694870D01*
X131179419Y-122694870D01*
X131180394Y-122689394D01*
X131196544Y-122666000D01*
X131222070Y-122650292D01*
X131254347Y-122644723D01*
X131270417Y-122642524D01*
X131296318Y-122636562D01*
X131328262Y-122627789D01*
X131357385Y-122618817D01*
X131398355Y-122606391D01*
X131443209Y-122594140D01*
X131485194Y-122583856D01*
X131505787Y-122579455D01*
X131543812Y-122570866D01*
X131588135Y-122559170D01*
X131631564Y-122546319D01*
X131649900Y-122540340D01*
X131672405Y-122533587D01*
X131707356Y-122524251D01*
X131753094Y-122512705D01*
X131807963Y-122499329D01*
X131870303Y-122484497D01*
X131938457Y-122468587D01*
X132010767Y-122451974D01*
X132085575Y-122435036D01*
X132161222Y-122418149D01*
X132236052Y-122401690D01*
X132308405Y-122386035D01*
X132376625Y-122371560D01*
X132439052Y-122358643D01*
X132494029Y-122347659D01*
X132521787Y-122342335D01*
X132570833Y-122332829D01*
X132628325Y-122321240D01*
X132688670Y-122308721D01*
X132746270Y-122296427D01*
X132775572Y-122289996D01*
X132820589Y-122279891D01*
X133547004Y-122279891D01*
X133627062Y-122374012D01*
X133662169Y-122414504D01*
X133702557Y-122459843D01*
X133743802Y-122505132D01*
X133781479Y-122545473D01*
X133790221Y-122554627D01*
X133826780Y-122593159D01*
X133867946Y-122637321D01*
X133909110Y-122682124D01*
X133945664Y-122722583D01*
X133951727Y-122729390D01*
X133978214Y-122758923D01*
X134001400Y-122784236D01*
X134019606Y-122803537D01*
X134031151Y-122815036D01*
X134034357Y-122817483D01*
X134040944Y-122813390D01*
X134057981Y-122801779D01*
X134084207Y-122783537D01*
X134118365Y-122759548D01*
X134159194Y-122730698D01*
X134205437Y-122697872D01*
X134255833Y-122661956D01*
X134276368Y-122647283D01*
X134356733Y-122589641D01*
X134427496Y-122538447D01*
X134490935Y-122491984D01*
X134549326Y-122448537D01*
X134604944Y-122406390D01*
X134660066Y-122363828D01*
X134716967Y-122319136D01*
X134777924Y-122270597D01*
X134805985Y-122248087D01*
X134847697Y-122215103D01*
X134893809Y-122179528D01*
X134939929Y-122144696D01*
X134981665Y-122113940D01*
X135000539Y-122100409D01*
X135033828Y-122076707D01*
X135064603Y-122054511D01*
X135090148Y-122035802D01*
X135107744Y-122022560D01*
X135112094Y-122019119D01*
X135133578Y-122001540D01*
X135112094Y-122006047D01*
X135098462Y-122008331D01*
X135073107Y-122012046D01*
X135038607Y-122016834D01*
X134997537Y-122022340D01*
X134952476Y-122028206D01*
X134946496Y-122028972D01*
X134889709Y-122036561D01*
X134824665Y-122045792D01*
X134757299Y-122055790D01*
X134693544Y-122065680D01*
X134654666Y-122072000D01*
X134606413Y-122080001D01*
X134559477Y-122087716D01*
X134517008Y-122094631D01*
X134482160Y-122100233D01*
X134458081Y-122104010D01*
X134456510Y-122104249D01*
X134437048Y-122107516D01*
X134405601Y-122113184D01*
X134364319Y-122120848D01*
X134315353Y-122130104D01*
X134260854Y-122140546D01*
X134202971Y-122151769D01*
X134171886Y-122157850D01*
X134103236Y-122171313D01*
X134028066Y-122186036D01*
X133950480Y-122201217D01*
X133874581Y-122216053D01*
X133804471Y-122229742D01*
X133744253Y-122241482D01*
X133742353Y-122241852D01*
X133547004Y-122279891D01*
X132820589Y-122279891D01*
X132822349Y-122279496D01*
X132856825Y-122271379D01*
X132880795Y-122265037D01*
X132896054Y-122259861D01*
X132904398Y-122255240D01*
X132907623Y-122250565D01*
X132907523Y-122245228D01*
X132907519Y-122245207D01*
X132906074Y-122232616D01*
X132904247Y-122208892D01*
X132902261Y-122177299D01*
X132900338Y-122141102D01*
X132900128Y-122136723D01*
X132897887Y-122098043D01*
X132895048Y-122061486D01*
X132891971Y-122031111D01*
X132889016Y-122010976D01*
X132888944Y-122010624D01*
X132886026Y-121992461D01*
X132882306Y-121963172D01*
X132878152Y-121925991D01*
X132873934Y-121884155D01*
X132871354Y-121856247D01*
X132866875Y-121810023D01*
X132861717Y-121763401D01*
X132861474Y-121761451D01*
X133007437Y-121761451D01*
X133008686Y-121780882D01*
X133011031Y-121808825D01*
X133014178Y-121842379D01*
X133017832Y-121878644D01*
X133021697Y-121914719D01*
X133025479Y-121947704D01*
X133028882Y-121974699D01*
X133031611Y-121992803D01*
X133032286Y-121996213D01*
X133035383Y-122015660D01*
X133038664Y-122045646D01*
X133041767Y-122082307D01*
X133044327Y-122121780D01*
X133044643Y-122127716D01*
X133046794Y-122163614D01*
X133049175Y-122193717D01*
X133051535Y-122215427D01*
X133053624Y-122226142D01*
X133054178Y-122226825D01*
X133062395Y-122225449D01*
X133082242Y-122221627D01*
X133111240Y-122215850D01*
X133146910Y-122208610D01*
X133172099Y-122203434D01*
X133210357Y-122195277D01*
X133243111Y-122187795D01*
X133268000Y-122181568D01*
X133282661Y-122177176D01*
X133285588Y-122175571D01*
X133281424Y-122167869D01*
X133270799Y-122153138D01*
X133262914Y-122143118D01*
X133248870Y-122124434D01*
X133228708Y-122095801D01*
X133203935Y-122059502D01*
X133176061Y-122017817D01*
X133146591Y-121973025D01*
X133117035Y-121927409D01*
X133088900Y-121883249D01*
X133063694Y-121842826D01*
X133055197Y-121828920D01*
X133037453Y-121799900D01*
X133022656Y-121776123D01*
X133012246Y-121759875D01*
X133007666Y-121753443D01*
X133007581Y-121753431D01*
X133007437Y-121761451D01*
X132861474Y-121761451D01*
X132856390Y-121720588D01*
X132851402Y-121685793D01*
X132849154Y-121672502D01*
X132843971Y-121637768D01*
X132839648Y-121596243D01*
X132836275Y-121550739D01*
X132833945Y-121504067D01*
X132832749Y-121459040D01*
X132832777Y-121418468D01*
X132834121Y-121385165D01*
X132836872Y-121361940D01*
X132838851Y-121354872D01*
X132854971Y-121332646D01*
X132879363Y-121316956D01*
X132903688Y-121311674D01*
X132928852Y-121316034D01*
G37*
G36*
X134135470Y-126352721D02*
G01*
X134144939Y-126357035D01*
X134164017Y-126373495D01*
X134174784Y-126399058D01*
X134177545Y-126427492D01*
X134178586Y-126440361D01*
X134182270Y-126455025D01*
X134189438Y-126473523D01*
X134200931Y-126497894D01*
X134217588Y-126530175D01*
X134227723Y-126549188D01*
X134245104Y-126581851D01*
X134260847Y-126611947D01*
X134273744Y-126637128D01*
X134282588Y-126655047D01*
X134285597Y-126661702D01*
X134291239Y-126674963D01*
X134300764Y-126696654D01*
X134312798Y-126723670D01*
X134324845Y-126750424D01*
X134343316Y-126791306D01*
X134357313Y-126822592D01*
X134367619Y-126846222D01*
X134375013Y-126864134D01*
X134380277Y-126878267D01*
X134384192Y-126890560D01*
X134387539Y-126902952D01*
X134389556Y-126911059D01*
X134397677Y-126941962D01*
X134406498Y-126969971D01*
X134417710Y-127000027D01*
X134431038Y-127032435D01*
X134440928Y-127056359D01*
X134449666Y-127078351D01*
X134454997Y-127092640D01*
X134474511Y-127145655D01*
X134498816Y-127206164D01*
X134526422Y-127270649D01*
X134555841Y-127335594D01*
X134574575Y-127375037D01*
X134628485Y-127486327D01*
X134683442Y-127494011D01*
X134718803Y-127499393D01*
X134762584Y-127506719D01*
X134810814Y-127515261D01*
X134859520Y-127524297D01*
X134904733Y-127533101D01*
X134942481Y-127540949D01*
X134950699Y-127542770D01*
X134975706Y-127547890D01*
X135007909Y-127553762D01*
X135041942Y-127559429D01*
X135056851Y-127561720D01*
X135093907Y-127567745D01*
X135120630Y-127573707D01*
X135139316Y-127580619D01*
X135152260Y-127589491D01*
X135161759Y-127601336D01*
X135166676Y-127610128D01*
X135176981Y-127640463D01*
X135175297Y-127667092D01*
X135161753Y-127689544D01*
X135141154Y-127704915D01*
X135121982Y-127716037D01*
X135099519Y-127729856D01*
X135090120Y-127735878D01*
X135068244Y-127749641D01*
X135046070Y-127762848D01*
X135038046Y-127767372D01*
X135022779Y-127776545D01*
X135000672Y-127790830D01*
X134975188Y-127807957D01*
X134958830Y-127819275D01*
X134930990Y-127838171D01*
X134902288Y-127856649D01*
X134877096Y-127871933D01*
X134866508Y-127877873D01*
X134846905Y-127888730D01*
X134836295Y-127896618D01*
X134832413Y-127904390D01*
X134832995Y-127914901D01*
X134833729Y-127919173D01*
X134837595Y-127931435D01*
X134846111Y-127952974D01*
X134858368Y-127981674D01*
X134873460Y-128015422D01*
X134890479Y-128052101D01*
X134893555Y-128058594D01*
X134931575Y-128139404D01*
X134964397Y-128210850D01*
X134991760Y-128272356D01*
X135013403Y-128323344D01*
X135015477Y-128328418D01*
X135025725Y-128353552D01*
X135036396Y-128379649D01*
X135040074Y-128388623D01*
X135048343Y-128412150D01*
X135054735Y-128436159D01*
X135055952Y-128442490D01*
X135060730Y-128463349D01*
X135067024Y-128481552D01*
X135068023Y-128483683D01*
X135074956Y-128501326D01*
X135080584Y-128521598D01*
X135080607Y-128521707D01*
X135085387Y-128536625D01*
X135094569Y-128559295D01*
X135106683Y-128586240D01*
X135116170Y-128605882D01*
X135129811Y-128635276D01*
X135141657Y-128664460D01*
X135150102Y-128689286D01*
X135152976Y-128700942D01*
X135161089Y-128735960D01*
X135174095Y-128779511D01*
X135191057Y-128828872D01*
X135211039Y-128881321D01*
X135233105Y-128934134D01*
X135233471Y-128934971D01*
X135248458Y-128975750D01*
X135254182Y-129009115D01*
X135250767Y-129036169D01*
X135246046Y-129047007D01*
X135229355Y-129065612D01*
X135206350Y-129077106D01*
X135192786Y-129079167D01*
X135177412Y-129076622D01*
X135160643Y-129070067D01*
X135146961Y-129061726D01*
X135140847Y-129053826D01*
X135140818Y-129053358D01*
X135136157Y-129044489D01*
X135123700Y-129030108D01*
X135105736Y-129012380D01*
X135084553Y-128993468D01*
X135062441Y-128975539D01*
X135052077Y-128968030D01*
X135045758Y-128963451D01*
X135018279Y-128944889D01*
X134997688Y-128931092D01*
X134980391Y-128919702D01*
X134962793Y-128908360D01*
X134941297Y-128894708D01*
X134931687Y-128888631D01*
X134908523Y-128873521D01*
X134888238Y-128859446D01*
X134874223Y-128848788D01*
X134871482Y-128846359D01*
X134855504Y-128833632D01*
X134842964Y-128825902D01*
X134826884Y-128816191D01*
X134809280Y-128803739D01*
X134808109Y-128802832D01*
X134790777Y-128789492D01*
X134774689Y-128777399D01*
X134773930Y-128776840D01*
X134757182Y-128763556D01*
X134745106Y-128753001D01*
X134731129Y-128741018D01*
X134712353Y-128726905D01*
X134686302Y-128708845D01*
X134671856Y-128699152D01*
X134645030Y-128681138D01*
X134625941Y-128667835D01*
X134611691Y-128657051D01*
X134599386Y-128646597D01*
X134586302Y-128634446D01*
X134566565Y-128616522D01*
X134546133Y-128599323D01*
X134527611Y-128584892D01*
X134513603Y-128575273D01*
X134507208Y-128572405D01*
X134500457Y-128568859D01*
X134486137Y-128559421D01*
X134466754Y-128545892D01*
X134444814Y-128530073D01*
X134422820Y-128513765D01*
X134403279Y-128498768D01*
X134391187Y-128489002D01*
X134377943Y-128477299D01*
X134359404Y-128460185D01*
X134339316Y-128441125D01*
X134336984Y-128438876D01*
X134318392Y-128422068D01*
X134292558Y-128400284D01*
X134262496Y-128375991D01*
X134231221Y-128351658D01*
X134221571Y-128344358D01*
X134189522Y-128319870D01*
X134156713Y-128294066D01*
X134126516Y-128269643D01*
X134102300Y-128249297D01*
X134097380Y-128244991D01*
X134076900Y-128227598D01*
X134076268Y-128227111D01*
X134059273Y-128214006D01*
X134047031Y-128206101D01*
X134043513Y-128204860D01*
X134034071Y-128207605D01*
X134016828Y-128214854D01*
X133995173Y-128225159D01*
X133990594Y-128227468D01*
X133962418Y-128241122D01*
X133932150Y-128254722D01*
X133907784Y-128264752D01*
X133861756Y-128283932D01*
X133825764Y-128302724D01*
X133797296Y-128322498D01*
X133789162Y-128329439D01*
X133771722Y-128343821D01*
X133748439Y-128361374D01*
X133724159Y-128378455D01*
X133722621Y-128379490D01*
X133699604Y-128394951D01*
X133678160Y-128409410D01*
X133662489Y-128420036D01*
X133661053Y-128421017D01*
X133641346Y-128433468D01*
X133612519Y-128450298D01*
X133576813Y-128470268D01*
X133536469Y-128492139D01*
X133493729Y-128514671D01*
X133487825Y-128517709D01*
X133464596Y-128529660D01*
X133416446Y-128554036D01*
X133378043Y-128573006D01*
X133347905Y-128587041D01*
X133324552Y-128596614D01*
X133306500Y-128602198D01*
X133292269Y-128604265D01*
X133280378Y-128603287D01*
X133269345Y-128599738D01*
X133259552Y-128595061D01*
X133240699Y-128578718D01*
X133229719Y-128555230D01*
X133227404Y-128527962D01*
X133234545Y-128500283D01*
X133236383Y-128496492D01*
X133246333Y-128482494D01*
X133256979Y-128474493D01*
X133267502Y-128467175D01*
X133280187Y-128453469D01*
X133283982Y-128448422D01*
X133296639Y-128430727D01*
X133312615Y-128408572D01*
X133323835Y-128393103D01*
X133336780Y-128374275D01*
X133487825Y-128374275D01*
X133536771Y-128345009D01*
X133583029Y-128317035D01*
X133619940Y-128293937D01*
X133649286Y-128274527D01*
X133672850Y-128257615D01*
X133692415Y-128242014D01*
X133696484Y-128238532D01*
X133723432Y-128216861D01*
X133751525Y-128198217D01*
X133784040Y-128180721D01*
X133824258Y-128162493D01*
X133826751Y-128161452D01*
X134193989Y-128161452D01*
X134199794Y-128166718D01*
X134214034Y-128178302D01*
X134235030Y-128194879D01*
X134261107Y-128215124D01*
X134287104Y-128235056D01*
X134329749Y-128266907D01*
X134368255Y-128293962D01*
X134405688Y-128318085D01*
X134445113Y-128341145D01*
X134489595Y-128365006D01*
X134542199Y-128391535D01*
X134552183Y-128396450D01*
X134587620Y-128414689D01*
X134612650Y-128430013D01*
X134628744Y-128443927D01*
X134637374Y-128457936D01*
X134640011Y-128473544D01*
X134639188Y-128485422D01*
X134642918Y-128499609D01*
X134655869Y-128518153D01*
X134676200Y-128539222D01*
X134702071Y-128560985D01*
X134731640Y-128581609D01*
X134742458Y-128588183D01*
X134764050Y-128601303D01*
X134782471Y-128613404D01*
X134793854Y-128621942D01*
X134794097Y-128622163D01*
X134826856Y-128651060D01*
X134860545Y-128678527D01*
X134892402Y-128702448D01*
X134919664Y-128720710D01*
X134932136Y-128727801D01*
X134950703Y-128739054D01*
X134966544Y-128751399D01*
X134967501Y-128752315D01*
X134980348Y-128762647D01*
X134999675Y-128775716D01*
X135016606Y-128785957D01*
X135052077Y-128806220D01*
X135042474Y-128787651D01*
X135035730Y-128769639D01*
X135030347Y-128746774D01*
X135029154Y-128738869D01*
X135024549Y-128719460D01*
X135015421Y-128693431D01*
X135003409Y-128665241D01*
X134997973Y-128653980D01*
X134984501Y-128625473D01*
X134972268Y-128596622D01*
X134963281Y-128572267D01*
X134961152Y-128565257D01*
X134954526Y-128542093D01*
X134948023Y-128520842D01*
X134945165Y-128512201D01*
X134939018Y-128493993D01*
X134931712Y-128471595D01*
X134929503Y-128464671D01*
X134920168Y-128436097D01*
X134911140Y-128410947D01*
X134900821Y-128385146D01*
X134887609Y-128354618D01*
X134876894Y-128330715D01*
X134865521Y-128305068D01*
X134856426Y-128283664D01*
X134850709Y-128269148D01*
X134849301Y-128264375D01*
X134846686Y-128257272D01*
X134839400Y-128240598D01*
X134828284Y-128216196D01*
X134814179Y-128185908D01*
X134797925Y-128151577D01*
X134796221Y-128148007D01*
X134778384Y-128110489D01*
X134767326Y-128087014D01*
X134761246Y-128074107D01*
X134746028Y-128041481D01*
X134733954Y-128015229D01*
X134726636Y-127998877D01*
X134717077Y-127979623D01*
X134708162Y-127966324D01*
X134702084Y-127961946D01*
X134693565Y-127964688D01*
X134675373Y-127971552D01*
X134649512Y-127981726D01*
X134617983Y-127994394D01*
X134582789Y-128008745D01*
X134545932Y-128023963D01*
X134509414Y-128039235D01*
X134475237Y-128053748D01*
X134459556Y-128060507D01*
X134432745Y-128071755D01*
X134406998Y-128081913D01*
X134386991Y-128089151D01*
X134383508Y-128090267D01*
X134364943Y-128096400D01*
X134339729Y-128105293D01*
X134313032Y-128115119D01*
X134310629Y-128116026D01*
X134281812Y-128126604D01*
X134251834Y-128137090D01*
X134227154Y-128145225D01*
X134227020Y-128145267D01*
X134208472Y-128151941D01*
X134196598Y-128157955D01*
X134193989Y-128161452D01*
X133826751Y-128161452D01*
X133842270Y-128154972D01*
X133870108Y-128143194D01*
X133895740Y-128131729D01*
X133915413Y-128122284D01*
X133922348Y-128118560D01*
X133942825Y-128106612D01*
X133827288Y-127991045D01*
X133796006Y-127959870D01*
X133767695Y-127931876D01*
X133743573Y-127908250D01*
X133724860Y-127890181D01*
X133712776Y-127878856D01*
X133708583Y-127875412D01*
X133702547Y-127880932D01*
X133693402Y-127896109D01*
X133682152Y-127918610D01*
X133669801Y-127946104D01*
X133664332Y-127959353D01*
X133657354Y-127976257D01*
X133645812Y-128006739D01*
X133636182Y-128035217D01*
X133629529Y-128059082D01*
X133622002Y-128085222D01*
X133611557Y-128114381D01*
X133604777Y-128130558D01*
X133596046Y-128151236D01*
X133590032Y-128168198D01*
X133588174Y-128176630D01*
X133585250Y-128186516D01*
X133577183Y-128205321D01*
X133565026Y-128230908D01*
X133549834Y-128261138D01*
X133532662Y-128293876D01*
X133514565Y-128326984D01*
X133509773Y-128335503D01*
X133487825Y-128374275D01*
X133336780Y-128374275D01*
X133340914Y-128368262D01*
X133360284Y-128337853D01*
X133380844Y-128303855D01*
X133401496Y-128268251D01*
X133421140Y-128233022D01*
X133438676Y-128200147D01*
X133453006Y-128171608D01*
X133463028Y-128149387D01*
X133467645Y-128135463D01*
X133467826Y-128133672D01*
X133470439Y-128123955D01*
X133477149Y-128106980D01*
X133484474Y-128090769D01*
X133495577Y-128064218D01*
X133505472Y-128035219D01*
X133509351Y-128021058D01*
X133533041Y-127943729D01*
X133568144Y-127862570D01*
X133581660Y-127836069D01*
X133614101Y-127774657D01*
X133599737Y-127766970D01*
X133590139Y-127759826D01*
X133580656Y-127751634D01*
X133766204Y-127751634D01*
X133837206Y-127821753D01*
X133867216Y-127851301D01*
X133902759Y-127886157D01*
X133940254Y-127922818D01*
X133976122Y-127957781D01*
X133992238Y-127973446D01*
X134076268Y-128055021D01*
X134109479Y-128045209D01*
X134134401Y-128038017D01*
X134163892Y-128029746D01*
X134183882Y-128024272D01*
X134213496Y-128015611D01*
X134248416Y-128004117D01*
X134289702Y-127989392D01*
X134338411Y-127971036D01*
X134395602Y-127948652D01*
X134462334Y-127921843D01*
X134532435Y-127893185D01*
X134565130Y-127879742D01*
X134594565Y-127867654D01*
X134618341Y-127857905D01*
X134634054Y-127851483D01*
X134638256Y-127849778D01*
X134652186Y-127844177D01*
X134636513Y-127804287D01*
X134625659Y-127777981D01*
X134612086Y-127746904D01*
X134598677Y-127717654D01*
X134598304Y-127716866D01*
X134584923Y-127688754D01*
X134571000Y-127659673D01*
X134559423Y-127635654D01*
X134558854Y-127634481D01*
X134554535Y-127625581D01*
X134698073Y-127625581D01*
X134699534Y-127631737D01*
X134705446Y-127646447D01*
X134714653Y-127666897D01*
X134717893Y-127673750D01*
X134730223Y-127700530D01*
X134741846Y-127727430D01*
X134750375Y-127748911D01*
X134750795Y-127750072D01*
X134758092Y-127768091D01*
X134764700Y-127780616D01*
X134767326Y-127783662D01*
X134776487Y-127782580D01*
X134794454Y-127774396D01*
X134820021Y-127759781D01*
X134851982Y-127739405D01*
X134874651Y-127724054D01*
X134902112Y-127704816D01*
X134920335Y-127691226D01*
X134930713Y-127682031D01*
X134934638Y-127675977D01*
X134933505Y-127671812D01*
X134933146Y-127671430D01*
X134925141Y-127668231D01*
X134907410Y-127663530D01*
X134882716Y-127658001D01*
X134858533Y-127653197D01*
X134809717Y-127644036D01*
X134771938Y-127637002D01*
X134743782Y-127631852D01*
X134723836Y-127628342D01*
X134710685Y-127626229D01*
X134702915Y-127625269D01*
X134699113Y-127625220D01*
X134698073Y-127625581D01*
X134554535Y-127625581D01*
X134541941Y-127599626D01*
X134497580Y-127597735D01*
X134476057Y-127596573D01*
X134467237Y-127596005D01*
X134445151Y-127594581D01*
X134408110Y-127591983D01*
X134368183Y-127589004D01*
X134342315Y-127586978D01*
X134297637Y-127583415D01*
X134245220Y-127579248D01*
X134189962Y-127574866D01*
X134136760Y-127570657D01*
X134104666Y-127568125D01*
X134060667Y-127564251D01*
X134016156Y-127559615D01*
X133974502Y-127554617D01*
X133939074Y-127549659D01*
X133915150Y-127545535D01*
X133888832Y-127540418D01*
X133867779Y-127536643D01*
X133854648Y-127534667D01*
X133851594Y-127534592D01*
X133834378Y-127572826D01*
X133815770Y-127617264D01*
X133798180Y-127662018D01*
X133787379Y-127691473D01*
X133766204Y-127751634D01*
X133580656Y-127751634D01*
X133573105Y-127745111D01*
X133550118Y-127724262D01*
X133522664Y-127698711D01*
X133492226Y-127669894D01*
X133460289Y-127639243D01*
X133428336Y-127608194D01*
X133397854Y-127578180D01*
X133370325Y-127550636D01*
X133347234Y-127526995D01*
X133330065Y-127508692D01*
X133320303Y-127497161D01*
X133319898Y-127496590D01*
X133304138Y-127477689D01*
X133286062Y-127460336D01*
X133461427Y-127460336D01*
X133465807Y-127464960D01*
X133478071Y-127477039D01*
X133496911Y-127495306D01*
X133521015Y-127518491D01*
X133549073Y-127545328D01*
X133562880Y-127558486D01*
X133664332Y-127655067D01*
X133670773Y-127636852D01*
X133676492Y-127622428D01*
X133685792Y-127600752D01*
X133696858Y-127576037D01*
X133699119Y-127571108D01*
X133709231Y-127548755D01*
X133716903Y-127531013D01*
X133720864Y-127520848D01*
X133721141Y-127519692D01*
X133715424Y-127516848D01*
X133700024Y-127512511D01*
X133677735Y-127507422D01*
X133665806Y-127505007D01*
X133634069Y-127498352D01*
X133600953Y-127490649D01*
X133572861Y-127483399D01*
X133569162Y-127482353D01*
X133546584Y-127476326D01*
X133521840Y-127470448D01*
X133497956Y-127465338D01*
X133477961Y-127461614D01*
X133464881Y-127459895D01*
X133461427Y-127460336D01*
X133286062Y-127460336D01*
X133284032Y-127458387D01*
X133275111Y-127451174D01*
X133248910Y-127426354D01*
X133236518Y-127402809D01*
X133896281Y-127402809D01*
X133900039Y-127410540D01*
X133910638Y-127415374D01*
X133928521Y-127419490D01*
X133938040Y-127421471D01*
X133959168Y-127425071D01*
X133990013Y-127429175D01*
X134027647Y-127433450D01*
X134069140Y-127437563D01*
X134111003Y-127441138D01*
X134154431Y-127444576D01*
X134197849Y-127448104D01*
X134238050Y-127451455D01*
X134271826Y-127454361D01*
X134294785Y-127456442D01*
X134341910Y-127460690D01*
X134384227Y-127464061D01*
X134420227Y-127466470D01*
X134448400Y-127467829D01*
X134467237Y-127468053D01*
X134475228Y-127467055D01*
X134475399Y-127466766D01*
X134472739Y-127459723D01*
X134465696Y-127444428D01*
X134455672Y-127423905D01*
X134453358Y-127419289D01*
X134440508Y-127392889D01*
X134428160Y-127366055D01*
X134419146Y-127344984D01*
X134410762Y-127323970D01*
X134399021Y-127294568D01*
X134385159Y-127259876D01*
X134370414Y-127222989D01*
X134356026Y-127187004D01*
X134343230Y-127155018D01*
X134333266Y-127130126D01*
X134329672Y-127121158D01*
X134312855Y-127079047D01*
X134300099Y-127046545D01*
X134290647Y-127021538D01*
X134283746Y-127001910D01*
X134278642Y-126985545D01*
X134274578Y-126970330D01*
X134272025Y-126959556D01*
X134268741Y-126947066D01*
X134263918Y-126932475D01*
X134256863Y-126914107D01*
X134246883Y-126890285D01*
X134233287Y-126859331D01*
X134215381Y-126819571D01*
X134202659Y-126791617D01*
X134190134Y-126763512D01*
X134179416Y-126738245D01*
X134171759Y-126718846D01*
X134168592Y-126709232D01*
X134163280Y-126695464D01*
X134153283Y-126675916D01*
X134143365Y-126659062D01*
X134121843Y-126624736D01*
X134111463Y-126671737D01*
X134105411Y-126700193D01*
X134099696Y-126728815D01*
X134095731Y-126750424D01*
X134087257Y-126793011D01*
X134075209Y-126843153D01*
X134060688Y-126896623D01*
X134044794Y-126949196D01*
X134040398Y-126962725D01*
X134030289Y-126994211D01*
X134020786Y-127025370D01*
X134013213Y-127051780D01*
X134009998Y-127064122D01*
X133994106Y-127127872D01*
X133980054Y-127179926D01*
X133967913Y-127220025D01*
X133957759Y-127247911D01*
X133956562Y-127250686D01*
X133948880Y-127269359D01*
X133943991Y-127283751D01*
X133943064Y-127288497D01*
X133940471Y-127297378D01*
X133933606Y-127314278D01*
X133923840Y-127335866D01*
X133921662Y-127340449D01*
X133907534Y-127369942D01*
X133898927Y-127390003D01*
X133896281Y-127402809D01*
X133236518Y-127402809D01*
X133235282Y-127400461D01*
X133234154Y-127373273D01*
X133242314Y-127350221D01*
X133252700Y-127335914D01*
X133267879Y-127326239D01*
X133290040Y-127320479D01*
X133321370Y-127317919D01*
X133342065Y-127317615D01*
X133382878Y-127319155D01*
X133427212Y-127324020D01*
X133477398Y-127332580D01*
X133535765Y-127345202D01*
X133572330Y-127354043D01*
X133613996Y-127364188D01*
X133654074Y-127373526D01*
X133690392Y-127381588D01*
X133720776Y-127387903D01*
X133743052Y-127392002D01*
X133754528Y-127393413D01*
X133763919Y-127390414D01*
X133765619Y-127386827D01*
X133768064Y-127378366D01*
X133774627Y-127361310D01*
X133784148Y-127338589D01*
X133790091Y-127325038D01*
X133822578Y-127247673D01*
X133848375Y-127175978D01*
X133868936Y-127105911D01*
X133869091Y-127105314D01*
X133877274Y-127073944D01*
X133885414Y-127042807D01*
X133892252Y-127016718D01*
X133894786Y-127007086D01*
X133901132Y-126984706D01*
X133910007Y-126955557D01*
X133919809Y-126924852D01*
X133922999Y-126915195D01*
X133929690Y-126894404D01*
X133936210Y-126872375D01*
X133942938Y-126847529D01*
X133950258Y-126818284D01*
X133958551Y-126783061D01*
X133968199Y-126740279D01*
X133979583Y-126688358D01*
X133993087Y-126625716D01*
X133994203Y-126620509D01*
X134006446Y-126565340D01*
X134017330Y-126520768D01*
X134027368Y-126484850D01*
X134037071Y-126455648D01*
X134038922Y-126450687D01*
X134043394Y-126433733D01*
X134044461Y-126423501D01*
X134048693Y-126404256D01*
X134059339Y-126382988D01*
X134073325Y-126364792D01*
X134085443Y-126355590D01*
X134111048Y-126348519D01*
X134135470Y-126352721D01*
G37*
G36*
X122099717Y-121534545D02*
G01*
X122103508Y-121536383D01*
X122117506Y-121546333D01*
X122125507Y-121556979D01*
X122132825Y-121567502D01*
X122146531Y-121580187D01*
X122151578Y-121583982D01*
X122169273Y-121596639D01*
X122191428Y-121612615D01*
X122206897Y-121623835D01*
X122231738Y-121640914D01*
X122262147Y-121660284D01*
X122296145Y-121680844D01*
X122331749Y-121701496D01*
X122366978Y-121721140D01*
X122399853Y-121738676D01*
X122428392Y-121753006D01*
X122450613Y-121763028D01*
X122464537Y-121767645D01*
X122466328Y-121767826D01*
X122476045Y-121770439D01*
X122493020Y-121777149D01*
X122509231Y-121784474D01*
X122535782Y-121795577D01*
X122564781Y-121805472D01*
X122578942Y-121809351D01*
X122656271Y-121833041D01*
X122737430Y-121868144D01*
X122763931Y-121881660D01*
X122825343Y-121914101D01*
X122833030Y-121899737D01*
X122840174Y-121890139D01*
X122854889Y-121873105D01*
X122875738Y-121850118D01*
X122901289Y-121822664D01*
X122930106Y-121792226D01*
X122960757Y-121760289D01*
X122991806Y-121728336D01*
X123021820Y-121697854D01*
X123049364Y-121670325D01*
X123073005Y-121647234D01*
X123091308Y-121630065D01*
X123102839Y-121620303D01*
X123103410Y-121619898D01*
X123122311Y-121604138D01*
X123141613Y-121584032D01*
X123148826Y-121575111D01*
X123173646Y-121548910D01*
X123199539Y-121535282D01*
X123226727Y-121534154D01*
X123249779Y-121542314D01*
X123264086Y-121552700D01*
X123273761Y-121567879D01*
X123279521Y-121590040D01*
X123282081Y-121621370D01*
X123282385Y-121642065D01*
X123280845Y-121682878D01*
X123275980Y-121727212D01*
X123267420Y-121777398D01*
X123254798Y-121835765D01*
X123245957Y-121872330D01*
X123235812Y-121913996D01*
X123226474Y-121954074D01*
X123218412Y-121990392D01*
X123212097Y-122020776D01*
X123207998Y-122043052D01*
X123206587Y-122054528D01*
X123209586Y-122063919D01*
X123213173Y-122065619D01*
X123221634Y-122068064D01*
X123238690Y-122074627D01*
X123261411Y-122084148D01*
X123274962Y-122090091D01*
X123352327Y-122122578D01*
X123424022Y-122148375D01*
X123494089Y-122168936D01*
X123494686Y-122169091D01*
X123526056Y-122177274D01*
X123557193Y-122185414D01*
X123583282Y-122192252D01*
X123592914Y-122194786D01*
X123615294Y-122201132D01*
X123644443Y-122210007D01*
X123675148Y-122219809D01*
X123684805Y-122222999D01*
X123705596Y-122229690D01*
X123727625Y-122236210D01*
X123752471Y-122242938D01*
X123781716Y-122250258D01*
X123816939Y-122258551D01*
X123859721Y-122268199D01*
X123911642Y-122279583D01*
X123974284Y-122293087D01*
X123979491Y-122294203D01*
X124034660Y-122306446D01*
X124079232Y-122317330D01*
X124115150Y-122327368D01*
X124144352Y-122337071D01*
X124149313Y-122338922D01*
X124166267Y-122343394D01*
X124176499Y-122344461D01*
X124195744Y-122348693D01*
X124217012Y-122359339D01*
X124235208Y-122373325D01*
X124244410Y-122385443D01*
X124251481Y-122411048D01*
X124247279Y-122435470D01*
X124242965Y-122444939D01*
X124226505Y-122464017D01*
X124200942Y-122474784D01*
X124172508Y-122477545D01*
X124159639Y-122478586D01*
X124144975Y-122482270D01*
X124126477Y-122489438D01*
X124102106Y-122500931D01*
X124069825Y-122517588D01*
X124050812Y-122527723D01*
X124018149Y-122545104D01*
X123988053Y-122560847D01*
X123962872Y-122573744D01*
X123944953Y-122582588D01*
X123938298Y-122585597D01*
X123925037Y-122591239D01*
X123903346Y-122600764D01*
X123876330Y-122612798D01*
X123849576Y-122624845D01*
X123808694Y-122643316D01*
X123777408Y-122657313D01*
X123753778Y-122667619D01*
X123735866Y-122675013D01*
X123721733Y-122680277D01*
X123709440Y-122684192D01*
X123697048Y-122687539D01*
X123688941Y-122689556D01*
X123658038Y-122697677D01*
X123630029Y-122706498D01*
X123599973Y-122717710D01*
X123567565Y-122731038D01*
X123543641Y-122740928D01*
X123521649Y-122749666D01*
X123507360Y-122754997D01*
X123454345Y-122774511D01*
X123393836Y-122798816D01*
X123329351Y-122826422D01*
X123264406Y-122855841D01*
X123224963Y-122874575D01*
X123113673Y-122928485D01*
X123105989Y-122983442D01*
X123100607Y-123018803D01*
X123093281Y-123062584D01*
X123084739Y-123110814D01*
X123075703Y-123159520D01*
X123066899Y-123204733D01*
X123059051Y-123242481D01*
X123057230Y-123250699D01*
X123052110Y-123275706D01*
X123046238Y-123307909D01*
X123040571Y-123341942D01*
X123038280Y-123356851D01*
X123032255Y-123393907D01*
X123026293Y-123420630D01*
X123019381Y-123439316D01*
X123010509Y-123452260D01*
X122998664Y-123461759D01*
X122989872Y-123466676D01*
X122959537Y-123476981D01*
X122932908Y-123475297D01*
X122910456Y-123461753D01*
X122895085Y-123441154D01*
X122883963Y-123421982D01*
X122870144Y-123399519D01*
X122864122Y-123390120D01*
X122850359Y-123368244D01*
X122837152Y-123346070D01*
X122832628Y-123338046D01*
X122823455Y-123322779D01*
X122809170Y-123300672D01*
X122792043Y-123275188D01*
X122780725Y-123258830D01*
X122761829Y-123230990D01*
X122743351Y-123202288D01*
X122728067Y-123177096D01*
X122722127Y-123166508D01*
X122711270Y-123146905D01*
X122703382Y-123136295D01*
X122695610Y-123132413D01*
X122685099Y-123132995D01*
X122680827Y-123133729D01*
X122668565Y-123137595D01*
X122647026Y-123146111D01*
X122618326Y-123158368D01*
X122584578Y-123173460D01*
X122547899Y-123190479D01*
X122541406Y-123193555D01*
X122460596Y-123231575D01*
X122389150Y-123264397D01*
X122327644Y-123291760D01*
X122276656Y-123313403D01*
X122271582Y-123315477D01*
X122246448Y-123325725D01*
X122220351Y-123336396D01*
X122211377Y-123340074D01*
X122187850Y-123348343D01*
X122163841Y-123354735D01*
X122157510Y-123355952D01*
X122136651Y-123360730D01*
X122118448Y-123367024D01*
X122116317Y-123368023D01*
X122098674Y-123374956D01*
X122078402Y-123380584D01*
X122078293Y-123380607D01*
X122063375Y-123385387D01*
X122040705Y-123394569D01*
X122013760Y-123406683D01*
X121994118Y-123416170D01*
X121964724Y-123429811D01*
X121935540Y-123441657D01*
X121910714Y-123450102D01*
X121899058Y-123452976D01*
X121864040Y-123461089D01*
X121820489Y-123474095D01*
X121771128Y-123491057D01*
X121718679Y-123511039D01*
X121665866Y-123533105D01*
X121665029Y-123533471D01*
X121624250Y-123548458D01*
X121590885Y-123554182D01*
X121563831Y-123550767D01*
X121552993Y-123546046D01*
X121534388Y-123529355D01*
X121522894Y-123506350D01*
X121520833Y-123492786D01*
X121523378Y-123477412D01*
X121529933Y-123460643D01*
X121538274Y-123446961D01*
X121546174Y-123440847D01*
X121546642Y-123440818D01*
X121555511Y-123436157D01*
X121569892Y-123423700D01*
X121587620Y-123405736D01*
X121606532Y-123384553D01*
X121624461Y-123362441D01*
X121631970Y-123352077D01*
X121793780Y-123352077D01*
X121812349Y-123342474D01*
X121830361Y-123335730D01*
X121853226Y-123330347D01*
X121861131Y-123329154D01*
X121880540Y-123324549D01*
X121906569Y-123315421D01*
X121934759Y-123303409D01*
X121946020Y-123297973D01*
X121974527Y-123284501D01*
X122003378Y-123272268D01*
X122027733Y-123263281D01*
X122034743Y-123261152D01*
X122057907Y-123254526D01*
X122079158Y-123248023D01*
X122087799Y-123245165D01*
X122106007Y-123239018D01*
X122128405Y-123231712D01*
X122135329Y-123229503D01*
X122163903Y-123220168D01*
X122189053Y-123211140D01*
X122214854Y-123200821D01*
X122245382Y-123187609D01*
X122269285Y-123176894D01*
X122294932Y-123165521D01*
X122316336Y-123156426D01*
X122330852Y-123150709D01*
X122335625Y-123149301D01*
X122342728Y-123146686D01*
X122359402Y-123139400D01*
X122383804Y-123128284D01*
X122414092Y-123114179D01*
X122448423Y-123097925D01*
X122451993Y-123096221D01*
X122489511Y-123078384D01*
X122512986Y-123067326D01*
X122816338Y-123067326D01*
X122817420Y-123076487D01*
X122825604Y-123094454D01*
X122840219Y-123120021D01*
X122860595Y-123151982D01*
X122875946Y-123174651D01*
X122895184Y-123202112D01*
X122908774Y-123220335D01*
X122917969Y-123230713D01*
X122924023Y-123234638D01*
X122928188Y-123233505D01*
X122928570Y-123233146D01*
X122931769Y-123225141D01*
X122936470Y-123207410D01*
X122941999Y-123182716D01*
X122946803Y-123158533D01*
X122955964Y-123109717D01*
X122962998Y-123071938D01*
X122968148Y-123043782D01*
X122971658Y-123023836D01*
X122973771Y-123010685D01*
X122974731Y-123002915D01*
X122974780Y-122999113D01*
X122974419Y-122998073D01*
X122968263Y-122999534D01*
X122953553Y-123005446D01*
X122933103Y-123014653D01*
X122926250Y-123017893D01*
X122899470Y-123030223D01*
X122872570Y-123041846D01*
X122851089Y-123050375D01*
X122849928Y-123050795D01*
X122831909Y-123058092D01*
X122819384Y-123064700D01*
X122816338Y-123067326D01*
X122512986Y-123067326D01*
X122525893Y-123061246D01*
X122558519Y-123046028D01*
X122584771Y-123033954D01*
X122601123Y-123026636D01*
X122620377Y-123017077D01*
X122633676Y-123008162D01*
X122638054Y-123002084D01*
X122635312Y-122993565D01*
X122628448Y-122975373D01*
X122618274Y-122949512D01*
X122605606Y-122917983D01*
X122591255Y-122882789D01*
X122576037Y-122845932D01*
X122560765Y-122809414D01*
X122546252Y-122775237D01*
X122539493Y-122759556D01*
X122528245Y-122732745D01*
X122518087Y-122706998D01*
X122510849Y-122686991D01*
X122509733Y-122683508D01*
X122503600Y-122664943D01*
X122494707Y-122639729D01*
X122484881Y-122613032D01*
X122483974Y-122610629D01*
X122473396Y-122581812D01*
X122462910Y-122551834D01*
X122454775Y-122527154D01*
X122454733Y-122527020D01*
X122448059Y-122508472D01*
X122442045Y-122496598D01*
X122438548Y-122493989D01*
X122433282Y-122499794D01*
X122421698Y-122514034D01*
X122405121Y-122535030D01*
X122384876Y-122561107D01*
X122364944Y-122587104D01*
X122333093Y-122629749D01*
X122306038Y-122668255D01*
X122281915Y-122705688D01*
X122258855Y-122745113D01*
X122234994Y-122789595D01*
X122208465Y-122842199D01*
X122203550Y-122852183D01*
X122185311Y-122887620D01*
X122169987Y-122912650D01*
X122156073Y-122928744D01*
X122142064Y-122937374D01*
X122126456Y-122940011D01*
X122114578Y-122939188D01*
X122100391Y-122942918D01*
X122081847Y-122955869D01*
X122060778Y-122976200D01*
X122039015Y-123002071D01*
X122018391Y-123031640D01*
X122011817Y-123042458D01*
X121998697Y-123064050D01*
X121986596Y-123082471D01*
X121978058Y-123093854D01*
X121977837Y-123094097D01*
X121948940Y-123126856D01*
X121921473Y-123160545D01*
X121897552Y-123192402D01*
X121879290Y-123219664D01*
X121872199Y-123232136D01*
X121860946Y-123250703D01*
X121848601Y-123266544D01*
X121847685Y-123267501D01*
X121837353Y-123280348D01*
X121824284Y-123299675D01*
X121814043Y-123316606D01*
X121793780Y-123352077D01*
X121631970Y-123352077D01*
X121636549Y-123345758D01*
X121655111Y-123318279D01*
X121668908Y-123297688D01*
X121680298Y-123280391D01*
X121691640Y-123262793D01*
X121705292Y-123241297D01*
X121711369Y-123231687D01*
X121726479Y-123208523D01*
X121740554Y-123188238D01*
X121751212Y-123174223D01*
X121753641Y-123171482D01*
X121766368Y-123155504D01*
X121774098Y-123142964D01*
X121783809Y-123126884D01*
X121796261Y-123109280D01*
X121797168Y-123108109D01*
X121810508Y-123090777D01*
X121822601Y-123074689D01*
X121823160Y-123073930D01*
X121836444Y-123057182D01*
X121846999Y-123045106D01*
X121858982Y-123031129D01*
X121873095Y-123012353D01*
X121891155Y-122986302D01*
X121900848Y-122971856D01*
X121918862Y-122945030D01*
X121932165Y-122925941D01*
X121942949Y-122911691D01*
X121953403Y-122899386D01*
X121965554Y-122886302D01*
X121983478Y-122866565D01*
X122000677Y-122846133D01*
X122015108Y-122827611D01*
X122024727Y-122813603D01*
X122027595Y-122807208D01*
X122031141Y-122800457D01*
X122040579Y-122786137D01*
X122054108Y-122766754D01*
X122069927Y-122744814D01*
X122086235Y-122722820D01*
X122101232Y-122703279D01*
X122110998Y-122691187D01*
X122122701Y-122677943D01*
X122139815Y-122659404D01*
X122158875Y-122639316D01*
X122161124Y-122636984D01*
X122177932Y-122618392D01*
X122199716Y-122592558D01*
X122224009Y-122562496D01*
X122248342Y-122531221D01*
X122255642Y-122521571D01*
X122280130Y-122489522D01*
X122305934Y-122456713D01*
X122330357Y-122426516D01*
X122350703Y-122402300D01*
X122355009Y-122397380D01*
X122372402Y-122376900D01*
X122372889Y-122376268D01*
X122544979Y-122376268D01*
X122554791Y-122409479D01*
X122561983Y-122434401D01*
X122570254Y-122463892D01*
X122575728Y-122483882D01*
X122584389Y-122513496D01*
X122595883Y-122548416D01*
X122610608Y-122589702D01*
X122628964Y-122638411D01*
X122651348Y-122695602D01*
X122678157Y-122762334D01*
X122706815Y-122832435D01*
X122720258Y-122865130D01*
X122732346Y-122894565D01*
X122742095Y-122918341D01*
X122748517Y-122934054D01*
X122750222Y-122938256D01*
X122755823Y-122952186D01*
X122795713Y-122936513D01*
X122822019Y-122925659D01*
X122853096Y-122912086D01*
X122882346Y-122898677D01*
X122883134Y-122898304D01*
X122911246Y-122884923D01*
X122940327Y-122871000D01*
X122964346Y-122859423D01*
X122965519Y-122858854D01*
X123000374Y-122841941D01*
X123002265Y-122797580D01*
X123003427Y-122776057D01*
X123003995Y-122767237D01*
X123131947Y-122767237D01*
X123132945Y-122775228D01*
X123133234Y-122775399D01*
X123140277Y-122772739D01*
X123155572Y-122765696D01*
X123176095Y-122755672D01*
X123180711Y-122753358D01*
X123207111Y-122740508D01*
X123233945Y-122728160D01*
X123255016Y-122719146D01*
X123276030Y-122710762D01*
X123305432Y-122699021D01*
X123340124Y-122685159D01*
X123377011Y-122670414D01*
X123412996Y-122656026D01*
X123444982Y-122643230D01*
X123469874Y-122633266D01*
X123478842Y-122629672D01*
X123520953Y-122612855D01*
X123553455Y-122600099D01*
X123578462Y-122590647D01*
X123598090Y-122583746D01*
X123614455Y-122578642D01*
X123629670Y-122574578D01*
X123640444Y-122572025D01*
X123652934Y-122568741D01*
X123667525Y-122563918D01*
X123685893Y-122556863D01*
X123709715Y-122546883D01*
X123740669Y-122533287D01*
X123780429Y-122515381D01*
X123808383Y-122502659D01*
X123836488Y-122490134D01*
X123861755Y-122479416D01*
X123881154Y-122471759D01*
X123890768Y-122468592D01*
X123904536Y-122463280D01*
X123924084Y-122453283D01*
X123940938Y-122443365D01*
X123975264Y-122421843D01*
X123928263Y-122411463D01*
X123899807Y-122405411D01*
X123871185Y-122399696D01*
X123849576Y-122395731D01*
X123806989Y-122387257D01*
X123756847Y-122375209D01*
X123703377Y-122360688D01*
X123650804Y-122344794D01*
X123637275Y-122340398D01*
X123605789Y-122330289D01*
X123574630Y-122320786D01*
X123548220Y-122313213D01*
X123535878Y-122309998D01*
X123472128Y-122294106D01*
X123420074Y-122280054D01*
X123379975Y-122267913D01*
X123352089Y-122257759D01*
X123349314Y-122256562D01*
X123330641Y-122248880D01*
X123316249Y-122243991D01*
X123311503Y-122243064D01*
X123302622Y-122240471D01*
X123285722Y-122233606D01*
X123264134Y-122223840D01*
X123259551Y-122221662D01*
X123230058Y-122207534D01*
X123209997Y-122198927D01*
X123197191Y-122196281D01*
X123189460Y-122200039D01*
X123184626Y-122210638D01*
X123180510Y-122228521D01*
X123178529Y-122238040D01*
X123174929Y-122259168D01*
X123170825Y-122290013D01*
X123166550Y-122327647D01*
X123162437Y-122369140D01*
X123158862Y-122411003D01*
X123155424Y-122454431D01*
X123151896Y-122497849D01*
X123148545Y-122538050D01*
X123145639Y-122571826D01*
X123143558Y-122594785D01*
X123139310Y-122641910D01*
X123135939Y-122684227D01*
X123133530Y-122720227D01*
X123132171Y-122748400D01*
X123131947Y-122767237D01*
X123003995Y-122767237D01*
X123005419Y-122745151D01*
X123008017Y-122708110D01*
X123010996Y-122668183D01*
X123013022Y-122642315D01*
X123016585Y-122597637D01*
X123020752Y-122545220D01*
X123025134Y-122489962D01*
X123029343Y-122436760D01*
X123031875Y-122404666D01*
X123035749Y-122360667D01*
X123040385Y-122316156D01*
X123045383Y-122274502D01*
X123050341Y-122239074D01*
X123054465Y-122215150D01*
X123059582Y-122188832D01*
X123063357Y-122167779D01*
X123065333Y-122154648D01*
X123065408Y-122151594D01*
X123027174Y-122134378D01*
X122982736Y-122115770D01*
X122937982Y-122098180D01*
X122908527Y-122087379D01*
X122848366Y-122066204D01*
X122778247Y-122137206D01*
X122748699Y-122167216D01*
X122713843Y-122202759D01*
X122677182Y-122240254D01*
X122642219Y-122276122D01*
X122626554Y-122292238D01*
X122544979Y-122376268D01*
X122372889Y-122376268D01*
X122385994Y-122359273D01*
X122393899Y-122347031D01*
X122395140Y-122343513D01*
X122392395Y-122334071D01*
X122385146Y-122316828D01*
X122374841Y-122295173D01*
X122372532Y-122290594D01*
X122358878Y-122262418D01*
X122345278Y-122232150D01*
X122335248Y-122207784D01*
X122316068Y-122161756D01*
X122297276Y-122125764D01*
X122277502Y-122097296D01*
X122270561Y-122089162D01*
X122256179Y-122071722D01*
X122238626Y-122048439D01*
X122221545Y-122024159D01*
X122220510Y-122022621D01*
X122205049Y-121999604D01*
X122190590Y-121978160D01*
X122179964Y-121962489D01*
X122178983Y-121961053D01*
X122166532Y-121941346D01*
X122149702Y-121912519D01*
X122129732Y-121876813D01*
X122107861Y-121836469D01*
X122085329Y-121793729D01*
X122082291Y-121787825D01*
X122225725Y-121787825D01*
X122254991Y-121836771D01*
X122282965Y-121883029D01*
X122306063Y-121919940D01*
X122325473Y-121949286D01*
X122342385Y-121972850D01*
X122357986Y-121992415D01*
X122361468Y-121996484D01*
X122383139Y-122023432D01*
X122401783Y-122051525D01*
X122419279Y-122084040D01*
X122437507Y-122124258D01*
X122445028Y-122142270D01*
X122456806Y-122170108D01*
X122468271Y-122195740D01*
X122477716Y-122215413D01*
X122481440Y-122222348D01*
X122493388Y-122242825D01*
X122608955Y-122127288D01*
X122640130Y-122096006D01*
X122668124Y-122067695D01*
X122691750Y-122043573D01*
X122709819Y-122024860D01*
X122721144Y-122012776D01*
X122724588Y-122008583D01*
X122719068Y-122002547D01*
X122703891Y-121993402D01*
X122681390Y-121982152D01*
X122653896Y-121969801D01*
X122640647Y-121964332D01*
X122944933Y-121964332D01*
X122963148Y-121970773D01*
X122977572Y-121976492D01*
X122999248Y-121985792D01*
X123023963Y-121996858D01*
X123028892Y-121999119D01*
X123051245Y-122009231D01*
X123068987Y-122016903D01*
X123079152Y-122020864D01*
X123080308Y-122021141D01*
X123083152Y-122015424D01*
X123087489Y-122000024D01*
X123092578Y-121977735D01*
X123094993Y-121965806D01*
X123101648Y-121934069D01*
X123109351Y-121900953D01*
X123116601Y-121872861D01*
X123117647Y-121869162D01*
X123123674Y-121846584D01*
X123129552Y-121821840D01*
X123134662Y-121797956D01*
X123138386Y-121777961D01*
X123140105Y-121764881D01*
X123139664Y-121761427D01*
X123135040Y-121765807D01*
X123122961Y-121778071D01*
X123104694Y-121796911D01*
X123081509Y-121821015D01*
X123054672Y-121849073D01*
X123041514Y-121862880D01*
X122944933Y-121964332D01*
X122640647Y-121964332D01*
X122623743Y-121957354D01*
X122593261Y-121945812D01*
X122564783Y-121936182D01*
X122540918Y-121929529D01*
X122514778Y-121922002D01*
X122485619Y-121911557D01*
X122469442Y-121904777D01*
X122448764Y-121896046D01*
X122431802Y-121890032D01*
X122423370Y-121888174D01*
X122413484Y-121885250D01*
X122394679Y-121877183D01*
X122369092Y-121865026D01*
X122338862Y-121849834D01*
X122306124Y-121832662D01*
X122273016Y-121814565D01*
X122264497Y-121809773D01*
X122225725Y-121787825D01*
X122082291Y-121787825D01*
X122070340Y-121764596D01*
X122045964Y-121716446D01*
X122026994Y-121678043D01*
X122012959Y-121647905D01*
X122003386Y-121624552D01*
X121997802Y-121606500D01*
X121995735Y-121592269D01*
X121996713Y-121580378D01*
X122000262Y-121569345D01*
X122004939Y-121559552D01*
X122021282Y-121540699D01*
X122044770Y-121529719D01*
X122072038Y-121527404D01*
X122099717Y-121534545D01*
G37*
G36*
X127409749Y-126256505D02*
G01*
X127432097Y-126268930D01*
X127506759Y-126320254D01*
X127608896Y-126355495D01*
X127737385Y-126374281D01*
X127752879Y-126375314D01*
X127828870Y-126378619D01*
X127876511Y-126377411D01*
X127899801Y-126371413D01*
X127903778Y-126364768D01*
X127916375Y-126351769D01*
X127945872Y-126351589D01*
X127979825Y-126362782D01*
X127998745Y-126375806D01*
X128029033Y-126389761D01*
X128073560Y-126396155D01*
X128077306Y-126396197D01*
X128127053Y-126401478D01*
X128167972Y-126414219D01*
X128168673Y-126414588D01*
X128204151Y-126425878D01*
X128257725Y-126434830D01*
X128294030Y-126438036D01*
X128375907Y-126443338D01*
X128432702Y-126449739D01*
X128471952Y-126459141D01*
X128501192Y-126473446D01*
X128527957Y-126494557D01*
X128531845Y-126498081D01*
X128567620Y-126526558D01*
X128596106Y-126542021D01*
X128601177Y-126542943D01*
X128619240Y-126556160D01*
X128621568Y-126567488D01*
X128630027Y-126589203D01*
X128637222Y-126591959D01*
X128657867Y-126602909D01*
X128687800Y-126629718D01*
X128692012Y-126634166D01*
X128730996Y-126669624D01*
X128769985Y-126695826D01*
X128770161Y-126695915D01*
X128803401Y-126728068D01*
X128810426Y-126755666D01*
X128817644Y-126810483D01*
X128833264Y-126851222D01*
X128853754Y-126869094D01*
X128856136Y-126869287D01*
X128893103Y-126883779D01*
X128925351Y-126920262D01*
X128945091Y-126968243D01*
X128947837Y-126992787D01*
X128953161Y-127039260D01*
X128966945Y-127100860D01*
X128981476Y-127149620D01*
X128999062Y-127206453D01*
X129004730Y-127240465D01*
X128999258Y-127258889D01*
X128993711Y-127263794D01*
X128989334Y-127271536D01*
X129013987Y-127268434D01*
X129016471Y-127267868D01*
X129054587Y-127266865D01*
X129088423Y-127288305D01*
X129099909Y-127299999D01*
X129130494Y-127328382D01*
X129153720Y-127342135D01*
X129155706Y-127342376D01*
X129178905Y-127353635D01*
X129192688Y-127367027D01*
X129211267Y-127382942D01*
X129227828Y-127371362D01*
X129232995Y-127364535D01*
X129256504Y-127347293D01*
X129271151Y-127348707D01*
X129296945Y-127349618D01*
X129334840Y-127336517D01*
X129337847Y-127335001D01*
X129388056Y-127318791D01*
X129423209Y-127327713D01*
X129439293Y-127360602D01*
X129439655Y-127364513D01*
X129442450Y-127405153D01*
X129443733Y-127423943D01*
X129458649Y-127467592D01*
X129492663Y-127488283D01*
X129503456Y-127489197D01*
X129529450Y-127495404D01*
X129535120Y-127503608D01*
X129548902Y-127517832D01*
X129571825Y-127525981D01*
X129615682Y-127538181D01*
X129638303Y-127546411D01*
X129661645Y-127549904D01*
X129664918Y-127536274D01*
X129663931Y-127495437D01*
X129677647Y-127481302D01*
X129694176Y-127484441D01*
X129732036Y-127510368D01*
X129740012Y-127548376D01*
X129737570Y-127558516D01*
X129741830Y-127585836D01*
X129767830Y-127601933D01*
X129823306Y-127616159D01*
X129883196Y-127621304D01*
X129935213Y-127617151D01*
X129965017Y-127605390D01*
X129996681Y-127593420D01*
X130031042Y-127597922D01*
X130054144Y-127615613D01*
X130057150Y-127627058D01*
X130070870Y-127647726D01*
X130091796Y-127657586D01*
X130116909Y-127672251D01*
X130117388Y-127702674D01*
X130116945Y-127704486D01*
X130113730Y-127742383D01*
X130130794Y-127765053D01*
X130172910Y-127776552D01*
X130205108Y-127779395D01*
X130259115Y-127778302D01*
X130293905Y-127764888D01*
X130309595Y-127750668D01*
X130342952Y-127724702D01*
X130373727Y-127717016D01*
X130393352Y-127727527D01*
X130394676Y-127751469D01*
X130402118Y-127783033D01*
X130436497Y-127815563D01*
X130492439Y-127845517D01*
X130564565Y-127869349D01*
X130578482Y-127872633D01*
X130632363Y-127890470D01*
X130656546Y-127914057D01*
X130657940Y-127918976D01*
X130673955Y-127953396D01*
X130702762Y-127987321D01*
X130733233Y-128008795D01*
X130743819Y-128011226D01*
X130768367Y-128001897D01*
X130801219Y-127980091D01*
X130845906Y-127959292D01*
X130890028Y-127960812D01*
X130923453Y-127982378D01*
X130935385Y-128010188D01*
X130941516Y-128032291D01*
X130957303Y-128042049D01*
X130991639Y-128042539D01*
X131021519Y-128039986D01*
X131069748Y-128038214D01*
X131103146Y-128042301D01*
X131111227Y-128046865D01*
X131131993Y-128054589D01*
X131151602Y-128051549D01*
X131182444Y-128053383D01*
X131192758Y-128067198D01*
X131213343Y-128089578D01*
X131225817Y-128092793D01*
X131251463Y-128105962D01*
X131258444Y-128117264D01*
X131280691Y-128137896D01*
X131298715Y-128141734D01*
X131324209Y-128151624D01*
X131329597Y-128164345D01*
X131343077Y-128185080D01*
X131376636Y-128208804D01*
X131388666Y-128214987D01*
X131428410Y-128239807D01*
X131452953Y-128266232D01*
X131455294Y-128271921D01*
X131474716Y-128301348D01*
X131500888Y-128321181D01*
X131532947Y-128347811D01*
X131546915Y-128372099D01*
X131567324Y-128401516D01*
X131593151Y-128417984D01*
X131613852Y-128429355D01*
X131609127Y-128434341D01*
X131597208Y-128440883D01*
X131605355Y-128462863D01*
X131614898Y-128478167D01*
X131629230Y-128504091D01*
X131627406Y-128511220D01*
X131625749Y-128510337D01*
X131606395Y-128514647D01*
X131589035Y-128536202D01*
X131560905Y-128575839D01*
X131535198Y-128602420D01*
X131493431Y-128631604D01*
X131435572Y-128663491D01*
X131371855Y-128693384D01*
X131312511Y-128716583D01*
X131267775Y-128728391D01*
X131259481Y-128729017D01*
X131220195Y-128733119D01*
X131164235Y-128743677D01*
X131123572Y-128753350D01*
X131090071Y-128760382D01*
X131047152Y-128765938D01*
X130991217Y-128770147D01*
X130918669Y-128773136D01*
X130825912Y-128775035D01*
X130709349Y-128775970D01*
X130565382Y-128776070D01*
X130490631Y-128775877D01*
X130294329Y-128775325D01*
X130128500Y-128775123D01*
X129990994Y-128775323D01*
X129879658Y-128775974D01*
X129792342Y-128777127D01*
X129726892Y-128778832D01*
X129681158Y-128781139D01*
X129652988Y-128784100D01*
X129640231Y-128787763D01*
X129640734Y-128792180D01*
X129647453Y-128795599D01*
X129684743Y-128803514D01*
X129740558Y-128807747D01*
X129786117Y-128807767D01*
X129849192Y-128808399D01*
X129930091Y-128813055D01*
X130014386Y-128820817D01*
X130040836Y-128823948D01*
X130117953Y-128833290D01*
X130215403Y-128844500D01*
X130321050Y-128856212D01*
X130422761Y-128867057D01*
X130428943Y-128867699D01*
X130516445Y-128877154D01*
X130595562Y-128886410D01*
X130659015Y-128894567D01*
X130699525Y-128900722D01*
X130706271Y-128902079D01*
X130771662Y-128919151D01*
X130831323Y-128938131D01*
X130877619Y-128956229D01*
X130902917Y-128970658D01*
X130905448Y-128974831D01*
X130893275Y-128995051D01*
X130855692Y-129011768D01*
X130791100Y-129025270D01*
X130697902Y-129035843D01*
X130574499Y-129043775D01*
X130505769Y-129046666D01*
X130404896Y-129050906D01*
X130309646Y-129055920D01*
X130227154Y-129061256D01*
X130164555Y-129066464D01*
X130134057Y-129070158D01*
X130087439Y-129075580D01*
X130056144Y-129075104D01*
X130049416Y-129072284D01*
X130031496Y-129068494D01*
X129987610Y-129066076D01*
X129924399Y-129065235D01*
X129850158Y-129066138D01*
X129712222Y-129068873D01*
X129591035Y-129070030D01*
X129476172Y-129069507D01*
X129357213Y-129067195D01*
X129223734Y-129062992D01*
X129110971Y-129058660D01*
X129007737Y-129055516D01*
X128906533Y-129054264D01*
X128815742Y-129054877D01*
X128743751Y-129057331D01*
X128711292Y-129059870D01*
X128646219Y-129066648D01*
X128587863Y-129071899D01*
X128550872Y-129074377D01*
X128521878Y-129078790D01*
X128524920Y-129088648D01*
X128526135Y-129089424D01*
X128531251Y-129102340D01*
X128507278Y-129118994D01*
X128488737Y-129127310D01*
X128443015Y-129154934D01*
X128422251Y-129192310D01*
X128421163Y-129197361D01*
X128418141Y-129226378D01*
X128426363Y-129246807D01*
X128451677Y-129263750D01*
X128499934Y-129282311D01*
X128529990Y-129292322D01*
X128581196Y-129312194D01*
X128621657Y-129333344D01*
X128634053Y-129342767D01*
X128663957Y-129358748D01*
X128682241Y-129357969D01*
X128714545Y-129356301D01*
X128724619Y-129360279D01*
X128751899Y-129368988D01*
X128796402Y-129376270D01*
X128808793Y-129377531D01*
X128867557Y-129389420D01*
X128928161Y-129411285D01*
X128938081Y-129416097D01*
X128982155Y-129435333D01*
X129006590Y-129436088D01*
X129013816Y-129429320D01*
X129028159Y-129423248D01*
X129044782Y-129445061D01*
X129064639Y-129468228D01*
X129079880Y-129470328D01*
X129103836Y-129471116D01*
X129135585Y-129486185D01*
X129182094Y-129505602D01*
X129224591Y-129512061D01*
X129259206Y-129516412D01*
X129274094Y-129526912D01*
X129274105Y-129527240D01*
X129287973Y-129541087D01*
X129310723Y-129547632D01*
X129346280Y-129567882D01*
X129375193Y-129609942D01*
X129392939Y-129643267D01*
X129401440Y-129648737D01*
X129403829Y-129630846D01*
X129410807Y-129604742D01*
X129430712Y-129604668D01*
X129470459Y-129629799D01*
X129507962Y-129668629D01*
X129533241Y-129709530D01*
X129538387Y-129730113D01*
X129544033Y-129765500D01*
X129556605Y-129803716D01*
X129572122Y-129836536D01*
X129586598Y-129855740D01*
X129596051Y-129853105D01*
X129596739Y-129850565D01*
X129610085Y-129825359D01*
X129626027Y-129826903D01*
X129633001Y-129851887D01*
X129646203Y-129880828D01*
X129674152Y-129903780D01*
X129712544Y-129942285D01*
X129737414Y-130000339D01*
X129757728Y-130051602D01*
X129779599Y-130072108D01*
X129785986Y-130072609D01*
X129808302Y-130083720D01*
X129812448Y-130101157D01*
X129823151Y-130126595D01*
X129836918Y-130131971D01*
X129857310Y-130118545D01*
X129861389Y-130102063D01*
X129867405Y-130067599D01*
X129882461Y-130063582D01*
X129902069Y-130090770D01*
X129903951Y-130094881D01*
X129917889Y-130123979D01*
X129923650Y-130124584D01*
X129925317Y-130103285D01*
X129929689Y-130077826D01*
X129946172Y-130079171D01*
X129959269Y-130086817D01*
X129992525Y-130099030D01*
X130024523Y-130086817D01*
X130048964Y-130075176D01*
X130056723Y-130087161D01*
X130057150Y-130099206D01*
X130050344Y-130125790D01*
X130040836Y-130131971D01*
X130024997Y-130144385D01*
X130024523Y-130148285D01*
X130037840Y-130162506D01*
X130050553Y-130164598D01*
X130079478Y-130173739D01*
X130119715Y-130195750D01*
X130158441Y-130222517D01*
X130182836Y-130245924D01*
X130184938Y-130249654D01*
X130203602Y-130260365D01*
X130221643Y-130262479D01*
X130247338Y-130272914D01*
X130252911Y-130286638D01*
X130266634Y-130306398D01*
X130297515Y-130321880D01*
X130330121Y-130327274D01*
X130345972Y-130321676D01*
X130364950Y-130321849D01*
X130377727Y-130329779D01*
X130391856Y-130359587D01*
X130389328Y-130411517D01*
X130388143Y-130457080D01*
X130395144Y-130511934D01*
X130407954Y-130567232D01*
X130424195Y-130614128D01*
X130441488Y-130643774D01*
X130453287Y-130649464D01*
X130467440Y-130661492D01*
X130481860Y-130696047D01*
X130486857Y-130715176D01*
X130501949Y-130762603D01*
X130521668Y-130782826D01*
X130531818Y-130784508D01*
X130556237Y-130796902D01*
X130571179Y-130836860D01*
X130571934Y-130840727D01*
X130586541Y-130881841D01*
X130607951Y-130903644D01*
X130609378Y-130904088D01*
X130626762Y-130910081D01*
X130612256Y-130912808D01*
X130607728Y-130913123D01*
X130585585Y-130922206D01*
X130580755Y-130948667D01*
X130592700Y-130997483D01*
X130597207Y-131010803D01*
X130607020Y-131053767D01*
X130598264Y-131082593D01*
X130594636Y-131087339D01*
X130582634Y-131113352D01*
X130592921Y-131131044D01*
X130610674Y-131158473D01*
X130600903Y-131174118D01*
X130587336Y-131176030D01*
X130565708Y-131189089D01*
X130562866Y-131200501D01*
X130571510Y-131222212D01*
X130578868Y-131224971D01*
X130594331Y-131238813D01*
X130605107Y-131265754D01*
X130617703Y-131296293D01*
X130629888Y-131306538D01*
X130638895Y-131321040D01*
X130644000Y-131357379D01*
X130644433Y-131373607D01*
X130644433Y-131440676D01*
X130583258Y-131431877D01*
X130551723Y-131428207D01*
X130545399Y-131429473D01*
X130550631Y-131431258D01*
X130567511Y-131442772D01*
X130576285Y-131470034D01*
X130579129Y-131520743D01*
X130579179Y-131532210D01*
X130582051Y-131591797D01*
X130593206Y-131631841D01*
X130616455Y-131665118D01*
X130619963Y-131668966D01*
X130649112Y-131716570D01*
X130660472Y-131770833D01*
X130655645Y-131823753D01*
X130636235Y-131867326D01*
X130603849Y-131893548D01*
X130574200Y-131897282D01*
X130539723Y-131900156D01*
X130530239Y-131917674D01*
X130543024Y-131939696D01*
X130554709Y-131942761D01*
X130576337Y-131955820D01*
X130579179Y-131967231D01*
X130587988Y-131988941D01*
X130595493Y-131991702D01*
X130609230Y-132003964D01*
X130610636Y-132030185D01*
X130600640Y-132054514D01*
X130591414Y-132061100D01*
X130580118Y-132072272D01*
X130593709Y-132095441D01*
X130594028Y-132095828D01*
X130620122Y-132115005D01*
X130636722Y-132116138D01*
X130653782Y-132125415D01*
X130671590Y-132161235D01*
X130676591Y-132176571D01*
X130692370Y-132227510D01*
X130706646Y-132270081D01*
X130709604Y-132278123D01*
X130714534Y-132311086D01*
X130714886Y-132364479D01*
X130710898Y-132423175D01*
X130705701Y-132482831D01*
X130706251Y-132517628D01*
X130713609Y-132534996D01*
X130727864Y-132542119D01*
X130756386Y-132560227D01*
X130768296Y-132587604D01*
X130758568Y-132611409D01*
X130755750Y-132613390D01*
X130746080Y-132629025D01*
X130761333Y-132654416D01*
X130765581Y-132659223D01*
X130781538Y-132683480D01*
X130790347Y-132717658D01*
X130793464Y-132770226D01*
X130793106Y-132819275D01*
X130787758Y-132935662D01*
X130776801Y-133021725D01*
X130759724Y-133079366D01*
X130736018Y-133110489D01*
X130713191Y-133117578D01*
X130696889Y-133122325D01*
X130703115Y-133129813D01*
X130714922Y-133151689D01*
X130725898Y-133194876D01*
X130731054Y-133228787D01*
X130735389Y-133281472D01*
X130730889Y-133314313D01*
X130714394Y-133339594D01*
X130698538Y-133355216D01*
X130655982Y-133394656D01*
X127730105Y-133394656D01*
X127354788Y-133394616D01*
X127010900Y-133394489D01*
X126697240Y-133394267D01*
X126412610Y-133393942D01*
X126155810Y-133393505D01*
X125925642Y-133392948D01*
X125720906Y-133392263D01*
X125540404Y-133391442D01*
X125382937Y-133390475D01*
X125247305Y-133389355D01*
X125132309Y-133388073D01*
X125036751Y-133386622D01*
X124959431Y-133384991D01*
X124899150Y-133383174D01*
X124854710Y-133381162D01*
X124824911Y-133378946D01*
X124808554Y-133376519D01*
X124804324Y-133374264D01*
X124806669Y-133350034D01*
X124812887Y-133301794D01*
X124821883Y-133237782D01*
X124827610Y-133198895D01*
X124850322Y-132959687D01*
X124844944Y-132729677D01*
X124843505Y-132713571D01*
X124832922Y-132648405D01*
X124816535Y-132615282D01*
X124794582Y-132614257D01*
X124767299Y-132645389D01*
X124743548Y-132689734D01*
X124728723Y-132727384D01*
X124716237Y-132774747D01*
X124705167Y-132837245D01*
X124694590Y-132920301D01*
X124683584Y-133029337D01*
X124681027Y-133057194D01*
X124673012Y-133152327D01*
X124666999Y-133237076D01*
X124663304Y-133305736D01*
X124662240Y-133352604D01*
X124663706Y-133371228D01*
X124662630Y-133379291D01*
X124649826Y-133385313D01*
X124621497Y-133389575D01*
X124573842Y-133392354D01*
X124503062Y-133393932D01*
X124405359Y-133394587D01*
X124345194Y-133394656D01*
X124234082Y-133394485D01*
X124151592Y-133393732D01*
X124093721Y-133392034D01*
X124056464Y-133389030D01*
X124035818Y-133384358D01*
X124027778Y-133377656D01*
X124028341Y-133368563D01*
X124029262Y-133366108D01*
X124036770Y-133335145D01*
X124044465Y-133283898D01*
X124049554Y-133235600D01*
X124056120Y-133182800D01*
X124064616Y-133145955D01*
X124072357Y-133133641D01*
X124083138Y-133119730D01*
X124086437Y-133094850D01*
X124092699Y-133052944D01*
X124107892Y-133004027D01*
X124109097Y-133001048D01*
X124124437Y-132952110D01*
X124138057Y-132889274D01*
X124143132Y-132856313D01*
X124160337Y-132752812D01*
X124185739Y-132640316D01*
X124216084Y-132531321D01*
X124248122Y-132438324D01*
X124258277Y-132413811D01*
X124279754Y-132361037D01*
X124294352Y-132317916D01*
X124298511Y-132297664D01*
X124304388Y-132262894D01*
X124320046Y-132206947D01*
X124342528Y-132138684D01*
X124368878Y-132066965D01*
X124396138Y-132000650D01*
X124401990Y-131987609D01*
X124424023Y-131932378D01*
X124449580Y-131857560D01*
X124474636Y-131775307D01*
X124486363Y-131732757D01*
X124510399Y-131649941D01*
X124538240Y-131566667D01*
X124565438Y-131495814D01*
X124577501Y-131468874D01*
X124601621Y-131417099D01*
X124618657Y-131376753D01*
X124624780Y-131357216D01*
X124635930Y-131336186D01*
X124649250Y-131322851D01*
X124670097Y-131292680D01*
X124673720Y-131275616D01*
X124681014Y-131251035D01*
X124700815Y-131204705D01*
X124730002Y-131143516D01*
X124761496Y-131081852D01*
X124795100Y-131016477D01*
X124821018Y-130963123D01*
X124836616Y-130927430D01*
X124839433Y-130915016D01*
X124843489Y-130907218D01*
X124865851Y-130889621D01*
X124892834Y-130864652D01*
X124902108Y-130846043D01*
X124912141Y-130820122D01*
X124925797Y-130801685D01*
X124943867Y-130775515D01*
X124971253Y-130728654D01*
X125004372Y-130668080D01*
X125039638Y-130600771D01*
X125073467Y-130533704D01*
X125102273Y-130473858D01*
X125122472Y-130428210D01*
X125130480Y-130403737D01*
X125130496Y-130403244D01*
X125136766Y-130376118D01*
X125152753Y-130331876D01*
X125164409Y-130304153D01*
X125187113Y-130219096D01*
X125191244Y-130112342D01*
X125177149Y-129988775D01*
X125145172Y-129853279D01*
X125128789Y-129800832D01*
X125106821Y-129729944D01*
X125089688Y-129665380D01*
X125079860Y-129616903D01*
X125078457Y-129601785D01*
X125082966Y-129542653D01*
X125095364Y-129488732D01*
X125112638Y-129451333D01*
X125120692Y-129443227D01*
X125129379Y-129424129D01*
X125117708Y-129397701D01*
X125105642Y-129364896D01*
X125107994Y-129345743D01*
X125109256Y-129335285D01*
X125100390Y-129339213D01*
X125083660Y-129339230D01*
X125081556Y-129331810D01*
X125069746Y-129308812D01*
X125038824Y-129272308D01*
X124995547Y-129228671D01*
X124970338Y-129205771D01*
X126366040Y-129205771D01*
X126368928Y-129211011D01*
X126399881Y-129227454D01*
X126402943Y-129228985D01*
X126448156Y-129250109D01*
X126485265Y-129265093D01*
X126489559Y-129266497D01*
X126525428Y-129271913D01*
X126578248Y-129273974D01*
X126636395Y-129272959D01*
X126688247Y-129269148D01*
X126722181Y-129262819D01*
X126726626Y-129260801D01*
X126744630Y-129235376D01*
X126735279Y-129205363D01*
X126708820Y-129183925D01*
X126677656Y-129164585D01*
X126663875Y-129152148D01*
X126645303Y-129150092D01*
X126609468Y-129160511D01*
X126598622Y-129165046D01*
X126548651Y-129181285D01*
X126502464Y-129187231D01*
X126498363Y-129187031D01*
X126462367Y-129190415D01*
X126444344Y-129201106D01*
X126422196Y-129211003D01*
X126389708Y-129209516D01*
X126366040Y-129205771D01*
X124970338Y-129205771D01*
X124946674Y-129184274D01*
X124898961Y-129145491D01*
X124889227Y-129138937D01*
X126719766Y-129138937D01*
X126725065Y-129154839D01*
X126740412Y-129162967D01*
X126777401Y-129175732D01*
X126817322Y-129190322D01*
X126847549Y-129203460D01*
X126849616Y-129212506D01*
X126833635Y-129220273D01*
X126818994Y-129228641D01*
X126833109Y-129232657D01*
X126854475Y-129233586D01*
X126899375Y-129226627D01*
X126931964Y-129209098D01*
X126948770Y-129185994D01*
X126939812Y-129165919D01*
X126934294Y-129160157D01*
X126902834Y-129144318D01*
X126857373Y-129136924D01*
X126852727Y-129136853D01*
X126814522Y-129133207D01*
X126795086Y-129124220D01*
X126794465Y-129122066D01*
X126782371Y-129114094D01*
X126755800Y-129117695D01*
X126729321Y-129129579D01*
X126719766Y-129138937D01*
X124889227Y-129138937D01*
X124859167Y-129118696D01*
X124851267Y-129114626D01*
X124804129Y-129096493D01*
X124741546Y-129077300D01*
X124698190Y-129066217D01*
X124636063Y-129048614D01*
X124579482Y-129027141D01*
X124551369Y-129012753D01*
X124502321Y-128977392D01*
X124449896Y-128932641D01*
X124400431Y-128884856D01*
X124360261Y-128840394D01*
X124335723Y-128805610D01*
X124331138Y-128791841D01*
X124330485Y-128789421D01*
X128762262Y-128789421D01*
X128784703Y-128791695D01*
X128807862Y-128789131D01*
X128805094Y-128783467D01*
X128771695Y-128781312D01*
X128764311Y-128783467D01*
X128762262Y-128789421D01*
X124330485Y-128789421D01*
X124325125Y-128769552D01*
X129101280Y-128769552D01*
X129102814Y-128777957D01*
X129123670Y-128793648D01*
X129128247Y-128794271D01*
X129137797Y-128786302D01*
X129201834Y-128786302D01*
X129219465Y-128788871D01*
X129249635Y-128789605D01*
X129288323Y-128788568D01*
X129302464Y-128785660D01*
X129294721Y-128782787D01*
X129249967Y-128779850D01*
X129213154Y-128782564D01*
X129201834Y-128786302D01*
X129137797Y-128786302D01*
X129143159Y-128781828D01*
X129143598Y-128777957D01*
X129130319Y-128763640D01*
X129118165Y-128761644D01*
X129101280Y-128769552D01*
X124325125Y-128769552D01*
X124324348Y-128766673D01*
X124316021Y-128761644D01*
X124301750Y-128747982D01*
X124280029Y-128712510D01*
X124260075Y-128672464D01*
X124235137Y-128620832D01*
X124212978Y-128579771D01*
X124201553Y-128562349D01*
X124160203Y-128505534D01*
X124114492Y-128430144D01*
X124071535Y-128348143D01*
X124061567Y-128326936D01*
X124038325Y-128272080D01*
X124028399Y-128231563D01*
X124029762Y-128190933D01*
X124036987Y-128151628D01*
X124079937Y-128020127D01*
X124150344Y-127905860D01*
X124202757Y-127848092D01*
X124243201Y-127804993D01*
X124272884Y-127766273D01*
X124284324Y-127743363D01*
X124305445Y-127710115D01*
X124349415Y-127680259D01*
X124406476Y-127658251D01*
X124466866Y-127648546D01*
X124490603Y-127649185D01*
X124532806Y-127656421D01*
X124557158Y-127666814D01*
X124559526Y-127670993D01*
X124569475Y-127672250D01*
X124593586Y-127654481D01*
X124595229Y-127652967D01*
X124631097Y-127625071D01*
X124649386Y-127624503D01*
X124649961Y-127651249D01*
X124648347Y-127658277D01*
X124648324Y-127692303D01*
X124668117Y-127708151D01*
X124694773Y-127710027D01*
X124703317Y-127702205D01*
X124722142Y-127688458D01*
X124744860Y-127684958D01*
X124787416Y-127675679D01*
X124812833Y-127662799D01*
X124845790Y-127649282D01*
X124898685Y-127636685D01*
X124948491Y-127629190D01*
X125032789Y-127617276D01*
X125088517Y-127602552D01*
X125119708Y-127583368D01*
X125130398Y-127558076D01*
X125130496Y-127554854D01*
X125137253Y-127528127D01*
X125146809Y-127521824D01*
X125161282Y-127535037D01*
X125163123Y-127546294D01*
X125171931Y-127568003D01*
X125179436Y-127570764D01*
X125192636Y-127557083D01*
X125195750Y-127537733D01*
X125210697Y-127505250D01*
X125236826Y-127489086D01*
X125274203Y-127462045D01*
X125293519Y-127432392D01*
X125310570Y-127402006D01*
X125325853Y-127391316D01*
X125340597Y-127378074D01*
X125342570Y-127366334D01*
X125352067Y-127348341D01*
X127099108Y-127348341D01*
X127103236Y-127403538D01*
X127113295Y-127442309D01*
X127127719Y-127456570D01*
X127146705Y-127450516D01*
X127157766Y-127445824D01*
X128543512Y-127445824D01*
X128551635Y-127464270D01*
X128565637Y-127479875D01*
X128610067Y-127503013D01*
X128663925Y-127499047D01*
X128685996Y-127489639D01*
X128708711Y-127463804D01*
X128725320Y-127421421D01*
X128726664Y-127415070D01*
X128736457Y-127369299D01*
X128745753Y-127335449D01*
X128746621Y-127333061D01*
X128742866Y-127313312D01*
X128727583Y-127309749D01*
X128708031Y-127302126D01*
X128708530Y-127274292D01*
X128709366Y-127270832D01*
X128707705Y-127243152D01*
X128789087Y-127243152D01*
X128792178Y-127265955D01*
X128800762Y-127266512D01*
X128821353Y-127243293D01*
X128828991Y-127233781D01*
X128833067Y-127228182D01*
X128915210Y-127228182D01*
X128922042Y-127254691D01*
X128931523Y-127260809D01*
X128944778Y-127247146D01*
X128947837Y-127228182D01*
X128941005Y-127201673D01*
X128931523Y-127195555D01*
X128918269Y-127209218D01*
X128915210Y-127228182D01*
X128833067Y-127228182D01*
X128853530Y-127200073D01*
X128865852Y-127177189D01*
X128866189Y-127175163D01*
X128855863Y-127163959D01*
X128827662Y-127175513D01*
X128814049Y-127185054D01*
X128792811Y-127217263D01*
X128789087Y-127243152D01*
X128707705Y-127243152D01*
X128706852Y-127228933D01*
X128679360Y-127202903D01*
X128635057Y-127198381D01*
X128613080Y-127206749D01*
X128596099Y-127229143D01*
X128579972Y-127272599D01*
X128569505Y-127309749D01*
X128552272Y-127376261D01*
X128543666Y-127419054D01*
X128543512Y-127445824D01*
X127157766Y-127445824D01*
X127177063Y-127437638D01*
X127206446Y-127416846D01*
X127217614Y-127383089D01*
X127218523Y-127360149D01*
X127213729Y-127302943D01*
X127202208Y-127243271D01*
X127201167Y-127239419D01*
X127186212Y-127198557D01*
X127167698Y-127182608D01*
X127148240Y-127182322D01*
X127127606Y-127189604D01*
X127114831Y-127209335D01*
X127106397Y-127249330D01*
X127102117Y-127284809D01*
X127099108Y-127348341D01*
X125352067Y-127348341D01*
X125356035Y-127340822D01*
X125371119Y-127332178D01*
X125439857Y-127307812D01*
X125478554Y-127288312D01*
X125489391Y-127274090D01*
X125501283Y-127254293D01*
X125530087Y-127225320D01*
X125565496Y-127195983D01*
X125597203Y-127175095D01*
X125610866Y-127170226D01*
X125632138Y-127159253D01*
X125666021Y-127132512D01*
X125682799Y-127117208D01*
X125720326Y-127085838D01*
X125751466Y-127067243D01*
X125760288Y-127065048D01*
X125776337Y-127063054D01*
X125784479Y-127050690D01*
X125789454Y-127018383D01*
X125791095Y-127002817D01*
X125798995Y-126982102D01*
X126055995Y-126982102D01*
X126056062Y-127009541D01*
X126069218Y-127016173D01*
X126082792Y-127003094D01*
X126082670Y-126979435D01*
X126077861Y-126969088D01*
X126065697Y-126960627D01*
X126055995Y-126982102D01*
X125798995Y-126982102D01*
X125807334Y-126960234D01*
X125841781Y-126916086D01*
X125885065Y-126879236D01*
X125927811Y-126858543D01*
X125945386Y-126856951D01*
X125976821Y-126854279D01*
X125987113Y-126832610D01*
X125987441Y-126825294D01*
X125992693Y-126791460D01*
X125999676Y-126777713D01*
X126008116Y-126782601D01*
X126011421Y-126809471D01*
X126014700Y-126837676D01*
X126030766Y-126850045D01*
X126068964Y-126852956D01*
X126075147Y-126852973D01*
X126116870Y-126855791D01*
X126133710Y-126866626D01*
X126134585Y-126881522D01*
X126134004Y-126896174D01*
X126137309Y-126889678D01*
X126156855Y-126874794D01*
X126194455Y-126866893D01*
X126196143Y-126866802D01*
X126238717Y-126864500D01*
X126267262Y-126862518D01*
X126291984Y-126850890D01*
X126324338Y-126825460D01*
X126324359Y-126825440D01*
X126358344Y-126798699D01*
X126385585Y-126784863D01*
X126409699Y-126770946D01*
X126446318Y-126741050D01*
X126487854Y-126702548D01*
X126526717Y-126662817D01*
X126555318Y-126629229D01*
X126566077Y-126609472D01*
X126579189Y-126593747D01*
X126589448Y-126591959D01*
X126612904Y-126578403D01*
X126622854Y-126560340D01*
X126644266Y-126534593D01*
X126684363Y-126512012D01*
X126693026Y-126508874D01*
X126729362Y-126495364D01*
X126737734Y-126486048D01*
X126721713Y-126476747D01*
X126720795Y-126476386D01*
X126698429Y-126466535D01*
X126707446Y-126463259D01*
X126723135Y-126462598D01*
X126754824Y-126453672D01*
X126780051Y-126434841D01*
X126788614Y-126414900D01*
X126785413Y-126408897D01*
X126794433Y-126401636D01*
X126827251Y-126393086D01*
X126850808Y-126389006D01*
X126894772Y-126379413D01*
X126921363Y-126367822D01*
X126924972Y-126362571D01*
X126938602Y-126350002D01*
X126956636Y-126347257D01*
X126987866Y-126339766D01*
X126998383Y-126330944D01*
X127019259Y-126321537D01*
X127061322Y-126315643D01*
X127090235Y-126314630D01*
X127152426Y-126309052D01*
X127192509Y-126293580D01*
X127196474Y-126290160D01*
X127230671Y-126271719D01*
X127266680Y-126265690D01*
X127318712Y-126262260D01*
X127360725Y-126256028D01*
X127409749Y-126256505D01*
G37*
G36*
X130198533Y-130137409D02*
G01*
X130200485Y-130156769D01*
X130198533Y-130159160D01*
X130188834Y-130156921D01*
X130187657Y-130148285D01*
X130193626Y-130134857D01*
X130198533Y-130137409D01*
G37*
G36*
X125260849Y-124607085D02*
G01*
X125347831Y-124610967D01*
X125410201Y-124615776D01*
X125455966Y-124623098D01*
X125493134Y-124634518D01*
X125529712Y-124651621D01*
X125554645Y-124665235D01*
X125605931Y-124693562D01*
X125648180Y-124716194D01*
X125668839Y-124726598D01*
X125697499Y-124744316D01*
X125737166Y-124774321D01*
X125779888Y-124809823D01*
X125817715Y-124844033D01*
X125842695Y-124870163D01*
X125848286Y-124879827D01*
X125858822Y-124899763D01*
X125884629Y-124930139D01*
X125889070Y-124934663D01*
X125916857Y-124970855D01*
X125929743Y-125004207D01*
X125929854Y-125006615D01*
X125939589Y-125041111D01*
X125962609Y-125079424D01*
X125985858Y-125122684D01*
X126002705Y-125178114D01*
X126005106Y-125192145D01*
X126009200Y-125237957D01*
X126002407Y-125263744D01*
X125980695Y-125281379D01*
X125973451Y-125285378D01*
X125935024Y-125298628D01*
X125907538Y-125298125D01*
X125882853Y-125299765D01*
X125876194Y-125308193D01*
X125861800Y-125315053D01*
X125833971Y-125296243D01*
X125804050Y-125276114D01*
X125782852Y-125280843D01*
X125779385Y-125284007D01*
X125751827Y-125302067D01*
X125736590Y-125290350D01*
X125734092Y-125270059D01*
X125721676Y-125238257D01*
X125705544Y-125226571D01*
X125679091Y-125209418D01*
X125640921Y-125176079D01*
X125611742Y-125146792D01*
X125566702Y-125106516D01*
X125508112Y-125064364D01*
X125444727Y-125025532D01*
X125385306Y-124995215D01*
X125338607Y-124978606D01*
X125325441Y-124976965D01*
X125291401Y-124966081D01*
X125282138Y-124958912D01*
X125258086Y-124950320D01*
X125211421Y-124943868D01*
X125151653Y-124939810D01*
X125088292Y-124938401D01*
X125030845Y-124939898D01*
X124988823Y-124944554D01*
X124972802Y-124950615D01*
X124972237Y-124967559D01*
X124980465Y-124972655D01*
X125003117Y-124988341D01*
X125037686Y-125020127D01*
X125060041Y-125043256D01*
X125106321Y-125084427D01*
X125156680Y-125116444D01*
X125177445Y-125125207D01*
X125226327Y-125144233D01*
X125286645Y-125172412D01*
X125349720Y-125205091D01*
X125406873Y-125237613D01*
X125449427Y-125265324D01*
X125466719Y-125280372D01*
X125495900Y-125300342D01*
X125510619Y-125303198D01*
X125539366Y-125312306D01*
X125546488Y-125319512D01*
X125567202Y-125331105D01*
X125601104Y-125335422D01*
X125634073Y-125332461D01*
X125651988Y-125322224D01*
X125652525Y-125319512D01*
X125666143Y-125306117D01*
X125684127Y-125303198D01*
X125704637Y-125307923D01*
X125710211Y-125328095D01*
X125706462Y-125360295D01*
X125702958Y-125399035D01*
X125711836Y-125415507D01*
X125727880Y-125418680D01*
X125744388Y-125422879D01*
X125738171Y-125428196D01*
X125722965Y-125446241D01*
X125718017Y-125473853D01*
X125724529Y-125495373D01*
X125732733Y-125498959D01*
X125751471Y-125486365D01*
X125753164Y-125482528D01*
X125766971Y-125481594D01*
X125794461Y-125499709D01*
X125803086Y-125507307D01*
X125847530Y-125548519D01*
X125839368Y-125778386D01*
X125835255Y-125864071D01*
X125829624Y-125939927D01*
X125823134Y-125999039D01*
X125816442Y-126034492D01*
X125814522Y-126039428D01*
X125805384Y-126071656D01*
X125808365Y-126087638D01*
X125813883Y-126116436D01*
X125809040Y-126155983D01*
X125797109Y-126193227D01*
X125781361Y-126215119D01*
X125775996Y-126216750D01*
X125755481Y-126230195D01*
X125732271Y-126263482D01*
X125727358Y-126273154D01*
X125706008Y-126312374D01*
X125687469Y-126337197D01*
X125684716Y-126339370D01*
X125673228Y-126361237D01*
X125668839Y-126396590D01*
X125661442Y-126451499D01*
X125641631Y-126522164D01*
X125612977Y-126600246D01*
X125579049Y-126677407D01*
X125543417Y-126745311D01*
X125509653Y-126795619D01*
X125489401Y-126815650D01*
X125463926Y-126840449D01*
X125428557Y-126883458D01*
X125390943Y-126935376D01*
X125390864Y-126935493D01*
X125355283Y-126983263D01*
X125323509Y-127017880D01*
X125302032Y-127032344D01*
X125301019Y-127032421D01*
X125272915Y-127043913D01*
X125249061Y-127065048D01*
X125221491Y-127089699D01*
X125202481Y-127097675D01*
X125177726Y-127107041D01*
X125143074Y-127129757D01*
X125140853Y-127131486D01*
X125112220Y-127151412D01*
X125098163Y-127156100D01*
X125097869Y-127155145D01*
X125086255Y-127153472D01*
X125069444Y-127160901D01*
X125045569Y-127187803D01*
X125040896Y-127206574D01*
X125030618Y-127229470D01*
X125004067Y-127232453D01*
X124973836Y-127238041D01*
X124967362Y-127252844D01*
X124965669Y-127264124D01*
X124957352Y-127272117D01*
X124937549Y-127277444D01*
X124901402Y-127280729D01*
X124844049Y-127282593D01*
X124760630Y-127283658D01*
X124724374Y-127283958D01*
X124640663Y-127283399D01*
X124582045Y-127279550D01*
X124541071Y-127271459D01*
X124510290Y-127258172D01*
X124506900Y-127256167D01*
X124464073Y-127239104D01*
X124399936Y-127224224D01*
X124331784Y-127214756D01*
X124220171Y-127194255D01*
X124136169Y-127156881D01*
X124079329Y-127102407D01*
X124066884Y-127081484D01*
X124044826Y-127045705D01*
X124010725Y-126998072D01*
X123986631Y-126967167D01*
X123950219Y-126919901D01*
X123920443Y-126877256D01*
X123908627Y-126857535D01*
X123892604Y-126809357D01*
X123884019Y-126749369D01*
X123883465Y-126690086D01*
X123891533Y-126644023D01*
X123897938Y-126631207D01*
X123915376Y-126613663D01*
X123938772Y-126610352D01*
X123979750Y-126620036D01*
X123985845Y-126621846D01*
X124042307Y-126645454D01*
X124094510Y-126677533D01*
X124101103Y-126682800D01*
X124149867Y-126723832D01*
X124250904Y-126697650D01*
X124339382Y-126681924D01*
X124449177Y-126673893D01*
X124516909Y-126673131D01*
X124647935Y-126669072D01*
X124753738Y-126653587D01*
X124782889Y-126646208D01*
X124865739Y-126629195D01*
X124926899Y-126632802D01*
X124970861Y-126658176D01*
X124999988Y-126701755D01*
X125031834Y-126742114D01*
X125075582Y-126752324D01*
X125130910Y-126732491D01*
X125197499Y-126682717D01*
X125262772Y-126616881D01*
X125312675Y-126562052D01*
X125361589Y-126509044D01*
X125399543Y-126468657D01*
X125401888Y-126466212D01*
X125436739Y-126419513D01*
X125460445Y-126368882D01*
X125463712Y-126356121D01*
X125482367Y-126302537D01*
X125512053Y-126253935D01*
X125541051Y-126198700D01*
X125558642Y-126122654D01*
X125564171Y-126035788D01*
X125556982Y-125948096D01*
X125537154Y-125871481D01*
X125465381Y-125706658D01*
X125383826Y-125566306D01*
X125287860Y-125442679D01*
X125267525Y-125420345D01*
X125133918Y-125296905D01*
X124990870Y-125204083D01*
X124835632Y-125140565D01*
X124665456Y-125105037D01*
X124594573Y-125098492D01*
X124490331Y-125091278D01*
X124414376Y-125084223D01*
X124362380Y-125076581D01*
X124330018Y-125067607D01*
X124312960Y-125056555D01*
X124308485Y-125049192D01*
X124313289Y-125020109D01*
X124340763Y-124980470D01*
X124385270Y-124935942D01*
X124441174Y-124892194D01*
X124500519Y-124856093D01*
X124549780Y-124827003D01*
X124586167Y-124799122D01*
X124600236Y-124781400D01*
X124620272Y-124759922D01*
X124664702Y-124732417D01*
X124726603Y-124702000D01*
X124799048Y-124671788D01*
X124875115Y-124644899D01*
X124947877Y-124624448D01*
X124950132Y-124623921D01*
X125020549Y-124611594D01*
X125102658Y-124605553D01*
X125204799Y-124605345D01*
X125260849Y-124607085D01*
G37*
G36*
X130927075Y-124700848D02*
G01*
X130965292Y-124707234D01*
X130993718Y-124722730D01*
X131023758Y-124751309D01*
X131027480Y-124755240D01*
X131067616Y-124790294D01*
X131106754Y-124812909D01*
X131119130Y-124816415D01*
X131149319Y-124827033D01*
X131150099Y-124843083D01*
X131123165Y-124860137D01*
X131099516Y-124867739D01*
X131059397Y-124887170D01*
X131040440Y-124912601D01*
X131020421Y-124938650D01*
X131001564Y-124944303D01*
X130969351Y-124957081D01*
X130950602Y-124976930D01*
X130923044Y-125002751D01*
X130900950Y-125009556D01*
X130866410Y-125018210D01*
X130829996Y-125036864D01*
X130783375Y-125065911D01*
X130742278Y-125089883D01*
X130703306Y-125118748D01*
X130654658Y-125164689D01*
X130602813Y-125220291D01*
X130554249Y-125278141D01*
X130515445Y-125330824D01*
X130492879Y-125370929D01*
X130490585Y-125377914D01*
X130473683Y-125419487D01*
X130444780Y-125469692D01*
X130431155Y-125489414D01*
X130402682Y-125536229D01*
X130385606Y-125579936D01*
X130383418Y-125595082D01*
X130372421Y-125634818D01*
X130345764Y-125675499D01*
X130343896Y-125677514D01*
X130315964Y-125720311D01*
X130293276Y-125778253D01*
X130287652Y-125800757D01*
X130272745Y-125866726D01*
X130254140Y-125940382D01*
X130245607Y-125971525D01*
X130231252Y-126040273D01*
X130222074Y-126119151D01*
X130220284Y-126163208D01*
X130212086Y-126245441D01*
X130187787Y-126300607D01*
X130147829Y-126327935D01*
X130124488Y-126330944D01*
X130101955Y-126340176D01*
X130088085Y-126372346D01*
X130083719Y-126394901D01*
X130079460Y-126442736D01*
X130081929Y-126479676D01*
X130083380Y-126484625D01*
X130082545Y-126506611D01*
X130072680Y-126510391D01*
X130064398Y-126518882D01*
X130080445Y-126541720D01*
X130099142Y-126565883D01*
X130093673Y-126580101D01*
X130075889Y-126590660D01*
X130039147Y-126604980D01*
X130019184Y-126608272D01*
X129993744Y-126622457D01*
X129977597Y-126656530D01*
X129975583Y-126674860D01*
X129989551Y-126686123D01*
X130016366Y-126689839D01*
X130047024Y-126684255D01*
X130057150Y-126673526D01*
X130068905Y-126657651D01*
X130095917Y-126656561D01*
X130125805Y-126667701D01*
X130146187Y-126688517D01*
X130147621Y-126692194D01*
X130166622Y-126726935D01*
X130198530Y-126765953D01*
X130203319Y-126770769D01*
X130236029Y-126814650D01*
X130254948Y-126873608D01*
X130259631Y-126902693D01*
X130268696Y-126953385D01*
X130279507Y-126989507D01*
X130286348Y-127000295D01*
X130288485Y-127017389D01*
X130276161Y-127045006D01*
X130257248Y-127069886D01*
X130239751Y-127078798D01*
X130218196Y-127075538D01*
X130175770Y-127070065D01*
X130146873Y-127066563D01*
X130097766Y-127058659D01*
X130073893Y-127047579D01*
X130067869Y-127029435D01*
X130068112Y-127025106D01*
X130059948Y-126992090D01*
X130036251Y-126952390D01*
X130031406Y-126946366D01*
X130005585Y-126911994D01*
X129992353Y-126887176D01*
X129991896Y-126884348D01*
X129978222Y-126872107D01*
X129959269Y-126869287D01*
X129933497Y-126859507D01*
X129926642Y-126829333D01*
X129913317Y-126793667D01*
X129880331Y-126755005D01*
X129844812Y-126727904D01*
X129899453Y-126727904D01*
X129901693Y-126737602D01*
X129910329Y-126738779D01*
X129923757Y-126732811D01*
X129921204Y-126727904D01*
X129901844Y-126725951D01*
X129899453Y-126727904D01*
X129844812Y-126727904D01*
X129838167Y-126722834D01*
X129797309Y-126706640D01*
X129790517Y-126706152D01*
X129767803Y-126692699D01*
X129763508Y-126675523D01*
X129751660Y-126639479D01*
X129739038Y-126624585D01*
X129718361Y-126597866D01*
X129714568Y-126583802D01*
X129702313Y-126550736D01*
X129669973Y-126538680D01*
X129624185Y-126549926D01*
X129620950Y-126551494D01*
X129571753Y-126567252D01*
X129529086Y-126560139D01*
X129500820Y-126545035D01*
X129493326Y-126521959D01*
X129498119Y-126490519D01*
X129508009Y-126424211D01*
X129508798Y-126368144D01*
X129500850Y-126330226D01*
X129490258Y-126318709D01*
X129474684Y-126327068D01*
X129469866Y-126361248D01*
X129464683Y-126403469D01*
X129444692Y-126421810D01*
X129403232Y-126420966D01*
X129388870Y-126418335D01*
X129337536Y-126395132D01*
X129304780Y-126354709D01*
X129296982Y-126305740D01*
X129298905Y-126295966D01*
X129315399Y-126264083D01*
X129343248Y-126233641D01*
X129373458Y-126212070D01*
X129397033Y-126206795D01*
X129402338Y-126210549D01*
X129423674Y-126219228D01*
X129465285Y-126224334D01*
X129486180Y-126224906D01*
X129531709Y-126223165D01*
X129554145Y-126214253D01*
X129562980Y-126192637D01*
X129564847Y-126179058D01*
X129562974Y-126138006D01*
X129552740Y-126112286D01*
X129547364Y-126093164D01*
X129570066Y-126075662D01*
X129576031Y-126072839D01*
X129607607Y-126047698D01*
X129616686Y-126005628D01*
X129616687Y-126005025D01*
X129612134Y-125970509D01*
X129601152Y-125955743D01*
X129600865Y-125955735D01*
X129599323Y-125944007D01*
X129613781Y-125914384D01*
X129624491Y-125897607D01*
X129652710Y-125842381D01*
X129672521Y-125779452D01*
X129674854Y-125766683D01*
X129692736Y-125704633D01*
X129720033Y-125669890D01*
X129741891Y-125647210D01*
X129750815Y-125612947D01*
X129750966Y-125569388D01*
X129754214Y-125509305D01*
X129768582Y-125469979D01*
X129770723Y-125467373D01*
X129790401Y-125441422D01*
X129795681Y-125429923D01*
X129811939Y-125382419D01*
X129845186Y-125321366D01*
X129889732Y-125256667D01*
X129909368Y-125232071D01*
X129946560Y-125189547D01*
X129984431Y-125151688D01*
X130030570Y-125111660D01*
X130092571Y-125062629D01*
X130125762Y-125037255D01*
X130155240Y-125013069D01*
X130194865Y-124978501D01*
X130207329Y-124967276D01*
X130256616Y-124928924D01*
X130315382Y-124891638D01*
X130334478Y-124881364D01*
X130389548Y-124852313D01*
X130441302Y-124823067D01*
X130456829Y-124813669D01*
X130530261Y-124777147D01*
X130623557Y-124744067D01*
X130723954Y-124717974D01*
X130818687Y-124702411D01*
X130867658Y-124699601D01*
X130927075Y-124700848D01*
G37*
G36*
X131881526Y-127013473D02*
G01*
X131884253Y-127032421D01*
X131876111Y-127060741D01*
X131856204Y-127062265D01*
X131847312Y-127055296D01*
X131843549Y-127033271D01*
X131855014Y-127008427D01*
X131869685Y-126999794D01*
X131881526Y-127013473D01*
G37*
G36*
X131099368Y-126964067D02*
G01*
X131101209Y-126975324D01*
X131092400Y-126997033D01*
X131084895Y-126999794D01*
X131070422Y-126986581D01*
X131068582Y-126975324D01*
X131077391Y-126953615D01*
X131084895Y-126950854D01*
X131099368Y-126964067D01*
G37*
G36*
X131933006Y-126979789D02*
G01*
X131933193Y-126983481D01*
X131920652Y-126999167D01*
X131915917Y-126999794D01*
X131906174Y-126989800D01*
X131908723Y-126983481D01*
X131923383Y-126967918D01*
X131925999Y-126967167D01*
X131933006Y-126979789D01*
G37*
G36*
X132105973Y-126766781D02*
G01*
X132116536Y-126783405D01*
X132115230Y-126802693D01*
X132104198Y-126833174D01*
X132081958Y-126872572D01*
X132055136Y-126911282D01*
X132030354Y-126939695D01*
X132014760Y-126948409D01*
X131994240Y-126944412D01*
X131961742Y-126939169D01*
X131929186Y-126929825D01*
X131916880Y-126918309D01*
X131906554Y-126896261D01*
X131893890Y-126881254D01*
X131879668Y-126856082D01*
X131881655Y-126843384D01*
X131910517Y-126820034D01*
X131958437Y-126795274D01*
X132012578Y-126774554D01*
X132060100Y-126763327D01*
X132071857Y-126762629D01*
X132105973Y-126766781D01*
G37*
G36*
X131028070Y-126879378D02*
G01*
X131040682Y-126901914D01*
X131039876Y-126928081D01*
X131019077Y-126934540D01*
X130988486Y-126926688D01*
X130978858Y-126918227D01*
X130976473Y-126890724D01*
X130978858Y-126885600D01*
X131002571Y-126869650D01*
X131028070Y-126879378D01*
G37*
G36*
X131445232Y-126847644D02*
G01*
X131457496Y-126866527D01*
X131456363Y-126872354D01*
X131440108Y-126893033D01*
X131408383Y-126892732D01*
X131370380Y-126878733D01*
X131321440Y-126857107D01*
X131366265Y-126845124D01*
X131411944Y-126839640D01*
X131445232Y-126847644D01*
G37*
G36*
X126011421Y-126730623D02*
G01*
X126003264Y-126738779D01*
X125995107Y-126730623D01*
X126003264Y-126722466D01*
X126011421Y-126730623D01*
G37*
G36*
X130599266Y-126266118D02*
G01*
X130625431Y-126297641D01*
X130639301Y-126339929D01*
X130637764Y-126371608D01*
X130618893Y-126405268D01*
X130588994Y-126409165D01*
X130554993Y-126385995D01*
X130536554Y-126351925D01*
X130533113Y-126310685D01*
X130543474Y-126274713D01*
X130566443Y-126256448D01*
X130567464Y-126256281D01*
X130599266Y-126266118D01*
G37*
G36*
X129177989Y-126220405D02*
G01*
X129178672Y-126224906D01*
X129165971Y-126244035D01*
X129161135Y-126246250D01*
X129146260Y-126238375D01*
X129143598Y-126224906D01*
X129151875Y-126204603D01*
X129161135Y-126203563D01*
X129177989Y-126220405D01*
G37*
G36*
X129415488Y-126156934D02*
G01*
X129417441Y-126176294D01*
X129415488Y-126178685D01*
X129405790Y-126176446D01*
X129404613Y-126167810D01*
X129410582Y-126154382D01*
X129415488Y-126156934D01*
G37*
G36*
X131423779Y-125047230D02*
G01*
X131552092Y-125064567D01*
X131650944Y-125083322D01*
X131723500Y-125104765D01*
X131772926Y-125130165D01*
X131802388Y-125160793D01*
X131815051Y-125197918D01*
X131815723Y-125204463D01*
X131814707Y-125239605D01*
X131798496Y-125253328D01*
X131774397Y-125255790D01*
X131736305Y-125258154D01*
X131671938Y-125263325D01*
X131587475Y-125270754D01*
X131489095Y-125279891D01*
X131382976Y-125290186D01*
X131345910Y-125293885D01*
X131209531Y-125323376D01*
X131077042Y-125382669D01*
X130991460Y-125439450D01*
X130913254Y-125501351D01*
X130855245Y-125554002D01*
X130810146Y-125605737D01*
X130770671Y-125664890D01*
X130730510Y-125737913D01*
X130696792Y-125802662D01*
X130665696Y-125862180D01*
X130642603Y-125906175D01*
X130637963Y-125914951D01*
X130619983Y-125955100D01*
X130611936Y-125985405D01*
X130611907Y-125986436D01*
X130604115Y-126013036D01*
X130585358Y-126050491D01*
X130562330Y-126087610D01*
X130541723Y-126113204D01*
X130532987Y-126118373D01*
X130511324Y-126110609D01*
X130493534Y-126101249D01*
X130469660Y-126072682D01*
X130464985Y-126052281D01*
X130458785Y-126015119D01*
X130443753Y-125969163D01*
X130442685Y-125966570D01*
X130430724Y-125903037D01*
X130437160Y-125818182D01*
X130461364Y-125717190D01*
X130479401Y-125663707D01*
X130502543Y-125621465D01*
X130543408Y-125565395D01*
X130595231Y-125503236D01*
X130651250Y-125442725D01*
X130704703Y-125391600D01*
X130744586Y-125360295D01*
X130770526Y-125343123D01*
X130813852Y-125314312D01*
X130861124Y-125282806D01*
X130910199Y-125251756D01*
X130949834Y-125229739D01*
X130971006Y-125221631D01*
X130994603Y-125212419D01*
X131030957Y-125189479D01*
X131042242Y-125181167D01*
X131093726Y-125148783D01*
X131152913Y-125120622D01*
X131163847Y-125116516D01*
X131222686Y-125094053D01*
X131280168Y-125069568D01*
X131289536Y-125065217D01*
X131357990Y-125045939D01*
X131423779Y-125047230D01*
G37*
G36*
X131111347Y-125595553D02*
G01*
X131122286Y-125603934D01*
X131138371Y-125635590D01*
X131150975Y-125687860D01*
X131158722Y-125748799D01*
X131160240Y-125806461D01*
X131154154Y-125848903D01*
X131151262Y-125855774D01*
X131115958Y-125888793D01*
X131049773Y-125914633D01*
X130957016Y-125932456D01*
X130905887Y-125936345D01*
X130874204Y-125929174D01*
X130852306Y-125911166D01*
X130833449Y-125871483D01*
X130824240Y-125812878D01*
X130824790Y-125747630D01*
X130835207Y-125688016D01*
X130850028Y-125653666D01*
X130886812Y-125620662D01*
X130941950Y-125596409D01*
X131004828Y-125582848D01*
X131064831Y-125581916D01*
X131111347Y-125595553D01*
G37*
G36*
X124223149Y-125386619D02*
G01*
X124262777Y-125394166D01*
X124291555Y-125410386D01*
X124307409Y-125424807D01*
X124328390Y-125449582D01*
X124340488Y-125477851D01*
X124346056Y-125519149D01*
X124347449Y-125583011D01*
X124347452Y-125587032D01*
X124342814Y-125672236D01*
X124325643Y-125731998D01*
X124291051Y-125772592D01*
X124234151Y-125800295D01*
X124167803Y-125817711D01*
X124092261Y-125832731D01*
X124040288Y-125839183D01*
X124003954Y-125837009D01*
X123975329Y-125826149D01*
X123959559Y-125816146D01*
X123938769Y-125796487D01*
X123927743Y-125768300D01*
X123923644Y-125721840D01*
X123923303Y-125691610D01*
X123932067Y-125578229D01*
X123958611Y-125491275D01*
X124003311Y-125429576D01*
X124008993Y-125424583D01*
X124042035Y-125401703D01*
X124079406Y-125389551D01*
X124132785Y-125385082D01*
X124161840Y-125384765D01*
X124223149Y-125386619D01*
G37*
G36*
X131327862Y-125624570D02*
G01*
X131354127Y-125645846D01*
X131373501Y-125684265D01*
X131367405Y-125719677D01*
X131342898Y-125746557D01*
X131307040Y-125759383D01*
X131266889Y-125752630D01*
X131241038Y-125734339D01*
X131220238Y-125704300D01*
X131215403Y-125686564D01*
X131229035Y-125652997D01*
X131260908Y-125624412D01*
X131295607Y-125613153D01*
X131327862Y-125624570D01*
G37*
G36*
X124702047Y-125493573D02*
G01*
X124728897Y-125521913D01*
X124733706Y-125563926D01*
X124726206Y-125587416D01*
X124703875Y-125618173D01*
X124667524Y-125628993D01*
X124652318Y-125629467D01*
X124611886Y-125626500D01*
X124587527Y-125619290D01*
X124586715Y-125618591D01*
X124574690Y-125586932D01*
X124579024Y-125545088D01*
X124596696Y-125509121D01*
X124609308Y-125498509D01*
X124659927Y-125484055D01*
X124702047Y-125493573D01*
G37*
G36*
X126022178Y-125398000D02*
G01*
X126057168Y-125430957D01*
X126089026Y-125487492D01*
X126106536Y-125534975D01*
X126105607Y-125559194D01*
X126092988Y-125564213D01*
X126078515Y-125551000D01*
X126076674Y-125539743D01*
X126069577Y-125517530D01*
X126051462Y-125523013D01*
X126031520Y-125547899D01*
X126008146Y-125573718D01*
X125987555Y-125579732D01*
X125978794Y-125563498D01*
X125965749Y-125551408D01*
X125950245Y-125551263D01*
X125930607Y-125547750D01*
X125922596Y-125523338D01*
X125921697Y-125498959D01*
X125925142Y-125460200D01*
X125938086Y-125446344D01*
X125949985Y-125446596D01*
X125970427Y-125442317D01*
X125969439Y-125428309D01*
X125974598Y-125404243D01*
X125988475Y-125394594D01*
X126022178Y-125398000D01*
G37*
%TO.C,J2*%
D13*
X165120000Y-101040000D02*
X166500000Y-101040000D01*
X165120000Y-102420000D02*
X165120000Y-101040000D01*
X165120000Y-103690000D02*
X165120000Y-121580000D01*
X165120000Y-103690000D02*
X167880000Y-103690000D01*
X165120000Y-121580000D02*
X167880000Y-121580000D01*
X167880000Y-103690000D02*
X167880000Y-121580000D01*
%TO.C,R1*%
X151820000Y-66500000D02*
X152770000Y-66500000D01*
X157560000Y-66500000D02*
X156610000Y-66500000D01*
X152770000Y-65580000D02*
X156610000Y-65580000D01*
X156610000Y-67420000D01*
X152770000Y-67420000D01*
X152770000Y-65580000D01*
%TO.C,SW1*%
X120515000Y-80515000D02*
X134485000Y-80515000D01*
X120515000Y-94485000D02*
X120515000Y-80515000D01*
X134485000Y-80515000D02*
X134485000Y-94485000D01*
X134485000Y-94485000D02*
X120515000Y-94485000D01*
%TO.C,SW2*%
X129435000Y-104515000D02*
X143405000Y-104515000D01*
X129435000Y-118485000D02*
X129435000Y-104515000D01*
X143405000Y-104515000D02*
X143405000Y-118485000D01*
X143405000Y-118485000D02*
X129435000Y-118485000D01*
%TO.C,U2*%
D14*
X167655000Y-96889000D02*
X167655000Y-79744000D01*
X169560000Y-98794000D02*
X183530000Y-98794000D01*
X172050000Y-77839000D02*
X172053728Y-76828728D01*
X172553728Y-76329000D02*
X180549000Y-76329000D01*
X181049000Y-76829000D02*
X181049000Y-77839000D01*
D15*
X183530000Y-77839000D02*
X169560000Y-77839000D01*
D14*
X183530000Y-77839000D02*
X169560000Y-77839000D01*
X185435000Y-96889000D02*
X185435000Y-79744000D01*
X167655000Y-79744000D02*
G75*
G02*
X169560000Y-77839000I1905000J0D01*
G01*
X169560000Y-98794000D02*
G75*
G02*
X167655000Y-96889000I1J1905001D01*
G01*
X172053728Y-76828728D02*
G75*
G02*
X172553728Y-76329028I499972J-272D01*
G01*
X180549000Y-76329000D02*
G75*
G02*
X181049000Y-76829000I0J-500000D01*
G01*
X183530000Y-77839000D02*
G75*
G02*
X185435000Y-79744000I0J-1905000D01*
G01*
X185435000Y-96889000D02*
G75*
G02*
X183530000Y-98794000I-1905001J1D01*
G01*
D16*
X167847000Y-78080000D02*
G75*
G02*
X167343000Y-78080000I-252000J0D01*
G01*
X167343000Y-78080000D02*
G75*
G02*
X167847000Y-78080000I252000J0D01*
G01*
X168990000Y-78960000D02*
G75*
G02*
X168486000Y-78960000I-252000J0D01*
G01*
X168486000Y-78960000D02*
G75*
G02*
X168990000Y-78960000I252000J0D01*
G01*
%TO.C,U1*%
D13*
X146560000Y-68120000D02*
X158810000Y-68120000D01*
X146560000Y-73880000D02*
X146560000Y-68120000D01*
X158820000Y-68130000D02*
X158820000Y-73870000D01*
X158820000Y-73880000D02*
X146560000Y-73880000D01*
X159100000Y-67840000D02*
X157100000Y-67840000D01*
X159100000Y-67840000D02*
X159100000Y-69450000D01*
%TO.C,J1*%
X137608000Y-74354000D02*
X137608000Y-101532000D01*
X137608000Y-74354000D02*
X165040000Y-74354000D01*
X146184000Y-98805000D02*
X146184000Y-101465000D01*
X153864000Y-98805000D02*
X146184000Y-98805000D01*
X153864000Y-98805000D02*
X153864000Y-101465000D01*
X153864000Y-101465000D02*
X146184000Y-101465000D01*
X155134000Y-98805000D02*
X156464000Y-98805000D01*
X156464000Y-98805000D02*
X156464000Y-100135000D01*
X165040000Y-74354000D02*
X164913000Y-101532000D01*
X165040000Y-79434000D02*
X137608000Y-79434000D01*
X165040000Y-96325000D02*
X137608000Y-96325000D01*
X165040000Y-101532000D02*
X137608000Y-101532000D01*
%TD*%
M02*
