M48
; DRILL file KiCad 10.0.6 date 2026-10-09T15:15:04
; FORMAT={-:-/ absolute / metric / decimal}
; #@! TF.CreationDate,2026-10-09T15:15:04+05:30
; #@! TF.GenerationSoftware,Kicad,Pcbnew,10.0.6
; #@! TF.FileFunction,Plated,1,2,PTH
FMAT,2
METRIC
; #@! TA.AperFunction,Plated,PTH,ViaDrill
T1C0.300
; #@! TA.AperFunction,Plated,PTH,ComponentDrill
T2C0.700
; #@! TA.AperFunction,Plated,PTH,ComponentDrill
T3C0.800
; #@! TA.AperFunction,Plated,PTH,ComponentDrill
T4C0.889
; #@! TA.AperFunction,Plated,PTH,ComponentDrill
T5C1.000
; #@! TA.AperFunction,Plated,PTH,ComponentDrill
T6C1.500
%
G90
G05
T1
X152.594Y-100.135
X152.594Y-100.135
X166.5Y-102.42
T2
X150.88Y-66.5
X158.5Y-66.5
T3
X148.88Y-71.0
X151.42Y-71.0
X153.96Y-71.0
X156.5Y-71.0
T4
X168.925Y-80.76
X168.925Y-83.3
X168.925Y-85.84
X168.925Y-88.38
X168.925Y-90.92
X168.925Y-93.46
X168.925Y-96.0
X184.165Y-80.76
X184.165Y-83.3
X184.165Y-85.84
X184.165Y-88.38
X184.165Y-90.92
X184.165Y-93.46
X184.165Y-96.0
T5
X147.514Y-100.135
X150.054Y-100.135
X152.594Y-100.135
X155.134Y-100.135
X166.5Y-102.42
X166.5Y-104.96
X166.5Y-107.5
X166.5Y-110.04
X166.5Y-112.58
X166.5Y-115.12
X166.5Y-117.66
X166.5Y-120.2
T6
X123.69Y-84.96
X130.04Y-82.42
X132.61Y-108.96
X138.96Y-106.42
M30
