%TF.GenerationSoftware,KiCad,Pcbnew,10.0.6*%
%TF.CreationDate,2026-10-10T00:19:35+05:30*%
%TF.ProjectId,Starbie,53746172-6269-4652-9e6b-696361645f70,rev?*%
%TF.SameCoordinates,Original*%
%TF.FileFunction,Copper,L2,Bot*%
%TF.FilePolarity,Positive*%
%FSLAX46Y46*%
G04 Gerber Fmt 4.6, Leading zero omitted, Abs format (unit mm)*
G04 Created by KiCad (PCBNEW 10.0.6) date 2026-10-10 00:19:35*
%MOMM*%
%LPD*%
G01*
G04 APERTURE LIST*
%TA.AperFunction,ComponentPad*%
%ADD10R,1.700000X1.700000*%
%TD*%
%TA.AperFunction,ComponentPad*%
%ADD11C,1.700000*%
%TD*%
%TA.AperFunction,ComponentPad*%
%ADD12C,1.400000*%
%TD*%
%TA.AperFunction,ComponentPad*%
%ADD13C,2.200000*%
%TD*%
%TA.AperFunction,ComponentPad*%
%ADD14C,1.524000*%
%TD*%
%TA.AperFunction,ComponentPad*%
%ADD15R,1.500000X1.500000*%
%TD*%
%TA.AperFunction,ComponentPad*%
%ADD16C,1.500000*%
%TD*%
%TA.AperFunction,ComponentPad*%
%ADD17O,1.700000X1.700000*%
%TD*%
%TA.AperFunction,ViaPad*%
%ADD18C,0.600000*%
%TD*%
%TA.AperFunction,Conductor*%
%ADD19C,0.200000*%
%TD*%
G04 APERTURE END LIST*
D10*
%TO.P,J2,1,Pin_1_1*%
%TO.N,+3.3V*%
X166500000Y-102420000D03*
D11*
%TO.P,J2,2,Pin_2_2*%
%TO.N,GND*%
X166500000Y-104960000D03*
%TO.P,J2,3,Pin_3_3*%
%TO.N,/SCL*%
X166500000Y-107500000D03*
%TO.P,J2,4,Pin_4_4*%
%TO.N,/SDA*%
X166500000Y-110040000D03*
%TO.P,J2,5,Pin_5_5*%
%TO.N,unconnected-(J2-Pin_5-Pad5)*%
X166500000Y-112580000D03*
%TO.P,J2,6,Pin_6_6*%
%TO.N,unconnected-(J2-Pin_6-Pad6)*%
X166500000Y-115120000D03*
%TO.P,J2,7,Pin_7_7*%
%TO.N,unconnected-(J2-Pin_7-Pad7)*%
X166500000Y-117660000D03*
%TO.P,J2,8,Pin_8_8*%
%TO.N,unconnected-(J2-Pin_8-Pad8)*%
X166500000Y-120200000D03*
%TD*%
D12*
%TO.P,R1,1*%
%TO.N,+3.3V*%
X158500000Y-66500000D03*
%TO.P,R1,2*%
%TO.N,/DHT11 DATA*%
X150880000Y-66500000D03*
%TD*%
D13*
%TO.P,SW1,1,1_1*%
%TO.N,/GPIO2*%
X130040000Y-82420000D03*
%TO.P,SW1,2,2_2*%
%TO.N,GND*%
X123690000Y-84960000D03*
%TD*%
%TO.P,SW2,1,1_1*%
%TO.N,/GPIO3*%
X138960000Y-106420000D03*
%TO.P,SW2,2,2_2*%
%TO.N,GND*%
X132610000Y-108960000D03*
%TD*%
D14*
%TO.P,U2,1,D0_1*%
%TO.N,unconnected-(U2-D0-Pad1)_1*%
X168925000Y-80760000D03*
%TO.P,U2,2,D1_2*%
%TO.N,/DHT11 DATA*%
X168925000Y-83300000D03*
%TO.P,U2,3,D2_3*%
%TO.N,/GPIO2*%
X168925000Y-85840000D03*
%TO.P,U2,4,D3_4*%
%TO.N,/GPIO3*%
X168925000Y-88380000D03*
%TO.P,U2,5,D4_5*%
%TO.N,/SCL*%
X168925000Y-90920000D03*
%TO.P,U2,6,D5_6*%
%TO.N,/SDA*%
X168925000Y-93460000D03*
%TO.P,U2,7,D6_7*%
%TO.N,unconnected-(U2-D6-Pad7)*%
X168925000Y-96000000D03*
%TO.P,U2,8,D7_8*%
%TO.N,unconnected-(U2-D7-Pad8)_1*%
X184165000Y-96000000D03*
%TO.P,U2,9,D8_9*%
%TO.N,unconnected-(U2-D8-Pad9)_1*%
X184165000Y-93460000D03*
%TO.P,U2,10,D9/BOOT_10*%
%TO.N,unconnected-(U2-D9{slash}BOOT-Pad10)_1*%
X184165000Y-90920000D03*
%TO.P,U2,11,D10_11*%
%TO.N,unconnected-(U2-D10-Pad11)*%
X184165000Y-88380000D03*
%TO.P,U2,12,3V3_OUT_12*%
%TO.N,+3.3V*%
X184165000Y-85840000D03*
%TO.P,U2,13,GND_13*%
%TO.N,GND*%
X184165000Y-83300000D03*
%TO.P,U2,14,VBUS_14*%
%TO.N,+5V*%
X184165000Y-80760000D03*
%TD*%
D15*
%TO.P,U1,1,VDD_1*%
%TO.N,+3.3V*%
X156500000Y-71000000D03*
D16*
%TO.P,U1,2,DATA_2*%
%TO.N,/DHT11 DATA*%
X153960000Y-71000000D03*
%TO.P,U1,3,NC_3*%
%TO.N,unconnected-(U1-NC-Pad3)*%
X151420000Y-71000000D03*
%TO.P,U1,4,GND_4*%
%TO.N,GND*%
X148880000Y-71000000D03*
%TD*%
D10*
%TO.P,J1,1,Pin_1_1*%
%TO.N,GND*%
X155134000Y-100135000D03*
D17*
%TO.P,J1,2,Pin_2_2*%
%TO.N,+3.3V*%
X152594000Y-100135000D03*
%TO.P,J1,3,Pin_3_3*%
%TO.N,/SCL*%
X150054000Y-100135000D03*
%TO.P,J1,4,Pin_4_4*%
%TO.N,/SDA*%
X147514000Y-100135000D03*
%TD*%
D18*
%TO.N,+3.3V*%
X152594000Y-100135000D03*
X152594000Y-100135000D03*
X166500000Y-102420000D03*
%TD*%
%TO.N,+3.3V*%
D19*
X156500000Y-71000000D02*
X156500000Y-96229000D01*
X154879000Y-102420000D02*
X166500000Y-102420000D01*
X156500000Y-96229000D02*
X152594000Y-100135000D01*
X152594000Y-100135000D02*
X154879000Y-102420000D01*
X167585000Y-102420000D02*
X184165000Y-85840000D01*
X166500000Y-102420000D02*
X167585000Y-102420000D01*
%TD*%
%TA.AperFunction,Conductor*%
%TO.N,GND*%
G36*
X156922539Y-51320185D02*
G01*
X156968294Y-51372989D01*
X156979500Y-51424500D01*
X156979500Y-58492188D01*
X157013608Y-58619484D01*
X157046554Y-58676547D01*
X157079500Y-58733611D01*
X157172686Y-58826797D01*
X157286814Y-58892689D01*
X157414108Y-58926797D01*
X160401797Y-58926797D01*
X160468836Y-58946482D01*
X160514591Y-58999286D01*
X160525797Y-59050797D01*
X160525797Y-63559594D01*
X160559905Y-63686890D01*
X160592851Y-63743953D01*
X160625797Y-63801017D01*
X160718983Y-63894203D01*
X160833111Y-63960095D01*
X160960405Y-63994203D01*
X163935501Y-63994203D01*
X164002540Y-64013888D01*
X164048295Y-64066692D01*
X164059500Y-64118202D01*
X164059500Y-67612545D01*
X164059500Y-71094107D01*
X164059500Y-71225891D01*
X164093608Y-71353187D01*
X164104898Y-71372741D01*
X164159500Y-71467314D01*
X164252686Y-71560500D01*
X164366814Y-71626392D01*
X164494108Y-71660500D01*
X167275500Y-71660500D01*
X167342539Y-71680185D01*
X167388294Y-71732989D01*
X167399500Y-71784500D01*
X167399500Y-74305891D01*
X167433608Y-74433187D01*
X167466554Y-74490250D01*
X167499500Y-74547314D01*
X167592686Y-74640500D01*
X167706814Y-74706392D01*
X167834108Y-74740500D01*
X170615500Y-74740500D01*
X170682539Y-74760185D01*
X170728294Y-74812989D01*
X170739500Y-74864500D01*
X170739500Y-77765891D01*
X170773608Y-77893187D01*
X170786717Y-77915892D01*
X170839500Y-78007314D01*
X170932686Y-78100500D01*
X171046814Y-78166392D01*
X171174108Y-78200500D01*
X202575500Y-78200500D01*
X202642539Y-78220185D01*
X202688294Y-78272989D01*
X202699500Y-78324500D01*
X202699500Y-80655500D01*
X202679815Y-80722539D01*
X202627011Y-80768294D01*
X202575500Y-80779500D01*
X199534108Y-80779500D01*
X199406812Y-80813608D01*
X199292686Y-80879500D01*
X199292683Y-80879502D01*
X199199502Y-80972683D01*
X199199500Y-80972686D01*
X199133608Y-81086812D01*
X199099500Y-81214108D01*
X199099500Y-84175500D01*
X199079815Y-84242539D01*
X199027011Y-84288294D01*
X198975500Y-84299500D01*
X195934108Y-84299500D01*
X195806812Y-84333608D01*
X195692686Y-84399500D01*
X195692683Y-84399502D01*
X195599502Y-84492683D01*
X195599500Y-84492686D01*
X195533608Y-84606812D01*
X195499500Y-84734108D01*
X195499500Y-86775500D01*
X195479815Y-86842539D01*
X195427011Y-86888294D01*
X195375500Y-86899500D01*
X192334108Y-86899500D01*
X192206812Y-86933608D01*
X192092686Y-86999500D01*
X192092683Y-86999502D01*
X191999502Y-87092683D01*
X191999500Y-87092686D01*
X191933608Y-87206812D01*
X191899500Y-87334108D01*
X191899500Y-90275500D01*
X191879815Y-90342539D01*
X191827011Y-90388294D01*
X191775500Y-90399500D01*
X188734108Y-90399500D01*
X188606812Y-90433608D01*
X188492686Y-90499500D01*
X188492683Y-90499502D01*
X188399502Y-90592683D01*
X188399500Y-90592686D01*
X188333608Y-90706812D01*
X188299500Y-90834108D01*
X188299500Y-97375500D01*
X188279815Y-97442539D01*
X188227011Y-97488294D01*
X188175500Y-97499500D01*
X185434108Y-97499500D01*
X185306812Y-97533608D01*
X185192686Y-97599500D01*
X185192683Y-97599502D01*
X185099502Y-97692683D01*
X185099500Y-97692686D01*
X185033608Y-97806812D01*
X184999500Y-97934108D01*
X184999500Y-101075500D01*
X184979815Y-101142539D01*
X184927011Y-101188294D01*
X184875500Y-101199500D01*
X181834108Y-101199500D01*
X181706812Y-101233608D01*
X181592686Y-101299500D01*
X181592683Y-101299502D01*
X181499502Y-101392683D01*
X181499500Y-101392686D01*
X181433608Y-101506812D01*
X181405401Y-101612084D01*
X181399500Y-101634108D01*
X181399500Y-105284108D01*
X181399500Y-105415892D01*
X181411319Y-105460000D01*
X181433608Y-105543187D01*
X181455527Y-105581151D01*
X181499500Y-105657314D01*
X181592686Y-105750500D01*
X181706814Y-105816392D01*
X181834108Y-105850500D01*
X184875500Y-105850500D01*
X184942539Y-105870185D01*
X184988294Y-105922989D01*
X184999500Y-105974500D01*
X184999500Y-115434108D01*
X184999500Y-115565892D01*
X185007983Y-115597551D01*
X185033608Y-115693187D01*
X185066554Y-115750250D01*
X185099500Y-115807314D01*
X185192686Y-115900500D01*
X185306814Y-115966392D01*
X185434108Y-116000500D01*
X188175500Y-116000500D01*
X188242539Y-116020185D01*
X188288294Y-116072989D01*
X188299500Y-116124500D01*
X188299500Y-123234108D01*
X188299500Y-123365892D01*
X188316554Y-123429539D01*
X188333608Y-123493187D01*
X188341476Y-123506814D01*
X188399500Y-123607314D01*
X188492686Y-123700500D01*
X188606814Y-123766392D01*
X188734108Y-123800500D01*
X191775500Y-123800500D01*
X191842539Y-123820185D01*
X191888294Y-123872989D01*
X191899500Y-123924500D01*
X191899500Y-132825500D01*
X191879815Y-132892539D01*
X191827011Y-132938294D01*
X191775500Y-132949500D01*
X180014586Y-132949500D01*
X179947547Y-132929815D01*
X179901792Y-132877011D01*
X179890586Y-132825483D01*
X179890909Y-130480500D01*
X179890996Y-129844825D01*
X179891008Y-129844680D01*
X179891008Y-129769397D01*
X179891017Y-129704177D01*
X179891014Y-129704165D01*
X179891008Y-129704118D01*
X179891008Y-129704108D01*
X179874292Y-129641722D01*
X179856998Y-129577145D01*
X179856923Y-129576855D01*
X179856923Y-129576853D01*
X179856898Y-129576811D01*
X179824469Y-129520642D01*
X179824461Y-129520628D01*
X179791045Y-129462733D01*
X179791012Y-129462690D01*
X179744463Y-129416141D01*
X179697877Y-129369542D01*
X179697876Y-129369541D01*
X179697872Y-129369537D01*
X179697826Y-129369502D01*
X179639982Y-129336105D01*
X179639984Y-129336101D01*
X179639968Y-129336097D01*
X179583763Y-129303636D01*
X179583693Y-129303607D01*
X179518917Y-129286250D01*
X179518904Y-129286247D01*
X179494434Y-129279687D01*
X179456469Y-129269509D01*
X179456467Y-129269508D01*
X179456434Y-129269500D01*
X179456400Y-129269500D01*
X179390577Y-129269500D01*
X179324685Y-129269491D01*
X179324684Y-129269491D01*
X179316742Y-129269490D01*
X179316588Y-129269500D01*
X176424500Y-129269500D01*
X176357461Y-129249815D01*
X176311706Y-129197011D01*
X176300500Y-129145500D01*
X176300500Y-126234110D01*
X176300500Y-126234108D01*
X176266392Y-126106814D01*
X176200500Y-125992686D01*
X176107314Y-125899500D01*
X176050250Y-125866554D01*
X175993187Y-125833608D01*
X175929539Y-125816554D01*
X175865892Y-125799500D01*
X175865891Y-125799500D01*
X168908818Y-125799500D01*
X168841779Y-125779815D01*
X168796024Y-125727011D01*
X168784820Y-125674846D01*
X168800104Y-122776380D01*
X168800500Y-122770593D01*
X168800500Y-122701686D01*
X168800502Y-122701032D01*
X168800841Y-122636701D01*
X168800725Y-122635818D01*
X168800640Y-122635161D01*
X168800513Y-122634157D01*
X168783853Y-122571978D01*
X168783686Y-122571348D01*
X168781369Y-122562518D01*
X168767404Y-122509276D01*
X168767402Y-122509273D01*
X168767392Y-122509233D01*
X168767049Y-122508403D01*
X168766804Y-122507805D01*
X168766417Y-122506858D01*
X168762746Y-122500500D01*
X168734237Y-122451119D01*
X168734009Y-122450724D01*
X168702115Y-122394802D01*
X168702112Y-122394799D01*
X168702085Y-122394751D01*
X168701507Y-122393997D01*
X168701123Y-122393496D01*
X168700533Y-122392719D01*
X168655144Y-122347330D01*
X168654683Y-122346867D01*
X168609383Y-122301087D01*
X168608649Y-122300524D01*
X168608131Y-122300124D01*
X168607363Y-122299528D01*
X168551667Y-122267371D01*
X168551104Y-122267044D01*
X168495596Y-122234605D01*
X168494822Y-122234285D01*
X168494203Y-122234027D01*
X168493237Y-122233620D01*
X168431058Y-122216959D01*
X168430431Y-122216790D01*
X168368464Y-122199836D01*
X168367638Y-122199728D01*
X168366941Y-122199635D01*
X168365958Y-122199500D01*
X168365892Y-122199500D01*
X168301583Y-122199500D01*
X168300930Y-122199498D01*
X168232058Y-122199135D01*
X168226256Y-122199500D01*
X164724500Y-122199500D01*
X164657461Y-122179815D01*
X164611706Y-122127011D01*
X164600500Y-122075500D01*
X164600500Y-118274110D01*
X164600500Y-118274108D01*
X164566392Y-118146814D01*
X164500500Y-118032686D01*
X164407314Y-117939500D01*
X164350250Y-117906554D01*
X164293187Y-117873608D01*
X164229539Y-117856554D01*
X164165892Y-117839500D01*
X164165891Y-117839500D01*
X161800256Y-117839500D01*
X161733217Y-117819815D01*
X161687462Y-117767011D01*
X161676259Y-117714662D01*
X161690498Y-115607066D01*
X161691008Y-115599694D01*
X161691008Y-115532123D01*
X161691011Y-115531285D01*
X161691011Y-115531251D01*
X161691442Y-115467491D01*
X161691441Y-115467489D01*
X161691442Y-115467413D01*
X161691291Y-115466263D01*
X161691179Y-115465388D01*
X161691029Y-115464188D01*
X161682969Y-115434108D01*
X161674461Y-115402358D01*
X161674284Y-115401686D01*
X161658172Y-115339886D01*
X161657710Y-115338770D01*
X161657389Y-115337989D01*
X161656939Y-115336882D01*
X161624953Y-115281480D01*
X161624536Y-115280752D01*
X161593033Y-115225324D01*
X161592296Y-115224364D01*
X161591764Y-115223667D01*
X161591062Y-115222739D01*
X161545919Y-115177597D01*
X161545327Y-115177001D01*
X161500467Y-115131529D01*
X161499590Y-115130857D01*
X161498925Y-115130343D01*
X161497898Y-115129544D01*
X161497822Y-115129500D01*
X161442503Y-115097561D01*
X161441910Y-115097216D01*
X161427546Y-115088793D01*
X161386760Y-115064876D01*
X161385619Y-115064404D01*
X161384859Y-115064087D01*
X161383782Y-115063632D01*
X161383695Y-115063608D01*
X161383694Y-115063608D01*
X161321990Y-115047074D01*
X161321184Y-115046855D01*
X161259695Y-115029933D01*
X161258456Y-115029770D01*
X161257645Y-115029660D01*
X161256489Y-115029500D01*
X161256400Y-115029500D01*
X161192583Y-115029500D01*
X161191745Y-115029497D01*
X161124214Y-115029040D01*
X161116817Y-115029500D01*
X158224500Y-115029500D01*
X158157461Y-115009815D01*
X158111706Y-114957011D01*
X158100500Y-114905500D01*
X158100500Y-111994110D01*
X158100500Y-111994108D01*
X158066392Y-111866814D01*
X158000500Y-111752686D01*
X157907314Y-111659500D01*
X157850250Y-111626554D01*
X157793187Y-111593608D01*
X157729539Y-111576554D01*
X157665892Y-111559500D01*
X150556400Y-111559500D01*
X150424616Y-111559500D01*
X150297320Y-111593608D01*
X150183194Y-111659500D01*
X150183191Y-111659502D01*
X150090010Y-111752683D01*
X150090008Y-111752686D01*
X150024116Y-111866812D01*
X149990008Y-111994108D01*
X149990008Y-114905500D01*
X149970323Y-114972539D01*
X149917519Y-115018294D01*
X149866008Y-115029500D01*
X146834108Y-115029500D01*
X146706812Y-115063608D01*
X146592686Y-115129500D01*
X146592683Y-115129502D01*
X146499502Y-115222683D01*
X146499500Y-115222686D01*
X146433608Y-115336812D01*
X146399500Y-115464108D01*
X146399500Y-121375500D01*
X146379815Y-121442539D01*
X146327011Y-121488294D01*
X146275500Y-121499500D01*
X145224616Y-121499500D01*
X145097320Y-121533608D01*
X144983194Y-121599500D01*
X144983191Y-121599502D01*
X144890010Y-121692683D01*
X144890008Y-121692686D01*
X144824116Y-121806812D01*
X144790008Y-121934108D01*
X144790008Y-123075500D01*
X144770323Y-123142539D01*
X144717519Y-123188294D01*
X144666008Y-123199500D01*
X141702075Y-123199500D01*
X141701237Y-123199497D01*
X141637404Y-123199065D01*
X141636244Y-123199218D01*
X141635431Y-123199323D01*
X141634195Y-123199477D01*
X141634109Y-123199500D01*
X141634108Y-123199500D01*
X141614429Y-123204772D01*
X141572503Y-123216006D01*
X141571698Y-123216218D01*
X141509876Y-123232337D01*
X141508710Y-123232821D01*
X141507907Y-123233150D01*
X141506891Y-123233562D01*
X141451622Y-123265472D01*
X141450898Y-123265888D01*
X141395312Y-123297482D01*
X141394391Y-123298190D01*
X141393684Y-123298729D01*
X141392755Y-123299431D01*
X141347595Y-123344590D01*
X141347003Y-123345178D01*
X141301519Y-123390051D01*
X141300816Y-123390969D01*
X141300302Y-123391633D01*
X141299549Y-123392600D01*
X141267611Y-123447915D01*
X141267194Y-123448633D01*
X141234876Y-123503749D01*
X141234401Y-123504897D01*
X141234081Y-123505662D01*
X141233631Y-123506727D01*
X141217055Y-123568589D01*
X141216835Y-123569396D01*
X141199931Y-123630819D01*
X141199762Y-123632107D01*
X141199649Y-123632942D01*
X141199500Y-123634017D01*
X141199500Y-123697976D01*
X141199497Y-123698814D01*
X141184718Y-125886338D01*
X141164581Y-125953243D01*
X141111469Y-125998640D01*
X141060721Y-126009500D01*
X138024616Y-126009500D01*
X137897320Y-126043608D01*
X137783194Y-126109500D01*
X137783191Y-126109502D01*
X137690010Y-126202683D01*
X137690008Y-126202686D01*
X137624116Y-126316812D01*
X137590008Y-126444108D01*
X137590008Y-129355500D01*
X137570323Y-129422539D01*
X137517519Y-129468294D01*
X137466008Y-129479500D01*
X134434108Y-129479500D01*
X134306812Y-129513608D01*
X134192686Y-129579500D01*
X134192683Y-129579502D01*
X134099502Y-129672683D01*
X134099500Y-129672686D01*
X134033608Y-129786812D01*
X133999500Y-129914108D01*
X133999500Y-132825500D01*
X133979815Y-132892539D01*
X133927011Y-132938294D01*
X133875500Y-132949500D01*
X120033992Y-132949500D01*
X119966953Y-132929815D01*
X119921198Y-132877011D01*
X119909992Y-132825500D01*
X119909992Y-119724500D01*
X119929677Y-119657461D01*
X119982481Y-119611706D01*
X120033992Y-119600500D01*
X122926090Y-119600500D01*
X122928204Y-119600636D01*
X122935054Y-119600623D01*
X122935058Y-119600624D01*
X123000423Y-119600500D01*
X123065892Y-119600500D01*
X123065901Y-119600497D01*
X123066827Y-119600374D01*
X123066842Y-119600374D01*
X123129888Y-119583352D01*
X123193186Y-119566392D01*
X123193189Y-119566389D01*
X123194064Y-119566027D01*
X123194067Y-119566024D01*
X123194071Y-119566024D01*
X123230616Y-119544831D01*
X123250627Y-119533228D01*
X123250831Y-119533110D01*
X123263153Y-119525995D01*
X123307314Y-119500500D01*
X123307317Y-119500497D01*
X123308067Y-119499921D01*
X123308069Y-119499918D01*
X123308074Y-119499916D01*
X123354315Y-119453498D01*
X123354316Y-119453497D01*
X123354351Y-119453532D01*
X123354479Y-119453333D01*
X123400500Y-119407314D01*
X123400503Y-119407308D01*
X123401077Y-119406558D01*
X123401083Y-119406553D01*
X123433704Y-119349801D01*
X123466392Y-119293186D01*
X123466393Y-119293180D01*
X123466554Y-119292793D01*
X123466643Y-119292578D01*
X123466757Y-119292302D01*
X123483502Y-119229329D01*
X123483563Y-119229100D01*
X123500500Y-119165892D01*
X123500500Y-119165888D01*
X123500501Y-119165885D01*
X123500513Y-119165796D01*
X123500542Y-119165568D01*
X123500623Y-119164948D01*
X123500622Y-119164945D01*
X123500624Y-119164942D01*
X123500500Y-119099623D01*
X123500500Y-119034108D01*
X123500500Y-119027231D01*
X123500357Y-119025114D01*
X123490127Y-113635635D01*
X123485909Y-111413389D01*
X130239500Y-111413389D01*
X130239500Y-111586610D01*
X130265803Y-111752686D01*
X130266598Y-111757701D01*
X130320127Y-111922445D01*
X130398768Y-112076788D01*
X130500586Y-112216928D01*
X130623072Y-112339414D01*
X130763212Y-112441232D01*
X130917555Y-112519873D01*
X131082299Y-112573402D01*
X131253389Y-112600500D01*
X131253390Y-112600500D01*
X131426610Y-112600500D01*
X131426611Y-112600500D01*
X131597701Y-112573402D01*
X131762445Y-112519873D01*
X131916788Y-112441232D01*
X132056928Y-112339414D01*
X132179414Y-112216928D01*
X132281232Y-112076788D01*
X132359873Y-111922445D01*
X132413402Y-111757701D01*
X132440500Y-111586611D01*
X132440500Y-111413389D01*
X132430854Y-111352486D01*
X134169500Y-111352486D01*
X134169500Y-111647513D01*
X134198372Y-111866812D01*
X134208007Y-111939993D01*
X134282212Y-112216930D01*
X134284361Y-112224951D01*
X134284364Y-112224961D01*
X134397254Y-112497500D01*
X134397258Y-112497510D01*
X134544761Y-112752993D01*
X134724352Y-112987040D01*
X134724358Y-112987047D01*
X134932952Y-113195641D01*
X134932959Y-113195647D01*
X135167006Y-113375238D01*
X135422489Y-113522741D01*
X135422490Y-113522741D01*
X135422493Y-113522743D01*
X135695048Y-113635639D01*
X135980007Y-113711993D01*
X136272494Y-113750500D01*
X136272501Y-113750500D01*
X136567499Y-113750500D01*
X136567506Y-113750500D01*
X136859993Y-113711993D01*
X137144952Y-113635639D01*
X137417507Y-113522743D01*
X137672994Y-113375238D01*
X137907042Y-113195646D01*
X138115646Y-112987042D01*
X138295238Y-112752994D01*
X138442743Y-112497507D01*
X138555639Y-112224952D01*
X138631993Y-111939993D01*
X138670500Y-111647506D01*
X138670500Y-111413389D01*
X140399500Y-111413389D01*
X140399500Y-111586610D01*
X140425803Y-111752686D01*
X140426598Y-111757701D01*
X140480127Y-111922445D01*
X140558768Y-112076788D01*
X140660586Y-112216928D01*
X140783072Y-112339414D01*
X140923212Y-112441232D01*
X141077555Y-112519873D01*
X141242299Y-112573402D01*
X141413389Y-112600500D01*
X141413390Y-112600500D01*
X141586610Y-112600500D01*
X141586611Y-112600500D01*
X141757701Y-112573402D01*
X141922445Y-112519873D01*
X142076788Y-112441232D01*
X142216928Y-112339414D01*
X142339414Y-112216928D01*
X142441232Y-112076788D01*
X142519873Y-111922445D01*
X142573402Y-111757701D01*
X142600500Y-111586611D01*
X142600500Y-111413389D01*
X142573402Y-111242299D01*
X142519873Y-111077555D01*
X142441232Y-110923212D01*
X142339414Y-110783072D01*
X142216928Y-110660586D01*
X142076788Y-110558768D01*
X141922445Y-110480127D01*
X141757701Y-110426598D01*
X141757699Y-110426597D01*
X141757698Y-110426597D01*
X141626271Y-110405781D01*
X141586611Y-110399500D01*
X141413389Y-110399500D01*
X141373728Y-110405781D01*
X141242302Y-110426597D01*
X141077552Y-110480128D01*
X140923211Y-110558768D01*
X140867115Y-110599525D01*
X140783072Y-110660586D01*
X140783070Y-110660588D01*
X140783069Y-110660588D01*
X140660588Y-110783069D01*
X140660588Y-110783070D01*
X140660586Y-110783072D01*
X140616859Y-110843256D01*
X140558768Y-110923211D01*
X140480128Y-111077552D01*
X140426597Y-111242302D01*
X140399500Y-111413389D01*
X138670500Y-111413389D01*
X138670500Y-111352494D01*
X138631993Y-111060007D01*
X138555639Y-110775048D01*
X138442743Y-110502493D01*
X138392604Y-110415650D01*
X138295238Y-110247006D01*
X138115647Y-110012959D01*
X138115641Y-110012952D01*
X137907047Y-109804358D01*
X137907040Y-109804352D01*
X137672993Y-109624761D01*
X137417510Y-109477258D01*
X137417500Y-109477254D01*
X137144961Y-109364364D01*
X137144954Y-109364362D01*
X137144952Y-109364361D01*
X136859993Y-109288007D01*
X136811113Y-109281571D01*
X136567513Y-109249500D01*
X136567506Y-109249500D01*
X136272494Y-109249500D01*
X136272486Y-109249500D01*
X135994085Y-109286153D01*
X135980007Y-109288007D01*
X135815154Y-109332179D01*
X135695048Y-109364361D01*
X135695038Y-109364364D01*
X135422499Y-109477254D01*
X135422489Y-109477258D01*
X135167006Y-109624761D01*
X134932959Y-109804352D01*
X134932952Y-109804358D01*
X134724358Y-110012952D01*
X134724352Y-110012959D01*
X134544761Y-110247006D01*
X134397258Y-110502489D01*
X134397254Y-110502499D01*
X134284364Y-110775038D01*
X134284361Y-110775048D01*
X134208008Y-111060004D01*
X134208006Y-111060015D01*
X134169500Y-111352486D01*
X132430854Y-111352486D01*
X132413402Y-111242299D01*
X132359873Y-111077555D01*
X132281232Y-110923212D01*
X132179414Y-110783072D01*
X132126882Y-110730540D01*
X132093397Y-110669217D01*
X132098381Y-110599525D01*
X132140253Y-110543592D01*
X132205717Y-110519175D01*
X132233961Y-110520386D01*
X132484072Y-110560000D01*
X132735928Y-110560000D01*
X132984669Y-110520602D01*
X133224184Y-110442780D01*
X133448575Y-110328446D01*
X133448581Y-110328442D01*
X133550697Y-110254250D01*
X133550698Y-110254250D01*
X132934025Y-109637578D01*
X132965258Y-109624641D01*
X133088097Y-109542563D01*
X133192563Y-109438097D01*
X133274641Y-109315258D01*
X133287577Y-109284025D01*
X133904250Y-109900698D01*
X133904250Y-109900697D01*
X133978442Y-109798581D01*
X133978446Y-109798575D01*
X134092780Y-109574184D01*
X134170602Y-109334669D01*
X134210000Y-109085928D01*
X134210000Y-108834071D01*
X134170602Y-108585330D01*
X134092780Y-108345815D01*
X133978442Y-108121416D01*
X133904250Y-108019301D01*
X133904250Y-108019300D01*
X133287577Y-108635973D01*
X133274641Y-108604742D01*
X133192563Y-108481903D01*
X133088097Y-108377437D01*
X132965258Y-108295359D01*
X132934024Y-108282421D01*
X133550698Y-107665748D01*
X133448583Y-107591557D01*
X133224184Y-107477219D01*
X132984669Y-107399397D01*
X132735928Y-107360000D01*
X132484072Y-107360000D01*
X132235330Y-107399397D01*
X131995815Y-107477219D01*
X131771413Y-107591559D01*
X131669301Y-107665747D01*
X131669300Y-107665748D01*
X132285974Y-108282421D01*
X132254742Y-108295359D01*
X132131903Y-108377437D01*
X132027437Y-108481903D01*
X131945359Y-108604742D01*
X131932421Y-108635974D01*
X131315748Y-108019300D01*
X131315747Y-108019301D01*
X131241559Y-108121413D01*
X131127219Y-108345815D01*
X131049397Y-108585330D01*
X131010000Y-108834071D01*
X131010000Y-109085928D01*
X131049397Y-109334669D01*
X131127219Y-109574184D01*
X131241557Y-109798583D01*
X131315748Y-109900697D01*
X131315748Y-109900698D01*
X131932421Y-109284024D01*
X131945359Y-109315258D01*
X132027437Y-109438097D01*
X132131903Y-109542563D01*
X132254742Y-109624641D01*
X132285974Y-109637577D01*
X131669300Y-110254250D01*
X131671598Y-110283449D01*
X131657233Y-110351827D01*
X131608181Y-110401583D01*
X131540016Y-110416921D01*
X131528583Y-110415650D01*
X131426611Y-110399500D01*
X131253389Y-110399500D01*
X131213728Y-110405781D01*
X131082302Y-110426597D01*
X130917552Y-110480128D01*
X130763211Y-110558768D01*
X130707115Y-110599525D01*
X130623072Y-110660586D01*
X130623070Y-110660588D01*
X130623069Y-110660588D01*
X130500588Y-110783069D01*
X130500588Y-110783070D01*
X130500586Y-110783072D01*
X130456859Y-110843256D01*
X130398768Y-110923211D01*
X130320128Y-111077552D01*
X130266597Y-111242302D01*
X130239500Y-111413389D01*
X123485909Y-111413389D01*
X123485900Y-111408752D01*
X123482703Y-109724735D01*
X123502260Y-109657659D01*
X123554977Y-109611804D01*
X123606703Y-109600500D01*
X126165890Y-109600500D01*
X126165892Y-109600500D01*
X126293186Y-109566392D01*
X126407314Y-109500500D01*
X126500500Y-109407314D01*
X126566392Y-109293186D01*
X126600500Y-109165892D01*
X126600500Y-106294038D01*
X137359500Y-106294038D01*
X137359500Y-106545961D01*
X137398910Y-106794785D01*
X137476760Y-107034383D01*
X137591132Y-107258848D01*
X137739201Y-107462649D01*
X137739205Y-107462654D01*
X137917345Y-107640794D01*
X137917350Y-107640798D01*
X138095117Y-107769952D01*
X138121155Y-107788870D01*
X138264184Y-107861747D01*
X138345616Y-107903239D01*
X138345618Y-107903239D01*
X138345621Y-107903241D01*
X138585215Y-107981090D01*
X138834038Y-108020500D01*
X138834039Y-108020500D01*
X139085961Y-108020500D01*
X139085962Y-108020500D01*
X139334785Y-107981090D01*
X139574379Y-107903241D01*
X139798845Y-107788870D01*
X140002656Y-107640793D01*
X140180793Y-107462656D01*
X140328870Y-107258845D01*
X140443241Y-107034379D01*
X140521090Y-106794785D01*
X140560500Y-106545962D01*
X140560500Y-106294038D01*
X140521090Y-106045215D01*
X140443241Y-105805621D01*
X140443239Y-105805618D01*
X140443239Y-105805616D01*
X140372890Y-105667550D01*
X140328870Y-105581155D01*
X140301284Y-105543186D01*
X140180798Y-105377350D01*
X140180794Y-105377345D01*
X140002654Y-105199205D01*
X140002649Y-105199201D01*
X139798848Y-105051132D01*
X139798847Y-105051131D01*
X139798845Y-105051130D01*
X139618748Y-104959366D01*
X139574383Y-104936760D01*
X139334785Y-104858910D01*
X139275373Y-104849500D01*
X139085962Y-104819500D01*
X138834038Y-104819500D01*
X138709626Y-104839205D01*
X138585214Y-104858910D01*
X138345616Y-104936760D01*
X138121151Y-105051132D01*
X137917350Y-105199201D01*
X137917345Y-105199205D01*
X137739205Y-105377345D01*
X137739201Y-105377350D01*
X137591132Y-105581151D01*
X137476760Y-105805616D01*
X137398910Y-106045214D01*
X137359500Y-106294038D01*
X126600500Y-106294038D01*
X126600500Y-99372149D01*
X137747500Y-99372149D01*
X137747500Y-99627850D01*
X137772635Y-99818757D01*
X137780874Y-99881340D01*
X137847050Y-100128312D01*
X137847053Y-100128322D01*
X137944894Y-100364531D01*
X137944899Y-100364542D01*
X138072734Y-100585957D01*
X138072745Y-100585973D01*
X138228388Y-100788811D01*
X138228394Y-100788818D01*
X138409181Y-100969605D01*
X138409187Y-100969610D01*
X138612035Y-101125261D01*
X138612042Y-101125265D01*
X138833457Y-101253100D01*
X138833462Y-101253102D01*
X138833465Y-101253104D01*
X139069687Y-101350950D01*
X139316660Y-101417126D01*
X139570157Y-101450500D01*
X139570164Y-101450500D01*
X140725836Y-101450500D01*
X140725843Y-101450500D01*
X140979340Y-101417126D01*
X141226313Y-101350950D01*
X141462535Y-101253104D01*
X141683965Y-101125261D01*
X141886813Y-100969610D01*
X142067610Y-100788813D01*
X142223261Y-100585965D01*
X142351104Y-100364535D01*
X142448950Y-100128313D01*
X142475638Y-100028713D01*
X146163500Y-100028713D01*
X146163500Y-100241287D01*
X146196754Y-100451243D01*
X146240525Y-100585957D01*
X146262444Y-100653414D01*
X146358951Y-100842820D01*
X146483890Y-101014786D01*
X146634213Y-101165109D01*
X146806179Y-101290048D01*
X146806181Y-101290049D01*
X146806184Y-101290051D01*
X146995588Y-101386557D01*
X147197757Y-101452246D01*
X147407713Y-101485500D01*
X147407714Y-101485500D01*
X147620286Y-101485500D01*
X147620287Y-101485500D01*
X147830243Y-101452246D01*
X148032412Y-101386557D01*
X148221816Y-101290051D01*
X148308471Y-101227093D01*
X148393786Y-101165109D01*
X148393788Y-101165106D01*
X148393792Y-101165104D01*
X148544104Y-101014792D01*
X148544106Y-101014788D01*
X148544109Y-101014786D01*
X148669048Y-100842820D01*
X148669047Y-100842820D01*
X148669051Y-100842816D01*
X148673514Y-100834054D01*
X148721488Y-100783259D01*
X148789308Y-100766463D01*
X148855444Y-100788999D01*
X148894486Y-100834056D01*
X148898951Y-100842820D01*
X149023890Y-101014786D01*
X149174213Y-101165109D01*
X149346179Y-101290048D01*
X149346181Y-101290049D01*
X149346184Y-101290051D01*
X149535588Y-101386557D01*
X149737757Y-101452246D01*
X149947713Y-101485500D01*
X149947714Y-101485500D01*
X150160286Y-101485500D01*
X150160287Y-101485500D01*
X150370243Y-101452246D01*
X150572412Y-101386557D01*
X150761816Y-101290051D01*
X150848471Y-101227093D01*
X150933786Y-101165109D01*
X150933788Y-101165106D01*
X150933792Y-101165104D01*
X151084104Y-101014792D01*
X151084106Y-101014788D01*
X151084109Y-101014786D01*
X151209048Y-100842820D01*
X151209047Y-100842820D01*
X151209051Y-100842816D01*
X151213514Y-100834054D01*
X151261488Y-100783259D01*
X151329308Y-100766463D01*
X151395444Y-100788999D01*
X151434486Y-100834056D01*
X151438951Y-100842820D01*
X151563890Y-101014786D01*
X151714213Y-101165109D01*
X151886179Y-101290048D01*
X151886181Y-101290049D01*
X151886184Y-101290051D01*
X152075588Y-101386557D01*
X152277757Y-101452246D01*
X152487713Y-101485500D01*
X152487714Y-101485500D01*
X152700286Y-101485500D01*
X152700287Y-101485500D01*
X152910243Y-101452246D01*
X152952523Y-101438507D01*
X153022362Y-101436511D01*
X153078522Y-101468757D01*
X154394139Y-102784374D01*
X154394149Y-102784385D01*
X154398479Y-102788715D01*
X154398480Y-102788716D01*
X154510284Y-102900520D01*
X154551496Y-102924313D01*
X154597095Y-102950639D01*
X154597097Y-102950641D01*
X154621384Y-102964663D01*
X154647215Y-102979577D01*
X154799943Y-103020501D01*
X154799946Y-103020501D01*
X154965653Y-103020501D01*
X154965669Y-103020500D01*
X165025501Y-103020500D01*
X165092540Y-103040185D01*
X165138295Y-103092989D01*
X165149501Y-103144500D01*
X165149501Y-103317876D01*
X165155908Y-103377483D01*
X165206202Y-103512328D01*
X165206206Y-103512335D01*
X165292452Y-103627544D01*
X165292455Y-103627547D01*
X165407664Y-103713793D01*
X165407671Y-103713797D01*
X165452618Y-103730561D01*
X165542517Y-103764091D01*
X165602127Y-103770500D01*
X165612685Y-103770499D01*
X165679723Y-103790179D01*
X165700372Y-103806818D01*
X166370591Y-104477037D01*
X166307007Y-104494075D01*
X166192993Y-104559901D01*
X166099901Y-104652993D01*
X166034075Y-104767007D01*
X166017037Y-104830591D01*
X165384728Y-104198282D01*
X165384727Y-104198282D01*
X165345380Y-104252439D01*
X165248904Y-104441782D01*
X165183242Y-104643869D01*
X165183242Y-104643872D01*
X165150000Y-104853753D01*
X165150000Y-105066246D01*
X165183242Y-105276127D01*
X165183242Y-105276130D01*
X165248904Y-105478217D01*
X165345375Y-105667550D01*
X165384728Y-105721716D01*
X166017037Y-105089408D01*
X166034075Y-105152993D01*
X166099901Y-105267007D01*
X166192993Y-105360099D01*
X166307007Y-105425925D01*
X166370590Y-105442962D01*
X165738282Y-106075269D01*
X165738282Y-106075270D01*
X165792452Y-106114626D01*
X165792451Y-106114626D01*
X165801495Y-106119234D01*
X165852292Y-106167208D01*
X165869087Y-106235029D01*
X165846550Y-106301164D01*
X165801499Y-106340202D01*
X165792182Y-106344949D01*
X165620213Y-106469890D01*
X165469890Y-106620213D01*
X165344951Y-106792179D01*
X165248444Y-106981585D01*
X165182753Y-107183760D01*
X165149500Y-107393713D01*
X165149500Y-107606286D01*
X165178418Y-107788870D01*
X165182754Y-107816243D01*
X165236316Y-107981090D01*
X165248444Y-108018414D01*
X165344951Y-108207820D01*
X165469890Y-108379786D01*
X165620213Y-108530109D01*
X165792182Y-108655050D01*
X165800946Y-108659516D01*
X165851742Y-108707491D01*
X165868536Y-108775312D01*
X165845998Y-108841447D01*
X165800946Y-108880484D01*
X165792182Y-108884949D01*
X165620213Y-109009890D01*
X165469890Y-109160213D01*
X165344951Y-109332179D01*
X165248444Y-109521585D01*
X165182753Y-109723760D01*
X165149500Y-109933713D01*
X165149500Y-110146286D01*
X165182054Y-110351827D01*
X165182754Y-110356243D01*
X165230272Y-110502489D01*
X165248444Y-110558414D01*
X165344951Y-110747820D01*
X165469890Y-110919786D01*
X165620213Y-111070109D01*
X165792182Y-111195050D01*
X165800946Y-111199516D01*
X165851742Y-111247491D01*
X165868536Y-111315312D01*
X165845998Y-111381447D01*
X165800946Y-111420484D01*
X165792182Y-111424949D01*
X165620213Y-111549890D01*
X165469890Y-111700213D01*
X165344951Y-111872179D01*
X165248444Y-112061585D01*
X165182753Y-112263760D01*
X165149500Y-112473713D01*
X165149500Y-112686286D01*
X165182753Y-112896239D01*
X165248444Y-113098414D01*
X165344951Y-113287820D01*
X165469890Y-113459786D01*
X165620213Y-113610109D01*
X165792182Y-113735050D01*
X165800946Y-113739516D01*
X165851742Y-113787491D01*
X165868536Y-113855312D01*
X165845998Y-113921447D01*
X165800946Y-113960484D01*
X165792182Y-113964949D01*
X165620213Y-114089890D01*
X165469890Y-114240213D01*
X165344951Y-114412179D01*
X165248444Y-114601585D01*
X165182753Y-114803760D01*
X165149500Y-115013713D01*
X165149500Y-115226286D01*
X165182415Y-115434108D01*
X165182754Y-115436243D01*
X165235166Y-115597551D01*
X165248444Y-115638414D01*
X165344951Y-115827820D01*
X165469890Y-115999786D01*
X165620213Y-116150109D01*
X165792182Y-116275050D01*
X165800946Y-116279516D01*
X165851742Y-116327491D01*
X165868536Y-116395312D01*
X165845998Y-116461447D01*
X165800946Y-116500484D01*
X165792182Y-116504949D01*
X165620213Y-116629890D01*
X165469890Y-116780213D01*
X165344951Y-116952179D01*
X165248444Y-117141585D01*
X165182753Y-117343760D01*
X165149500Y-117553713D01*
X165149500Y-117766286D01*
X165176934Y-117939502D01*
X165182754Y-117976243D01*
X165238175Y-118146812D01*
X165248444Y-118178414D01*
X165344951Y-118367820D01*
X165469890Y-118539786D01*
X165620213Y-118690109D01*
X165792182Y-118815050D01*
X165800946Y-118819516D01*
X165851742Y-118867491D01*
X165868536Y-118935312D01*
X165845998Y-119001447D01*
X165800946Y-119040484D01*
X165792182Y-119044949D01*
X165620213Y-119169890D01*
X165469890Y-119320213D01*
X165344951Y-119492179D01*
X165248444Y-119681585D01*
X165182753Y-119883760D01*
X165149500Y-120093713D01*
X165149500Y-120306286D01*
X165182753Y-120516239D01*
X165248444Y-120718414D01*
X165344951Y-120907820D01*
X165469890Y-121079786D01*
X165620213Y-121230109D01*
X165792179Y-121355048D01*
X165792181Y-121355049D01*
X165792184Y-121355051D01*
X165981588Y-121451557D01*
X166183757Y-121517246D01*
X166393713Y-121550500D01*
X166393714Y-121550500D01*
X166606286Y-121550500D01*
X166606287Y-121550500D01*
X166816243Y-121517246D01*
X167018412Y-121451557D01*
X167207816Y-121355051D01*
X167229789Y-121339086D01*
X167379786Y-121230109D01*
X167379788Y-121230106D01*
X167379792Y-121230104D01*
X167530104Y-121079792D01*
X167530106Y-121079788D01*
X167530109Y-121079786D01*
X167655048Y-120907820D01*
X167655047Y-120907820D01*
X167655051Y-120907816D01*
X167751557Y-120718412D01*
X167817246Y-120516243D01*
X167850500Y-120306287D01*
X167850500Y-120093713D01*
X167817246Y-119883757D01*
X167751557Y-119681588D01*
X167655051Y-119492184D01*
X167655049Y-119492181D01*
X167655048Y-119492179D01*
X167530109Y-119320213D01*
X167379786Y-119169890D01*
X167207820Y-119044951D01*
X167207115Y-119044591D01*
X167199054Y-119040485D01*
X167148259Y-118992512D01*
X167131463Y-118924692D01*
X167153999Y-118858556D01*
X167199054Y-118819515D01*
X167207816Y-118815051D01*
X167266244Y-118772601D01*
X167379786Y-118690109D01*
X167379788Y-118690106D01*
X167379792Y-118690104D01*
X167530104Y-118539792D01*
X167530106Y-118539788D01*
X167530109Y-118539786D01*
X167655048Y-118367820D01*
X167655047Y-118367820D01*
X167655051Y-118367816D01*
X167751557Y-118178412D01*
X167817246Y-117976243D01*
X167850500Y-117766287D01*
X167850500Y-117553713D01*
X167817246Y-117343757D01*
X167751557Y-117141588D01*
X167655051Y-116952184D01*
X167655049Y-116952181D01*
X167655048Y-116952179D01*
X167530109Y-116780213D01*
X167379786Y-116629890D01*
X167207820Y-116504951D01*
X167207115Y-116504591D01*
X167199054Y-116500485D01*
X167148259Y-116452512D01*
X167131463Y-116384692D01*
X167153999Y-116318556D01*
X167199054Y-116279515D01*
X167207816Y-116275051D01*
X167229789Y-116259086D01*
X167379786Y-116150109D01*
X167379788Y-116150106D01*
X167379792Y-116150104D01*
X167530104Y-115999792D01*
X167530106Y-115999788D01*
X167530109Y-115999786D01*
X167655048Y-115827820D01*
X167655047Y-115827820D01*
X167655051Y-115827816D01*
X167751557Y-115638412D01*
X167817246Y-115436243D01*
X167850500Y-115226287D01*
X167850500Y-115013713D01*
X167817246Y-114803757D01*
X167751557Y-114601588D01*
X167655051Y-114412184D01*
X167655049Y-114412181D01*
X167655048Y-114412179D01*
X167530109Y-114240213D01*
X167379786Y-114089890D01*
X167207820Y-113964951D01*
X167207115Y-113964591D01*
X167199054Y-113960485D01*
X167148259Y-113912512D01*
X167131463Y-113844692D01*
X167153999Y-113778556D01*
X167199054Y-113739515D01*
X167207816Y-113735051D01*
X167239556Y-113711991D01*
X167379786Y-113610109D01*
X167379788Y-113610106D01*
X167379792Y-113610104D01*
X167530104Y-113459792D01*
X167530106Y-113459788D01*
X167530109Y-113459786D01*
X167655048Y-113287820D01*
X167655047Y-113287820D01*
X167655051Y-113287816D01*
X167751557Y-113098412D01*
X167817246Y-112896243D01*
X167850500Y-112686287D01*
X167850500Y-112473713D01*
X167817246Y-112263757D01*
X167751557Y-112061588D01*
X167655051Y-111872184D01*
X167655049Y-111872181D01*
X167655048Y-111872179D01*
X167530109Y-111700213D01*
X167379786Y-111549890D01*
X167207820Y-111424951D01*
X167207115Y-111424591D01*
X167199054Y-111420485D01*
X167148259Y-111372512D01*
X167131463Y-111304692D01*
X167153999Y-111238556D01*
X167199054Y-111199515D01*
X167207816Y-111195051D01*
X167369541Y-111077552D01*
X167379786Y-111070109D01*
X167379788Y-111070106D01*
X167379792Y-111070104D01*
X167530104Y-110919792D01*
X167530106Y-110919788D01*
X167530109Y-110919786D01*
X167655048Y-110747820D01*
X167655047Y-110747820D01*
X167655051Y-110747816D01*
X167751557Y-110558412D01*
X167817246Y-110356243D01*
X167850500Y-110146287D01*
X167850500Y-109933713D01*
X167817246Y-109723757D01*
X167751557Y-109521588D01*
X167655051Y-109332184D01*
X167655049Y-109332181D01*
X167655048Y-109332179D01*
X167530109Y-109160213D01*
X167379786Y-109009890D01*
X167207820Y-108884951D01*
X167207115Y-108884591D01*
X167199054Y-108880485D01*
X167148259Y-108832512D01*
X167131463Y-108764692D01*
X167153999Y-108698556D01*
X167199054Y-108659515D01*
X167207816Y-108655051D01*
X167284447Y-108599376D01*
X167379786Y-108530109D01*
X167379788Y-108530106D01*
X167379792Y-108530104D01*
X167530104Y-108379792D01*
X167530106Y-108379788D01*
X167530109Y-108379786D01*
X167655048Y-108207820D01*
X167655047Y-108207820D01*
X167655051Y-108207816D01*
X167751557Y-108018412D01*
X167817246Y-107816243D01*
X167850500Y-107606287D01*
X167850500Y-107393713D01*
X167817246Y-107183757D01*
X167751557Y-106981588D01*
X167655051Y-106792184D01*
X167655049Y-106792181D01*
X167655048Y-106792179D01*
X167530109Y-106620213D01*
X167379786Y-106469890D01*
X167207817Y-106344949D01*
X167198504Y-106340204D01*
X167147707Y-106292230D01*
X167130912Y-106224409D01*
X167153449Y-106158274D01*
X167198507Y-106119232D01*
X167207555Y-106114622D01*
X167261716Y-106075270D01*
X167261717Y-106075270D01*
X166629408Y-105442962D01*
X166692993Y-105425925D01*
X166807007Y-105360099D01*
X166900099Y-105267007D01*
X166965925Y-105152993D01*
X166982962Y-105089409D01*
X167615270Y-105721717D01*
X167615270Y-105721716D01*
X167654622Y-105667554D01*
X167751095Y-105478217D01*
X167816757Y-105276130D01*
X167816757Y-105276127D01*
X167850000Y-105066246D01*
X167850000Y-104853753D01*
X167816757Y-104643872D01*
X167816757Y-104643869D01*
X167751095Y-104441782D01*
X167654624Y-104252449D01*
X167615270Y-104198282D01*
X167615269Y-104198282D01*
X166982962Y-104830590D01*
X166965925Y-104767007D01*
X166900099Y-104652993D01*
X166807007Y-104559901D01*
X166692993Y-104494075D01*
X166629409Y-104477037D01*
X167299627Y-103806818D01*
X167360950Y-103773333D01*
X167387307Y-103770499D01*
X167397872Y-103770499D01*
X167457483Y-103764091D01*
X167592331Y-103713796D01*
X167707546Y-103627546D01*
X167793796Y-103512331D01*
X167844091Y-103377483D01*
X167850500Y-103317873D01*
X167850499Y-103031701D01*
X167870183Y-102964663D01*
X167912496Y-102924316D01*
X167953716Y-102900520D01*
X168065520Y-102788716D01*
X168065520Y-102788714D01*
X168075728Y-102778507D01*
X168075730Y-102778504D01*
X182694544Y-88159689D01*
X182755865Y-88126206D01*
X182825557Y-88131190D01*
X182881490Y-88173062D01*
X182905907Y-88238526D01*
X182904697Y-88266765D01*
X182902500Y-88280639D01*
X182902500Y-88479361D01*
X182909310Y-88522360D01*
X182933587Y-88675637D01*
X182994993Y-88864629D01*
X182994994Y-88864632D01*
X183057365Y-88987040D01*
X183085213Y-89041694D01*
X183202019Y-89202464D01*
X183342536Y-89342981D01*
X183503306Y-89459787D01*
X183621832Y-89520179D01*
X183659780Y-89539515D01*
X183710576Y-89587490D01*
X183727371Y-89655311D01*
X183704833Y-89721446D01*
X183659780Y-89760485D01*
X183503305Y-89840213D01*
X183342533Y-89957021D01*
X183202021Y-90097533D01*
X183085213Y-90258305D01*
X182994994Y-90435367D01*
X182994993Y-90435370D01*
X182933587Y-90624362D01*
X182902500Y-90820639D01*
X182902500Y-91019360D01*
X182933587Y-91215637D01*
X182994993Y-91404629D01*
X182994994Y-91404632D01*
X183085213Y-91581694D01*
X183202019Y-91742464D01*
X183342536Y-91882981D01*
X183503306Y-91999787D01*
X183621832Y-92060179D01*
X183659780Y-92079515D01*
X183710576Y-92127490D01*
X183727371Y-92195311D01*
X183704833Y-92261446D01*
X183659780Y-92300485D01*
X183503305Y-92380213D01*
X183342533Y-92497021D01*
X183202021Y-92637533D01*
X183085213Y-92798305D01*
X182994994Y-92975367D01*
X182994993Y-92975370D01*
X182933587Y-93164362D01*
X182902500Y-93360639D01*
X182902500Y-93559360D01*
X182933587Y-93755637D01*
X182994993Y-93944629D01*
X182994994Y-93944632D01*
X183085213Y-94121694D01*
X183202019Y-94282464D01*
X183342536Y-94422981D01*
X183503306Y-94539787D01*
X183621832Y-94600179D01*
X183659780Y-94619515D01*
X183710576Y-94667490D01*
X183727371Y-94735311D01*
X183704833Y-94801446D01*
X183659780Y-94840485D01*
X183503305Y-94920213D01*
X183342533Y-95037021D01*
X183202021Y-95177533D01*
X183085213Y-95338305D01*
X182994994Y-95515367D01*
X182994993Y-95515370D01*
X182933587Y-95704362D01*
X182933587Y-95704364D01*
X182902500Y-95900639D01*
X182902500Y-96099361D01*
X182918043Y-96197498D01*
X182933587Y-96295637D01*
X182994993Y-96484629D01*
X182994994Y-96484632D01*
X183040714Y-96574361D01*
X183085213Y-96661694D01*
X183202019Y-96822464D01*
X183342536Y-96962981D01*
X183503306Y-97079787D01*
X183590149Y-97124035D01*
X183680367Y-97170005D01*
X183680370Y-97170006D01*
X183765636Y-97197710D01*
X183869364Y-97231413D01*
X184065639Y-97262500D01*
X184065640Y-97262500D01*
X184264360Y-97262500D01*
X184264361Y-97262500D01*
X184460636Y-97231413D01*
X184649632Y-97170005D01*
X184826694Y-97079787D01*
X184987464Y-96962981D01*
X185127981Y-96822464D01*
X185244787Y-96661694D01*
X185335005Y-96484632D01*
X185396413Y-96295636D01*
X185427500Y-96099361D01*
X185427500Y-95900639D01*
X185396413Y-95704364D01*
X185335005Y-95515368D01*
X185335005Y-95515367D01*
X185244786Y-95338305D01*
X185127981Y-95177536D01*
X184987464Y-95037019D01*
X184826694Y-94920213D01*
X184670218Y-94840484D01*
X184619423Y-94792510D01*
X184602628Y-94724689D01*
X184625165Y-94658554D01*
X184670218Y-94619515D01*
X184826694Y-94539787D01*
X184987464Y-94422981D01*
X185127981Y-94282464D01*
X185244787Y-94121694D01*
X185335005Y-93944632D01*
X185396413Y-93755636D01*
X185427500Y-93559361D01*
X185427500Y-93360639D01*
X185396413Y-93164364D01*
X185335005Y-92975368D01*
X185335005Y-92975367D01*
X185244786Y-92798305D01*
X185127981Y-92637536D01*
X184987464Y-92497019D01*
X184826694Y-92380213D01*
X184670218Y-92300484D01*
X184619423Y-92252510D01*
X184602628Y-92184689D01*
X184625165Y-92118554D01*
X184670218Y-92079515D01*
X184826694Y-91999787D01*
X184987464Y-91882981D01*
X185127981Y-91742464D01*
X185244787Y-91581694D01*
X185335005Y-91404632D01*
X185396413Y-91215636D01*
X185427500Y-91019361D01*
X185427500Y-90820639D01*
X185396413Y-90624364D01*
X185335005Y-90435368D01*
X185335005Y-90435367D01*
X185287706Y-90342539D01*
X185244787Y-90258306D01*
X185127981Y-90097536D01*
X184987464Y-89957019D01*
X184826694Y-89840213D01*
X184670218Y-89760484D01*
X184619423Y-89712510D01*
X184602628Y-89644689D01*
X184625165Y-89578554D01*
X184670218Y-89539515D01*
X184826694Y-89459787D01*
X184987464Y-89342981D01*
X185127981Y-89202464D01*
X185244787Y-89041694D01*
X185335005Y-88864632D01*
X185396413Y-88675636D01*
X185427500Y-88479361D01*
X185427500Y-88280639D01*
X185396413Y-88084364D01*
X185349505Y-87939995D01*
X185335006Y-87895370D01*
X185335005Y-87895367D01*
X185244786Y-87718305D01*
X185236801Y-87707314D01*
X185127981Y-87557536D01*
X184987464Y-87417019D01*
X184826694Y-87300213D01*
X184670218Y-87220484D01*
X184619423Y-87172510D01*
X184602628Y-87104689D01*
X184625165Y-87038554D01*
X184670218Y-86999515D01*
X184826694Y-86919787D01*
X184987464Y-86802981D01*
X185127981Y-86662464D01*
X185244787Y-86501694D01*
X185335005Y-86324632D01*
X185396413Y-86135636D01*
X185427500Y-85939361D01*
X185427500Y-85740639D01*
X185396413Y-85544364D01*
X185335005Y-85355368D01*
X185335005Y-85355367D01*
X185256095Y-85200500D01*
X185244787Y-85178306D01*
X185127981Y-85017536D01*
X184987464Y-84877019D01*
X184826694Y-84760213D01*
X184669667Y-84680203D01*
X184618872Y-84632229D01*
X184602077Y-84564408D01*
X184624614Y-84498273D01*
X184669669Y-84459234D01*
X184826422Y-84379364D01*
X184863716Y-84352268D01*
X184249095Y-83737647D01*
X184336571Y-83714208D01*
X184437930Y-83655689D01*
X184520689Y-83572930D01*
X184579208Y-83471571D01*
X184602647Y-83384094D01*
X185217268Y-83998715D01*
X185244362Y-83961425D01*
X185334542Y-83784437D01*
X185395924Y-83595523D01*
X185395924Y-83595520D01*
X185427000Y-83399321D01*
X185427000Y-83200678D01*
X185395924Y-83004479D01*
X185395924Y-83004476D01*
X185334542Y-82815562D01*
X185244358Y-82638567D01*
X185217268Y-82601283D01*
X184602647Y-83215904D01*
X184579208Y-83128429D01*
X184520689Y-83027070D01*
X184437930Y-82944311D01*
X184336571Y-82885792D01*
X184249094Y-82862352D01*
X184863716Y-82247731D01*
X184863715Y-82247730D01*
X184826432Y-82220641D01*
X184669668Y-82140765D01*
X184618872Y-82092790D01*
X184602077Y-82024969D01*
X184624615Y-81958834D01*
X184669667Y-81919796D01*
X184826694Y-81839787D01*
X184987464Y-81722981D01*
X185127981Y-81582464D01*
X185244787Y-81421694D01*
X185335005Y-81244632D01*
X185396413Y-81055636D01*
X185427500Y-80859361D01*
X185427500Y-80660639D01*
X185396413Y-80464364D01*
X185335005Y-80275368D01*
X185335005Y-80275367D01*
X185244786Y-80098305D01*
X185127981Y-79937536D01*
X184987464Y-79797019D01*
X184826694Y-79680213D01*
X184649632Y-79589994D01*
X184649629Y-79589993D01*
X184460637Y-79528587D01*
X184362498Y-79513043D01*
X184264361Y-79497500D01*
X184065639Y-79497500D01*
X184000214Y-79507862D01*
X183869362Y-79528587D01*
X183680370Y-79589993D01*
X183680367Y-79589994D01*
X183503305Y-79680213D01*
X183342533Y-79797021D01*
X183202021Y-79937533D01*
X183085213Y-80098305D01*
X182994994Y-80275367D01*
X182994993Y-80275370D01*
X182933587Y-80464362D01*
X182902500Y-80660639D01*
X182902500Y-80859360D01*
X182933587Y-81055637D01*
X182994993Y-81244629D01*
X182994994Y-81244632D01*
X183085213Y-81421694D01*
X183202019Y-81582464D01*
X183342536Y-81722981D01*
X183503306Y-81839787D01*
X183660332Y-81919796D01*
X183711127Y-81967769D01*
X183727922Y-82035590D01*
X183705385Y-82101725D01*
X183660332Y-82140764D01*
X183503566Y-82220641D01*
X183466283Y-82247729D01*
X183466282Y-82247730D01*
X184080906Y-82862352D01*
X183993429Y-82885792D01*
X183892070Y-82944311D01*
X183809311Y-83027070D01*
X183750792Y-83128429D01*
X183727352Y-83215905D01*
X183112730Y-82601282D01*
X183112729Y-82601283D01*
X183085643Y-82638564D01*
X182995457Y-82815562D01*
X182934075Y-83004476D01*
X182934075Y-83004479D01*
X182903000Y-83200678D01*
X182903000Y-83399321D01*
X182934075Y-83595520D01*
X182934075Y-83595523D01*
X182995457Y-83784437D01*
X183085641Y-83961432D01*
X183112730Y-83998715D01*
X183112731Y-83998716D01*
X183727352Y-83384094D01*
X183750792Y-83471571D01*
X183809311Y-83572930D01*
X183892070Y-83655689D01*
X183993429Y-83714208D01*
X184080905Y-83737647D01*
X183466283Y-84352268D01*
X183466283Y-84352269D01*
X183503567Y-84379358D01*
X183660331Y-84459234D01*
X183711127Y-84507209D01*
X183727922Y-84575030D01*
X183705384Y-84641165D01*
X183660331Y-84680204D01*
X183503305Y-84760213D01*
X183342533Y-84877021D01*
X183202021Y-85017533D01*
X183085213Y-85178305D01*
X182994994Y-85355367D01*
X182994993Y-85355370D01*
X182933587Y-85544362D01*
X182902500Y-85740639D01*
X182902500Y-85939360D01*
X182933586Y-86135636D01*
X182934131Y-86137903D01*
X182934086Y-86138790D01*
X182934349Y-86140448D01*
X182934000Y-86140503D01*
X182930638Y-86207685D01*
X182901237Y-86254526D01*
X167909668Y-101246095D01*
X167848345Y-101279580D01*
X167778653Y-101274596D01*
X167722722Y-101232726D01*
X167707546Y-101212454D01*
X167707544Y-101212452D01*
X167707543Y-101212451D01*
X167592335Y-101126206D01*
X167592328Y-101126202D01*
X167457482Y-101075908D01*
X167457483Y-101075908D01*
X167397883Y-101069501D01*
X167397881Y-101069500D01*
X167397873Y-101069500D01*
X167397864Y-101069500D01*
X165602129Y-101069500D01*
X165602123Y-101069501D01*
X165542516Y-101075908D01*
X165407671Y-101126202D01*
X165407664Y-101126206D01*
X165292455Y-101212452D01*
X165292452Y-101212455D01*
X165206206Y-101327664D01*
X165206202Y-101327671D01*
X165155908Y-101462517D01*
X165149501Y-101522116D01*
X165149500Y-101522135D01*
X165149500Y-101695500D01*
X165129815Y-101762539D01*
X165077011Y-101808294D01*
X165025500Y-101819500D01*
X155179097Y-101819500D01*
X155112058Y-101799815D01*
X155091416Y-101783181D01*
X154920319Y-101612084D01*
X154886834Y-101550761D01*
X154884000Y-101524403D01*
X154884000Y-100568012D01*
X154941007Y-100600925D01*
X155068174Y-100635000D01*
X155199826Y-100635000D01*
X155326993Y-100600925D01*
X155384000Y-100568012D01*
X155384000Y-101485000D01*
X156031828Y-101485000D01*
X156031844Y-101484999D01*
X156091372Y-101478598D01*
X156091379Y-101478596D01*
X156226086Y-101428354D01*
X156226093Y-101428350D01*
X156341187Y-101342190D01*
X156341190Y-101342187D01*
X156427350Y-101227093D01*
X156427354Y-101227086D01*
X156477596Y-101092379D01*
X156477598Y-101092372D01*
X156483999Y-101032844D01*
X156484000Y-101032827D01*
X156484000Y-100385000D01*
X155567012Y-100385000D01*
X155599925Y-100327993D01*
X155634000Y-100200826D01*
X155634000Y-100069174D01*
X155599925Y-99942007D01*
X155567012Y-99885000D01*
X156484000Y-99885000D01*
X156484000Y-99372149D01*
X160099500Y-99372149D01*
X160099500Y-99627850D01*
X160124635Y-99818757D01*
X160132874Y-99881340D01*
X160199050Y-100128312D01*
X160199053Y-100128322D01*
X160296894Y-100364531D01*
X160296899Y-100364542D01*
X160424734Y-100585957D01*
X160424745Y-100585973D01*
X160580388Y-100788811D01*
X160580394Y-100788818D01*
X160761181Y-100969605D01*
X160761187Y-100969610D01*
X160964035Y-101125261D01*
X160964042Y-101125265D01*
X161185457Y-101253100D01*
X161185462Y-101253102D01*
X161185465Y-101253104D01*
X161421687Y-101350950D01*
X161668660Y-101417126D01*
X161922157Y-101450500D01*
X161922164Y-101450500D01*
X163077836Y-101450500D01*
X163077843Y-101450500D01*
X163331340Y-101417126D01*
X163578313Y-101350950D01*
X163814535Y-101253104D01*
X164035965Y-101125261D01*
X164238813Y-100969610D01*
X164419610Y-100788813D01*
X164575261Y-100585965D01*
X164703104Y-100364535D01*
X164800950Y-100128313D01*
X164867126Y-99881340D01*
X164900500Y-99627843D01*
X164900500Y-99372157D01*
X164867126Y-99118660D01*
X164800950Y-98871687D01*
X164800947Y-98871679D01*
X164800946Y-98871676D01*
X164724106Y-98686169D01*
X164703104Y-98635465D01*
X164703102Y-98635462D01*
X164703100Y-98635457D01*
X164575265Y-98414042D01*
X164575261Y-98414035D01*
X164419610Y-98211187D01*
X164419605Y-98211181D01*
X164238818Y-98030394D01*
X164238811Y-98030388D01*
X164035973Y-97874745D01*
X164035971Y-97874743D01*
X164035965Y-97874739D01*
X164035960Y-97874736D01*
X164035957Y-97874734D01*
X163814542Y-97746899D01*
X163814531Y-97746894D01*
X163578322Y-97649053D01*
X163578315Y-97649051D01*
X163578313Y-97649050D01*
X163331340Y-97582874D01*
X163275007Y-97575457D01*
X163077850Y-97549500D01*
X163077843Y-97549500D01*
X161922157Y-97549500D01*
X161922149Y-97549500D01*
X161696826Y-97579165D01*
X161668660Y-97582874D01*
X161421687Y-97649050D01*
X161421677Y-97649053D01*
X161185468Y-97746894D01*
X161185457Y-97746899D01*
X160964042Y-97874734D01*
X160964026Y-97874745D01*
X160761188Y-98030388D01*
X160761181Y-98030394D01*
X160580394Y-98211181D01*
X160580388Y-98211188D01*
X160424745Y-98414026D01*
X160424734Y-98414042D01*
X160296899Y-98635457D01*
X160296894Y-98635468D01*
X160199054Y-98871676D01*
X160199050Y-98871687D01*
X160132874Y-99118661D01*
X160099500Y-99372149D01*
X156484000Y-99372149D01*
X156484000Y-99237172D01*
X156483999Y-99237155D01*
X156477598Y-99177627D01*
X156477596Y-99177620D01*
X156427354Y-99042913D01*
X156427350Y-99042906D01*
X156341190Y-98927812D01*
X156341187Y-98927809D01*
X156226093Y-98841649D01*
X156226086Y-98841645D01*
X156091379Y-98791403D01*
X156091372Y-98791401D01*
X156031844Y-98785000D01*
X155384000Y-98785000D01*
X155384000Y-99701988D01*
X155326993Y-99669075D01*
X155199826Y-99635000D01*
X155068174Y-99635000D01*
X154941007Y-99669075D01*
X154884000Y-99701988D01*
X154884000Y-98745596D01*
X154892644Y-98716155D01*
X154899168Y-98686169D01*
X154902922Y-98681153D01*
X154903685Y-98678557D01*
X154920319Y-98657915D01*
X154932277Y-98645957D01*
X155895389Y-97682845D01*
X156868713Y-96709521D01*
X156868716Y-96709520D01*
X156980520Y-96597716D01*
X157030639Y-96510904D01*
X157059577Y-96460785D01*
X157100500Y-96308057D01*
X157100500Y-96149943D01*
X157100500Y-80660639D01*
X167662500Y-80660639D01*
X167662500Y-80859360D01*
X167693587Y-81055637D01*
X167754993Y-81244629D01*
X167754994Y-81244632D01*
X167845213Y-81421694D01*
X167962019Y-81582464D01*
X168102536Y-81722981D01*
X168263306Y-81839787D01*
X168291032Y-81853914D01*
X168419780Y-81919515D01*
X168470576Y-81967490D01*
X168487371Y-82035311D01*
X168464833Y-82101446D01*
X168419780Y-82140485D01*
X168263305Y-82220213D01*
X168102533Y-82337021D01*
X167962021Y-82477533D01*
X167845213Y-82638305D01*
X167754994Y-82815367D01*
X167754993Y-82815370D01*
X167693587Y-83004362D01*
X167662500Y-83200639D01*
X167662500Y-83399360D01*
X167693587Y-83595637D01*
X167754993Y-83784629D01*
X167754994Y-83784632D01*
X167845076Y-83961425D01*
X167845213Y-83961694D01*
X167962019Y-84122464D01*
X168102536Y-84262981D01*
X168263306Y-84379787D01*
X168301995Y-84399500D01*
X168419780Y-84459515D01*
X168470576Y-84507490D01*
X168487371Y-84575311D01*
X168464833Y-84641446D01*
X168419780Y-84680485D01*
X168263305Y-84760213D01*
X168102533Y-84877021D01*
X167962021Y-85017533D01*
X167845213Y-85178305D01*
X167754994Y-85355367D01*
X167754993Y-85355370D01*
X167693587Y-85544362D01*
X167662500Y-85740639D01*
X167662500Y-85939360D01*
X167693587Y-86135637D01*
X167754993Y-86324629D01*
X167754994Y-86324632D01*
X167845213Y-86501694D01*
X167962019Y-86662464D01*
X168102536Y-86802981D01*
X168263306Y-86919787D01*
X168381832Y-86980179D01*
X168419780Y-86999515D01*
X168470576Y-87047490D01*
X168487371Y-87115311D01*
X168464833Y-87181446D01*
X168419780Y-87220485D01*
X168263305Y-87300213D01*
X168102533Y-87417021D01*
X167962021Y-87557533D01*
X167845213Y-87718305D01*
X167754994Y-87895367D01*
X167754993Y-87895370D01*
X167693587Y-88084362D01*
X167662500Y-88280639D01*
X167662500Y-88479361D01*
X167669310Y-88522360D01*
X167693587Y-88675637D01*
X167754993Y-88864629D01*
X167754994Y-88864632D01*
X167817365Y-88987040D01*
X167845213Y-89041694D01*
X167962019Y-89202464D01*
X168102536Y-89342981D01*
X168263306Y-89459787D01*
X168381832Y-89520179D01*
X168419780Y-89539515D01*
X168470576Y-89587490D01*
X168487371Y-89655311D01*
X168464833Y-89721446D01*
X168419780Y-89760485D01*
X168263305Y-89840213D01*
X168102533Y-89957021D01*
X167962021Y-90097533D01*
X167845213Y-90258305D01*
X167754994Y-90435367D01*
X167754993Y-90435370D01*
X167693587Y-90624362D01*
X167662500Y-90820639D01*
X167662500Y-91019360D01*
X167693587Y-91215637D01*
X167754993Y-91404629D01*
X167754994Y-91404632D01*
X167845213Y-91581694D01*
X167962019Y-91742464D01*
X168102536Y-91882981D01*
X168263306Y-91999787D01*
X168381832Y-92060179D01*
X168419780Y-92079515D01*
X168470576Y-92127490D01*
X168487371Y-92195311D01*
X168464833Y-92261446D01*
X168419780Y-92300485D01*
X168263305Y-92380213D01*
X168102533Y-92497021D01*
X167962021Y-92637533D01*
X167845213Y-92798305D01*
X167754994Y-92975367D01*
X167754993Y-92975370D01*
X167693587Y-93164362D01*
X167662500Y-93360639D01*
X167662500Y-93559360D01*
X167693587Y-93755637D01*
X167754993Y-93944629D01*
X167754994Y-93944632D01*
X167845213Y-94121694D01*
X167962019Y-94282464D01*
X168102536Y-94422981D01*
X168263306Y-94539787D01*
X168381832Y-94600179D01*
X168419780Y-94619515D01*
X168470576Y-94667490D01*
X168487371Y-94735311D01*
X168464833Y-94801446D01*
X168419780Y-94840485D01*
X168263305Y-94920213D01*
X168102533Y-95037021D01*
X167962021Y-95177533D01*
X167845213Y-95338305D01*
X167754994Y-95515367D01*
X167754993Y-95515370D01*
X167693587Y-95704362D01*
X167693587Y-95704364D01*
X167662500Y-95900639D01*
X167662500Y-96099361D01*
X167678043Y-96197498D01*
X167693587Y-96295637D01*
X167754993Y-96484629D01*
X167754994Y-96484632D01*
X167800714Y-96574361D01*
X167845213Y-96661694D01*
X167962019Y-96822464D01*
X168102536Y-96962981D01*
X168263306Y-97079787D01*
X168350149Y-97124035D01*
X168440367Y-97170005D01*
X168440370Y-97170006D01*
X168525636Y-97197710D01*
X168629364Y-97231413D01*
X168825639Y-97262500D01*
X168825640Y-97262500D01*
X169024360Y-97262500D01*
X169024361Y-97262500D01*
X169220636Y-97231413D01*
X169409632Y-97170005D01*
X169586694Y-97079787D01*
X169747464Y-96962981D01*
X169887981Y-96822464D01*
X170004787Y-96661694D01*
X170095005Y-96484632D01*
X170156413Y-96295636D01*
X170187500Y-96099361D01*
X170187500Y-95900639D01*
X170156413Y-95704364D01*
X170095005Y-95515368D01*
X170095005Y-95515367D01*
X170004786Y-95338305D01*
X169887981Y-95177536D01*
X169747464Y-95037019D01*
X169586694Y-94920213D01*
X169430218Y-94840484D01*
X169379423Y-94792510D01*
X169362628Y-94724689D01*
X169385165Y-94658554D01*
X169430218Y-94619515D01*
X169586694Y-94539787D01*
X169747464Y-94422981D01*
X169887981Y-94282464D01*
X170004787Y-94121694D01*
X170095005Y-93944632D01*
X170156413Y-93755636D01*
X170187500Y-93559361D01*
X170187500Y-93360639D01*
X170156413Y-93164364D01*
X170095005Y-92975368D01*
X170095005Y-92975367D01*
X170004786Y-92798305D01*
X169887981Y-92637536D01*
X169747464Y-92497019D01*
X169586694Y-92380213D01*
X169430218Y-92300484D01*
X169379423Y-92252510D01*
X169362628Y-92184689D01*
X169385165Y-92118554D01*
X169430218Y-92079515D01*
X169586694Y-91999787D01*
X169747464Y-91882981D01*
X169887981Y-91742464D01*
X170004787Y-91581694D01*
X170095005Y-91404632D01*
X170156413Y-91215636D01*
X170187500Y-91019361D01*
X170187500Y-90820639D01*
X170156413Y-90624364D01*
X170095005Y-90435368D01*
X170095005Y-90435367D01*
X170047706Y-90342539D01*
X170004787Y-90258306D01*
X169887981Y-90097536D01*
X169747464Y-89957019D01*
X169586694Y-89840213D01*
X169430218Y-89760484D01*
X169379423Y-89712510D01*
X169362628Y-89644689D01*
X169385165Y-89578554D01*
X169430218Y-89539515D01*
X169586694Y-89459787D01*
X169747464Y-89342981D01*
X169887981Y-89202464D01*
X170004787Y-89041694D01*
X170095005Y-88864632D01*
X170156413Y-88675636D01*
X170187500Y-88479361D01*
X170187500Y-88280639D01*
X170156413Y-88084364D01*
X170109505Y-87939995D01*
X170095006Y-87895370D01*
X170095005Y-87895367D01*
X170004786Y-87718305D01*
X169996801Y-87707314D01*
X169887981Y-87557536D01*
X169747464Y-87417019D01*
X169586694Y-87300213D01*
X169430218Y-87220484D01*
X169379423Y-87172510D01*
X169362628Y-87104689D01*
X169385165Y-87038554D01*
X169430218Y-86999515D01*
X169586694Y-86919787D01*
X169747464Y-86802981D01*
X169887981Y-86662464D01*
X170004787Y-86501694D01*
X170095005Y-86324632D01*
X170156413Y-86135636D01*
X170187500Y-85939361D01*
X170187500Y-85740639D01*
X170156413Y-85544364D01*
X170095005Y-85355368D01*
X170095005Y-85355367D01*
X170016095Y-85200500D01*
X170004787Y-85178306D01*
X169887981Y-85017536D01*
X169747464Y-84877019D01*
X169586694Y-84760213D01*
X169430218Y-84680484D01*
X169379423Y-84632510D01*
X169362628Y-84564689D01*
X169385165Y-84498554D01*
X169430218Y-84459515D01*
X169586694Y-84379787D01*
X169747464Y-84262981D01*
X169887981Y-84122464D01*
X170004787Y-83961694D01*
X170095005Y-83784632D01*
X170156413Y-83595636D01*
X170187500Y-83399361D01*
X170187500Y-83200639D01*
X170156413Y-83004364D01*
X170095005Y-82815368D01*
X170095005Y-82815367D01*
X170049035Y-82725149D01*
X170004787Y-82638306D01*
X169887981Y-82477536D01*
X169747464Y-82337019D01*
X169586694Y-82220213D01*
X169430218Y-82140484D01*
X169379423Y-82092510D01*
X169362628Y-82024689D01*
X169385165Y-81958554D01*
X169430218Y-81919515D01*
X169586694Y-81839787D01*
X169747464Y-81722981D01*
X169887981Y-81582464D01*
X170004787Y-81421694D01*
X170095005Y-81244632D01*
X170156413Y-81055636D01*
X170187500Y-80859361D01*
X170187500Y-80660639D01*
X170156413Y-80464364D01*
X170095005Y-80275368D01*
X170095005Y-80275367D01*
X170004786Y-80098305D01*
X169887981Y-79937536D01*
X169747464Y-79797019D01*
X169586694Y-79680213D01*
X169409632Y-79589994D01*
X169409629Y-79589993D01*
X169220637Y-79528587D01*
X169122498Y-79513043D01*
X169024361Y-79497500D01*
X168825639Y-79497500D01*
X168760214Y-79507862D01*
X168629362Y-79528587D01*
X168440370Y-79589993D01*
X168440367Y-79589994D01*
X168263305Y-79680213D01*
X168102533Y-79797021D01*
X167962021Y-79937533D01*
X167845213Y-80098305D01*
X167754994Y-80275367D01*
X167754993Y-80275370D01*
X167693587Y-80464362D01*
X167662500Y-80660639D01*
X157100500Y-80660639D01*
X157100500Y-76258149D01*
X160099500Y-76258149D01*
X160099500Y-76513850D01*
X160125457Y-76711007D01*
X160132874Y-76767340D01*
X160199050Y-77014312D01*
X160199053Y-77014322D01*
X160296894Y-77250531D01*
X160296899Y-77250542D01*
X160424734Y-77471957D01*
X160424745Y-77471973D01*
X160580388Y-77674811D01*
X160580394Y-77674818D01*
X160761181Y-77855605D01*
X160761188Y-77855611D01*
X160839748Y-77915892D01*
X160964035Y-78011261D01*
X160964042Y-78011265D01*
X161185457Y-78139100D01*
X161185462Y-78139102D01*
X161185465Y-78139104D01*
X161333686Y-78200499D01*
X161381212Y-78220185D01*
X161421687Y-78236950D01*
X161668660Y-78303126D01*
X161922157Y-78336500D01*
X161922164Y-78336500D01*
X163077836Y-78336500D01*
X163077843Y-78336500D01*
X163331340Y-78303126D01*
X163578313Y-78236950D01*
X163814535Y-78139104D01*
X164035965Y-78011261D01*
X164238813Y-77855610D01*
X164419610Y-77674813D01*
X164575261Y-77471965D01*
X164703104Y-77250535D01*
X164800950Y-77014313D01*
X164867126Y-76767340D01*
X164900500Y-76513843D01*
X164900500Y-76258157D01*
X164867126Y-76004660D01*
X164800950Y-75757687D01*
X164703104Y-75521465D01*
X164703102Y-75521462D01*
X164703100Y-75521457D01*
X164575265Y-75300042D01*
X164575261Y-75300035D01*
X164486318Y-75184122D01*
X164419611Y-75097188D01*
X164419605Y-75097181D01*
X164238818Y-74916394D01*
X164238811Y-74916388D01*
X164035973Y-74760745D01*
X164035971Y-74760743D01*
X164035965Y-74760739D01*
X164035960Y-74760736D01*
X164035957Y-74760734D01*
X163814542Y-74632899D01*
X163814531Y-74632894D01*
X163578322Y-74535053D01*
X163578315Y-74535051D01*
X163578313Y-74535050D01*
X163331340Y-74468874D01*
X163275007Y-74461457D01*
X163077850Y-74435500D01*
X163077843Y-74435500D01*
X161922157Y-74435500D01*
X161922149Y-74435500D01*
X161696826Y-74465165D01*
X161668660Y-74468874D01*
X161421687Y-74535050D01*
X161421677Y-74535053D01*
X161185468Y-74632894D01*
X161185457Y-74632899D01*
X160964042Y-74760734D01*
X160964026Y-74760745D01*
X160761188Y-74916388D01*
X160761181Y-74916394D01*
X160580394Y-75097181D01*
X160580388Y-75097188D01*
X160424745Y-75300026D01*
X160424734Y-75300042D01*
X160296899Y-75521457D01*
X160296894Y-75521468D01*
X160199053Y-75757677D01*
X160199050Y-75757687D01*
X160132874Y-76004661D01*
X160099500Y-76258149D01*
X157100500Y-76258149D01*
X157100500Y-72374499D01*
X157120185Y-72307460D01*
X157172989Y-72261705D01*
X157224500Y-72250499D01*
X157297871Y-72250499D01*
X157297872Y-72250499D01*
X157357483Y-72244091D01*
X157492331Y-72193796D01*
X157607546Y-72107546D01*
X157693796Y-71992331D01*
X157744091Y-71857483D01*
X157750500Y-71797873D01*
X157750499Y-70202128D01*
X157744091Y-70142517D01*
X157708157Y-70046174D01*
X157693797Y-70007671D01*
X157693793Y-70007664D01*
X157607547Y-69892455D01*
X157607544Y-69892452D01*
X157492335Y-69806206D01*
X157492328Y-69806202D01*
X157357482Y-69755908D01*
X157357483Y-69755908D01*
X157297883Y-69749501D01*
X157297881Y-69749500D01*
X157297873Y-69749500D01*
X157297864Y-69749500D01*
X155702129Y-69749500D01*
X155702123Y-69749501D01*
X155642516Y-69755908D01*
X155507671Y-69806202D01*
X155507664Y-69806206D01*
X155392455Y-69892452D01*
X155392452Y-69892455D01*
X155306206Y-70007664D01*
X155306202Y-70007671D01*
X155255908Y-70142517D01*
X155251303Y-70185354D01*
X155249501Y-70202123D01*
X155249500Y-70202135D01*
X155249500Y-70265732D01*
X155229815Y-70332771D01*
X155177011Y-70378526D01*
X155107853Y-70388470D01*
X155044297Y-70359445D01*
X155025182Y-70338618D01*
X154926020Y-70202135D01*
X154913828Y-70185354D01*
X154774646Y-70046172D01*
X154615405Y-69930476D01*
X154440029Y-69841117D01*
X154252826Y-69780290D01*
X154058422Y-69749500D01*
X154058417Y-69749500D01*
X153861583Y-69749500D01*
X153861578Y-69749500D01*
X153667173Y-69780290D01*
X153479970Y-69841117D01*
X153304594Y-69930476D01*
X153213741Y-69996485D01*
X153145354Y-70046172D01*
X153145352Y-70046174D01*
X153145351Y-70046174D01*
X153006174Y-70185351D01*
X153006174Y-70185352D01*
X153006172Y-70185354D01*
X152993980Y-70202135D01*
X152890476Y-70344594D01*
X152800485Y-70521213D01*
X152752511Y-70572009D01*
X152684690Y-70588804D01*
X152618555Y-70566267D01*
X152579515Y-70521213D01*
X152511879Y-70388470D01*
X152489524Y-70344595D01*
X152373828Y-70185354D01*
X152234646Y-70046172D01*
X152075405Y-69930476D01*
X151900029Y-69841117D01*
X151712826Y-69780290D01*
X151518422Y-69749500D01*
X151518417Y-69749500D01*
X151321583Y-69749500D01*
X151321578Y-69749500D01*
X151127173Y-69780290D01*
X150939970Y-69841117D01*
X150764594Y-69930476D01*
X150673741Y-69996485D01*
X150605354Y-70046172D01*
X150605352Y-70046174D01*
X150605351Y-70046174D01*
X150466174Y-70185351D01*
X150466174Y-70185352D01*
X150466172Y-70185354D01*
X150453980Y-70202135D01*
X150350476Y-70344594D01*
X150260204Y-70521764D01*
X150212229Y-70572560D01*
X150144408Y-70589355D01*
X150078274Y-70566818D01*
X150039234Y-70521764D01*
X149949096Y-70344858D01*
X149923678Y-70309873D01*
X149923677Y-70309873D01*
X149280000Y-70953551D01*
X149280000Y-70947339D01*
X149252741Y-70845606D01*
X149200080Y-70754394D01*
X149125606Y-70679920D01*
X149034394Y-70627259D01*
X148932661Y-70600000D01*
X148926447Y-70600000D01*
X149570125Y-69956320D01*
X149570125Y-69956319D01*
X149535145Y-69930905D01*
X149359835Y-69841581D01*
X149172705Y-69780778D01*
X148978382Y-69750000D01*
X148781618Y-69750000D01*
X148587294Y-69780778D01*
X148400161Y-69841582D01*
X148224863Y-69930899D01*
X148224859Y-69930902D01*
X148189873Y-69956320D01*
X148189872Y-69956320D01*
X148833554Y-70600000D01*
X148827339Y-70600000D01*
X148725606Y-70627259D01*
X148634394Y-70679920D01*
X148559920Y-70754394D01*
X148507259Y-70845606D01*
X148480000Y-70947339D01*
X148480000Y-70953552D01*
X147836320Y-70309872D01*
X147836320Y-70309873D01*
X147810902Y-70344859D01*
X147810899Y-70344863D01*
X147721582Y-70520161D01*
X147660778Y-70707294D01*
X147630000Y-70901617D01*
X147630000Y-71098382D01*
X147660778Y-71292705D01*
X147721581Y-71479835D01*
X147810905Y-71655145D01*
X147836319Y-71690125D01*
X147836320Y-71690125D01*
X148480000Y-71046445D01*
X148480000Y-71052661D01*
X148507259Y-71154394D01*
X148559920Y-71245606D01*
X148634394Y-71320080D01*
X148725606Y-71372741D01*
X148827339Y-71400000D01*
X148833553Y-71400000D01*
X148189873Y-72043677D01*
X148189873Y-72043678D01*
X148224858Y-72069096D01*
X148400164Y-72158418D01*
X148587294Y-72219221D01*
X148781618Y-72250000D01*
X148978382Y-72250000D01*
X149172705Y-72219221D01*
X149359835Y-72158418D01*
X149535143Y-72069095D01*
X149570125Y-72043678D01*
X149570126Y-72043678D01*
X148926448Y-71400000D01*
X148932661Y-71400000D01*
X149034394Y-71372741D01*
X149125606Y-71320080D01*
X149200080Y-71245606D01*
X149252741Y-71154394D01*
X149280000Y-71052661D01*
X149280000Y-71046448D01*
X149923678Y-71690126D01*
X149923678Y-71690125D01*
X149949097Y-71655141D01*
X150039234Y-71478236D01*
X150087208Y-71427439D01*
X150155029Y-71410644D01*
X150221164Y-71433181D01*
X150260204Y-71478235D01*
X150261115Y-71480024D01*
X150261116Y-71480025D01*
X150350476Y-71655405D01*
X150466172Y-71814646D01*
X150605354Y-71953828D01*
X150764595Y-72069524D01*
X150839214Y-72107544D01*
X150939970Y-72158882D01*
X150939972Y-72158882D01*
X150939975Y-72158884D01*
X151040317Y-72191487D01*
X151127173Y-72219709D01*
X151321578Y-72250500D01*
X151321583Y-72250500D01*
X151518422Y-72250500D01*
X151712826Y-72219709D01*
X151792574Y-72193797D01*
X151900025Y-72158884D01*
X152075405Y-72069524D01*
X152234646Y-71953828D01*
X152373828Y-71814646D01*
X152489524Y-71655405D01*
X152578884Y-71480025D01*
X152579515Y-71478787D01*
X152627489Y-71427990D01*
X152695310Y-71411195D01*
X152761445Y-71433732D01*
X152800485Y-71478787D01*
X152890474Y-71655403D01*
X152894817Y-71661380D01*
X153006172Y-71814646D01*
X153145354Y-71953828D01*
X153304595Y-72069524D01*
X153379214Y-72107544D01*
X153479970Y-72158882D01*
X153479972Y-72158882D01*
X153479975Y-72158884D01*
X153580317Y-72191487D01*
X153667173Y-72219709D01*
X153861578Y-72250500D01*
X153861583Y-72250500D01*
X154058422Y-72250500D01*
X154252826Y-72219709D01*
X154332574Y-72193797D01*
X154440025Y-72158884D01*
X154615405Y-72069524D01*
X154774646Y-71953828D01*
X154913828Y-71814646D01*
X155025184Y-71661378D01*
X155080512Y-71618714D01*
X155150125Y-71612735D01*
X155211920Y-71645341D01*
X155246277Y-71706179D01*
X155249500Y-71734263D01*
X155249500Y-71797869D01*
X155249501Y-71797876D01*
X155255908Y-71857483D01*
X155306202Y-71992328D01*
X155306206Y-71992335D01*
X155392452Y-72107544D01*
X155392455Y-72107547D01*
X155507664Y-72193793D01*
X155507671Y-72193797D01*
X155552618Y-72210561D01*
X155642517Y-72244091D01*
X155702127Y-72250500D01*
X155775500Y-72250499D01*
X155842538Y-72270183D01*
X155888294Y-72322986D01*
X155899500Y-72374499D01*
X155899500Y-95928902D01*
X155879815Y-95995941D01*
X155863181Y-96016583D01*
X153078522Y-98801241D01*
X153017199Y-98834726D01*
X152952523Y-98831491D01*
X152910245Y-98817754D01*
X152770272Y-98795584D01*
X152700287Y-98784500D01*
X152487713Y-98784500D01*
X152439042Y-98792208D01*
X152277760Y-98817753D01*
X152075585Y-98883444D01*
X151886179Y-98979951D01*
X151714213Y-99104890D01*
X151563890Y-99255213D01*
X151438949Y-99427182D01*
X151434484Y-99435946D01*
X151386509Y-99486742D01*
X151318688Y-99503536D01*
X151252553Y-99480998D01*
X151213516Y-99435946D01*
X151209050Y-99427182D01*
X151084109Y-99255213D01*
X150933786Y-99104890D01*
X150761820Y-98979951D01*
X150572414Y-98883444D01*
X150572413Y-98883443D01*
X150572412Y-98883443D01*
X150370243Y-98817754D01*
X150370241Y-98817753D01*
X150370240Y-98817753D01*
X150208957Y-98792208D01*
X150160287Y-98784500D01*
X149947713Y-98784500D01*
X149899042Y-98792208D01*
X149737760Y-98817753D01*
X149535585Y-98883444D01*
X149346179Y-98979951D01*
X149174213Y-99104890D01*
X149023890Y-99255213D01*
X148898949Y-99427182D01*
X148894484Y-99435946D01*
X148846509Y-99486742D01*
X148778688Y-99503536D01*
X148712553Y-99480998D01*
X148673516Y-99435946D01*
X148669050Y-99427182D01*
X148544109Y-99255213D01*
X148393786Y-99104890D01*
X148221820Y-98979951D01*
X148032414Y-98883444D01*
X148032413Y-98883443D01*
X148032412Y-98883443D01*
X147830243Y-98817754D01*
X147830241Y-98817753D01*
X147830240Y-98817753D01*
X147668957Y-98792208D01*
X147620287Y-98784500D01*
X147407713Y-98784500D01*
X147359042Y-98792208D01*
X147197760Y-98817753D01*
X146995585Y-98883444D01*
X146806179Y-98979951D01*
X146634213Y-99104890D01*
X146483890Y-99255213D01*
X146358951Y-99427179D01*
X146262444Y-99616585D01*
X146196753Y-99818760D01*
X146186262Y-99885000D01*
X146163500Y-100028713D01*
X142475638Y-100028713D01*
X142515126Y-99881340D01*
X142548500Y-99627843D01*
X142548500Y-99372157D01*
X142515126Y-99118660D01*
X142448950Y-98871687D01*
X142448947Y-98871679D01*
X142448946Y-98871676D01*
X142372106Y-98686169D01*
X142351104Y-98635465D01*
X142351102Y-98635462D01*
X142351100Y-98635457D01*
X142223265Y-98414042D01*
X142223261Y-98414035D01*
X142067610Y-98211187D01*
X142067605Y-98211181D01*
X141886818Y-98030394D01*
X141886811Y-98030388D01*
X141683973Y-97874745D01*
X141683971Y-97874743D01*
X141683965Y-97874739D01*
X141683960Y-97874736D01*
X141683957Y-97874734D01*
X141462542Y-97746899D01*
X141462531Y-97746894D01*
X141226322Y-97649053D01*
X141226315Y-97649051D01*
X141226313Y-97649050D01*
X140979340Y-97582874D01*
X140923007Y-97575457D01*
X140725850Y-97549500D01*
X140725843Y-97549500D01*
X139570157Y-97549500D01*
X139570149Y-97549500D01*
X139344826Y-97579165D01*
X139316660Y-97582874D01*
X139069687Y-97649050D01*
X139069677Y-97649053D01*
X138833468Y-97746894D01*
X138833457Y-97746899D01*
X138612042Y-97874734D01*
X138612026Y-97874745D01*
X138409188Y-98030388D01*
X138409181Y-98030394D01*
X138228394Y-98211181D01*
X138228388Y-98211188D01*
X138072745Y-98414026D01*
X138072734Y-98414042D01*
X137944899Y-98635457D01*
X137944894Y-98635468D01*
X137847054Y-98871676D01*
X137847050Y-98871687D01*
X137780874Y-99118661D01*
X137747500Y-99372149D01*
X126600500Y-99372149D01*
X126600500Y-98904934D01*
X126566392Y-98777640D01*
X126500500Y-98663512D01*
X126407314Y-98570326D01*
X126350250Y-98537380D01*
X126293187Y-98504434D01*
X126229539Y-98487380D01*
X126165892Y-98470326D01*
X126165891Y-98470326D01*
X118124500Y-98470326D01*
X118057461Y-98450641D01*
X118011706Y-98397837D01*
X118000500Y-98346326D01*
X118000500Y-97134110D01*
X118000500Y-97134108D01*
X117966392Y-97006814D01*
X117900500Y-96892686D01*
X117807314Y-96799500D01*
X117750250Y-96766554D01*
X117693187Y-96733608D01*
X117603291Y-96709521D01*
X117565892Y-96699500D01*
X117565891Y-96699500D01*
X116348783Y-96699500D01*
X116281744Y-96679815D01*
X116235989Y-96627011D01*
X116224788Y-96574361D01*
X116225371Y-96510895D01*
X116299802Y-88407382D01*
X116300500Y-88397452D01*
X116300500Y-88332057D01*
X116300505Y-88330919D01*
X116300506Y-88330770D01*
X116301084Y-88267882D01*
X116301082Y-88267876D01*
X116301084Y-88267730D01*
X116300878Y-88266161D01*
X116300729Y-88264987D01*
X116300538Y-88263427D01*
X116300500Y-88263285D01*
X116300500Y-88263282D01*
X116284042Y-88201862D01*
X116268147Y-88140280D01*
X116266996Y-88138244D01*
X116266392Y-88135988D01*
X116234599Y-88080921D01*
X116203306Y-88025552D01*
X116201668Y-88023884D01*
X116200500Y-88021860D01*
X116155525Y-87976885D01*
X116110980Y-87931514D01*
X116108966Y-87930326D01*
X116107314Y-87928674D01*
X116052245Y-87896879D01*
X116042232Y-87890975D01*
X116042229Y-87890972D01*
X115997325Y-87864495D01*
X115995828Y-87863875D01*
X115994805Y-87863446D01*
X115993336Y-87862822D01*
X115932209Y-87846442D01*
X115931113Y-87846143D01*
X115870329Y-87829257D01*
X115868712Y-87829044D01*
X115867601Y-87828893D01*
X115866047Y-87828674D01*
X115865892Y-87828674D01*
X115802851Y-87828674D01*
X115801713Y-87828669D01*
X115800379Y-87828656D01*
X115738708Y-87828090D01*
X115738707Y-87828090D01*
X115736310Y-87828068D01*
X115726381Y-87828674D01*
X112833992Y-87828674D01*
X112766953Y-87808989D01*
X112721198Y-87756185D01*
X112709992Y-87704674D01*
X112709992Y-87413389D01*
X121319500Y-87413389D01*
X121319500Y-87586611D01*
X121346598Y-87757701D01*
X121400127Y-87922445D01*
X121478768Y-88076788D01*
X121580586Y-88216928D01*
X121703072Y-88339414D01*
X121843212Y-88441232D01*
X121997555Y-88519873D01*
X122162299Y-88573402D01*
X122333389Y-88600500D01*
X122333390Y-88600500D01*
X122506610Y-88600500D01*
X122506611Y-88600500D01*
X122677701Y-88573402D01*
X122842445Y-88519873D01*
X122996788Y-88441232D01*
X123136928Y-88339414D01*
X123259414Y-88216928D01*
X123361232Y-88076788D01*
X123439873Y-87922445D01*
X123493402Y-87757701D01*
X123520500Y-87586611D01*
X123520500Y-87413389D01*
X123510854Y-87352486D01*
X125249500Y-87352486D01*
X125249500Y-87647513D01*
X125277842Y-87862782D01*
X125288007Y-87939993D01*
X125362212Y-88216930D01*
X125364361Y-88224951D01*
X125364364Y-88224961D01*
X125477254Y-88497500D01*
X125477258Y-88497510D01*
X125624761Y-88752993D01*
X125804352Y-88987040D01*
X125804358Y-88987047D01*
X126012952Y-89195641D01*
X126012959Y-89195647D01*
X126247006Y-89375238D01*
X126502489Y-89522741D01*
X126502490Y-89522741D01*
X126502493Y-89522743D01*
X126775048Y-89635639D01*
X127060007Y-89711993D01*
X127352494Y-89750500D01*
X127352501Y-89750500D01*
X127647499Y-89750500D01*
X127647506Y-89750500D01*
X127939993Y-89711993D01*
X128224952Y-89635639D01*
X128497507Y-89522743D01*
X128752994Y-89375238D01*
X128987042Y-89195646D01*
X129195646Y-88987042D01*
X129375238Y-88752994D01*
X129522743Y-88497507D01*
X129635639Y-88224952D01*
X129711993Y-87939993D01*
X129750500Y-87647506D01*
X129750500Y-87413389D01*
X131479500Y-87413389D01*
X131479500Y-87586611D01*
X131506598Y-87757701D01*
X131560127Y-87922445D01*
X131638768Y-88076788D01*
X131740586Y-88216928D01*
X131863072Y-88339414D01*
X132003212Y-88441232D01*
X132157555Y-88519873D01*
X132322299Y-88573402D01*
X132493389Y-88600500D01*
X132493390Y-88600500D01*
X132666610Y-88600500D01*
X132666611Y-88600500D01*
X132837701Y-88573402D01*
X133002445Y-88519873D01*
X133156788Y-88441232D01*
X133296928Y-88339414D01*
X133419414Y-88216928D01*
X133521232Y-88076788D01*
X133599873Y-87922445D01*
X133653402Y-87757701D01*
X133680500Y-87586611D01*
X133680500Y-87413389D01*
X133653402Y-87242299D01*
X133599873Y-87077555D01*
X133521232Y-86923212D01*
X133419414Y-86783072D01*
X133296928Y-86660586D01*
X133156788Y-86558768D01*
X133002445Y-86480127D01*
X132837701Y-86426598D01*
X132837699Y-86426597D01*
X132837698Y-86426597D01*
X132706271Y-86405781D01*
X132666611Y-86399500D01*
X132493389Y-86399500D01*
X132453728Y-86405781D01*
X132322302Y-86426597D01*
X132157552Y-86480128D01*
X132003211Y-86558768D01*
X131947115Y-86599525D01*
X131863072Y-86660586D01*
X131863070Y-86660588D01*
X131863069Y-86660588D01*
X131740588Y-86783069D01*
X131740588Y-86783070D01*
X131740586Y-86783072D01*
X131697381Y-86842539D01*
X131638768Y-86923211D01*
X131560128Y-87077552D01*
X131506597Y-87242302D01*
X131479500Y-87413389D01*
X129750500Y-87413389D01*
X129750500Y-87352494D01*
X129711993Y-87060007D01*
X129635639Y-86775048D01*
X129522743Y-86502493D01*
X129472604Y-86415650D01*
X129375238Y-86247006D01*
X129195647Y-86012959D01*
X129195641Y-86012952D01*
X128987047Y-85804358D01*
X128987040Y-85804352D01*
X128752993Y-85624761D01*
X128497510Y-85477258D01*
X128497500Y-85477254D01*
X128224961Y-85364364D01*
X128224954Y-85364362D01*
X128224952Y-85364361D01*
X127939993Y-85288007D01*
X127891113Y-85281571D01*
X127647513Y-85249500D01*
X127647506Y-85249500D01*
X127352494Y-85249500D01*
X127352486Y-85249500D01*
X127074085Y-85286153D01*
X127060007Y-85288007D01*
X126922917Y-85324740D01*
X126775048Y-85364361D01*
X126775038Y-85364364D01*
X126502499Y-85477254D01*
X126502489Y-85477258D01*
X126247006Y-85624761D01*
X126012959Y-85804352D01*
X126012952Y-85804358D01*
X125804358Y-86012952D01*
X125804352Y-86012959D01*
X125624761Y-86247006D01*
X125477258Y-86502489D01*
X125477254Y-86502499D01*
X125364364Y-86775038D01*
X125364361Y-86775048D01*
X125331015Y-86899500D01*
X125288008Y-87060004D01*
X125288006Y-87060015D01*
X125249500Y-87352486D01*
X123510854Y-87352486D01*
X123493402Y-87242299D01*
X123439873Y-87077555D01*
X123361232Y-86923212D01*
X123259414Y-86783072D01*
X123206882Y-86730540D01*
X123173397Y-86669217D01*
X123178381Y-86599525D01*
X123220253Y-86543592D01*
X123285717Y-86519175D01*
X123313961Y-86520386D01*
X123564072Y-86560000D01*
X123815928Y-86560000D01*
X124064669Y-86520602D01*
X124304184Y-86442780D01*
X124528575Y-86328446D01*
X124528581Y-86328442D01*
X124630697Y-86254250D01*
X124630698Y-86254250D01*
X124014025Y-85637578D01*
X124045258Y-85624641D01*
X124168097Y-85542563D01*
X124272563Y-85438097D01*
X124354641Y-85315258D01*
X124367578Y-85284025D01*
X124984250Y-85900698D01*
X124984250Y-85900697D01*
X125058442Y-85798581D01*
X125058446Y-85798575D01*
X125172780Y-85574184D01*
X125250602Y-85334669D01*
X125290000Y-85085928D01*
X125290000Y-84834071D01*
X125250602Y-84585330D01*
X125172780Y-84345815D01*
X125058442Y-84121416D01*
X124984250Y-84019301D01*
X124984250Y-84019300D01*
X124367577Y-84635973D01*
X124354641Y-84604742D01*
X124272563Y-84481903D01*
X124168097Y-84377437D01*
X124045258Y-84295359D01*
X124014024Y-84282421D01*
X124630698Y-83665748D01*
X124528583Y-83591557D01*
X124304184Y-83477219D01*
X124064669Y-83399397D01*
X123815928Y-83360000D01*
X123564072Y-83360000D01*
X123315330Y-83399397D01*
X123075815Y-83477219D01*
X122851413Y-83591559D01*
X122749301Y-83665747D01*
X122749300Y-83665748D01*
X123365974Y-84282421D01*
X123334742Y-84295359D01*
X123211903Y-84377437D01*
X123107437Y-84481903D01*
X123025359Y-84604742D01*
X123012421Y-84635974D01*
X122395748Y-84019300D01*
X122395747Y-84019301D01*
X122321559Y-84121413D01*
X122207219Y-84345815D01*
X122129397Y-84585330D01*
X122090000Y-84834071D01*
X122090000Y-85085928D01*
X122129397Y-85334669D01*
X122207219Y-85574184D01*
X122321557Y-85798583D01*
X122395748Y-85900697D01*
X122395748Y-85900698D01*
X123012421Y-85284024D01*
X123025359Y-85315258D01*
X123107437Y-85438097D01*
X123211903Y-85542563D01*
X123334742Y-85624641D01*
X123365974Y-85637577D01*
X122749300Y-86254250D01*
X122751598Y-86283449D01*
X122737233Y-86351827D01*
X122688181Y-86401583D01*
X122620016Y-86416921D01*
X122608583Y-86415650D01*
X122506611Y-86399500D01*
X122333389Y-86399500D01*
X122293728Y-86405781D01*
X122162302Y-86426597D01*
X121997552Y-86480128D01*
X121843211Y-86558768D01*
X121787115Y-86599525D01*
X121703072Y-86660586D01*
X121703070Y-86660588D01*
X121703069Y-86660588D01*
X121580588Y-86783069D01*
X121580588Y-86783070D01*
X121580586Y-86783072D01*
X121537381Y-86842539D01*
X121478768Y-86923211D01*
X121400128Y-87077552D01*
X121346597Y-87242302D01*
X121319500Y-87413389D01*
X112709992Y-87413389D01*
X112709992Y-84792458D01*
X112709992Y-84792456D01*
X112675884Y-84665162D01*
X112609992Y-84551034D01*
X112516806Y-84457848D01*
X112459742Y-84424902D01*
X112402679Y-84391956D01*
X112339031Y-84374902D01*
X112275384Y-84357848D01*
X112275383Y-84357848D01*
X109729246Y-84357848D01*
X109662207Y-84338163D01*
X109616452Y-84285359D01*
X109605246Y-84233848D01*
X109605246Y-82294038D01*
X128439500Y-82294038D01*
X128439500Y-82545961D01*
X128478910Y-82794785D01*
X128556760Y-83034383D01*
X128635413Y-83188747D01*
X128641492Y-83200678D01*
X128671132Y-83258848D01*
X128819201Y-83462649D01*
X128819205Y-83462654D01*
X128997345Y-83640794D01*
X128997350Y-83640798D01*
X129098391Y-83714208D01*
X129201155Y-83788870D01*
X129344184Y-83861747D01*
X129425616Y-83903239D01*
X129425618Y-83903239D01*
X129425621Y-83903241D01*
X129665215Y-83981090D01*
X129914038Y-84020500D01*
X129914039Y-84020500D01*
X130165961Y-84020500D01*
X130165962Y-84020500D01*
X130414785Y-83981090D01*
X130654379Y-83903241D01*
X130878845Y-83788870D01*
X131082656Y-83640793D01*
X131260793Y-83462656D01*
X131408870Y-83258845D01*
X131523241Y-83034379D01*
X131601090Y-82794785D01*
X131640500Y-82545962D01*
X131640500Y-82294038D01*
X131601090Y-82045215D01*
X131523241Y-81805621D01*
X131523239Y-81805618D01*
X131523239Y-81805616D01*
X131466793Y-81694836D01*
X131408870Y-81581155D01*
X131316061Y-81453414D01*
X131260798Y-81377350D01*
X131260794Y-81377345D01*
X131082654Y-81199205D01*
X131082649Y-81199201D01*
X130878848Y-81051132D01*
X130878847Y-81051131D01*
X130878845Y-81051130D01*
X130753030Y-80987024D01*
X130654383Y-80936760D01*
X130414785Y-80858910D01*
X130165962Y-80819500D01*
X129914038Y-80819500D01*
X129789626Y-80839205D01*
X129665214Y-80858910D01*
X129425616Y-80936760D01*
X129201151Y-81051132D01*
X128997350Y-81199201D01*
X128997345Y-81199205D01*
X128819205Y-81377345D01*
X128819201Y-81377350D01*
X128671132Y-81581151D01*
X128556760Y-81805616D01*
X128478910Y-82045214D01*
X128439500Y-82294038D01*
X109605246Y-82294038D01*
X109605246Y-81321632D01*
X109605246Y-81321630D01*
X109571138Y-81194336D01*
X109505246Y-81080208D01*
X109412060Y-80987022D01*
X109325004Y-80936760D01*
X109297933Y-80921130D01*
X109234285Y-80904076D01*
X109170638Y-80887022D01*
X109170637Y-80887022D01*
X106138738Y-80887022D01*
X106071699Y-80867337D01*
X106025944Y-80814533D01*
X106014738Y-80763022D01*
X106014738Y-78474500D01*
X106034423Y-78407461D01*
X106087227Y-78361706D01*
X106138738Y-78350500D01*
X137465890Y-78350500D01*
X137465892Y-78350500D01*
X137593186Y-78316392D01*
X137707314Y-78250500D01*
X137800500Y-78157314D01*
X137866392Y-78043186D01*
X137900500Y-77915892D01*
X137900500Y-77612791D01*
X137920185Y-77545752D01*
X137972989Y-77499997D01*
X138042147Y-77490053D01*
X138105703Y-77519078D01*
X138122876Y-77537305D01*
X138228388Y-77674811D01*
X138228394Y-77674818D01*
X138409181Y-77855605D01*
X138409188Y-77855611D01*
X138487748Y-77915892D01*
X138612035Y-78011261D01*
X138612042Y-78011265D01*
X138833457Y-78139100D01*
X138833462Y-78139102D01*
X138833465Y-78139104D01*
X138981686Y-78200499D01*
X139029212Y-78220185D01*
X139069687Y-78236950D01*
X139316660Y-78303126D01*
X139570157Y-78336500D01*
X139570164Y-78336500D01*
X140725836Y-78336500D01*
X140725843Y-78336500D01*
X140979340Y-78303126D01*
X141226313Y-78236950D01*
X141462535Y-78139104D01*
X141683965Y-78011261D01*
X141886813Y-77855610D01*
X142067610Y-77674813D01*
X142223261Y-77471965D01*
X142351104Y-77250535D01*
X142448950Y-77014313D01*
X142515126Y-76767340D01*
X142548500Y-76513843D01*
X142548500Y-76258157D01*
X142515126Y-76004660D01*
X142448950Y-75757687D01*
X142351104Y-75521465D01*
X142351102Y-75521462D01*
X142351100Y-75521457D01*
X142223265Y-75300042D01*
X142223261Y-75300035D01*
X142134318Y-75184122D01*
X142067611Y-75097188D01*
X142067605Y-75097181D01*
X141886818Y-74916394D01*
X141886811Y-74916388D01*
X141683973Y-74760745D01*
X141683971Y-74760743D01*
X141683965Y-74760739D01*
X141683960Y-74760736D01*
X141683957Y-74760734D01*
X141462542Y-74632899D01*
X141462531Y-74632894D01*
X141226322Y-74535053D01*
X141226315Y-74535051D01*
X141226313Y-74535050D01*
X141068122Y-74492663D01*
X141008463Y-74456299D01*
X140977934Y-74393452D01*
X140976806Y-74360819D01*
X140977793Y-74350720D01*
X140983562Y-74329104D01*
X141000500Y-74265892D01*
X141000500Y-74265635D01*
X141000567Y-74265384D01*
X141000500Y-74199407D01*
X141000500Y-74134108D01*
X141000433Y-74133859D01*
X140994839Y-68624625D01*
X141014456Y-68557566D01*
X141067213Y-68511758D01*
X141118839Y-68500500D01*
X144165890Y-68500500D01*
X144165892Y-68500500D01*
X144293186Y-68466392D01*
X144407314Y-68400500D01*
X144500500Y-68307314D01*
X144566392Y-68193186D01*
X144600500Y-68065892D01*
X144600500Y-66405513D01*
X149679500Y-66405513D01*
X149679500Y-66594486D01*
X149709059Y-66781118D01*
X149767454Y-66960836D01*
X149853240Y-67129199D01*
X149964310Y-67282073D01*
X150097927Y-67415690D01*
X150250801Y-67526760D01*
X150264626Y-67533804D01*
X150419163Y-67612545D01*
X150419165Y-67612545D01*
X150419168Y-67612547D01*
X150515497Y-67643846D01*
X150598881Y-67670940D01*
X150785514Y-67700500D01*
X150785519Y-67700500D01*
X150974486Y-67700500D01*
X151161118Y-67670940D01*
X151340832Y-67612547D01*
X151509199Y-67526760D01*
X151662073Y-67415690D01*
X151795690Y-67282073D01*
X151906760Y-67129199D01*
X151992547Y-66960832D01*
X152050940Y-66781118D01*
X152080500Y-66594486D01*
X152080500Y-66405513D01*
X157299500Y-66405513D01*
X157299500Y-66594486D01*
X157329059Y-66781118D01*
X157387454Y-66960836D01*
X157473240Y-67129199D01*
X157584310Y-67282073D01*
X157717927Y-67415690D01*
X157870801Y-67526760D01*
X157884626Y-67533804D01*
X158039163Y-67612545D01*
X158039165Y-67612545D01*
X158039168Y-67612547D01*
X158135497Y-67643846D01*
X158218881Y-67670940D01*
X158405514Y-67700500D01*
X158405519Y-67700500D01*
X158594486Y-67700500D01*
X158781118Y-67670940D01*
X158960832Y-67612547D01*
X159129199Y-67526760D01*
X159282073Y-67415690D01*
X159415690Y-67282073D01*
X159526760Y-67129199D01*
X159612547Y-66960832D01*
X159670940Y-66781118D01*
X159700500Y-66594486D01*
X159700500Y-66405513D01*
X159670940Y-66218881D01*
X159612545Y-66039163D01*
X159526759Y-65870800D01*
X159415690Y-65717927D01*
X159282073Y-65584310D01*
X159129199Y-65473240D01*
X158960836Y-65387454D01*
X158781118Y-65329059D01*
X158594486Y-65299500D01*
X158594481Y-65299500D01*
X158405519Y-65299500D01*
X158405514Y-65299500D01*
X158218881Y-65329059D01*
X158039163Y-65387454D01*
X157870800Y-65473240D01*
X157783579Y-65536610D01*
X157717927Y-65584310D01*
X157717925Y-65584312D01*
X157717924Y-65584312D01*
X157584312Y-65717924D01*
X157584312Y-65717925D01*
X157584310Y-65717927D01*
X157536610Y-65783579D01*
X157473240Y-65870800D01*
X157387454Y-66039163D01*
X157329059Y-66218881D01*
X157299500Y-66405513D01*
X152080500Y-66405513D01*
X152050940Y-66218881D01*
X151992545Y-66039163D01*
X151906759Y-65870800D01*
X151795690Y-65717927D01*
X151662073Y-65584310D01*
X151509199Y-65473240D01*
X151340836Y-65387454D01*
X151161118Y-65329059D01*
X150974486Y-65299500D01*
X150974481Y-65299500D01*
X150785519Y-65299500D01*
X150785514Y-65299500D01*
X150598881Y-65329059D01*
X150419163Y-65387454D01*
X150250800Y-65473240D01*
X150163579Y-65536610D01*
X150097927Y-65584310D01*
X150097925Y-65584312D01*
X150097924Y-65584312D01*
X149964312Y-65717924D01*
X149964312Y-65717925D01*
X149964310Y-65717927D01*
X149916610Y-65783579D01*
X149853240Y-65870800D01*
X149767454Y-66039163D01*
X149709059Y-66218881D01*
X149679500Y-66405513D01*
X144600500Y-66405513D01*
X144600500Y-62124500D01*
X144620185Y-62057461D01*
X144672989Y-62011706D01*
X144724500Y-62000500D01*
X147772186Y-62000500D01*
X147772188Y-62000500D01*
X147899482Y-61966392D01*
X148013610Y-61900500D01*
X148106796Y-61807314D01*
X148172688Y-61693186D01*
X148206796Y-61565892D01*
X148206796Y-61434108D01*
X148206795Y-61434105D01*
X148205735Y-61426054D01*
X148206273Y-61425983D01*
X148203648Y-61406036D01*
X148203648Y-59024500D01*
X148223333Y-58957461D01*
X148276137Y-58911706D01*
X148327648Y-58900500D01*
X151375334Y-58900500D01*
X151375336Y-58900500D01*
X151502630Y-58866392D01*
X151616758Y-58800500D01*
X151709944Y-58707314D01*
X151775836Y-58593186D01*
X151809944Y-58465892D01*
X151809944Y-58334108D01*
X151807871Y-58326371D01*
X151803648Y-58294287D01*
X151803648Y-51424500D01*
X151823333Y-51357461D01*
X151876137Y-51311706D01*
X151927648Y-51300500D01*
X156855500Y-51300500D01*
X156922539Y-51320185D01*
G37*
%TD.AperFunction*%
%TD*%
M02*
