%TF.GenerationSoftware,KiCad,Pcbnew,10.0.6*%
%TF.CreationDate,2026-10-09T15:13:21+05:30*%
%TF.ProjectId,Starbie,53746172-6269-4652-9e6b-696361645f70,rev?*%
%TF.SameCoordinates,Original*%
%TF.FileFunction,Profile,NP*%
%FSLAX46Y46*%
G04 Gerber Fmt 4.6, Leading zero omitted, Abs format (unit mm)*
G04 Created by KiCad (PCBNEW 10.0.6) date 2026-10-09 15:13:21*
%MOMM*%
%LPD*%
G01*
G04 APERTURE LIST*
%TA.AperFunction,Profile*%
%ADD10C,0.049868*%
%TD*%
%TA.AperFunction,Profile*%
%ADD11C,0.050000*%
%TD*%
%TA.AperFunction,Profile*%
%ADD12C,0.049876*%
%TD*%
G04 APERTURE END LIST*
D10*
X105514238Y-81387522D02*
X105514238Y-77850000D01*
X105514238Y-81387522D02*
X109104746Y-81387522D01*
X109104746Y-84858348D02*
X109104746Y-81387522D01*
X109104746Y-84858348D02*
X112209492Y-84858348D01*
X112209492Y-88329174D02*
X112209492Y-84858348D01*
X112209492Y-88329174D02*
X115800000Y-88329174D01*
X115718520Y-97200000D02*
X115800000Y-88329174D01*
X115718520Y-97200000D02*
X117500000Y-97200000D01*
X117500000Y-98970826D02*
X117500000Y-97200000D01*
X117500000Y-98970826D02*
X126100000Y-98970826D01*
D11*
X119409492Y-119100000D02*
X119409492Y-133450000D01*
D10*
X119409492Y-119100000D02*
X123000000Y-119100000D01*
D11*
X119409492Y-133450000D02*
X134500000Y-133450000D01*
X122981016Y-109100000D02*
X123000000Y-119100000D01*
D10*
X122981016Y-109100000D02*
X126100000Y-109100000D01*
D11*
X126100000Y-98970826D02*
X126100000Y-109100000D01*
D10*
X134500000Y-129980000D02*
X134500000Y-133450000D01*
X134500000Y-129980000D02*
X138090508Y-129980000D01*
D11*
X137400000Y-74200000D02*
X137400000Y-77850000D01*
X137400000Y-74200000D02*
X140500000Y-74200000D01*
X137400000Y-77850000D02*
X105514238Y-77850000D01*
D10*
X138090508Y-126510000D02*
X138090508Y-129980000D01*
X138090508Y-126510000D02*
X141681016Y-126510000D01*
D11*
X140493704Y-68000000D02*
X140500000Y-74200000D01*
D12*
X140493704Y-68000000D02*
X144100000Y-68000000D01*
D10*
X141700000Y-123700000D02*
X141681016Y-126510000D01*
X141700000Y-123700000D02*
X145290508Y-123700000D01*
D11*
X144100000Y-61500000D02*
X144100000Y-68000000D01*
D12*
X144100000Y-61500000D02*
X147706296Y-61500000D01*
D11*
X145290508Y-122000000D02*
X146900000Y-122000000D01*
X145290508Y-123700000D02*
X145290508Y-122000000D01*
D10*
X146900000Y-115530000D02*
X150490508Y-115530000D01*
D11*
X146900000Y-122000000D02*
X146900000Y-115530000D01*
D12*
X147703148Y-58400000D02*
X147703148Y-61500000D01*
X147703148Y-58400000D02*
X151309444Y-58400000D01*
D10*
X150490508Y-112060000D02*
X150490508Y-115530000D01*
D11*
X150490508Y-112060000D02*
X157600000Y-112060000D01*
X151303148Y-50800000D02*
X151303148Y-58400000D01*
X151303148Y-50800000D02*
X157480000Y-50800000D01*
X157480000Y-50800000D02*
X157480000Y-58426297D01*
D12*
X157480000Y-58426297D02*
X161026297Y-58426297D01*
D10*
X157600000Y-112060000D02*
X157600000Y-115530000D01*
X157600000Y-115530000D02*
X161190508Y-115530000D01*
D12*
X161026297Y-58426297D02*
X161026297Y-63493703D01*
X161026297Y-63493703D02*
X164560001Y-63493703D01*
D10*
X161171524Y-118340000D02*
X164100000Y-118340000D01*
X161190508Y-115530000D02*
X161171524Y-118340000D01*
D11*
X164100000Y-118340000D02*
X164100000Y-122700000D01*
X164100000Y-122700000D02*
X168300000Y-122700000D01*
X164560001Y-63493703D02*
X164560000Y-71160000D01*
X164560000Y-71160000D02*
X167900000Y-71160000D01*
X167900000Y-71160000D02*
X167900000Y-74240000D01*
X167900000Y-74240000D02*
X171240000Y-74240000D01*
X168281016Y-126300000D02*
X175800000Y-126300000D01*
D10*
X168300000Y-122700000D02*
X168281016Y-126300000D01*
D11*
X171240000Y-74240000D02*
X171240000Y-77700000D01*
X171240000Y-77700000D02*
X203200000Y-77700000D01*
D10*
X175800000Y-126300000D02*
X175800000Y-129770000D01*
X175800000Y-129770000D02*
X179390508Y-129770000D01*
X179390508Y-129770000D02*
X179390000Y-133450000D01*
D11*
X181900000Y-101700000D02*
X181900000Y-105350000D01*
X185500000Y-98000000D02*
X185500000Y-101700000D01*
X185500000Y-101700000D02*
X181900000Y-101700000D01*
X185500000Y-105350000D02*
X181900000Y-105350000D01*
X185500000Y-105350000D02*
X185500000Y-115500000D01*
X188800000Y-90900000D02*
X188800000Y-98000000D01*
X188800000Y-98000000D02*
X185500000Y-98000000D01*
X188800000Y-115500000D02*
X185500000Y-115500000D01*
X188800000Y-115500000D02*
X188800000Y-123300000D01*
X192400000Y-90900000D02*
X188800000Y-90900000D01*
X192400000Y-90900000D02*
X192400000Y-87400000D01*
X192400000Y-123300000D02*
X188800000Y-123300000D01*
X192400000Y-123300000D02*
X192400000Y-133450000D01*
X192400000Y-133450000D02*
X179390000Y-133450000D01*
X196000000Y-87400000D02*
X192400000Y-87400000D01*
X196000000Y-87400000D02*
X196000000Y-84800000D01*
X199600000Y-84800000D02*
X196000000Y-84800000D01*
X199600000Y-84800000D02*
X199600000Y-81280000D01*
X203200000Y-81280000D02*
X199600000Y-81280000D01*
X203200000Y-81280000D02*
X203200000Y-77700000D01*
M02*
