%TF.GenerationSoftware,KiCad,Pcbnew,10.0.6*%
%TF.CreationDate,2026-10-10T00:19:35+05:30*%
%TF.ProjectId,Starbie,53746172-6269-4652-9e6b-696361645f70,rev?*%
%TF.SameCoordinates,Original*%
%TF.FileFunction,Legend,Top*%
%TF.FilePolarity,Positive*%
%FSLAX46Y46*%
G04 Gerber Fmt 4.6, Leading zero omitted, Abs format (unit mm)*
G04 Created by KiCad (PCBNEW 10.0.6) date 2026-10-10 00:19:35*
%MOMM*%
%LPD*%
G01*
G04 APERTURE LIST*
%ADD10C,0.150000*%
%ADD11C,0.101600*%
%ADD12C,0.000000*%
%ADD13C,0.120000*%
%ADD14C,0.127000*%
%ADD15C,0.100000*%
%ADD16C,0.504000*%
G04 APERTURE END LIST*
D10*
X166166666Y-99494819D02*
X166166666Y-100209104D01*
X166166666Y-100209104D02*
X166119047Y-100351961D01*
X166119047Y-100351961D02*
X166023809Y-100447200D01*
X166023809Y-100447200D02*
X165880952Y-100494819D01*
X165880952Y-100494819D02*
X165785714Y-100494819D01*
X166595238Y-99590057D02*
X166642857Y-99542438D01*
X166642857Y-99542438D02*
X166738095Y-99494819D01*
X166738095Y-99494819D02*
X166976190Y-99494819D01*
X166976190Y-99494819D02*
X167071428Y-99542438D01*
X167071428Y-99542438D02*
X167119047Y-99590057D01*
X167119047Y-99590057D02*
X167166666Y-99685295D01*
X167166666Y-99685295D02*
X167166666Y-99780533D01*
X167166666Y-99780533D02*
X167119047Y-99923390D01*
X167119047Y-99923390D02*
X166547619Y-100494819D01*
X166547619Y-100494819D02*
X167166666Y-100494819D01*
X154523333Y-68874819D02*
X154190000Y-68398628D01*
X153951905Y-68874819D02*
X153951905Y-67874819D01*
X153951905Y-67874819D02*
X154332857Y-67874819D01*
X154332857Y-67874819D02*
X154428095Y-67922438D01*
X154428095Y-67922438D02*
X154475714Y-67970057D01*
X154475714Y-67970057D02*
X154523333Y-68065295D01*
X154523333Y-68065295D02*
X154523333Y-68208152D01*
X154523333Y-68208152D02*
X154475714Y-68303390D01*
X154475714Y-68303390D02*
X154428095Y-68351009D01*
X154428095Y-68351009D02*
X154332857Y-68398628D01*
X154332857Y-68398628D02*
X153951905Y-68398628D01*
X155475714Y-68874819D02*
X154904286Y-68874819D01*
X155190000Y-68874819D02*
X155190000Y-67874819D01*
X155190000Y-67874819D02*
X155094762Y-68017676D01*
X155094762Y-68017676D02*
X154999524Y-68112914D01*
X154999524Y-68112914D02*
X154904286Y-68160533D01*
X126166667Y-80033200D02*
X126309524Y-80080819D01*
X126309524Y-80080819D02*
X126547619Y-80080819D01*
X126547619Y-80080819D02*
X126642857Y-80033200D01*
X126642857Y-80033200D02*
X126690476Y-79985580D01*
X126690476Y-79985580D02*
X126738095Y-79890342D01*
X126738095Y-79890342D02*
X126738095Y-79795104D01*
X126738095Y-79795104D02*
X126690476Y-79699866D01*
X126690476Y-79699866D02*
X126642857Y-79652247D01*
X126642857Y-79652247D02*
X126547619Y-79604628D01*
X126547619Y-79604628D02*
X126357143Y-79557009D01*
X126357143Y-79557009D02*
X126261905Y-79509390D01*
X126261905Y-79509390D02*
X126214286Y-79461771D01*
X126214286Y-79461771D02*
X126166667Y-79366533D01*
X126166667Y-79366533D02*
X126166667Y-79271295D01*
X126166667Y-79271295D02*
X126214286Y-79176057D01*
X126214286Y-79176057D02*
X126261905Y-79128438D01*
X126261905Y-79128438D02*
X126357143Y-79080819D01*
X126357143Y-79080819D02*
X126595238Y-79080819D01*
X126595238Y-79080819D02*
X126738095Y-79128438D01*
X127071429Y-79080819D02*
X127309524Y-80080819D01*
X127309524Y-80080819D02*
X127500000Y-79366533D01*
X127500000Y-79366533D02*
X127690476Y-80080819D01*
X127690476Y-80080819D02*
X127928572Y-79080819D01*
X128833333Y-80080819D02*
X128261905Y-80080819D01*
X128547619Y-80080819D02*
X128547619Y-79080819D01*
X128547619Y-79080819D02*
X128452381Y-79223676D01*
X128452381Y-79223676D02*
X128357143Y-79318914D01*
X128357143Y-79318914D02*
X128261905Y-79366533D01*
X135086667Y-104033200D02*
X135229524Y-104080819D01*
X135229524Y-104080819D02*
X135467619Y-104080819D01*
X135467619Y-104080819D02*
X135562857Y-104033200D01*
X135562857Y-104033200D02*
X135610476Y-103985580D01*
X135610476Y-103985580D02*
X135658095Y-103890342D01*
X135658095Y-103890342D02*
X135658095Y-103795104D01*
X135658095Y-103795104D02*
X135610476Y-103699866D01*
X135610476Y-103699866D02*
X135562857Y-103652247D01*
X135562857Y-103652247D02*
X135467619Y-103604628D01*
X135467619Y-103604628D02*
X135277143Y-103557009D01*
X135277143Y-103557009D02*
X135181905Y-103509390D01*
X135181905Y-103509390D02*
X135134286Y-103461771D01*
X135134286Y-103461771D02*
X135086667Y-103366533D01*
X135086667Y-103366533D02*
X135086667Y-103271295D01*
X135086667Y-103271295D02*
X135134286Y-103176057D01*
X135134286Y-103176057D02*
X135181905Y-103128438D01*
X135181905Y-103128438D02*
X135277143Y-103080819D01*
X135277143Y-103080819D02*
X135515238Y-103080819D01*
X135515238Y-103080819D02*
X135658095Y-103128438D01*
X135991429Y-103080819D02*
X136229524Y-104080819D01*
X136229524Y-104080819D02*
X136420000Y-103366533D01*
X136420000Y-103366533D02*
X136610476Y-104080819D01*
X136610476Y-104080819D02*
X136848572Y-103080819D01*
X137181905Y-103176057D02*
X137229524Y-103128438D01*
X137229524Y-103128438D02*
X137324762Y-103080819D01*
X137324762Y-103080819D02*
X137562857Y-103080819D01*
X137562857Y-103080819D02*
X137658095Y-103128438D01*
X137658095Y-103128438D02*
X137705714Y-103176057D01*
X137705714Y-103176057D02*
X137753333Y-103271295D01*
X137753333Y-103271295D02*
X137753333Y-103366533D01*
X137753333Y-103366533D02*
X137705714Y-103509390D01*
X137705714Y-103509390D02*
X137134286Y-104080819D01*
X137134286Y-104080819D02*
X137753333Y-104080819D01*
D11*
X165948479Y-88988809D02*
X166462526Y-88988809D01*
X166462526Y-88988809D02*
X166523002Y-88958571D01*
X166523002Y-88958571D02*
X166553241Y-88928333D01*
X166553241Y-88928333D02*
X166583479Y-88867857D01*
X166583479Y-88867857D02*
X166583479Y-88746904D01*
X166583479Y-88746904D02*
X166553241Y-88686428D01*
X166553241Y-88686428D02*
X166523002Y-88656190D01*
X166523002Y-88656190D02*
X166462526Y-88625952D01*
X166462526Y-88625952D02*
X165948479Y-88625952D01*
X166008955Y-88353809D02*
X165978717Y-88323571D01*
X165978717Y-88323571D02*
X165948479Y-88263095D01*
X165948479Y-88263095D02*
X165948479Y-88111904D01*
X165948479Y-88111904D02*
X165978717Y-88051428D01*
X165978717Y-88051428D02*
X166008955Y-88021190D01*
X166008955Y-88021190D02*
X166069431Y-87990952D01*
X166069431Y-87990952D02*
X166129907Y-87990952D01*
X166129907Y-87990952D02*
X166220621Y-88021190D01*
X166220621Y-88021190D02*
X166583479Y-88384047D01*
X166583479Y-88384047D02*
X166583479Y-87990952D01*
D10*
X159454819Y-70761904D02*
X160264342Y-70761904D01*
X160264342Y-70761904D02*
X160359580Y-70714285D01*
X160359580Y-70714285D02*
X160407200Y-70666666D01*
X160407200Y-70666666D02*
X160454819Y-70571428D01*
X160454819Y-70571428D02*
X160454819Y-70380952D01*
X160454819Y-70380952D02*
X160407200Y-70285714D01*
X160407200Y-70285714D02*
X160359580Y-70238095D01*
X160359580Y-70238095D02*
X160264342Y-70190476D01*
X160264342Y-70190476D02*
X159454819Y-70190476D01*
X160454819Y-69190476D02*
X160454819Y-69761904D01*
X160454819Y-69476190D02*
X159454819Y-69476190D01*
X159454819Y-69476190D02*
X159597676Y-69571428D01*
X159597676Y-69571428D02*
X159692914Y-69666666D01*
X159692914Y-69666666D02*
X159740533Y-69761904D01*
X151219266Y-88718619D02*
X151219266Y-89432904D01*
X151219266Y-89432904D02*
X151171647Y-89575761D01*
X151171647Y-89575761D02*
X151076409Y-89671000D01*
X151076409Y-89671000D02*
X150933552Y-89718619D01*
X150933552Y-89718619D02*
X150838314Y-89718619D01*
X152219266Y-89718619D02*
X151647838Y-89718619D01*
X151933552Y-89718619D02*
X151933552Y-88718619D01*
X151933552Y-88718619D02*
X151838314Y-88861476D01*
X151838314Y-88861476D02*
X151743076Y-88956714D01*
X151743076Y-88956714D02*
X151647838Y-89004333D01*
X146537000Y-98383200D02*
X146637000Y-98430819D01*
X146637000Y-98430819D02*
X146803667Y-98430819D01*
X146803667Y-98430819D02*
X146870333Y-98383200D01*
X146870333Y-98383200D02*
X146903667Y-98335580D01*
X146903667Y-98335580D02*
X146937000Y-98240342D01*
X146937000Y-98240342D02*
X146937000Y-98145104D01*
X146937000Y-98145104D02*
X146903667Y-98049866D01*
X146903667Y-98049866D02*
X146870333Y-98002247D01*
X146870333Y-98002247D02*
X146803667Y-97954628D01*
X146803667Y-97954628D02*
X146670333Y-97907009D01*
X146670333Y-97907009D02*
X146603667Y-97859390D01*
X146603667Y-97859390D02*
X146570333Y-97811771D01*
X146570333Y-97811771D02*
X146537000Y-97716533D01*
X146537000Y-97716533D02*
X146537000Y-97621295D01*
X146537000Y-97621295D02*
X146570333Y-97526057D01*
X146570333Y-97526057D02*
X146603667Y-97478438D01*
X146603667Y-97478438D02*
X146670333Y-97430819D01*
X146670333Y-97430819D02*
X146837000Y-97430819D01*
X146837000Y-97430819D02*
X146937000Y-97478438D01*
X147237000Y-98430819D02*
X147237000Y-97430819D01*
X147237000Y-97430819D02*
X147403667Y-97430819D01*
X147403667Y-97430819D02*
X147503667Y-97478438D01*
X147503667Y-97478438D02*
X147570334Y-97573676D01*
X147570334Y-97573676D02*
X147603667Y-97668914D01*
X147603667Y-97668914D02*
X147637000Y-97859390D01*
X147637000Y-97859390D02*
X147637000Y-98002247D01*
X147637000Y-98002247D02*
X147603667Y-98192723D01*
X147603667Y-98192723D02*
X147570334Y-98287961D01*
X147570334Y-98287961D02*
X147503667Y-98383200D01*
X147503667Y-98383200D02*
X147403667Y-98430819D01*
X147403667Y-98430819D02*
X147237000Y-98430819D01*
X147903667Y-98145104D02*
X148237000Y-98145104D01*
X147837000Y-98430819D02*
X148070334Y-97430819D01*
X148070334Y-97430819D02*
X148303667Y-98430819D01*
X149220666Y-98383200D02*
X149320666Y-98430819D01*
X149320666Y-98430819D02*
X149487333Y-98430819D01*
X149487333Y-98430819D02*
X149553999Y-98383200D01*
X149553999Y-98383200D02*
X149587333Y-98335580D01*
X149587333Y-98335580D02*
X149620666Y-98240342D01*
X149620666Y-98240342D02*
X149620666Y-98145104D01*
X149620666Y-98145104D02*
X149587333Y-98049866D01*
X149587333Y-98049866D02*
X149553999Y-98002247D01*
X149553999Y-98002247D02*
X149487333Y-97954628D01*
X149487333Y-97954628D02*
X149353999Y-97907009D01*
X149353999Y-97907009D02*
X149287333Y-97859390D01*
X149287333Y-97859390D02*
X149253999Y-97811771D01*
X149253999Y-97811771D02*
X149220666Y-97716533D01*
X149220666Y-97716533D02*
X149220666Y-97621295D01*
X149220666Y-97621295D02*
X149253999Y-97526057D01*
X149253999Y-97526057D02*
X149287333Y-97478438D01*
X149287333Y-97478438D02*
X149353999Y-97430819D01*
X149353999Y-97430819D02*
X149520666Y-97430819D01*
X149520666Y-97430819D02*
X149620666Y-97478438D01*
X150320666Y-98335580D02*
X150287333Y-98383200D01*
X150287333Y-98383200D02*
X150187333Y-98430819D01*
X150187333Y-98430819D02*
X150120666Y-98430819D01*
X150120666Y-98430819D02*
X150020666Y-98383200D01*
X150020666Y-98383200D02*
X149954000Y-98287961D01*
X149954000Y-98287961D02*
X149920666Y-98192723D01*
X149920666Y-98192723D02*
X149887333Y-98002247D01*
X149887333Y-98002247D02*
X149887333Y-97859390D01*
X149887333Y-97859390D02*
X149920666Y-97668914D01*
X149920666Y-97668914D02*
X149954000Y-97573676D01*
X149954000Y-97573676D02*
X150020666Y-97478438D01*
X150020666Y-97478438D02*
X150120666Y-97430819D01*
X150120666Y-97430819D02*
X150187333Y-97430819D01*
X150187333Y-97430819D02*
X150287333Y-97478438D01*
X150287333Y-97478438D02*
X150320666Y-97526057D01*
X150954000Y-98430819D02*
X150620666Y-98430819D01*
X150620666Y-98430819D02*
X150620666Y-97430819D01*
X151660666Y-97430819D02*
X151894000Y-98430819D01*
X151894000Y-98430819D02*
X152127333Y-97430819D01*
X152360666Y-98430819D02*
X152360666Y-97430819D01*
X152360666Y-97430819D02*
X152527333Y-97430819D01*
X152527333Y-97430819D02*
X152627333Y-97478438D01*
X152627333Y-97478438D02*
X152694000Y-97573676D01*
X152694000Y-97573676D02*
X152727333Y-97668914D01*
X152727333Y-97668914D02*
X152760666Y-97859390D01*
X152760666Y-97859390D02*
X152760666Y-98002247D01*
X152760666Y-98002247D02*
X152727333Y-98192723D01*
X152727333Y-98192723D02*
X152694000Y-98287961D01*
X152694000Y-98287961D02*
X152627333Y-98383200D01*
X152627333Y-98383200D02*
X152527333Y-98430819D01*
X152527333Y-98430819D02*
X152360666Y-98430819D01*
X153060666Y-98430819D02*
X153060666Y-97430819D01*
X153060666Y-97430819D02*
X153227333Y-97430819D01*
X153227333Y-97430819D02*
X153327333Y-97478438D01*
X153327333Y-97478438D02*
X153394000Y-97573676D01*
X153394000Y-97573676D02*
X153427333Y-97668914D01*
X153427333Y-97668914D02*
X153460666Y-97859390D01*
X153460666Y-97859390D02*
X153460666Y-98002247D01*
X153460666Y-98002247D02*
X153427333Y-98192723D01*
X153427333Y-98192723D02*
X153394000Y-98287961D01*
X153394000Y-98287961D02*
X153327333Y-98383200D01*
X153327333Y-98383200D02*
X153227333Y-98430819D01*
X153227333Y-98430819D02*
X153060666Y-98430819D01*
X154600667Y-97478438D02*
X154534000Y-97430819D01*
X154534000Y-97430819D02*
X154434000Y-97430819D01*
X154434000Y-97430819D02*
X154334000Y-97478438D01*
X154334000Y-97478438D02*
X154267334Y-97573676D01*
X154267334Y-97573676D02*
X154234000Y-97668914D01*
X154234000Y-97668914D02*
X154200667Y-97859390D01*
X154200667Y-97859390D02*
X154200667Y-98002247D01*
X154200667Y-98002247D02*
X154234000Y-98192723D01*
X154234000Y-98192723D02*
X154267334Y-98287961D01*
X154267334Y-98287961D02*
X154334000Y-98383200D01*
X154334000Y-98383200D02*
X154434000Y-98430819D01*
X154434000Y-98430819D02*
X154500667Y-98430819D01*
X154500667Y-98430819D02*
X154600667Y-98383200D01*
X154600667Y-98383200D02*
X154634000Y-98335580D01*
X154634000Y-98335580D02*
X154634000Y-98002247D01*
X154634000Y-98002247D02*
X154500667Y-98002247D01*
X154934000Y-98430819D02*
X154934000Y-97430819D01*
X154934000Y-97430819D02*
X155334000Y-98430819D01*
X155334000Y-98430819D02*
X155334000Y-97430819D01*
X155667333Y-98430819D02*
X155667333Y-97430819D01*
X155667333Y-97430819D02*
X155834000Y-97430819D01*
X155834000Y-97430819D02*
X155934000Y-97478438D01*
X155934000Y-97478438D02*
X156000667Y-97573676D01*
X156000667Y-97573676D02*
X156034000Y-97668914D01*
X156034000Y-97668914D02*
X156067333Y-97859390D01*
X156067333Y-97859390D02*
X156067333Y-98002247D01*
X156067333Y-98002247D02*
X156034000Y-98192723D01*
X156034000Y-98192723D02*
X156000667Y-98287961D01*
X156000667Y-98287961D02*
X155934000Y-98383200D01*
X155934000Y-98383200D02*
X155834000Y-98430819D01*
X155834000Y-98430819D02*
X155667333Y-98430819D01*
D12*
%TO.C,G\u002A\u002A\u002A*%
G36*
X148019849Y-87552864D02*
G01*
X148026248Y-87555890D01*
X148040971Y-87569183D01*
X148056492Y-87592005D01*
X148070524Y-87619809D01*
X148080775Y-87648048D01*
X148084957Y-87672174D01*
X148084962Y-87672504D01*
X148086758Y-87690418D01*
X148091176Y-87716210D01*
X148096294Y-87740057D01*
X148107660Y-87793616D01*
X148117123Y-87851155D01*
X148125416Y-87917297D01*
X148127438Y-87936152D01*
X148130945Y-87965429D01*
X148134675Y-87989511D01*
X148138000Y-88004561D01*
X148139043Y-88007138D01*
X148142316Y-88018004D01*
X148146136Y-88038833D01*
X148149708Y-88065240D01*
X148149890Y-88066844D01*
X148157277Y-88112035D01*
X148170306Y-88164127D01*
X148189592Y-88225431D01*
X148199983Y-88255262D01*
X148213773Y-88294637D01*
X148227458Y-88334962D01*
X148239623Y-88371978D01*
X148248855Y-88401425D01*
X148251424Y-88410184D01*
X148257729Y-88430334D01*
X148266994Y-88457587D01*
X148275829Y-88482241D01*
X148285289Y-88507932D01*
X148298002Y-88542473D01*
X148312247Y-88581186D01*
X148325245Y-88616514D01*
X148351242Y-88693561D01*
X148375907Y-88778648D01*
X148397502Y-88865408D01*
X148411559Y-88932596D01*
X148418069Y-88966451D01*
X148424838Y-89000557D01*
X148431236Y-89031867D01*
X148436633Y-89057334D01*
X148440399Y-89073911D01*
X148441753Y-89078644D01*
X148448470Y-89077052D01*
X148465661Y-89071204D01*
X148490394Y-89062128D01*
X148508504Y-89055225D01*
X148537786Y-89044312D01*
X148562699Y-89035756D01*
X148579744Y-89030720D01*
X148584620Y-89029872D01*
X148595819Y-89026559D01*
X148617774Y-89017259D01*
X148648613Y-89002931D01*
X148686466Y-88984533D01*
X148729460Y-88963024D01*
X148775724Y-88939362D01*
X148823387Y-88914507D01*
X148870578Y-88889416D01*
X148915425Y-88865048D01*
X148956057Y-88842363D01*
X148990602Y-88822318D01*
X148995290Y-88819509D01*
X149032406Y-88797391D01*
X149066785Y-88777329D01*
X149095898Y-88760766D01*
X149117213Y-88749147D01*
X149126791Y-88744448D01*
X149145049Y-88734771D01*
X149168324Y-88719793D01*
X149184436Y-88708136D01*
X149210040Y-88688534D01*
X149239451Y-88665988D01*
X149259234Y-88650807D01*
X149283433Y-88631228D01*
X149309845Y-88608254D01*
X149336209Y-88584057D01*
X149360267Y-88560811D01*
X149379760Y-88540691D01*
X149392428Y-88525870D01*
X149396141Y-88519077D01*
X149402269Y-88510370D01*
X149417220Y-88500767D01*
X149435850Y-88492915D01*
X149453013Y-88489457D01*
X149453787Y-88489447D01*
X149483151Y-88495920D01*
X149506103Y-88513973D01*
X149520906Y-88541556D01*
X149525844Y-88574656D01*
X149522327Y-88595223D01*
X149513057Y-88623605D01*
X149499954Y-88655415D01*
X149484938Y-88686268D01*
X149469927Y-88711780D01*
X149460378Y-88724191D01*
X149451843Y-88736352D01*
X149438914Y-88758421D01*
X149423340Y-88787274D01*
X149406870Y-88819782D01*
X149406741Y-88820045D01*
X149386760Y-88858714D01*
X149363964Y-88899583D01*
X149341555Y-88937052D01*
X149327142Y-88959245D01*
X149306735Y-88990225D01*
X149286849Y-89022413D01*
X149270813Y-89050358D01*
X149266529Y-89058518D01*
X149249877Y-89088211D01*
X149229925Y-89119308D01*
X149218686Y-89134927D01*
X149200911Y-89159739D01*
X149177463Y-89194866D01*
X149149714Y-89238050D01*
X149119032Y-89287030D01*
X149086786Y-89339547D01*
X149054347Y-89393344D01*
X149023084Y-89446160D01*
X148994366Y-89495737D01*
X148969562Y-89539814D01*
X148950042Y-89576135D01*
X148943875Y-89588277D01*
X148928998Y-89615929D01*
X148912048Y-89644158D01*
X148905179Y-89654582D01*
X148888967Y-89680929D01*
X148873792Y-89709939D01*
X148870028Y-89718246D01*
X148856283Y-89744766D01*
X148838499Y-89772293D01*
X148831401Y-89781643D01*
X148814422Y-89804529D01*
X148799412Y-89827921D01*
X148794496Y-89836908D01*
X148783228Y-89857029D01*
X148772118Y-89873240D01*
X148770811Y-89874797D01*
X148761584Y-89887227D01*
X148748015Y-89907704D01*
X148733021Y-89931825D01*
X148732832Y-89932139D01*
X148705964Y-89976811D01*
X148726112Y-90013143D01*
X148738443Y-90038038D01*
X148748005Y-90062088D01*
X148751219Y-90073338D01*
X148758020Y-90094639D01*
X148769109Y-90119364D01*
X148773434Y-90127380D01*
X148783758Y-90147466D01*
X148790088Y-90163677D01*
X148790991Y-90168369D01*
X148793760Y-90177345D01*
X148801991Y-90196342D01*
X148815916Y-90225833D01*
X148835767Y-90266294D01*
X148861775Y-90318197D01*
X148894171Y-90382017D01*
X148920294Y-90433098D01*
X148935530Y-90459967D01*
X148952816Y-90486416D01*
X148961419Y-90497949D01*
X148977368Y-90519478D01*
X148991087Y-90540754D01*
X148994376Y-90546683D01*
X149007445Y-90566852D01*
X149021446Y-90582695D01*
X149043172Y-90609700D01*
X149054902Y-90640215D01*
X149056661Y-90671057D01*
X149048471Y-90699047D01*
X149030354Y-90721003D01*
X149020401Y-90727349D01*
X148990615Y-90736376D01*
X148961105Y-90731958D01*
X148930839Y-90713800D01*
X148912099Y-90696408D01*
X148895023Y-90683226D01*
X148870088Y-90669182D01*
X148847248Y-90659148D01*
X148823490Y-90649436D01*
X148790836Y-90635085D01*
X148753280Y-90617896D01*
X148714818Y-90599672D01*
X148708000Y-90596369D01*
X148668897Y-90577859D01*
X148629047Y-90559866D01*
X148592776Y-90544291D01*
X148564412Y-90533035D01*
X148561205Y-90531872D01*
X148531116Y-90520204D01*
X148494053Y-90504462D01*
X148455856Y-90487173D01*
X148436315Y-90477839D01*
X148364547Y-90442743D01*
X148316500Y-90497681D01*
X148292998Y-90524107D01*
X148263145Y-90557022D01*
X148230540Y-90592489D01*
X148198781Y-90626572D01*
X148194463Y-90631162D01*
X148167315Y-90660403D01*
X148142900Y-90687483D01*
X148123356Y-90709974D01*
X148110819Y-90725448D01*
X148108285Y-90729065D01*
X148097681Y-90743452D01*
X148080427Y-90764336D01*
X148059812Y-90787774D01*
X148054483Y-90793608D01*
X148033475Y-90817652D01*
X148015111Y-90840863D01*
X148002708Y-90858996D01*
X148001016Y-90862062D01*
X147993328Y-90876399D01*
X147985382Y-90888405D01*
X147974005Y-90902332D01*
X147956024Y-90922428D01*
X147955507Y-90922997D01*
X147942744Y-90940788D01*
X147931019Y-90962828D01*
X147930018Y-90965153D01*
X147919102Y-90985632D01*
X147902849Y-91010036D01*
X147891522Y-91024765D01*
X147874515Y-91047501D01*
X147860327Y-91070078D01*
X147854440Y-91081963D01*
X147844252Y-91100178D01*
X147832350Y-91112363D01*
X147831512Y-91112846D01*
X147820839Y-91123091D01*
X147807872Y-91141669D01*
X147799822Y-91156064D01*
X147777626Y-91188940D01*
X147751114Y-91210300D01*
X147722091Y-91219313D01*
X147692365Y-91215146D01*
X147681984Y-91210341D01*
X147660235Y-91190632D01*
X147647523Y-91162896D01*
X147645418Y-91146299D01*
X147649693Y-91123756D01*
X147661478Y-91094945D01*
X147678529Y-91064204D01*
X147698602Y-91035874D01*
X147708229Y-91024850D01*
X147726446Y-91002398D01*
X147742166Y-90977707D01*
X147746171Y-90969702D01*
X147756157Y-90951335D01*
X147765862Y-90939532D01*
X147768646Y-90937846D01*
X147774469Y-90933003D01*
X147772396Y-90922105D01*
X147769376Y-90915046D01*
X147762802Y-90896864D01*
X147761679Y-90879682D01*
X147766708Y-90859848D01*
X147778589Y-90833711D01*
X147788616Y-90814738D01*
X147803812Y-90783252D01*
X147817103Y-90749605D01*
X147825728Y-90720827D01*
X147825996Y-90719603D01*
X147833479Y-90693249D01*
X147845576Y-90659878D01*
X147860146Y-90625202D01*
X147866287Y-90612041D01*
X147879603Y-90583226D01*
X147881384Y-90578967D01*
X148034269Y-90578967D01*
X148038850Y-90576238D01*
X148051312Y-90564920D01*
X148069733Y-90546988D01*
X148092192Y-90524417D01*
X148116766Y-90499181D01*
X148141534Y-90473255D01*
X148164574Y-90448615D01*
X148183964Y-90427234D01*
X148197783Y-90411088D01*
X148198475Y-90410226D01*
X148221109Y-90381871D01*
X148158313Y-90352006D01*
X148129009Y-90338084D01*
X148109313Y-90330498D01*
X148096896Y-90330746D01*
X148089429Y-90340324D01*
X148084583Y-90360730D01*
X148080030Y-90393462D01*
X148078742Y-90403172D01*
X148072136Y-90440980D01*
X148062514Y-90482830D01*
X148052597Y-90517581D01*
X148044105Y-90544195D01*
X148037702Y-90565406D01*
X148034463Y-90577613D01*
X148034269Y-90578967D01*
X147881384Y-90578967D01*
X147890066Y-90558207D01*
X147896270Y-90540481D01*
X147897361Y-90534846D01*
X147899913Y-90521167D01*
X147906465Y-90499876D01*
X147912143Y-90484479D01*
X147919958Y-90460001D01*
X147928081Y-90426981D01*
X147935150Y-90391194D01*
X147937297Y-90377929D01*
X147942635Y-90344781D01*
X147945582Y-90328553D01*
X148459404Y-90328553D01*
X148465561Y-90333064D01*
X148482037Y-90341727D01*
X148505838Y-90353174D01*
X148533971Y-90366036D01*
X148563443Y-90378945D01*
X148591260Y-90390531D01*
X148614326Y-90399389D01*
X148638570Y-90408548D01*
X148669935Y-90421053D01*
X148702339Y-90434471D01*
X148708000Y-90436875D01*
X148734031Y-90447759D01*
X148754409Y-90455857D01*
X148766008Y-90459944D01*
X148767509Y-90460172D01*
X148765352Y-90453573D01*
X148758093Y-90436610D01*
X148746887Y-90411897D01*
X148733760Y-90383875D01*
X148717979Y-90351503D01*
X148702813Y-90321892D01*
X148690190Y-90298724D01*
X148683188Y-90287262D01*
X148671161Y-90265303D01*
X148661403Y-90239994D01*
X148660501Y-90236822D01*
X148652840Y-90213802D01*
X148641494Y-90185734D01*
X148633549Y-90168369D01*
X148614326Y-90128737D01*
X148563011Y-90190481D01*
X148536786Y-90222597D01*
X148512016Y-90253945D01*
X148490303Y-90282391D01*
X148473250Y-90305799D01*
X148462458Y-90322035D01*
X148459404Y-90328553D01*
X147945582Y-90328553D01*
X147948183Y-90314232D01*
X147953057Y-90291016D01*
X147954849Y-90284028D01*
X147957583Y-90262507D01*
X147950094Y-90250722D01*
X147936356Y-90247741D01*
X147926760Y-90243974D01*
X147907195Y-90233640D01*
X147879773Y-90218027D01*
X147846610Y-90198421D01*
X147809818Y-90176109D01*
X147809587Y-90175966D01*
X148127943Y-90175966D01*
X148134081Y-90180721D01*
X148150642Y-90189792D01*
X148174844Y-90201723D01*
X148194595Y-90210883D01*
X148225478Y-90224904D01*
X148253717Y-90237781D01*
X148275225Y-90247646D01*
X148282865Y-90251188D01*
X148300772Y-90258035D01*
X148315078Y-90258158D01*
X148328996Y-90250084D01*
X148345736Y-90232340D01*
X148358378Y-90216558D01*
X148376143Y-90194047D01*
X148399826Y-90164390D01*
X148426216Y-90131592D01*
X148449945Y-90102311D01*
X148474479Y-90070854D01*
X148497333Y-90039219D01*
X148515910Y-90011142D01*
X148527401Y-89990816D01*
X148536178Y-89970198D01*
X148540710Y-89951822D01*
X148540595Y-89932696D01*
X148535429Y-89909830D01*
X148524809Y-89880232D01*
X148508331Y-89840912D01*
X148506668Y-89837073D01*
X148493605Y-89804802D01*
X148482124Y-89772585D01*
X148474184Y-89746042D01*
X148472738Y-89739796D01*
X148466725Y-89714282D01*
X148458065Y-89682013D01*
X148448621Y-89649922D01*
X148448509Y-89649560D01*
X148438608Y-89616837D01*
X148427036Y-89577296D01*
X148415864Y-89538035D01*
X148412813Y-89527064D01*
X148402080Y-89488639D01*
X148390269Y-89447067D01*
X148379503Y-89409806D01*
X148376907Y-89400964D01*
X148367433Y-89368760D01*
X148358158Y-89337068D01*
X148350908Y-89312130D01*
X148350204Y-89309692D01*
X148340510Y-89276065D01*
X148282865Y-89299286D01*
X148225219Y-89322508D01*
X148220524Y-89541878D01*
X148219098Y-89598826D01*
X148217355Y-89652955D01*
X148215393Y-89702071D01*
X148213314Y-89743979D01*
X148211219Y-89776483D01*
X148209208Y-89797390D01*
X148208671Y-89800879D01*
X148199195Y-89850743D01*
X148187988Y-89905693D01*
X148176423Y-89959182D01*
X148166365Y-90002638D01*
X148158895Y-90034040D01*
X148150970Y-90068332D01*
X148143270Y-90102439D01*
X148136478Y-90133286D01*
X148131276Y-90157797D01*
X148128344Y-90172898D01*
X148127943Y-90175966D01*
X147809587Y-90175966D01*
X147771511Y-90152378D01*
X147733804Y-90128515D01*
X147698809Y-90105807D01*
X147668642Y-90085541D01*
X147659574Y-90079234D01*
X147605950Y-90041427D01*
X147562501Y-90010591D01*
X147527559Y-89985481D01*
X147499459Y-89964852D01*
X147476533Y-89947460D01*
X147457116Y-89932059D01*
X147439542Y-89917406D01*
X147422143Y-89902254D01*
X147419541Y-89899947D01*
X147391858Y-89876222D01*
X147363187Y-89853063D01*
X147338452Y-89834407D01*
X147331716Y-89829723D01*
X147311608Y-89814714D01*
X147285002Y-89792779D01*
X147255664Y-89767107D01*
X147232485Y-89745759D01*
X147200663Y-89716659D01*
X147165540Y-89686112D01*
X147132200Y-89658473D01*
X147113591Y-89643901D01*
X147086351Y-89623967D01*
X147051996Y-89599802D01*
X147013489Y-89573389D01*
X146973794Y-89546715D01*
X146935875Y-89521762D01*
X146902693Y-89500515D01*
X146893068Y-89494638D01*
X147153483Y-89494638D01*
X147188557Y-89519740D01*
X147206484Y-89533518D01*
X147232188Y-89554521D01*
X147262754Y-89580311D01*
X147295269Y-89608448D01*
X147309077Y-89620619D01*
X147341056Y-89648625D01*
X147371863Y-89674967D01*
X147398739Y-89697333D01*
X147418929Y-89713409D01*
X147425154Y-89718014D01*
X147444452Y-89732669D01*
X147470030Y-89753489D01*
X147497545Y-89776904D01*
X147509042Y-89787014D01*
X147538210Y-89812036D01*
X147569542Y-89837437D01*
X147597615Y-89858861D01*
X147605532Y-89864519D01*
X147629413Y-89881299D01*
X147660562Y-89903380D01*
X147694562Y-89927624D01*
X147720822Y-89946451D01*
X147755343Y-89970658D01*
X147793416Y-89996328D01*
X147832976Y-90022178D01*
X147871956Y-90046926D01*
X147908287Y-90069286D01*
X147939905Y-90087978D01*
X147964742Y-90101717D01*
X147980730Y-90109221D01*
X147984635Y-90110230D01*
X147991855Y-90106554D01*
X147998355Y-90093440D01*
X148005066Y-90068766D01*
X148007325Y-90058482D01*
X148014639Y-90023856D01*
X148023029Y-89983946D01*
X148030427Y-89948596D01*
X148038076Y-89912902D01*
X148047291Y-89871298D01*
X148056275Y-89831883D01*
X148057622Y-89826099D01*
X148062423Y-89803712D01*
X148066221Y-89780830D01*
X148069178Y-89755206D01*
X148071453Y-89724593D01*
X148073205Y-89686745D01*
X148074594Y-89639413D01*
X148075779Y-89580352D01*
X148075998Y-89567399D01*
X148076904Y-89509523D01*
X148077429Y-89464508D01*
X148077497Y-89430806D01*
X148077031Y-89406869D01*
X148075958Y-89391149D01*
X148074201Y-89382099D01*
X148071685Y-89378172D01*
X148068334Y-89377819D01*
X148066773Y-89378320D01*
X148039075Y-89387318D01*
X147999996Y-89397772D01*
X147952421Y-89409095D01*
X147899234Y-89420703D01*
X147843322Y-89432010D01*
X147787568Y-89442433D01*
X147734858Y-89451386D01*
X147688077Y-89458283D01*
X147652368Y-89462346D01*
X147614326Y-89466117D01*
X147578318Y-89470391D01*
X147548533Y-89474627D01*
X147529872Y-89478113D01*
X147513456Y-89480513D01*
X147485132Y-89482997D01*
X147447403Y-89485413D01*
X147402770Y-89487615D01*
X147353737Y-89489454D01*
X147325465Y-89490264D01*
X147153483Y-89494638D01*
X146893068Y-89494638D01*
X146877214Y-89484958D01*
X146870553Y-89481163D01*
X146852335Y-89470991D01*
X146838357Y-89462991D01*
X146838127Y-89462855D01*
X146825076Y-89456297D01*
X146804954Y-89447303D01*
X146796198Y-89443614D01*
X146766872Y-89425365D01*
X146749664Y-89400909D01*
X146745334Y-89372131D01*
X146754642Y-89340915D01*
X146754722Y-89340761D01*
X146773128Y-89319719D01*
X146799981Y-89307144D01*
X146831547Y-89303798D01*
X146864095Y-89310443D01*
X146876315Y-89315942D01*
X146890365Y-89322228D01*
X146907684Y-89327452D01*
X146929751Y-89331742D01*
X146958043Y-89335226D01*
X146994038Y-89338031D01*
X147039214Y-89340287D01*
X147095050Y-89342121D01*
X147163022Y-89343660D01*
X147205177Y-89344412D01*
X147272658Y-89345383D01*
X147327770Y-89345791D01*
X147372547Y-89345579D01*
X147409022Y-89344696D01*
X147439228Y-89343087D01*
X147465199Y-89340698D01*
X147488969Y-89337475D01*
X147493404Y-89336763D01*
X147531324Y-89331148D01*
X147576568Y-89325345D01*
X147622086Y-89320227D01*
X147645163Y-89317976D01*
X147726989Y-89307642D01*
X147821240Y-89290309D01*
X147927979Y-89265965D01*
X147987432Y-89250796D01*
X148054968Y-89233013D01*
X148479858Y-89233013D01*
X148484311Y-89249598D01*
X148491698Y-89276465D01*
X148501019Y-89310034D01*
X148511274Y-89346723D01*
X148521464Y-89382950D01*
X148530589Y-89415134D01*
X148534784Y-89429787D01*
X148554267Y-89497714D01*
X148570091Y-89553372D01*
X148582689Y-89598311D01*
X148592496Y-89634081D01*
X148599944Y-89662231D01*
X148601314Y-89667574D01*
X148610165Y-89699330D01*
X148620200Y-89730670D01*
X148630296Y-89758587D01*
X148639331Y-89780074D01*
X148646183Y-89792124D01*
X148648370Y-89793674D01*
X148654481Y-89787833D01*
X148663934Y-89773027D01*
X148668940Y-89763731D01*
X148682267Y-89740949D01*
X148700169Y-89714448D01*
X148712320Y-89698232D01*
X148727068Y-89678221D01*
X148737245Y-89661822D01*
X148740425Y-89653633D01*
X148744135Y-89643558D01*
X148753938Y-89625222D01*
X148767847Y-89602298D01*
X148770329Y-89598436D01*
X148789370Y-89567896D01*
X148809075Y-89534482D01*
X148823214Y-89509049D01*
X148846120Y-89467084D01*
X148874279Y-89417218D01*
X148905215Y-89363714D01*
X148936451Y-89310835D01*
X148965510Y-89262841D01*
X148978178Y-89242440D01*
X148997514Y-89211362D01*
X149016147Y-89180948D01*
X149031352Y-89155663D01*
X149037496Y-89145163D01*
X149050898Y-89123606D01*
X149069489Y-89095955D01*
X149089671Y-89067533D01*
X149093527Y-89062298D01*
X149113646Y-89033759D01*
X149132760Y-89004239D01*
X149147244Y-88979383D01*
X149149085Y-88975830D01*
X149163379Y-88949707D01*
X149181494Y-88919593D01*
X149194949Y-88898840D01*
X149222673Y-88857879D01*
X149195918Y-88870061D01*
X149180399Y-88878034D01*
X149155487Y-88891877D01*
X149124081Y-88909935D01*
X149089080Y-88930553D01*
X149071886Y-88940853D01*
X149037421Y-88960945D01*
X148995682Y-88984198D01*
X148948694Y-89009586D01*
X148898478Y-89036083D01*
X148847057Y-89062662D01*
X148796455Y-89088297D01*
X148748693Y-89111961D01*
X148705794Y-89132629D01*
X148669782Y-89149273D01*
X148642678Y-89160868D01*
X148628273Y-89165955D01*
X148599287Y-89174902D01*
X148568231Y-89186302D01*
X148537978Y-89198857D01*
X148511401Y-89211269D01*
X148491374Y-89222239D01*
X148480771Y-89230469D01*
X148479858Y-89233013D01*
X148054968Y-89233013D01*
X148073900Y-89228028D01*
X148073373Y-89033475D01*
X148072890Y-88975100D01*
X148071817Y-88915287D01*
X148070256Y-88857422D01*
X148068309Y-88804894D01*
X148066078Y-88761089D01*
X148064453Y-88738042D01*
X148062808Y-88716425D01*
X148207761Y-88716425D01*
X148211303Y-88763262D01*
X148212466Y-88783797D01*
X148213810Y-88816061D01*
X148215246Y-88857377D01*
X148216686Y-88905065D01*
X148218040Y-88956446D01*
X148218786Y-88988440D01*
X148219916Y-89037417D01*
X148221019Y-89081254D01*
X148222040Y-89118011D01*
X148222922Y-89145751D01*
X148223609Y-89162535D01*
X148223972Y-89166774D01*
X148230782Y-89164420D01*
X148246964Y-89158374D01*
X148261248Y-89152924D01*
X148297276Y-89139079D01*
X148296088Y-89105846D01*
X148293924Y-89083512D01*
X148289176Y-89052630D01*
X148282721Y-89018644D01*
X148280039Y-89006207D01*
X148271207Y-88966425D01*
X148261260Y-88921133D01*
X148252081Y-88878916D01*
X148250450Y-88871347D01*
X148242181Y-88835326D01*
X148232941Y-88798797D01*
X148224328Y-88767988D01*
X148221742Y-88759659D01*
X148207761Y-88716425D01*
X148062808Y-88716425D01*
X148061415Y-88698124D01*
X148058043Y-88648157D01*
X148054606Y-88592492D01*
X148051373Y-88535480D01*
X148048670Y-88482648D01*
X148046150Y-88435233D01*
X148043341Y-88391227D01*
X148040444Y-88353197D01*
X148037660Y-88323710D01*
X148035189Y-88305331D01*
X148034576Y-88302506D01*
X148031425Y-88286776D01*
X148027025Y-88259777D01*
X148021832Y-88224554D01*
X148016301Y-88184147D01*
X148012709Y-88156303D01*
X148006739Y-88112844D01*
X148000127Y-88071348D01*
X147993485Y-88035252D01*
X147987429Y-88007995D01*
X147984352Y-87997377D01*
X147976126Y-87968024D01*
X147969116Y-87933664D01*
X147966113Y-87912592D01*
X147962302Y-87883224D01*
X147957677Y-87855429D01*
X147954331Y-87839782D01*
X147948076Y-87812501D01*
X147941185Y-87777991D01*
X147934286Y-87739986D01*
X147928010Y-87702220D01*
X147922983Y-87668427D01*
X147919836Y-87642341D01*
X147919088Y-87630509D01*
X147924408Y-87595657D01*
X147939269Y-87568987D01*
X147961546Y-87551979D01*
X147989114Y-87546111D01*
X148019849Y-87552864D01*
G37*
G36*
X155961436Y-81216750D02*
G01*
X155982391Y-81224651D01*
X156003229Y-81242082D01*
X156005293Y-81244130D01*
X156021549Y-81262033D01*
X156030331Y-81278672D01*
X156033902Y-81300681D01*
X156034532Y-81329860D01*
X156032918Y-81366070D01*
X156026725Y-81392433D01*
X156013925Y-81416804D01*
X156010914Y-81421360D01*
X155994236Y-81450995D01*
X155978262Y-81487171D01*
X155971720Y-81505560D01*
X155961932Y-81534123D01*
X155953062Y-81556077D01*
X155948590Y-81564361D01*
X155943146Y-81577386D01*
X155935839Y-81602750D01*
X155928161Y-81635222D01*
X155927414Y-81638736D01*
X155919706Y-81672642D01*
X155912234Y-81700963D01*
X155906532Y-81717924D01*
X155906226Y-81718562D01*
X155901620Y-81733856D01*
X155895753Y-81761905D01*
X155889619Y-81797720D01*
X155887169Y-81814117D01*
X155881080Y-81852855D01*
X155874706Y-81887059D01*
X155869114Y-81911207D01*
X155867369Y-81916720D01*
X155862430Y-81934512D01*
X155855617Y-81965199D01*
X155847939Y-82004021D01*
X155842305Y-82035112D01*
X155834999Y-82075103D01*
X155828210Y-82108730D01*
X155822791Y-82131959D01*
X155820021Y-82140338D01*
X155816490Y-82152494D01*
X155811352Y-82178196D01*
X155805389Y-82213260D01*
X155801154Y-82241065D01*
X155794132Y-82284814D01*
X155786273Y-82326619D01*
X155778792Y-82360285D01*
X155775276Y-82373095D01*
X155767013Y-82405669D01*
X155759618Y-82444883D01*
X155756521Y-82467004D01*
X155751047Y-82502770D01*
X155743693Y-82536772D01*
X155738845Y-82553331D01*
X155731938Y-82577338D01*
X155723616Y-82612555D01*
X155715366Y-82652541D01*
X155713015Y-82665127D01*
X155704226Y-82708337D01*
X155693851Y-82751725D01*
X155683837Y-82787277D01*
X155681809Y-82793448D01*
X155669625Y-82831593D01*
X155657168Y-82874487D01*
X155651359Y-82896300D01*
X155640927Y-82937431D01*
X155629552Y-82982300D01*
X155624148Y-83003624D01*
X155592133Y-83141181D01*
X155568472Y-83269433D01*
X155552141Y-83394305D01*
X155546925Y-83450807D01*
X155537186Y-83545447D01*
X155524600Y-83624848D01*
X155509356Y-83687865D01*
X155506550Y-83696757D01*
X155497366Y-83729683D01*
X155486751Y-83775792D01*
X155475639Y-83830540D01*
X155464963Y-83889381D01*
X155457382Y-83936218D01*
X155454927Y-83958427D01*
X155451899Y-83995367D01*
X155448510Y-84043902D01*
X155444969Y-84100894D01*
X155441487Y-84163204D01*
X155439382Y-84204528D01*
X155435981Y-84266786D01*
X155432184Y-84324062D01*
X155428224Y-84373622D01*
X155424338Y-84412733D01*
X155420759Y-84438661D01*
X155418517Y-84447604D01*
X155403225Y-84468457D01*
X155375333Y-84495015D01*
X155338189Y-84524890D01*
X155295142Y-84555692D01*
X155249543Y-84585033D01*
X155204741Y-84610522D01*
X155164086Y-84629772D01*
X155161865Y-84630671D01*
X155125500Y-84644583D01*
X155094069Y-84655440D01*
X155072133Y-84661720D01*
X155065871Y-84662673D01*
X155046898Y-84667577D01*
X155040430Y-84672078D01*
X155026649Y-84678153D01*
X154999115Y-84684890D01*
X154961917Y-84691680D01*
X154919143Y-84697914D01*
X154874884Y-84702984D01*
X154833228Y-84706280D01*
X154804331Y-84707231D01*
X154772784Y-84708656D01*
X154748126Y-84712219D01*
X154736434Y-84716707D01*
X154723327Y-84722731D01*
X154698004Y-84729503D01*
X154666615Y-84735442D01*
X154627254Y-84743921D01*
X154587728Y-84756161D01*
X154563283Y-84766373D01*
X154538055Y-84778440D01*
X154519428Y-84786245D01*
X154513514Y-84787884D01*
X154501764Y-84793117D01*
X154492454Y-84800076D01*
X154476056Y-84810013D01*
X154449913Y-84821818D01*
X154433616Y-84827996D01*
X154401703Y-84839676D01*
X154372049Y-84851258D01*
X154361508Y-84855675D01*
X154336033Y-84863112D01*
X154295981Y-84869433D01*
X154240885Y-84874659D01*
X154170279Y-84878811D01*
X154083694Y-84881910D01*
X153980663Y-84883979D01*
X153860720Y-84885038D01*
X153723396Y-84885109D01*
X153719060Y-84885096D01*
X153615830Y-84884625D01*
X153529242Y-84883863D01*
X153458052Y-84882774D01*
X153401016Y-84881322D01*
X153356892Y-84879468D01*
X153324435Y-84877176D01*
X153302402Y-84874409D01*
X153293299Y-84872401D01*
X153263389Y-84866385D01*
X153224264Y-84861853D01*
X153185975Y-84859839D01*
X153142019Y-84857208D01*
X153095034Y-84851404D01*
X153060764Y-84844894D01*
X153026936Y-84838390D01*
X152981988Y-84831928D01*
X152932669Y-84826399D01*
X152899778Y-84823606D01*
X152829758Y-84817498D01*
X152774861Y-84810058D01*
X152732339Y-84800728D01*
X152699444Y-84788950D01*
X152680938Y-84779114D01*
X152661335Y-84770200D01*
X152628661Y-84758749D01*
X152587291Y-84746171D01*
X152541601Y-84733874D01*
X152536669Y-84732641D01*
X152488529Y-84720365D01*
X152454014Y-84710351D01*
X152429287Y-84700976D01*
X152410511Y-84690621D01*
X152393851Y-84677663D01*
X152382992Y-84667697D01*
X152359056Y-84642252D01*
X152345566Y-84618654D01*
X152338084Y-84588826D01*
X152337430Y-84584774D01*
X152331465Y-84555888D01*
X152324238Y-84533489D01*
X152320265Y-84526245D01*
X152314264Y-84512799D01*
X152306068Y-84486179D01*
X152296938Y-84450762D01*
X152291138Y-84425271D01*
X152281711Y-84384985D01*
X152272020Y-84349194D01*
X152263493Y-84322926D01*
X152259551Y-84313870D01*
X152250484Y-84294998D01*
X152237603Y-84265144D01*
X152223378Y-84230074D01*
X152220320Y-84222249D01*
X152204122Y-84182493D01*
X152191116Y-84152884D01*
X152424559Y-84152884D01*
X152430551Y-84173007D01*
X152439176Y-84194693D01*
X152451993Y-84220068D01*
X152452959Y-84221769D01*
X152462991Y-84243986D01*
X152474910Y-84277285D01*
X152486496Y-84315338D01*
X152489020Y-84324621D01*
X152500067Y-84361172D01*
X152512088Y-84392808D01*
X152522931Y-84414066D01*
X152525573Y-84417537D01*
X152537719Y-84438151D01*
X152547343Y-84466707D01*
X152549195Y-84475671D01*
X152555911Y-84515103D01*
X152606986Y-84520616D01*
X152636965Y-84525074D01*
X152660352Y-84530746D01*
X152669360Y-84534702D01*
X152684461Y-84542221D01*
X152709306Y-84551145D01*
X152720905Y-84554630D01*
X152752252Y-84564344D01*
X152781232Y-84574689D01*
X152787982Y-84577431D01*
X152842829Y-84596277D01*
X152901161Y-84606365D01*
X152961473Y-84609011D01*
X153014409Y-84611541D01*
X153055114Y-84618807D01*
X153067759Y-84623185D01*
X153092905Y-84630213D01*
X153132784Y-84636736D01*
X153184243Y-84642305D01*
X153222247Y-84645190D01*
X153268876Y-84648728D01*
X153310651Y-84652868D01*
X153343499Y-84657139D01*
X153363346Y-84661068D01*
X153365346Y-84661751D01*
X153379484Y-84663841D01*
X153409238Y-84665656D01*
X153452336Y-84667191D01*
X153506507Y-84668441D01*
X153569480Y-84669402D01*
X153638986Y-84670068D01*
X153712754Y-84670436D01*
X153788513Y-84670499D01*
X153863991Y-84670255D01*
X153936920Y-84669697D01*
X154005027Y-84668822D01*
X154066043Y-84667624D01*
X154117697Y-84666099D01*
X154157718Y-84664242D01*
X154169778Y-84663419D01*
X154232042Y-84656354D01*
X154289923Y-84645607D01*
X154338965Y-84632191D01*
X154374711Y-84617118D01*
X154375482Y-84616679D01*
X154394027Y-84607276D01*
X154411257Y-84599546D01*
X154433373Y-84588242D01*
X154459617Y-84572281D01*
X154464919Y-84568734D01*
X154489739Y-84556240D01*
X154526658Y-84543147D01*
X154570065Y-84531387D01*
X154579279Y-84529312D01*
X154616574Y-84520779D01*
X154647710Y-84512848D01*
X154668188Y-84506704D01*
X154673157Y-84504593D01*
X154686180Y-84501310D01*
X154712795Y-84497728D01*
X154748726Y-84494350D01*
X154777917Y-84492327D01*
X154825578Y-84487984D01*
X154877084Y-84480779D01*
X154928609Y-84471524D01*
X154976328Y-84461034D01*
X155016414Y-84450119D01*
X155045042Y-84439595D01*
X155055787Y-84433270D01*
X155074122Y-84423357D01*
X155099292Y-84415635D01*
X155100506Y-84415391D01*
X155125124Y-84406309D01*
X155154605Y-84389633D01*
X155171468Y-84377585D01*
X155193402Y-84360390D01*
X155208601Y-84348720D01*
X155213141Y-84345485D01*
X155214468Y-84336868D01*
X155216306Y-84313638D01*
X155218500Y-84279056D01*
X155220894Y-84236384D01*
X155223333Y-84188884D01*
X155225663Y-84139816D01*
X155227726Y-84092442D01*
X155229369Y-84050025D01*
X155230436Y-84015825D01*
X155230771Y-83993104D01*
X155230300Y-83985144D01*
X155220305Y-83985452D01*
X155199006Y-83990329D01*
X155171880Y-83998147D01*
X155144404Y-84007276D01*
X155122054Y-84016090D01*
X155115663Y-84019224D01*
X155099925Y-84024817D01*
X155071868Y-84032173D01*
X155036789Y-84039940D01*
X155026226Y-84042044D01*
X154986203Y-84051055D01*
X154947968Y-84061763D01*
X154918843Y-84072083D01*
X154915362Y-84073631D01*
X154884509Y-84085134D01*
X154846888Y-84095314D01*
X154826818Y-84099274D01*
X154792831Y-84105575D01*
X154761643Y-84112621D01*
X154747537Y-84116550D01*
X154716412Y-84124556D01*
X154671321Y-84133472D01*
X154616112Y-84142618D01*
X154554635Y-84151313D01*
X154540940Y-84153062D01*
X154503302Y-84158536D01*
X154456201Y-84166467D01*
X154407643Y-84175479D01*
X154388898Y-84179222D01*
X154370413Y-84182860D01*
X154352142Y-84185983D01*
X154332620Y-84188630D01*
X154310379Y-84190841D01*
X154283953Y-84192655D01*
X154251876Y-84194110D01*
X154212681Y-84195247D01*
X154164903Y-84196104D01*
X154107073Y-84196720D01*
X154037727Y-84197136D01*
X153955397Y-84197390D01*
X153858618Y-84197521D01*
X153745922Y-84197569D01*
X153703194Y-84197573D01*
X153581383Y-84197524D01*
X153476154Y-84197345D01*
X153386201Y-84197012D01*
X153310217Y-84196496D01*
X153246898Y-84195771D01*
X153194937Y-84194811D01*
X153153029Y-84193589D01*
X153119869Y-84192078D01*
X153094150Y-84190253D01*
X153074567Y-84188086D01*
X153059814Y-84185551D01*
X153054779Y-84184378D01*
X153017139Y-84177207D01*
X152964486Y-84170618D01*
X152899689Y-84164799D01*
X152825618Y-84159941D01*
X152745143Y-84156232D01*
X152661134Y-84153863D01*
X152579439Y-84153023D01*
X152424559Y-84152884D01*
X152191116Y-84152884D01*
X152186606Y-84142616D01*
X152171341Y-84110716D01*
X152170209Y-84108531D01*
X152159925Y-84086111D01*
X152152019Y-84061140D01*
X152145658Y-84029637D01*
X152140012Y-83987623D01*
X152135164Y-83940786D01*
X152130065Y-83892755D01*
X152124457Y-83848515D01*
X152118959Y-83812456D01*
X152114189Y-83788967D01*
X152113387Y-83786194D01*
X152107472Y-83761964D01*
X152101089Y-83726976D01*
X152095504Y-83688274D01*
X152094903Y-83683342D01*
X152078693Y-83588516D01*
X152051945Y-83493275D01*
X152019110Y-83406088D01*
X152000948Y-83359326D01*
X151982664Y-83307276D01*
X151967594Y-83259550D01*
X151964762Y-83249574D01*
X151953278Y-83209214D01*
X151941559Y-83170236D01*
X151931752Y-83139735D01*
X151929905Y-83134418D01*
X151921433Y-83107530D01*
X151916493Y-83085884D01*
X151915975Y-83080419D01*
X151912601Y-83065928D01*
X151903572Y-83039700D01*
X151890528Y-83006327D01*
X151883644Y-82989871D01*
X151867871Y-82951316D01*
X151853972Y-82914435D01*
X151844264Y-82885471D01*
X151842298Y-82878412D01*
X151832285Y-82845644D01*
X151819402Y-82811640D01*
X151817326Y-82806863D01*
X151807445Y-82779754D01*
X151796824Y-82742941D01*
X151787747Y-82704351D01*
X151787677Y-82704011D01*
X151779147Y-82667856D01*
X151766519Y-82621264D01*
X151751609Y-82570680D01*
X151738578Y-82529610D01*
X151721991Y-82478548D01*
X151704722Y-82424087D01*
X151689077Y-82373560D01*
X151679541Y-82341793D01*
X151667942Y-82302886D01*
X151657096Y-82267542D01*
X151648738Y-82241386D01*
X151646380Y-82234469D01*
X151640221Y-82215993D01*
X151630152Y-82184545D01*
X151617485Y-82144264D01*
X151603528Y-82099287D01*
X151601090Y-82091370D01*
X151585511Y-82040911D01*
X151569532Y-81989487D01*
X151555031Y-81943123D01*
X151543892Y-81907864D01*
X151533674Y-81874066D01*
X151526102Y-81845680D01*
X151525412Y-81842233D01*
X151755832Y-81842233D01*
X151769070Y-81899724D01*
X151778181Y-81934783D01*
X151788290Y-81966995D01*
X151795480Y-81985398D01*
X151804642Y-82010060D01*
X151808645Y-82030856D01*
X151808651Y-82031443D01*
X151811525Y-82047718D01*
X151819188Y-82075705D01*
X151830207Y-82110344D01*
X151834905Y-82123999D01*
X151850413Y-82169887D01*
X151867343Y-82222721D01*
X151882405Y-82272192D01*
X151884445Y-82279187D01*
X151895894Y-82318117D01*
X151906621Y-82353476D01*
X151914904Y-82379629D01*
X151917240Y-82386511D01*
X151933798Y-82435951D01*
X151952205Y-82495239D01*
X151970202Y-82556813D01*
X151985533Y-82613111D01*
X151989312Y-82627990D01*
X152000089Y-82667344D01*
X152012092Y-82705030D01*
X152022935Y-82733629D01*
X152024136Y-82736293D01*
X152034664Y-82762691D01*
X152040659Y-82784903D01*
X152041187Y-82790293D01*
X152044581Y-82805907D01*
X152053659Y-82833075D01*
X152066767Y-82867038D01*
X152073517Y-82883222D01*
X152089279Y-82921774D01*
X152103148Y-82958653D01*
X152112815Y-82987618D01*
X152114765Y-82994680D01*
X152121435Y-83019296D01*
X152131736Y-83054887D01*
X152143893Y-83095376D01*
X152149512Y-83113625D01*
X152160608Y-83150309D01*
X152169317Y-83180915D01*
X152174459Y-83201196D01*
X152175341Y-83206566D01*
X152178477Y-83218263D01*
X152187020Y-83242957D01*
X152199677Y-83277060D01*
X152215153Y-83316985D01*
X152215590Y-83318091D01*
X152233754Y-83365977D01*
X152251405Y-83415908D01*
X152266230Y-83461170D01*
X152274205Y-83488386D01*
X152283409Y-83521588D01*
X152291302Y-83548020D01*
X152296459Y-83562954D01*
X152297109Y-83564266D01*
X152300013Y-83575962D01*
X152303898Y-83600941D01*
X152308097Y-83634673D01*
X152309774Y-83650185D01*
X152315190Y-83691557D01*
X152322304Y-83731212D01*
X152329787Y-83761997D01*
X152331588Y-83767547D01*
X152340039Y-83801209D01*
X152344923Y-83839416D01*
X152345393Y-83852160D01*
X152344987Y-83874355D01*
X152344792Y-83892239D01*
X152346537Y-83906309D01*
X152351952Y-83917061D01*
X152362767Y-83924991D01*
X152380713Y-83930595D01*
X152407518Y-83934369D01*
X152444913Y-83936810D01*
X152494628Y-83938412D01*
X152558392Y-83939674D01*
X152637935Y-83941089D01*
X152656752Y-83941452D01*
X152757324Y-83943954D01*
X152849095Y-83947277D01*
X152930721Y-83951322D01*
X153000857Y-83955989D01*
X153058159Y-83961177D01*
X153101284Y-83966786D01*
X153128888Y-83972715D01*
X153138656Y-83977372D01*
X153148347Y-83978350D01*
X153174392Y-83979267D01*
X153215256Y-83980109D01*
X153269407Y-83980862D01*
X153335309Y-83981509D01*
X153411430Y-83982038D01*
X153496236Y-83982434D01*
X153588193Y-83982680D01*
X153685767Y-83982764D01*
X153703962Y-83982761D01*
X153818299Y-83982701D01*
X153916252Y-83982577D01*
X153999323Y-83982343D01*
X154069016Y-83981956D01*
X154126833Y-83981369D01*
X154174279Y-83980540D01*
X154212855Y-83979421D01*
X154244066Y-83977970D01*
X154269413Y-83976142D01*
X154290400Y-83973890D01*
X154308530Y-83971172D01*
X154325306Y-83967941D01*
X154342231Y-83964153D01*
X154344179Y-83963698D01*
X154384779Y-83954738D01*
X154423218Y-83947214D01*
X154453057Y-83942354D01*
X154460447Y-83941494D01*
X154518468Y-83935306D01*
X154572742Y-83928071D01*
X154619635Y-83920378D01*
X154655515Y-83912816D01*
X154675095Y-83906735D01*
X154699033Y-83899219D01*
X154732094Y-83892244D01*
X154755588Y-83888773D01*
X154786809Y-83883416D01*
X154812013Y-83876119D01*
X154823083Y-83870349D01*
X154838296Y-83862672D01*
X154865536Y-83853674D01*
X154899217Y-83845172D01*
X154903078Y-83844345D01*
X154956267Y-83831909D01*
X155013037Y-83816552D01*
X155068034Y-83799891D01*
X155115905Y-83783544D01*
X155149827Y-83769813D01*
X155179467Y-83756130D01*
X155214349Y-83740073D01*
X155229647Y-83733046D01*
X155253577Y-83721280D01*
X155268382Y-83709864D01*
X155278038Y-83693565D01*
X155286520Y-83667152D01*
X155290308Y-83653204D01*
X155305464Y-83589492D01*
X155318069Y-83522582D01*
X155327179Y-83458475D01*
X155331849Y-83403171D01*
X155332261Y-83386688D01*
X155334670Y-83345275D01*
X155340599Y-83300843D01*
X155344930Y-83279364D01*
X155352113Y-83245268D01*
X155359971Y-83201628D01*
X155367046Y-83156659D01*
X155368447Y-83146722D01*
X155376433Y-83097669D01*
X155387336Y-83042392D01*
X155398978Y-82991812D01*
X155400541Y-82985736D01*
X155409741Y-82950789D01*
X155417996Y-82920150D01*
X155426453Y-82889790D01*
X155436259Y-82855680D01*
X155448560Y-82813788D01*
X155464504Y-82760086D01*
X155470552Y-82739786D01*
X155489060Y-82674948D01*
X155501608Y-82624155D01*
X155508768Y-82584797D01*
X155511109Y-82554787D01*
X155514817Y-82525129D01*
X155521915Y-82501125D01*
X155527682Y-82484492D01*
X155534550Y-82458879D01*
X155542863Y-82422674D01*
X155552966Y-82374269D01*
X155565203Y-82312052D01*
X155579919Y-82234416D01*
X155586231Y-82200540D01*
X155594794Y-82155502D01*
X155602529Y-82116818D01*
X155608730Y-82087874D01*
X155612692Y-82072055D01*
X155613376Y-82070310D01*
X155616471Y-82059250D01*
X155621722Y-82034290D01*
X155628384Y-81999184D01*
X155635405Y-81959471D01*
X155643131Y-81916975D01*
X155650716Y-81879892D01*
X155657247Y-81852423D01*
X155661528Y-81839278D01*
X155666912Y-81821806D01*
X155672154Y-81793529D01*
X155675170Y-81769398D01*
X155677130Y-81741963D01*
X155676107Y-81730496D01*
X155672701Y-81734535D01*
X155660537Y-81752163D01*
X155640539Y-81771480D01*
X155636318Y-81774781D01*
X155615071Y-81792853D01*
X155584586Y-81821645D01*
X155547467Y-81858471D01*
X155506318Y-81900646D01*
X155463740Y-81945481D01*
X155422339Y-81990292D01*
X155384716Y-82032391D01*
X155368528Y-82051124D01*
X155339183Y-82084828D01*
X155301475Y-82127068D01*
X155259389Y-82173434D01*
X155216909Y-82219521D01*
X155197358Y-82240452D01*
X155162649Y-82277803D01*
X155132632Y-82310836D01*
X155109304Y-82337292D01*
X155094665Y-82354911D01*
X155090546Y-82361191D01*
X155084261Y-82369063D01*
X155066680Y-82387761D01*
X155039382Y-82415693D01*
X155003945Y-82451268D01*
X154961947Y-82492891D01*
X154914966Y-82538972D01*
X154897039Y-82556441D01*
X154797765Y-82653314D01*
X154711191Y-82738452D01*
X154636894Y-82812277D01*
X154574456Y-82875211D01*
X154523454Y-82927677D01*
X154483468Y-82970096D01*
X154467608Y-82987522D01*
X154421107Y-83039398D01*
X154363017Y-83039398D01*
X154330333Y-83038611D01*
X154308922Y-83034765D01*
X154292190Y-83025631D01*
X154273826Y-83009255D01*
X154253826Y-82986300D01*
X154239785Y-82963692D01*
X154236955Y-82956118D01*
X154228132Y-82936829D01*
X154211343Y-82910929D01*
X154196009Y-82891111D01*
X154177412Y-82867631D01*
X154164662Y-82849110D01*
X154160834Y-82840770D01*
X154155430Y-82829793D01*
X154141555Y-82810561D01*
X154129532Y-82795872D01*
X154112057Y-82774380D01*
X154100695Y-82758339D01*
X154098229Y-82753021D01*
X154092990Y-82743255D01*
X154079401Y-82724322D01*
X154064376Y-82705252D01*
X154044215Y-82679842D01*
X154024068Y-82652703D01*
X154001039Y-82619771D01*
X153972232Y-82576979D01*
X153962123Y-82561751D01*
X153948590Y-82538894D01*
X153935018Y-82512293D01*
X153924322Y-82488099D01*
X153919417Y-82472465D01*
X153919356Y-82471479D01*
X153913297Y-82460720D01*
X153906515Y-82454066D01*
X153895628Y-82438092D01*
X153887632Y-82414960D01*
X153878573Y-82389275D01*
X153864972Y-82367684D01*
X153850747Y-82355947D01*
X153846981Y-82355208D01*
X153839801Y-82362604D01*
X153827540Y-82382049D01*
X153812776Y-82409430D01*
X153811931Y-82411106D01*
X153796690Y-82441222D01*
X153783832Y-82466178D01*
X153776224Y-82480419D01*
X153769159Y-82494359D01*
X153756939Y-82519937D01*
X153741775Y-82552492D01*
X153735857Y-82565384D01*
X153720138Y-82599345D01*
X153706500Y-82628052D01*
X153697170Y-82646844D01*
X153695257Y-82650349D01*
X153686455Y-82666463D01*
X153673919Y-82690652D01*
X153669430Y-82699539D01*
X153659598Y-82718838D01*
X153650629Y-82735200D01*
X153639770Y-82753204D01*
X153624273Y-82777430D01*
X153604091Y-82808327D01*
X153589863Y-82831612D01*
X153580982Y-82849172D01*
X153579496Y-82854334D01*
X153573314Y-82866303D01*
X153564627Y-82875081D01*
X153551685Y-82890832D01*
X153537583Y-82915113D01*
X153533780Y-82923131D01*
X153519908Y-82946040D01*
X153497010Y-82975625D01*
X153469317Y-83006556D01*
X153460213Y-83015789D01*
X153430512Y-83044059D01*
X153408318Y-83061737D01*
X153389244Y-83071592D01*
X153368905Y-83076392D01*
X153363031Y-83077136D01*
X153318064Y-83075403D01*
X153283773Y-83064147D01*
X153252016Y-83050528D01*
X153220871Y-83037711D01*
X153212806Y-83034522D01*
X153190107Y-83022793D01*
X153160130Y-83003510D01*
X153129188Y-82980746D01*
X153127841Y-82979679D01*
X153104275Y-82960877D01*
X153080994Y-82942136D01*
X153055241Y-82921206D01*
X153024263Y-82895840D01*
X152985305Y-82863788D01*
X152935611Y-82822802D01*
X152929799Y-82818004D01*
X152904833Y-82797071D01*
X152870884Y-82768163D01*
X152832417Y-82735100D01*
X152793977Y-82701775D01*
X152760228Y-82672845D01*
X152731074Y-82648745D01*
X152709246Y-82631665D01*
X152697469Y-82623796D01*
X152696505Y-82623518D01*
X152686725Y-82617572D01*
X152668797Y-82602065D01*
X152648982Y-82582740D01*
X152620748Y-82556017D01*
X152590600Y-82530720D01*
X152573164Y-82517898D01*
X152505205Y-82468907D01*
X152429815Y-82408236D01*
X152358817Y-82346264D01*
X152324335Y-82315701D01*
X152290460Y-82286708D01*
X152261853Y-82263225D01*
X152247707Y-82252356D01*
X152218847Y-82230770D01*
X152185829Y-82205229D01*
X152168481Y-82191451D01*
X152139780Y-82170288D01*
X152111216Y-82152281D01*
X152096038Y-82144516D01*
X152076447Y-82132573D01*
X152046001Y-82109342D01*
X152006388Y-82076287D01*
X151959294Y-82034876D01*
X151906406Y-81986575D01*
X151849410Y-81932849D01*
X151820252Y-81904754D01*
X151755832Y-81842233D01*
X151525412Y-81842233D01*
X151522558Y-81827973D01*
X151522454Y-81826230D01*
X151516059Y-81808526D01*
X151509488Y-81801074D01*
X151499933Y-81785323D01*
X151490051Y-81756008D01*
X151480753Y-81717409D01*
X151472951Y-81673806D01*
X151467556Y-81629479D01*
X151465551Y-81594748D01*
X151465468Y-81561328D01*
X151468093Y-81539783D01*
X151475264Y-81524123D01*
X151488821Y-81508356D01*
X151493559Y-81503560D01*
X151513864Y-81485671D01*
X151533240Y-81477026D01*
X151559907Y-81474474D01*
X151569580Y-81474421D01*
X151614768Y-81479442D01*
X151657720Y-81495381D01*
X151702276Y-81524054D01*
X151738035Y-81554083D01*
X151768202Y-81580215D01*
X151798656Y-81604693D01*
X151822244Y-81621828D01*
X151833245Y-81629486D01*
X151846595Y-81639781D01*
X151863636Y-81653911D01*
X151885710Y-81673073D01*
X151914159Y-81698465D01*
X151950326Y-81731284D01*
X151995553Y-81772730D01*
X152051181Y-81823999D01*
X152117881Y-81885666D01*
X152149196Y-81913704D01*
X152178438Y-81938231D01*
X152201449Y-81955836D01*
X152210588Y-81961687D01*
X152243333Y-81980854D01*
X152278375Y-82005033D01*
X152320109Y-82037340D01*
X152339345Y-82052978D01*
X152365863Y-82073655D01*
X152387904Y-82088860D01*
X152401242Y-82095712D01*
X152402231Y-82095842D01*
X152413019Y-82101853D01*
X152432490Y-82117871D01*
X152457075Y-82140873D01*
X152466290Y-82150078D01*
X152522004Y-82203253D01*
X152584624Y-82257374D01*
X152647550Y-82306920D01*
X152689354Y-82336670D01*
X152716919Y-82356770D01*
X152752056Y-82384616D01*
X152789250Y-82415763D01*
X152809453Y-82433465D01*
X152840046Y-82459895D01*
X152866569Y-82481130D01*
X152885784Y-82494678D01*
X152893690Y-82498307D01*
X152906655Y-82504375D01*
X152925050Y-82519572D01*
X152931644Y-82526220D01*
X152954747Y-82549361D01*
X152985718Y-82578409D01*
X153021873Y-82611060D01*
X153060530Y-82645013D01*
X153099006Y-82677966D01*
X153134619Y-82707615D01*
X153164685Y-82731659D01*
X153186522Y-82747794D01*
X153196499Y-82753538D01*
X153213862Y-82762896D01*
X153238121Y-82780767D01*
X153260024Y-82799672D01*
X153284141Y-82819741D01*
X153304979Y-82833009D01*
X153317115Y-82836535D01*
X153330942Y-82827231D01*
X153345102Y-82808479D01*
X153346001Y-82806863D01*
X153358540Y-82785482D01*
X153377010Y-82755988D01*
X153395878Y-82727085D01*
X153425804Y-82681081D01*
X153449373Y-82641641D01*
X153471060Y-82601096D01*
X153480926Y-82581406D01*
X153493486Y-82558054D01*
X153503883Y-82542270D01*
X153506975Y-82539154D01*
X153513652Y-82528430D01*
X153521977Y-82506586D01*
X153525722Y-82494235D01*
X153535066Y-82467771D01*
X153545434Y-82448164D01*
X153549308Y-82443720D01*
X153559888Y-82431619D01*
X153561609Y-82426755D01*
X153565889Y-82412061D01*
X153577454Y-82386014D01*
X153594389Y-82352601D01*
X153614779Y-82315811D01*
X153615271Y-82314962D01*
X153632652Y-82283593D01*
X153648437Y-82252849D01*
X153654960Y-82238941D01*
X153666530Y-82214616D01*
X153676855Y-82195959D01*
X153678003Y-82194222D01*
X153687738Y-82178120D01*
X153700964Y-82153948D01*
X153705603Y-82145032D01*
X153724920Y-82108105D01*
X153739415Y-82082781D01*
X153751946Y-82064509D01*
X153765371Y-82048737D01*
X153767500Y-82046453D01*
X153798724Y-82025376D01*
X153837870Y-82016573D01*
X153879884Y-82020007D01*
X153919715Y-82035639D01*
X153936929Y-82047760D01*
X153953742Y-82067238D01*
X153973968Y-82098373D01*
X153994849Y-82136033D01*
X154013629Y-82175087D01*
X154027549Y-82210401D01*
X154031532Y-82223856D01*
X154040642Y-82245582D01*
X154050157Y-82257756D01*
X154059313Y-82269886D01*
X154073923Y-82294246D01*
X154091735Y-82326925D01*
X154105178Y-82353214D01*
X154124101Y-82391117D01*
X154141269Y-82425314D01*
X154154356Y-82451179D01*
X154159648Y-82461478D01*
X154174657Y-82487531D01*
X154195243Y-82519866D01*
X154218269Y-82553933D01*
X154240601Y-82585186D01*
X154259102Y-82609076D01*
X154268497Y-82619353D01*
X154281753Y-82635038D01*
X154286046Y-82645877D01*
X154292167Y-82659152D01*
X154305093Y-82673558D01*
X154321952Y-82691974D01*
X154340834Y-82717193D01*
X154346176Y-82725282D01*
X154368213Y-82759969D01*
X154423514Y-82705159D01*
X154449380Y-82680440D01*
X154470980Y-82661480D01*
X154484887Y-82651220D01*
X154487519Y-82650212D01*
X154496433Y-82644030D01*
X154516145Y-82626685D01*
X154544977Y-82599833D01*
X154581256Y-82565133D01*
X154623306Y-82524243D01*
X154669451Y-82478820D01*
X154718016Y-82430523D01*
X154767326Y-82381010D01*
X154815707Y-82331939D01*
X154861481Y-82284967D01*
X154902975Y-82241753D01*
X154938512Y-82203955D01*
X154939404Y-82202991D01*
X154973720Y-82165826D01*
X155017232Y-82118555D01*
X155067086Y-82064288D01*
X155120426Y-82006136D01*
X155174398Y-81947208D01*
X155222497Y-81894610D01*
X155273747Y-81839238D01*
X155334619Y-81774664D01*
X155401937Y-81704183D01*
X155472525Y-81631092D01*
X155543208Y-81558686D01*
X155610811Y-81490261D01*
X155644675Y-81456370D01*
X155887085Y-81214891D01*
X155931570Y-81214891D01*
X155961436Y-81216750D01*
G37*
%TO.C,J2*%
D13*
X165120000Y-101040000D02*
X166500000Y-101040000D01*
X165120000Y-102420000D02*
X165120000Y-101040000D01*
X165120000Y-103690000D02*
X165120000Y-121580000D01*
X165120000Y-103690000D02*
X167880000Y-103690000D01*
X165120000Y-121580000D02*
X167880000Y-121580000D01*
X167880000Y-103690000D02*
X167880000Y-121580000D01*
%TO.C,R1*%
X151820000Y-66500000D02*
X152770000Y-66500000D01*
X157560000Y-66500000D02*
X156610000Y-66500000D01*
X152770000Y-65580000D02*
X156610000Y-65580000D01*
X156610000Y-67420000D01*
X152770000Y-67420000D01*
X152770000Y-65580000D01*
D12*
%TO.C,G\u002A\u002A\u002A*%
G36*
X151961421Y-86380623D02*
G01*
X151953264Y-86388779D01*
X151945107Y-86380623D01*
X151953264Y-86372466D01*
X151961421Y-86380623D01*
G37*
G36*
X155365488Y-85806934D02*
G01*
X155367441Y-85826294D01*
X155365488Y-85828685D01*
X155355790Y-85826446D01*
X155354613Y-85817810D01*
X155360582Y-85804382D01*
X155365488Y-85806934D01*
G37*
G36*
X156148533Y-89787409D02*
G01*
X156150485Y-89806769D01*
X156148533Y-89809160D01*
X156138834Y-89806921D01*
X156137657Y-89798285D01*
X156143626Y-89784857D01*
X156148533Y-89787409D01*
G37*
G36*
X155127989Y-85870405D02*
G01*
X155128672Y-85874906D01*
X155115971Y-85894035D01*
X155111135Y-85896250D01*
X155096260Y-85888375D01*
X155093598Y-85874906D01*
X155101875Y-85854603D01*
X155111135Y-85853563D01*
X155127989Y-85870405D01*
G37*
G36*
X157049368Y-86614067D02*
G01*
X157051209Y-86625324D01*
X157042400Y-86647033D01*
X157034895Y-86649794D01*
X157020422Y-86636581D01*
X157018582Y-86625324D01*
X157027391Y-86603615D01*
X157034895Y-86600854D01*
X157049368Y-86614067D01*
G37*
G36*
X157831526Y-86663473D02*
G01*
X157834253Y-86682421D01*
X157826111Y-86710741D01*
X157806204Y-86712265D01*
X157797312Y-86705296D01*
X157793549Y-86683271D01*
X157805014Y-86658427D01*
X157819685Y-86649794D01*
X157831526Y-86663473D01*
G37*
G36*
X157883006Y-86629789D02*
G01*
X157883193Y-86633481D01*
X157870652Y-86649167D01*
X157865917Y-86649794D01*
X157856174Y-86639800D01*
X157858723Y-86633481D01*
X157873383Y-86617918D01*
X157875999Y-86617167D01*
X157883006Y-86629789D01*
G37*
G36*
X156978070Y-86529378D02*
G01*
X156990682Y-86551914D01*
X156989876Y-86578081D01*
X156969077Y-86584540D01*
X156938486Y-86576688D01*
X156928858Y-86568227D01*
X156926473Y-86540724D01*
X156928858Y-86535600D01*
X156952571Y-86519650D01*
X156978070Y-86529378D01*
G37*
G36*
X157395232Y-86497644D02*
G01*
X157407496Y-86516527D01*
X157406363Y-86522354D01*
X157390108Y-86543033D01*
X157358383Y-86542732D01*
X157320380Y-86528733D01*
X157271440Y-86507107D01*
X157316265Y-86495124D01*
X157361944Y-86489640D01*
X157395232Y-86497644D01*
G37*
G36*
X156549266Y-85916118D02*
G01*
X156575431Y-85947641D01*
X156589301Y-85989929D01*
X156587764Y-86021608D01*
X156568893Y-86055268D01*
X156538994Y-86059165D01*
X156504993Y-86035995D01*
X156486554Y-86001925D01*
X156483113Y-85960685D01*
X156493474Y-85924713D01*
X156516443Y-85906448D01*
X156517464Y-85906281D01*
X156549266Y-85916118D01*
G37*
G36*
X157277862Y-85274570D02*
G01*
X157304127Y-85295846D01*
X157323501Y-85334265D01*
X157317405Y-85369677D01*
X157292898Y-85396557D01*
X157257040Y-85409383D01*
X157216889Y-85402630D01*
X157191038Y-85384339D01*
X157170238Y-85354300D01*
X157165403Y-85336564D01*
X157179035Y-85302997D01*
X157210908Y-85274412D01*
X157245607Y-85263153D01*
X157277862Y-85274570D01*
G37*
G36*
X150652047Y-85143573D02*
G01*
X150678897Y-85171913D01*
X150683706Y-85213926D01*
X150676206Y-85237416D01*
X150653875Y-85268173D01*
X150617524Y-85278993D01*
X150602318Y-85279467D01*
X150561886Y-85276500D01*
X150537527Y-85269290D01*
X150536715Y-85268591D01*
X150524690Y-85236932D01*
X150529024Y-85195088D01*
X150546696Y-85159121D01*
X150559308Y-85148509D01*
X150609927Y-85134055D01*
X150652047Y-85143573D01*
G37*
G36*
X158055973Y-86416781D02*
G01*
X158066536Y-86433405D01*
X158065230Y-86452693D01*
X158054198Y-86483174D01*
X158031958Y-86522572D01*
X158005136Y-86561282D01*
X157980354Y-86589695D01*
X157964760Y-86598409D01*
X157944240Y-86594412D01*
X157911742Y-86589169D01*
X157879186Y-86579825D01*
X157866880Y-86568309D01*
X157856554Y-86546261D01*
X157843890Y-86531254D01*
X157829668Y-86506082D01*
X157831655Y-86493384D01*
X157860517Y-86470034D01*
X157908437Y-86445274D01*
X157962578Y-86424554D01*
X158010100Y-86413327D01*
X158021857Y-86412629D01*
X158055973Y-86416781D01*
G37*
G36*
X157061347Y-85245553D02*
G01*
X157072286Y-85253934D01*
X157088371Y-85285590D01*
X157100975Y-85337860D01*
X157108722Y-85398799D01*
X157110240Y-85456461D01*
X157104154Y-85498903D01*
X157101262Y-85505774D01*
X157065958Y-85538793D01*
X156999773Y-85564633D01*
X156907016Y-85582456D01*
X156855887Y-85586345D01*
X156824204Y-85579174D01*
X156802306Y-85561166D01*
X156783449Y-85521483D01*
X156774240Y-85462878D01*
X156774790Y-85397630D01*
X156785207Y-85338016D01*
X156800028Y-85303666D01*
X156836812Y-85270662D01*
X156891950Y-85246409D01*
X156954828Y-85232848D01*
X157014831Y-85231916D01*
X157061347Y-85245553D01*
G37*
G36*
X151972178Y-85048000D02*
G01*
X152007168Y-85080957D01*
X152039026Y-85137492D01*
X152056536Y-85184975D01*
X152055607Y-85209194D01*
X152042988Y-85214213D01*
X152028515Y-85201000D01*
X152026674Y-85189743D01*
X152019577Y-85167530D01*
X152001462Y-85173013D01*
X151981520Y-85197899D01*
X151958146Y-85223718D01*
X151937555Y-85229732D01*
X151928794Y-85213498D01*
X151915749Y-85201408D01*
X151900245Y-85201263D01*
X151880607Y-85197750D01*
X151872596Y-85173338D01*
X151871697Y-85148959D01*
X151875142Y-85110200D01*
X151888086Y-85096344D01*
X151899985Y-85096596D01*
X151920427Y-85092317D01*
X151919439Y-85078309D01*
X151924598Y-85054243D01*
X151938475Y-85044594D01*
X151972178Y-85048000D01*
G37*
G36*
X150173149Y-85036619D02*
G01*
X150212777Y-85044166D01*
X150241555Y-85060386D01*
X150257409Y-85074807D01*
X150278390Y-85099582D01*
X150290488Y-85127851D01*
X150296056Y-85169149D01*
X150297449Y-85233011D01*
X150297452Y-85237032D01*
X150292814Y-85322236D01*
X150275643Y-85381998D01*
X150241051Y-85422592D01*
X150184151Y-85450295D01*
X150117803Y-85467711D01*
X150042261Y-85482731D01*
X149990288Y-85489183D01*
X149953954Y-85487009D01*
X149925329Y-85476149D01*
X149909559Y-85466146D01*
X149888769Y-85446487D01*
X149877743Y-85418300D01*
X149873644Y-85371840D01*
X149873303Y-85341610D01*
X149882067Y-85228229D01*
X149908611Y-85141275D01*
X149953311Y-85079576D01*
X149958993Y-85074583D01*
X149992035Y-85051703D01*
X150029406Y-85039551D01*
X150082785Y-85035082D01*
X150111840Y-85034765D01*
X150173149Y-85036619D01*
G37*
G36*
X157373779Y-84697230D02*
G01*
X157502092Y-84714567D01*
X157600944Y-84733322D01*
X157673500Y-84754765D01*
X157722926Y-84780165D01*
X157752388Y-84810793D01*
X157765051Y-84847918D01*
X157765723Y-84854463D01*
X157764707Y-84889605D01*
X157748496Y-84903328D01*
X157724397Y-84905790D01*
X157686305Y-84908154D01*
X157621938Y-84913325D01*
X157537475Y-84920754D01*
X157439095Y-84929891D01*
X157332976Y-84940186D01*
X157295910Y-84943885D01*
X157159531Y-84973376D01*
X157027042Y-85032669D01*
X156941460Y-85089450D01*
X156863254Y-85151351D01*
X156805245Y-85204002D01*
X156760146Y-85255737D01*
X156720671Y-85314890D01*
X156680510Y-85387913D01*
X156646792Y-85452662D01*
X156615696Y-85512180D01*
X156592603Y-85556175D01*
X156587963Y-85564951D01*
X156569983Y-85605100D01*
X156561936Y-85635405D01*
X156561907Y-85636436D01*
X156554115Y-85663036D01*
X156535358Y-85700491D01*
X156512330Y-85737610D01*
X156491723Y-85763204D01*
X156482987Y-85768373D01*
X156461324Y-85760609D01*
X156443534Y-85751249D01*
X156419660Y-85722682D01*
X156414985Y-85702281D01*
X156408785Y-85665119D01*
X156393753Y-85619163D01*
X156392685Y-85616570D01*
X156380724Y-85553037D01*
X156387160Y-85468182D01*
X156411364Y-85367190D01*
X156429401Y-85313707D01*
X156452543Y-85271465D01*
X156493408Y-85215395D01*
X156545231Y-85153236D01*
X156601250Y-85092725D01*
X156654703Y-85041600D01*
X156694586Y-85010295D01*
X156720526Y-84993123D01*
X156763852Y-84964312D01*
X156811124Y-84932806D01*
X156860199Y-84901756D01*
X156899834Y-84879739D01*
X156921006Y-84871631D01*
X156944603Y-84862419D01*
X156980957Y-84839479D01*
X156992242Y-84831167D01*
X157043726Y-84798783D01*
X157102913Y-84770622D01*
X157113847Y-84766516D01*
X157172686Y-84744053D01*
X157230168Y-84719568D01*
X157239536Y-84715217D01*
X157307990Y-84695939D01*
X157373779Y-84697230D01*
G37*
G36*
X156877075Y-84350848D02*
G01*
X156915292Y-84357234D01*
X156943718Y-84372730D01*
X156973758Y-84401309D01*
X156977480Y-84405240D01*
X157017616Y-84440294D01*
X157056754Y-84462909D01*
X157069130Y-84466415D01*
X157099319Y-84477033D01*
X157100099Y-84493083D01*
X157073165Y-84510137D01*
X157049516Y-84517739D01*
X157009397Y-84537170D01*
X156990440Y-84562601D01*
X156970421Y-84588650D01*
X156951564Y-84594303D01*
X156919351Y-84607081D01*
X156900602Y-84626930D01*
X156873044Y-84652751D01*
X156850950Y-84659556D01*
X156816410Y-84668210D01*
X156779996Y-84686864D01*
X156733375Y-84715911D01*
X156692278Y-84739883D01*
X156653306Y-84768748D01*
X156604658Y-84814689D01*
X156552813Y-84870291D01*
X156504249Y-84928141D01*
X156465445Y-84980824D01*
X156442879Y-85020929D01*
X156440585Y-85027914D01*
X156423683Y-85069487D01*
X156394780Y-85119692D01*
X156381155Y-85139414D01*
X156352682Y-85186229D01*
X156335606Y-85229936D01*
X156333418Y-85245082D01*
X156322421Y-85284818D01*
X156295764Y-85325499D01*
X156293896Y-85327514D01*
X156265964Y-85370311D01*
X156243276Y-85428253D01*
X156237652Y-85450757D01*
X156222745Y-85516726D01*
X156204140Y-85590382D01*
X156195607Y-85621525D01*
X156181252Y-85690273D01*
X156172074Y-85769151D01*
X156170284Y-85813208D01*
X156162086Y-85895441D01*
X156137787Y-85950607D01*
X156097829Y-85977935D01*
X156074488Y-85980944D01*
X156051955Y-85990176D01*
X156038085Y-86022346D01*
X156033719Y-86044901D01*
X156029460Y-86092736D01*
X156031929Y-86129676D01*
X156033380Y-86134625D01*
X156032545Y-86156611D01*
X156022680Y-86160391D01*
X156014398Y-86168882D01*
X156030445Y-86191720D01*
X156049142Y-86215883D01*
X156043673Y-86230101D01*
X156025889Y-86240660D01*
X155989147Y-86254980D01*
X155969184Y-86258272D01*
X155943744Y-86272457D01*
X155927597Y-86306530D01*
X155925583Y-86324860D01*
X155939551Y-86336123D01*
X155966366Y-86339839D01*
X155997024Y-86334255D01*
X156007150Y-86323526D01*
X156018905Y-86307651D01*
X156045917Y-86306561D01*
X156075805Y-86317701D01*
X156096187Y-86338517D01*
X156097621Y-86342194D01*
X156116622Y-86376935D01*
X156148530Y-86415953D01*
X156153319Y-86420769D01*
X156186029Y-86464650D01*
X156204948Y-86523608D01*
X156209631Y-86552693D01*
X156218696Y-86603385D01*
X156229507Y-86639507D01*
X156236348Y-86650295D01*
X156238485Y-86667389D01*
X156226161Y-86695006D01*
X156207248Y-86719886D01*
X156189751Y-86728798D01*
X156168196Y-86725538D01*
X156125770Y-86720065D01*
X156096873Y-86716563D01*
X156047766Y-86708659D01*
X156023893Y-86697579D01*
X156017869Y-86679435D01*
X156018112Y-86675106D01*
X156009948Y-86642090D01*
X155986251Y-86602390D01*
X155981406Y-86596366D01*
X155955585Y-86561994D01*
X155942353Y-86537176D01*
X155941896Y-86534348D01*
X155928222Y-86522107D01*
X155909269Y-86519287D01*
X155883497Y-86509507D01*
X155876642Y-86479333D01*
X155863317Y-86443667D01*
X155830331Y-86405005D01*
X155794812Y-86377904D01*
X155849453Y-86377904D01*
X155851693Y-86387602D01*
X155860329Y-86388779D01*
X155873757Y-86382811D01*
X155871204Y-86377904D01*
X155851844Y-86375951D01*
X155849453Y-86377904D01*
X155794812Y-86377904D01*
X155788167Y-86372834D01*
X155747309Y-86356640D01*
X155740517Y-86356152D01*
X155717803Y-86342699D01*
X155713508Y-86325523D01*
X155701660Y-86289479D01*
X155689038Y-86274585D01*
X155668361Y-86247866D01*
X155664568Y-86233802D01*
X155652313Y-86200736D01*
X155619973Y-86188680D01*
X155574185Y-86199926D01*
X155570950Y-86201494D01*
X155521753Y-86217252D01*
X155479086Y-86210139D01*
X155450820Y-86195035D01*
X155443326Y-86171959D01*
X155448119Y-86140519D01*
X155458009Y-86074211D01*
X155458798Y-86018144D01*
X155450850Y-85980226D01*
X155440258Y-85968709D01*
X155424684Y-85977068D01*
X155419866Y-86011248D01*
X155414683Y-86053469D01*
X155394692Y-86071810D01*
X155353232Y-86070966D01*
X155338870Y-86068335D01*
X155287536Y-86045132D01*
X155254780Y-86004709D01*
X155246982Y-85955740D01*
X155248905Y-85945966D01*
X155265399Y-85914083D01*
X155293248Y-85883641D01*
X155323458Y-85862070D01*
X155347033Y-85856795D01*
X155352338Y-85860549D01*
X155373674Y-85869228D01*
X155415285Y-85874334D01*
X155436180Y-85874906D01*
X155481709Y-85873165D01*
X155504145Y-85864253D01*
X155512980Y-85842637D01*
X155514847Y-85829058D01*
X155512974Y-85788006D01*
X155502740Y-85762286D01*
X155497364Y-85743164D01*
X155520066Y-85725662D01*
X155526031Y-85722839D01*
X155557607Y-85697698D01*
X155566686Y-85655628D01*
X155566687Y-85655025D01*
X155562134Y-85620509D01*
X155551152Y-85605743D01*
X155550865Y-85605735D01*
X155549323Y-85594007D01*
X155563781Y-85564384D01*
X155574491Y-85547607D01*
X155602710Y-85492381D01*
X155622521Y-85429452D01*
X155624854Y-85416683D01*
X155642736Y-85354633D01*
X155670033Y-85319890D01*
X155691891Y-85297210D01*
X155700815Y-85262947D01*
X155700966Y-85219388D01*
X155704214Y-85159305D01*
X155718582Y-85119979D01*
X155720723Y-85117373D01*
X155740401Y-85091422D01*
X155745681Y-85079923D01*
X155761939Y-85032419D01*
X155795186Y-84971366D01*
X155839732Y-84906667D01*
X155859368Y-84882071D01*
X155896560Y-84839547D01*
X155934431Y-84801688D01*
X155980570Y-84761660D01*
X156042571Y-84712629D01*
X156075762Y-84687255D01*
X156105240Y-84663069D01*
X156144865Y-84628501D01*
X156157329Y-84617276D01*
X156206616Y-84578924D01*
X156265382Y-84541638D01*
X156284478Y-84531364D01*
X156339548Y-84502313D01*
X156391302Y-84473067D01*
X156406829Y-84463669D01*
X156480261Y-84427147D01*
X156573557Y-84394067D01*
X156673954Y-84367974D01*
X156768687Y-84352411D01*
X156817658Y-84349601D01*
X156877075Y-84350848D01*
G37*
G36*
X151210849Y-84257085D02*
G01*
X151297831Y-84260967D01*
X151360201Y-84265776D01*
X151405966Y-84273098D01*
X151443134Y-84284518D01*
X151479712Y-84301621D01*
X151504645Y-84315235D01*
X151555931Y-84343562D01*
X151598180Y-84366194D01*
X151618839Y-84376598D01*
X151647499Y-84394316D01*
X151687166Y-84424321D01*
X151729888Y-84459823D01*
X151767715Y-84494033D01*
X151792695Y-84520163D01*
X151798286Y-84529827D01*
X151808822Y-84549763D01*
X151834629Y-84580139D01*
X151839070Y-84584663D01*
X151866857Y-84620855D01*
X151879743Y-84654207D01*
X151879854Y-84656615D01*
X151889589Y-84691111D01*
X151912609Y-84729424D01*
X151935858Y-84772684D01*
X151952705Y-84828114D01*
X151955106Y-84842145D01*
X151959200Y-84887957D01*
X151952407Y-84913744D01*
X151930695Y-84931379D01*
X151923451Y-84935378D01*
X151885024Y-84948628D01*
X151857538Y-84948125D01*
X151832853Y-84949765D01*
X151826194Y-84958193D01*
X151811800Y-84965053D01*
X151783971Y-84946243D01*
X151754050Y-84926114D01*
X151732852Y-84930843D01*
X151729385Y-84934007D01*
X151701827Y-84952067D01*
X151686590Y-84940350D01*
X151684092Y-84920059D01*
X151671676Y-84888257D01*
X151655544Y-84876571D01*
X151629091Y-84859418D01*
X151590921Y-84826079D01*
X151561742Y-84796792D01*
X151516702Y-84756516D01*
X151458112Y-84714364D01*
X151394727Y-84675532D01*
X151335306Y-84645215D01*
X151288607Y-84628606D01*
X151275441Y-84626965D01*
X151241401Y-84616081D01*
X151232138Y-84608912D01*
X151208086Y-84600320D01*
X151161421Y-84593868D01*
X151101653Y-84589810D01*
X151038292Y-84588401D01*
X150980845Y-84589898D01*
X150938823Y-84594554D01*
X150922802Y-84600615D01*
X150922237Y-84617559D01*
X150930465Y-84622655D01*
X150953117Y-84638341D01*
X150987686Y-84670127D01*
X151010041Y-84693256D01*
X151056321Y-84734427D01*
X151106680Y-84766444D01*
X151127445Y-84775207D01*
X151176327Y-84794233D01*
X151236645Y-84822412D01*
X151299720Y-84855091D01*
X151356873Y-84887613D01*
X151399427Y-84915324D01*
X151416719Y-84930372D01*
X151445900Y-84950342D01*
X151460619Y-84953198D01*
X151489366Y-84962306D01*
X151496488Y-84969512D01*
X151517202Y-84981105D01*
X151551104Y-84985422D01*
X151584073Y-84982461D01*
X151601988Y-84972224D01*
X151602525Y-84969512D01*
X151616143Y-84956117D01*
X151634127Y-84953198D01*
X151654637Y-84957923D01*
X151660211Y-84978095D01*
X151656462Y-85010295D01*
X151652958Y-85049035D01*
X151661836Y-85065507D01*
X151677880Y-85068680D01*
X151694388Y-85072879D01*
X151688171Y-85078196D01*
X151672965Y-85096241D01*
X151668017Y-85123853D01*
X151674529Y-85145373D01*
X151682733Y-85148959D01*
X151701471Y-85136365D01*
X151703164Y-85132528D01*
X151716971Y-85131594D01*
X151744461Y-85149709D01*
X151753086Y-85157307D01*
X151797530Y-85198519D01*
X151789368Y-85428386D01*
X151785255Y-85514071D01*
X151779624Y-85589927D01*
X151773134Y-85649039D01*
X151766442Y-85684492D01*
X151764522Y-85689428D01*
X151755384Y-85721656D01*
X151758365Y-85737638D01*
X151763883Y-85766436D01*
X151759040Y-85805983D01*
X151747109Y-85843227D01*
X151731361Y-85865119D01*
X151725996Y-85866750D01*
X151705481Y-85880195D01*
X151682271Y-85913482D01*
X151677358Y-85923154D01*
X151656008Y-85962374D01*
X151637469Y-85987197D01*
X151634716Y-85989370D01*
X151623228Y-86011237D01*
X151618839Y-86046590D01*
X151611442Y-86101499D01*
X151591631Y-86172164D01*
X151562977Y-86250246D01*
X151529049Y-86327407D01*
X151493417Y-86395311D01*
X151459653Y-86445619D01*
X151439401Y-86465650D01*
X151413926Y-86490449D01*
X151378557Y-86533458D01*
X151340943Y-86585376D01*
X151340864Y-86585493D01*
X151305283Y-86633263D01*
X151273509Y-86667880D01*
X151252032Y-86682344D01*
X151251019Y-86682421D01*
X151222915Y-86693913D01*
X151199061Y-86715048D01*
X151171491Y-86739699D01*
X151152481Y-86747675D01*
X151127726Y-86757041D01*
X151093074Y-86779757D01*
X151090853Y-86781486D01*
X151062220Y-86801412D01*
X151048163Y-86806100D01*
X151047869Y-86805145D01*
X151036255Y-86803472D01*
X151019444Y-86810901D01*
X150995569Y-86837803D01*
X150990896Y-86856574D01*
X150980618Y-86879470D01*
X150954067Y-86882453D01*
X150923836Y-86888041D01*
X150917362Y-86902844D01*
X150915669Y-86914124D01*
X150907352Y-86922117D01*
X150887549Y-86927444D01*
X150851402Y-86930729D01*
X150794049Y-86932593D01*
X150710630Y-86933658D01*
X150674374Y-86933958D01*
X150590663Y-86933399D01*
X150532045Y-86929550D01*
X150491071Y-86921459D01*
X150460290Y-86908172D01*
X150456900Y-86906167D01*
X150414073Y-86889104D01*
X150349936Y-86874224D01*
X150281784Y-86864756D01*
X150170171Y-86844255D01*
X150086169Y-86806881D01*
X150029329Y-86752407D01*
X150016884Y-86731484D01*
X149994826Y-86695705D01*
X149960725Y-86648072D01*
X149936631Y-86617167D01*
X149900219Y-86569901D01*
X149870443Y-86527256D01*
X149858627Y-86507535D01*
X149842604Y-86459357D01*
X149834019Y-86399369D01*
X149833465Y-86340086D01*
X149841533Y-86294023D01*
X149847938Y-86281207D01*
X149865376Y-86263663D01*
X149888772Y-86260352D01*
X149929750Y-86270036D01*
X149935845Y-86271846D01*
X149992307Y-86295454D01*
X150044510Y-86327533D01*
X150051103Y-86332800D01*
X150099867Y-86373832D01*
X150200904Y-86347650D01*
X150289382Y-86331924D01*
X150399177Y-86323893D01*
X150466909Y-86323131D01*
X150597935Y-86319072D01*
X150703738Y-86303587D01*
X150732889Y-86296208D01*
X150815739Y-86279195D01*
X150876899Y-86282802D01*
X150920861Y-86308176D01*
X150949988Y-86351755D01*
X150981834Y-86392114D01*
X151025582Y-86402324D01*
X151080910Y-86382491D01*
X151147499Y-86332717D01*
X151212772Y-86266881D01*
X151262675Y-86212052D01*
X151311589Y-86159044D01*
X151349543Y-86118657D01*
X151351888Y-86116212D01*
X151386739Y-86069513D01*
X151410445Y-86018882D01*
X151413712Y-86006121D01*
X151432367Y-85952537D01*
X151462053Y-85903935D01*
X151491051Y-85848700D01*
X151508642Y-85772654D01*
X151514171Y-85685788D01*
X151506982Y-85598096D01*
X151487154Y-85521481D01*
X151415381Y-85356658D01*
X151333826Y-85216306D01*
X151237860Y-85092679D01*
X151217525Y-85070345D01*
X151083918Y-84946905D01*
X150940870Y-84854083D01*
X150785632Y-84790565D01*
X150615456Y-84755037D01*
X150544573Y-84748492D01*
X150440331Y-84741278D01*
X150364376Y-84734223D01*
X150312380Y-84726581D01*
X150280018Y-84717607D01*
X150262960Y-84706555D01*
X150258485Y-84699192D01*
X150263289Y-84670109D01*
X150290763Y-84630470D01*
X150335270Y-84585942D01*
X150391174Y-84542194D01*
X150450519Y-84506093D01*
X150499780Y-84477003D01*
X150536167Y-84449122D01*
X150550236Y-84431400D01*
X150570272Y-84409922D01*
X150614702Y-84382417D01*
X150676603Y-84352000D01*
X150749048Y-84321788D01*
X150825115Y-84294899D01*
X150897877Y-84274448D01*
X150900132Y-84273921D01*
X150970549Y-84261594D01*
X151052658Y-84255553D01*
X151154799Y-84255345D01*
X151210849Y-84257085D01*
G37*
G36*
X153359749Y-85906505D02*
G01*
X153382097Y-85918930D01*
X153456759Y-85970254D01*
X153558896Y-86005495D01*
X153687385Y-86024281D01*
X153702879Y-86025314D01*
X153778870Y-86028619D01*
X153826511Y-86027411D01*
X153849801Y-86021413D01*
X153853778Y-86014768D01*
X153866375Y-86001769D01*
X153895872Y-86001589D01*
X153929825Y-86012782D01*
X153948745Y-86025806D01*
X153979033Y-86039761D01*
X154023560Y-86046155D01*
X154027306Y-86046197D01*
X154077053Y-86051478D01*
X154117972Y-86064219D01*
X154118673Y-86064588D01*
X154154151Y-86075878D01*
X154207725Y-86084830D01*
X154244030Y-86088036D01*
X154325907Y-86093338D01*
X154382702Y-86099739D01*
X154421952Y-86109141D01*
X154451192Y-86123446D01*
X154477957Y-86144557D01*
X154481845Y-86148081D01*
X154517620Y-86176558D01*
X154546106Y-86192021D01*
X154551177Y-86192943D01*
X154569240Y-86206160D01*
X154571568Y-86217488D01*
X154580027Y-86239203D01*
X154587222Y-86241959D01*
X154607867Y-86252909D01*
X154637800Y-86279718D01*
X154642012Y-86284166D01*
X154680996Y-86319624D01*
X154719985Y-86345826D01*
X154720161Y-86345915D01*
X154753401Y-86378068D01*
X154760426Y-86405666D01*
X154767644Y-86460483D01*
X154783264Y-86501222D01*
X154803754Y-86519094D01*
X154806136Y-86519287D01*
X154843103Y-86533779D01*
X154875351Y-86570262D01*
X154895091Y-86618243D01*
X154897837Y-86642787D01*
X154903161Y-86689260D01*
X154916945Y-86750860D01*
X154931476Y-86799620D01*
X154949062Y-86856453D01*
X154954730Y-86890465D01*
X154949258Y-86908889D01*
X154943711Y-86913794D01*
X154939334Y-86921536D01*
X154963987Y-86918434D01*
X154966471Y-86917868D01*
X155004587Y-86916865D01*
X155038423Y-86938305D01*
X155049909Y-86949999D01*
X155080494Y-86978382D01*
X155103720Y-86992135D01*
X155105706Y-86992376D01*
X155128905Y-87003635D01*
X155142688Y-87017027D01*
X155161267Y-87032942D01*
X155177828Y-87021362D01*
X155182995Y-87014535D01*
X155206504Y-86997293D01*
X155221151Y-86998707D01*
X155246945Y-86999618D01*
X155284840Y-86986517D01*
X155287847Y-86985001D01*
X155338056Y-86968791D01*
X155373209Y-86977713D01*
X155389293Y-87010602D01*
X155389655Y-87014513D01*
X155392450Y-87055153D01*
X155393733Y-87073943D01*
X155408649Y-87117592D01*
X155442663Y-87138283D01*
X155453456Y-87139197D01*
X155479450Y-87145404D01*
X155485120Y-87153608D01*
X155498902Y-87167832D01*
X155521825Y-87175981D01*
X155565682Y-87188181D01*
X155588303Y-87196411D01*
X155611645Y-87199904D01*
X155614918Y-87186274D01*
X155613931Y-87145437D01*
X155627647Y-87131302D01*
X155644176Y-87134441D01*
X155682036Y-87160368D01*
X155690012Y-87198376D01*
X155687570Y-87208516D01*
X155691830Y-87235836D01*
X155717830Y-87251933D01*
X155773306Y-87266159D01*
X155833196Y-87271304D01*
X155885213Y-87267151D01*
X155915017Y-87255390D01*
X155946681Y-87243420D01*
X155981042Y-87247922D01*
X156004144Y-87265613D01*
X156007150Y-87277058D01*
X156020870Y-87297726D01*
X156041796Y-87307586D01*
X156066909Y-87322251D01*
X156067388Y-87352674D01*
X156066945Y-87354486D01*
X156063730Y-87392383D01*
X156080794Y-87415053D01*
X156122910Y-87426552D01*
X156155108Y-87429395D01*
X156209115Y-87428302D01*
X156243905Y-87414888D01*
X156259595Y-87400668D01*
X156292952Y-87374702D01*
X156323727Y-87367016D01*
X156343352Y-87377527D01*
X156344676Y-87401469D01*
X156352118Y-87433033D01*
X156386497Y-87465563D01*
X156442439Y-87495517D01*
X156514565Y-87519349D01*
X156528482Y-87522633D01*
X156582363Y-87540470D01*
X156606546Y-87564057D01*
X156607940Y-87568976D01*
X156623955Y-87603396D01*
X156652762Y-87637321D01*
X156683233Y-87658795D01*
X156693819Y-87661226D01*
X156718367Y-87651897D01*
X156751219Y-87630091D01*
X156795906Y-87609292D01*
X156840028Y-87610812D01*
X156873453Y-87632378D01*
X156885385Y-87660188D01*
X156891516Y-87682291D01*
X156907303Y-87692049D01*
X156941639Y-87692539D01*
X156971519Y-87689986D01*
X157019748Y-87688214D01*
X157053146Y-87692301D01*
X157061227Y-87696865D01*
X157081993Y-87704589D01*
X157101602Y-87701549D01*
X157132444Y-87703383D01*
X157142758Y-87717198D01*
X157163343Y-87739578D01*
X157175817Y-87742793D01*
X157201463Y-87755962D01*
X157208444Y-87767264D01*
X157230691Y-87787896D01*
X157248715Y-87791734D01*
X157274209Y-87801624D01*
X157279597Y-87814345D01*
X157293077Y-87835080D01*
X157326636Y-87858804D01*
X157338666Y-87864987D01*
X157378410Y-87889807D01*
X157402953Y-87916232D01*
X157405294Y-87921921D01*
X157424716Y-87951348D01*
X157450888Y-87971181D01*
X157482947Y-87997811D01*
X157496915Y-88022099D01*
X157517324Y-88051516D01*
X157543151Y-88067984D01*
X157563852Y-88079355D01*
X157559127Y-88084341D01*
X157547208Y-88090883D01*
X157555355Y-88112863D01*
X157564898Y-88128167D01*
X157579230Y-88154091D01*
X157577406Y-88161220D01*
X157575749Y-88160337D01*
X157556395Y-88164647D01*
X157539035Y-88186202D01*
X157510905Y-88225839D01*
X157485198Y-88252420D01*
X157443431Y-88281604D01*
X157385572Y-88313491D01*
X157321855Y-88343384D01*
X157262511Y-88366583D01*
X157217775Y-88378391D01*
X157209481Y-88379017D01*
X157170195Y-88383119D01*
X157114235Y-88393677D01*
X157073572Y-88403350D01*
X157040071Y-88410382D01*
X156997152Y-88415938D01*
X156941217Y-88420147D01*
X156868669Y-88423136D01*
X156775912Y-88425035D01*
X156659349Y-88425970D01*
X156515382Y-88426070D01*
X156440631Y-88425877D01*
X156244329Y-88425325D01*
X156078500Y-88425123D01*
X155940994Y-88425323D01*
X155829658Y-88425974D01*
X155742342Y-88427127D01*
X155676892Y-88428832D01*
X155631158Y-88431139D01*
X155602988Y-88434100D01*
X155590231Y-88437763D01*
X155590734Y-88442180D01*
X155597453Y-88445599D01*
X155634743Y-88453514D01*
X155690558Y-88457747D01*
X155736117Y-88457767D01*
X155799192Y-88458399D01*
X155880091Y-88463055D01*
X155964386Y-88470817D01*
X155990836Y-88473948D01*
X156067953Y-88483290D01*
X156165403Y-88494500D01*
X156271050Y-88506212D01*
X156372761Y-88517057D01*
X156378943Y-88517699D01*
X156466445Y-88527154D01*
X156545562Y-88536410D01*
X156609015Y-88544567D01*
X156649525Y-88550722D01*
X156656271Y-88552079D01*
X156721662Y-88569151D01*
X156781323Y-88588131D01*
X156827619Y-88606229D01*
X156852917Y-88620658D01*
X156855448Y-88624831D01*
X156843275Y-88645051D01*
X156805692Y-88661768D01*
X156741100Y-88675270D01*
X156647902Y-88685843D01*
X156524499Y-88693775D01*
X156455769Y-88696666D01*
X156354896Y-88700906D01*
X156259646Y-88705920D01*
X156177154Y-88711256D01*
X156114555Y-88716464D01*
X156084057Y-88720158D01*
X156037439Y-88725580D01*
X156006144Y-88725104D01*
X155999416Y-88722284D01*
X155981496Y-88718494D01*
X155937610Y-88716076D01*
X155874399Y-88715235D01*
X155800158Y-88716138D01*
X155662222Y-88718873D01*
X155541035Y-88720030D01*
X155426172Y-88719507D01*
X155307213Y-88717195D01*
X155173734Y-88712992D01*
X155060971Y-88708660D01*
X154957737Y-88705516D01*
X154856533Y-88704264D01*
X154765742Y-88704877D01*
X154693751Y-88707331D01*
X154661292Y-88709870D01*
X154596219Y-88716648D01*
X154537863Y-88721899D01*
X154500872Y-88724377D01*
X154471878Y-88728790D01*
X154474920Y-88738648D01*
X154476135Y-88739424D01*
X154481251Y-88752340D01*
X154457278Y-88768994D01*
X154438737Y-88777310D01*
X154393015Y-88804934D01*
X154372251Y-88842310D01*
X154371163Y-88847361D01*
X154368141Y-88876378D01*
X154376363Y-88896807D01*
X154401677Y-88913750D01*
X154449934Y-88932311D01*
X154479990Y-88942322D01*
X154531196Y-88962194D01*
X154571657Y-88983344D01*
X154584053Y-88992767D01*
X154613957Y-89008748D01*
X154632241Y-89007969D01*
X154664545Y-89006301D01*
X154674619Y-89010279D01*
X154701899Y-89018988D01*
X154746402Y-89026270D01*
X154758793Y-89027531D01*
X154817557Y-89039420D01*
X154878161Y-89061285D01*
X154888081Y-89066097D01*
X154932155Y-89085333D01*
X154956590Y-89086088D01*
X154963816Y-89079320D01*
X154978159Y-89073248D01*
X154994782Y-89095061D01*
X155014639Y-89118228D01*
X155029880Y-89120328D01*
X155053836Y-89121116D01*
X155085585Y-89136185D01*
X155132094Y-89155602D01*
X155174591Y-89162061D01*
X155209206Y-89166412D01*
X155224094Y-89176912D01*
X155224105Y-89177240D01*
X155237973Y-89191087D01*
X155260723Y-89197632D01*
X155296280Y-89217882D01*
X155325193Y-89259942D01*
X155342939Y-89293267D01*
X155351440Y-89298737D01*
X155353829Y-89280846D01*
X155360807Y-89254742D01*
X155380712Y-89254668D01*
X155420459Y-89279799D01*
X155457962Y-89318629D01*
X155483241Y-89359530D01*
X155488387Y-89380113D01*
X155494033Y-89415500D01*
X155506605Y-89453716D01*
X155522122Y-89486536D01*
X155536598Y-89505740D01*
X155546051Y-89503105D01*
X155546739Y-89500565D01*
X155560085Y-89475359D01*
X155576027Y-89476903D01*
X155583001Y-89501887D01*
X155596203Y-89530828D01*
X155624152Y-89553780D01*
X155662544Y-89592285D01*
X155687414Y-89650339D01*
X155707728Y-89701602D01*
X155729599Y-89722108D01*
X155735986Y-89722609D01*
X155758302Y-89733720D01*
X155762448Y-89751157D01*
X155773151Y-89776595D01*
X155786918Y-89781971D01*
X155807310Y-89768545D01*
X155811389Y-89752063D01*
X155817405Y-89717599D01*
X155832461Y-89713582D01*
X155852069Y-89740770D01*
X155853951Y-89744881D01*
X155867889Y-89773979D01*
X155873650Y-89774584D01*
X155875317Y-89753285D01*
X155879689Y-89727826D01*
X155896172Y-89729171D01*
X155909269Y-89736817D01*
X155942525Y-89749030D01*
X155974523Y-89736817D01*
X155998964Y-89725176D01*
X156006723Y-89737161D01*
X156007150Y-89749206D01*
X156000344Y-89775790D01*
X155990836Y-89781971D01*
X155974997Y-89794385D01*
X155974523Y-89798285D01*
X155987840Y-89812506D01*
X156000553Y-89814598D01*
X156029478Y-89823739D01*
X156069715Y-89845750D01*
X156108441Y-89872517D01*
X156132836Y-89895924D01*
X156134938Y-89899654D01*
X156153602Y-89910365D01*
X156171643Y-89912479D01*
X156197338Y-89922914D01*
X156202911Y-89936638D01*
X156216634Y-89956398D01*
X156247515Y-89971880D01*
X156280121Y-89977274D01*
X156295972Y-89971676D01*
X156314950Y-89971849D01*
X156327727Y-89979779D01*
X156341856Y-90009587D01*
X156339328Y-90061517D01*
X156338143Y-90107080D01*
X156345144Y-90161934D01*
X156357954Y-90217232D01*
X156374195Y-90264128D01*
X156391488Y-90293774D01*
X156403287Y-90299464D01*
X156417440Y-90311492D01*
X156431860Y-90346047D01*
X156436857Y-90365176D01*
X156451949Y-90412603D01*
X156471668Y-90432826D01*
X156481818Y-90434508D01*
X156506237Y-90446902D01*
X156521179Y-90486860D01*
X156521934Y-90490727D01*
X156536541Y-90531841D01*
X156557951Y-90553644D01*
X156559378Y-90554088D01*
X156576762Y-90560081D01*
X156562256Y-90562808D01*
X156557728Y-90563123D01*
X156535585Y-90572206D01*
X156530755Y-90598667D01*
X156542700Y-90647483D01*
X156547207Y-90660803D01*
X156557020Y-90703767D01*
X156548264Y-90732593D01*
X156544636Y-90737339D01*
X156532634Y-90763352D01*
X156542921Y-90781044D01*
X156560674Y-90808473D01*
X156550903Y-90824118D01*
X156537336Y-90826030D01*
X156515708Y-90839089D01*
X156512866Y-90850501D01*
X156521510Y-90872212D01*
X156528868Y-90874971D01*
X156544331Y-90888813D01*
X156555107Y-90915754D01*
X156567703Y-90946293D01*
X156579888Y-90956538D01*
X156588895Y-90971040D01*
X156594000Y-91007379D01*
X156594433Y-91023607D01*
X156594433Y-91090676D01*
X156533258Y-91081877D01*
X156501723Y-91078207D01*
X156495399Y-91079473D01*
X156500631Y-91081258D01*
X156517511Y-91092772D01*
X156526285Y-91120034D01*
X156529129Y-91170743D01*
X156529179Y-91182210D01*
X156532051Y-91241797D01*
X156543206Y-91281841D01*
X156566455Y-91315118D01*
X156569963Y-91318966D01*
X156599112Y-91366570D01*
X156610472Y-91420833D01*
X156605645Y-91473753D01*
X156586235Y-91517326D01*
X156553849Y-91543548D01*
X156524200Y-91547282D01*
X156489723Y-91550156D01*
X156480239Y-91567674D01*
X156493024Y-91589696D01*
X156504709Y-91592761D01*
X156526337Y-91605820D01*
X156529179Y-91617231D01*
X156537988Y-91638941D01*
X156545493Y-91641702D01*
X156559230Y-91653964D01*
X156560636Y-91680185D01*
X156550640Y-91704514D01*
X156541414Y-91711100D01*
X156530118Y-91722272D01*
X156543709Y-91745441D01*
X156544028Y-91745828D01*
X156570122Y-91765005D01*
X156586722Y-91766138D01*
X156603782Y-91775415D01*
X156621590Y-91811235D01*
X156626591Y-91826571D01*
X156642370Y-91877510D01*
X156656646Y-91920081D01*
X156659604Y-91928123D01*
X156664534Y-91961086D01*
X156664886Y-92014479D01*
X156660898Y-92073175D01*
X156655701Y-92132831D01*
X156656251Y-92167628D01*
X156663609Y-92184996D01*
X156677864Y-92192119D01*
X156706386Y-92210227D01*
X156718296Y-92237604D01*
X156708568Y-92261409D01*
X156705750Y-92263390D01*
X156696080Y-92279025D01*
X156711333Y-92304416D01*
X156715581Y-92309223D01*
X156731538Y-92333480D01*
X156740347Y-92367658D01*
X156743464Y-92420226D01*
X156743106Y-92469275D01*
X156737758Y-92585662D01*
X156726801Y-92671725D01*
X156709724Y-92729366D01*
X156686018Y-92760489D01*
X156663191Y-92767578D01*
X156646889Y-92772325D01*
X156653115Y-92779813D01*
X156664922Y-92801689D01*
X156675898Y-92844876D01*
X156681054Y-92878787D01*
X156685389Y-92931472D01*
X156680889Y-92964313D01*
X156664394Y-92989594D01*
X156648538Y-93005216D01*
X156605982Y-93044656D01*
X153680105Y-93044656D01*
X153304788Y-93044616D01*
X152960900Y-93044489D01*
X152647240Y-93044267D01*
X152362610Y-93043942D01*
X152105810Y-93043505D01*
X151875642Y-93042948D01*
X151670906Y-93042263D01*
X151490404Y-93041442D01*
X151332937Y-93040475D01*
X151197305Y-93039355D01*
X151082309Y-93038073D01*
X150986751Y-93036622D01*
X150909431Y-93034991D01*
X150849150Y-93033174D01*
X150804710Y-93031162D01*
X150774911Y-93028946D01*
X150758554Y-93026519D01*
X150754324Y-93024264D01*
X150756669Y-93000034D01*
X150762887Y-92951794D01*
X150771883Y-92887782D01*
X150777610Y-92848895D01*
X150800322Y-92609687D01*
X150794944Y-92379677D01*
X150793505Y-92363571D01*
X150782922Y-92298405D01*
X150766535Y-92265282D01*
X150744582Y-92264257D01*
X150717299Y-92295389D01*
X150693548Y-92339734D01*
X150678723Y-92377384D01*
X150666237Y-92424747D01*
X150655167Y-92487245D01*
X150644590Y-92570301D01*
X150633584Y-92679337D01*
X150631027Y-92707194D01*
X150623012Y-92802327D01*
X150616999Y-92887076D01*
X150613304Y-92955736D01*
X150612240Y-93002604D01*
X150613706Y-93021228D01*
X150612630Y-93029291D01*
X150599826Y-93035313D01*
X150571497Y-93039575D01*
X150523842Y-93042354D01*
X150453062Y-93043932D01*
X150355359Y-93044587D01*
X150295194Y-93044656D01*
X150184082Y-93044485D01*
X150101592Y-93043732D01*
X150043721Y-93042034D01*
X150006464Y-93039030D01*
X149985818Y-93034358D01*
X149977778Y-93027656D01*
X149978341Y-93018563D01*
X149979262Y-93016108D01*
X149986770Y-92985145D01*
X149994465Y-92933898D01*
X149999554Y-92885600D01*
X150006120Y-92832800D01*
X150014616Y-92795955D01*
X150022357Y-92783641D01*
X150033138Y-92769730D01*
X150036437Y-92744850D01*
X150042699Y-92702944D01*
X150057892Y-92654027D01*
X150059097Y-92651048D01*
X150074437Y-92602110D01*
X150088057Y-92539274D01*
X150093132Y-92506313D01*
X150110337Y-92402812D01*
X150135739Y-92290316D01*
X150166084Y-92181321D01*
X150198122Y-92088324D01*
X150208277Y-92063811D01*
X150229754Y-92011037D01*
X150244352Y-91967916D01*
X150248511Y-91947664D01*
X150254388Y-91912894D01*
X150270046Y-91856947D01*
X150292528Y-91788684D01*
X150318878Y-91716965D01*
X150346138Y-91650650D01*
X150351990Y-91637609D01*
X150374023Y-91582378D01*
X150399580Y-91507560D01*
X150424636Y-91425307D01*
X150436363Y-91382757D01*
X150460399Y-91299941D01*
X150488240Y-91216667D01*
X150515438Y-91145814D01*
X150527501Y-91118874D01*
X150551621Y-91067099D01*
X150568657Y-91026753D01*
X150574780Y-91007216D01*
X150585930Y-90986186D01*
X150599250Y-90972851D01*
X150620097Y-90942680D01*
X150623720Y-90925616D01*
X150631014Y-90901035D01*
X150650815Y-90854705D01*
X150680002Y-90793516D01*
X150711496Y-90731852D01*
X150745100Y-90666477D01*
X150771018Y-90613123D01*
X150786616Y-90577430D01*
X150789433Y-90565016D01*
X150793489Y-90557218D01*
X150815851Y-90539621D01*
X150842834Y-90514652D01*
X150852108Y-90496043D01*
X150862141Y-90470122D01*
X150875797Y-90451685D01*
X150893867Y-90425515D01*
X150921253Y-90378654D01*
X150954372Y-90318080D01*
X150989638Y-90250771D01*
X151023467Y-90183704D01*
X151052273Y-90123858D01*
X151072472Y-90078210D01*
X151080480Y-90053737D01*
X151080496Y-90053244D01*
X151086766Y-90026118D01*
X151102753Y-89981876D01*
X151114409Y-89954153D01*
X151137113Y-89869096D01*
X151141244Y-89762342D01*
X151127149Y-89638775D01*
X151095172Y-89503279D01*
X151078789Y-89450832D01*
X151056821Y-89379944D01*
X151039688Y-89315380D01*
X151029860Y-89266903D01*
X151028457Y-89251785D01*
X151032966Y-89192653D01*
X151045364Y-89138732D01*
X151062638Y-89101333D01*
X151070692Y-89093227D01*
X151079379Y-89074129D01*
X151067708Y-89047701D01*
X151055642Y-89014896D01*
X151057994Y-88995743D01*
X151059256Y-88985285D01*
X151050390Y-88989213D01*
X151033660Y-88989230D01*
X151031556Y-88981810D01*
X151019746Y-88958812D01*
X150988824Y-88922308D01*
X150945547Y-88878671D01*
X150920338Y-88855771D01*
X152316040Y-88855771D01*
X152318928Y-88861011D01*
X152349881Y-88877454D01*
X152352943Y-88878985D01*
X152398156Y-88900109D01*
X152435265Y-88915093D01*
X152439559Y-88916497D01*
X152475428Y-88921913D01*
X152528248Y-88923974D01*
X152586395Y-88922959D01*
X152638247Y-88919148D01*
X152672181Y-88912819D01*
X152676626Y-88910801D01*
X152694630Y-88885376D01*
X152685279Y-88855363D01*
X152658820Y-88833925D01*
X152627656Y-88814585D01*
X152613875Y-88802148D01*
X152595303Y-88800092D01*
X152559468Y-88810511D01*
X152548622Y-88815046D01*
X152498651Y-88831285D01*
X152452464Y-88837231D01*
X152448363Y-88837031D01*
X152412367Y-88840415D01*
X152394344Y-88851106D01*
X152372196Y-88861003D01*
X152339708Y-88859516D01*
X152316040Y-88855771D01*
X150920338Y-88855771D01*
X150896674Y-88834274D01*
X150848961Y-88795491D01*
X150839227Y-88788937D01*
X152669766Y-88788937D01*
X152675065Y-88804839D01*
X152690412Y-88812967D01*
X152727401Y-88825732D01*
X152767322Y-88840322D01*
X152797549Y-88853460D01*
X152799616Y-88862506D01*
X152783635Y-88870273D01*
X152768994Y-88878641D01*
X152783109Y-88882657D01*
X152804475Y-88883586D01*
X152849375Y-88876627D01*
X152881964Y-88859098D01*
X152898770Y-88835994D01*
X152889812Y-88815919D01*
X152884294Y-88810157D01*
X152852834Y-88794318D01*
X152807373Y-88786924D01*
X152802727Y-88786853D01*
X152764522Y-88783207D01*
X152745086Y-88774220D01*
X152744465Y-88772066D01*
X152732371Y-88764094D01*
X152705800Y-88767695D01*
X152679321Y-88779579D01*
X152669766Y-88788937D01*
X150839227Y-88788937D01*
X150809167Y-88768696D01*
X150801267Y-88764626D01*
X150754129Y-88746493D01*
X150691546Y-88727300D01*
X150648190Y-88716217D01*
X150586063Y-88698614D01*
X150529482Y-88677141D01*
X150501369Y-88662753D01*
X150452321Y-88627392D01*
X150399896Y-88582641D01*
X150350431Y-88534856D01*
X150310261Y-88490394D01*
X150285723Y-88455610D01*
X150281138Y-88441841D01*
X150280485Y-88439421D01*
X154712262Y-88439421D01*
X154734703Y-88441695D01*
X154757862Y-88439131D01*
X154755094Y-88433467D01*
X154721695Y-88431312D01*
X154714311Y-88433467D01*
X154712262Y-88439421D01*
X150280485Y-88439421D01*
X150275125Y-88419552D01*
X155051280Y-88419552D01*
X155052814Y-88427957D01*
X155073670Y-88443648D01*
X155078247Y-88444271D01*
X155087797Y-88436302D01*
X155151834Y-88436302D01*
X155169465Y-88438871D01*
X155199635Y-88439605D01*
X155238323Y-88438568D01*
X155252464Y-88435660D01*
X155244721Y-88432787D01*
X155199967Y-88429850D01*
X155163154Y-88432564D01*
X155151834Y-88436302D01*
X155087797Y-88436302D01*
X155093159Y-88431828D01*
X155093598Y-88427957D01*
X155080319Y-88413640D01*
X155068165Y-88411644D01*
X155051280Y-88419552D01*
X150275125Y-88419552D01*
X150274348Y-88416673D01*
X150266021Y-88411644D01*
X150251750Y-88397982D01*
X150230029Y-88362510D01*
X150210075Y-88322464D01*
X150185137Y-88270832D01*
X150162978Y-88229771D01*
X150151553Y-88212349D01*
X150110203Y-88155534D01*
X150064492Y-88080144D01*
X150021535Y-87998143D01*
X150011567Y-87976936D01*
X149988325Y-87922080D01*
X149978399Y-87881563D01*
X149979762Y-87840933D01*
X149986987Y-87801628D01*
X150029937Y-87670127D01*
X150100344Y-87555860D01*
X150152757Y-87498092D01*
X150193201Y-87454993D01*
X150222884Y-87416273D01*
X150234324Y-87393363D01*
X150255445Y-87360115D01*
X150299415Y-87330259D01*
X150356476Y-87308251D01*
X150416866Y-87298546D01*
X150440603Y-87299185D01*
X150482806Y-87306421D01*
X150507158Y-87316814D01*
X150509526Y-87320993D01*
X150519475Y-87322250D01*
X150543586Y-87304481D01*
X150545229Y-87302967D01*
X150581097Y-87275071D01*
X150599386Y-87274503D01*
X150599961Y-87301249D01*
X150598347Y-87308277D01*
X150598324Y-87342303D01*
X150618117Y-87358151D01*
X150644773Y-87360027D01*
X150653317Y-87352205D01*
X150672142Y-87338458D01*
X150694860Y-87334958D01*
X150737416Y-87325679D01*
X150762833Y-87312799D01*
X150795790Y-87299282D01*
X150848685Y-87286685D01*
X150898491Y-87279190D01*
X150982789Y-87267276D01*
X151038517Y-87252552D01*
X151069708Y-87233368D01*
X151080398Y-87208076D01*
X151080496Y-87204854D01*
X151087253Y-87178127D01*
X151096809Y-87171824D01*
X151111282Y-87185037D01*
X151113123Y-87196294D01*
X151121931Y-87218003D01*
X151129436Y-87220764D01*
X151142636Y-87207083D01*
X151145750Y-87187733D01*
X151160697Y-87155250D01*
X151186826Y-87139086D01*
X151224203Y-87112045D01*
X151243519Y-87082392D01*
X151260570Y-87052006D01*
X151275853Y-87041316D01*
X151290597Y-87028074D01*
X151292570Y-87016334D01*
X151302067Y-86998341D01*
X153049108Y-86998341D01*
X153053236Y-87053538D01*
X153063295Y-87092309D01*
X153077719Y-87106570D01*
X153096705Y-87100516D01*
X153107766Y-87095824D01*
X154493512Y-87095824D01*
X154501635Y-87114270D01*
X154515637Y-87129875D01*
X154560067Y-87153013D01*
X154613925Y-87149047D01*
X154635996Y-87139639D01*
X154658711Y-87113804D01*
X154675320Y-87071421D01*
X154676664Y-87065070D01*
X154686457Y-87019299D01*
X154695753Y-86985449D01*
X154696621Y-86983061D01*
X154692866Y-86963312D01*
X154677583Y-86959749D01*
X154658031Y-86952126D01*
X154658530Y-86924292D01*
X154659366Y-86920832D01*
X154657705Y-86893152D01*
X154739087Y-86893152D01*
X154742178Y-86915955D01*
X154750762Y-86916512D01*
X154771353Y-86893293D01*
X154778991Y-86883781D01*
X154783067Y-86878182D01*
X154865210Y-86878182D01*
X154872042Y-86904691D01*
X154881523Y-86910809D01*
X154894778Y-86897146D01*
X154897837Y-86878182D01*
X154891005Y-86851673D01*
X154881523Y-86845555D01*
X154868269Y-86859218D01*
X154865210Y-86878182D01*
X154783067Y-86878182D01*
X154803530Y-86850073D01*
X154815852Y-86827189D01*
X154816189Y-86825163D01*
X154805863Y-86813959D01*
X154777662Y-86825513D01*
X154764049Y-86835054D01*
X154742811Y-86867263D01*
X154739087Y-86893152D01*
X154657705Y-86893152D01*
X154656852Y-86878933D01*
X154629360Y-86852903D01*
X154585057Y-86848381D01*
X154563080Y-86856749D01*
X154546099Y-86879143D01*
X154529972Y-86922599D01*
X154519505Y-86959749D01*
X154502272Y-87026261D01*
X154493666Y-87069054D01*
X154493512Y-87095824D01*
X153107766Y-87095824D01*
X153127063Y-87087638D01*
X153156446Y-87066846D01*
X153167614Y-87033089D01*
X153168523Y-87010149D01*
X153163729Y-86952943D01*
X153152208Y-86893271D01*
X153151167Y-86889419D01*
X153136212Y-86848557D01*
X153117698Y-86832608D01*
X153098240Y-86832322D01*
X153077606Y-86839604D01*
X153064831Y-86859335D01*
X153056397Y-86899330D01*
X153052117Y-86934809D01*
X153049108Y-86998341D01*
X151302067Y-86998341D01*
X151306035Y-86990822D01*
X151321119Y-86982178D01*
X151389857Y-86957812D01*
X151428554Y-86938312D01*
X151439391Y-86924090D01*
X151451283Y-86904293D01*
X151480087Y-86875320D01*
X151515496Y-86845983D01*
X151547203Y-86825095D01*
X151560866Y-86820226D01*
X151582138Y-86809253D01*
X151616021Y-86782512D01*
X151632799Y-86767208D01*
X151670326Y-86735838D01*
X151701466Y-86717243D01*
X151710288Y-86715048D01*
X151726337Y-86713054D01*
X151734479Y-86700690D01*
X151739454Y-86668383D01*
X151741095Y-86652817D01*
X151748995Y-86632102D01*
X152005995Y-86632102D01*
X152006062Y-86659541D01*
X152019218Y-86666173D01*
X152032792Y-86653094D01*
X152032670Y-86629435D01*
X152027861Y-86619088D01*
X152015697Y-86610627D01*
X152005995Y-86632102D01*
X151748995Y-86632102D01*
X151757334Y-86610234D01*
X151791781Y-86566086D01*
X151835065Y-86529236D01*
X151877811Y-86508543D01*
X151895386Y-86506951D01*
X151926821Y-86504279D01*
X151937113Y-86482610D01*
X151937441Y-86475294D01*
X151942693Y-86441460D01*
X151949676Y-86427713D01*
X151958116Y-86432601D01*
X151961421Y-86459471D01*
X151964700Y-86487676D01*
X151980766Y-86500045D01*
X152018964Y-86502956D01*
X152025147Y-86502973D01*
X152066870Y-86505791D01*
X152083710Y-86516626D01*
X152084585Y-86531522D01*
X152084004Y-86546174D01*
X152087309Y-86539678D01*
X152106855Y-86524794D01*
X152144455Y-86516893D01*
X152146143Y-86516802D01*
X152188717Y-86514500D01*
X152217262Y-86512518D01*
X152241984Y-86500890D01*
X152274338Y-86475460D01*
X152274359Y-86475440D01*
X152308344Y-86448699D01*
X152335585Y-86434863D01*
X152359699Y-86420946D01*
X152396318Y-86391050D01*
X152437854Y-86352548D01*
X152476717Y-86312817D01*
X152505318Y-86279229D01*
X152516077Y-86259472D01*
X152529189Y-86243747D01*
X152539448Y-86241959D01*
X152562904Y-86228403D01*
X152572854Y-86210340D01*
X152594266Y-86184593D01*
X152634363Y-86162012D01*
X152643026Y-86158874D01*
X152679362Y-86145364D01*
X152687734Y-86136048D01*
X152671713Y-86126747D01*
X152670795Y-86126386D01*
X152648429Y-86116535D01*
X152657446Y-86113259D01*
X152673135Y-86112598D01*
X152704824Y-86103672D01*
X152730051Y-86084841D01*
X152738614Y-86064900D01*
X152735413Y-86058897D01*
X152744433Y-86051636D01*
X152777251Y-86043086D01*
X152800808Y-86039006D01*
X152844772Y-86029413D01*
X152871363Y-86017822D01*
X152874972Y-86012571D01*
X152888602Y-86000002D01*
X152906636Y-85997257D01*
X152937866Y-85989766D01*
X152948383Y-85980944D01*
X152969259Y-85971537D01*
X153011322Y-85965643D01*
X153040235Y-85964630D01*
X153102426Y-85959052D01*
X153142509Y-85943580D01*
X153146474Y-85940160D01*
X153180671Y-85921719D01*
X153216680Y-85915690D01*
X153268712Y-85912260D01*
X153310725Y-85906028D01*
X153359749Y-85906505D01*
G37*
%TO.C,SW1*%
D13*
X120515000Y-80515000D02*
X134485000Y-80515000D01*
X120515000Y-94485000D02*
X120515000Y-80515000D01*
X134485000Y-80515000D02*
X134485000Y-94485000D01*
X134485000Y-94485000D02*
X120515000Y-94485000D01*
%TO.C,SW2*%
X129435000Y-104515000D02*
X143405000Y-104515000D01*
X129435000Y-118485000D02*
X129435000Y-104515000D01*
X143405000Y-104515000D02*
X143405000Y-118485000D01*
X143405000Y-118485000D02*
X129435000Y-118485000D01*
%TO.C,U2*%
D14*
X167655000Y-96889000D02*
X167655000Y-79744000D01*
X169560000Y-98794000D02*
X183530000Y-98794000D01*
X172050000Y-77839000D02*
X172053728Y-76828728D01*
X172553728Y-76329000D02*
X180549000Y-76329000D01*
X181049000Y-76829000D02*
X181049000Y-77839000D01*
D15*
X183530000Y-77839000D02*
X169560000Y-77839000D01*
D14*
X183530000Y-77839000D02*
X169560000Y-77839000D01*
X185435000Y-96889000D02*
X185435000Y-79744000D01*
X167655000Y-79744000D02*
G75*
G02*
X169560000Y-77839000I1905000J0D01*
G01*
X169560000Y-98794000D02*
G75*
G02*
X167655000Y-96889000I1J1905001D01*
G01*
X172053728Y-76828728D02*
G75*
G02*
X172553728Y-76329028I499972J-272D01*
G01*
X180549000Y-76329000D02*
G75*
G02*
X181049000Y-76829000I0J-500000D01*
G01*
X183530000Y-77839000D02*
G75*
G02*
X185435000Y-79744000I0J-1905000D01*
G01*
X185435000Y-96889000D02*
G75*
G02*
X183530000Y-98794000I-1905001J1D01*
G01*
D16*
X167847000Y-78080000D02*
G75*
G02*
X167343000Y-78080000I-252000J0D01*
G01*
X167343000Y-78080000D02*
G75*
G02*
X167847000Y-78080000I252000J0D01*
G01*
X168990000Y-78960000D02*
G75*
G02*
X168486000Y-78960000I-252000J0D01*
G01*
X168486000Y-78960000D02*
G75*
G02*
X168990000Y-78960000I252000J0D01*
G01*
D12*
%TO.C,G\u002A\u002A\u002A*%
G36*
X160085470Y-86002721D02*
G01*
X160094939Y-86007035D01*
X160114017Y-86023495D01*
X160124784Y-86049058D01*
X160127545Y-86077492D01*
X160128586Y-86090361D01*
X160132270Y-86105025D01*
X160139438Y-86123523D01*
X160150931Y-86147894D01*
X160167588Y-86180175D01*
X160177723Y-86199188D01*
X160195104Y-86231851D01*
X160210847Y-86261947D01*
X160223744Y-86287128D01*
X160232588Y-86305047D01*
X160235597Y-86311702D01*
X160241239Y-86324963D01*
X160250764Y-86346654D01*
X160262798Y-86373670D01*
X160274845Y-86400424D01*
X160293316Y-86441306D01*
X160307313Y-86472592D01*
X160317619Y-86496222D01*
X160325013Y-86514134D01*
X160330277Y-86528267D01*
X160334192Y-86540560D01*
X160337539Y-86552952D01*
X160339556Y-86561059D01*
X160347677Y-86591962D01*
X160356498Y-86619971D01*
X160367710Y-86650027D01*
X160381038Y-86682435D01*
X160390928Y-86706359D01*
X160399666Y-86728351D01*
X160404997Y-86742640D01*
X160424511Y-86795655D01*
X160448816Y-86856164D01*
X160476422Y-86920649D01*
X160505841Y-86985594D01*
X160524575Y-87025037D01*
X160578485Y-87136327D01*
X160633442Y-87144011D01*
X160668803Y-87149393D01*
X160712584Y-87156719D01*
X160760814Y-87165261D01*
X160809520Y-87174297D01*
X160854733Y-87183101D01*
X160892481Y-87190949D01*
X160900699Y-87192770D01*
X160925706Y-87197890D01*
X160957909Y-87203762D01*
X160991942Y-87209429D01*
X161006851Y-87211720D01*
X161043907Y-87217745D01*
X161070630Y-87223707D01*
X161089316Y-87230619D01*
X161102260Y-87239491D01*
X161111759Y-87251336D01*
X161116676Y-87260128D01*
X161126981Y-87290463D01*
X161125297Y-87317092D01*
X161111753Y-87339544D01*
X161091154Y-87354915D01*
X161071982Y-87366037D01*
X161049519Y-87379856D01*
X161040120Y-87385878D01*
X161018244Y-87399641D01*
X160996070Y-87412848D01*
X160988046Y-87417372D01*
X160972779Y-87426545D01*
X160950672Y-87440830D01*
X160925188Y-87457957D01*
X160908830Y-87469275D01*
X160880990Y-87488171D01*
X160852288Y-87506649D01*
X160827096Y-87521933D01*
X160816508Y-87527873D01*
X160796905Y-87538730D01*
X160786295Y-87546618D01*
X160782413Y-87554390D01*
X160782995Y-87564901D01*
X160783729Y-87569173D01*
X160787595Y-87581435D01*
X160796111Y-87602974D01*
X160808368Y-87631674D01*
X160823460Y-87665422D01*
X160840479Y-87702101D01*
X160843555Y-87708594D01*
X160881575Y-87789404D01*
X160914397Y-87860850D01*
X160941760Y-87922356D01*
X160963403Y-87973344D01*
X160965477Y-87978418D01*
X160975725Y-88003552D01*
X160986396Y-88029649D01*
X160990074Y-88038623D01*
X160998343Y-88062150D01*
X161004735Y-88086159D01*
X161005952Y-88092490D01*
X161010730Y-88113349D01*
X161017024Y-88131552D01*
X161018023Y-88133683D01*
X161024956Y-88151326D01*
X161030584Y-88171598D01*
X161030607Y-88171707D01*
X161035387Y-88186625D01*
X161044569Y-88209295D01*
X161056683Y-88236240D01*
X161066170Y-88255882D01*
X161079811Y-88285276D01*
X161091657Y-88314460D01*
X161100102Y-88339286D01*
X161102976Y-88350942D01*
X161111089Y-88385960D01*
X161124095Y-88429511D01*
X161141057Y-88478872D01*
X161161039Y-88531321D01*
X161183105Y-88584134D01*
X161183471Y-88584971D01*
X161198458Y-88625750D01*
X161204182Y-88659115D01*
X161200767Y-88686169D01*
X161196046Y-88697007D01*
X161179355Y-88715612D01*
X161156350Y-88727106D01*
X161142786Y-88729167D01*
X161127412Y-88726622D01*
X161110643Y-88720067D01*
X161096961Y-88711726D01*
X161090847Y-88703826D01*
X161090818Y-88703358D01*
X161086157Y-88694489D01*
X161073700Y-88680108D01*
X161055736Y-88662380D01*
X161034553Y-88643468D01*
X161012441Y-88625539D01*
X161002077Y-88618030D01*
X160995758Y-88613451D01*
X160968279Y-88594889D01*
X160947688Y-88581092D01*
X160930391Y-88569702D01*
X160912793Y-88558360D01*
X160891297Y-88544708D01*
X160881687Y-88538631D01*
X160858523Y-88523521D01*
X160838238Y-88509446D01*
X160824223Y-88498788D01*
X160821482Y-88496359D01*
X160805504Y-88483632D01*
X160792964Y-88475902D01*
X160776884Y-88466191D01*
X160759280Y-88453739D01*
X160758109Y-88452832D01*
X160740777Y-88439492D01*
X160724689Y-88427399D01*
X160723930Y-88426840D01*
X160707182Y-88413556D01*
X160695106Y-88403001D01*
X160681129Y-88391018D01*
X160662353Y-88376905D01*
X160636302Y-88358845D01*
X160621856Y-88349152D01*
X160595030Y-88331138D01*
X160575941Y-88317835D01*
X160561691Y-88307051D01*
X160549386Y-88296597D01*
X160536302Y-88284446D01*
X160516565Y-88266522D01*
X160496133Y-88249323D01*
X160477611Y-88234892D01*
X160463603Y-88225273D01*
X160457208Y-88222405D01*
X160450457Y-88218859D01*
X160436137Y-88209421D01*
X160416754Y-88195892D01*
X160394814Y-88180073D01*
X160372820Y-88163765D01*
X160353279Y-88148768D01*
X160341187Y-88139002D01*
X160327943Y-88127299D01*
X160309404Y-88110185D01*
X160289316Y-88091125D01*
X160286984Y-88088876D01*
X160268392Y-88072068D01*
X160242558Y-88050284D01*
X160212496Y-88025991D01*
X160181221Y-88001658D01*
X160171571Y-87994358D01*
X160139522Y-87969870D01*
X160106713Y-87944066D01*
X160076516Y-87919643D01*
X160052300Y-87899297D01*
X160047380Y-87894991D01*
X160026900Y-87877598D01*
X160026268Y-87877111D01*
X160009273Y-87864006D01*
X159997031Y-87856101D01*
X159993513Y-87854860D01*
X159984071Y-87857605D01*
X159966828Y-87864854D01*
X159945173Y-87875159D01*
X159940594Y-87877468D01*
X159912418Y-87891122D01*
X159882150Y-87904722D01*
X159857784Y-87914752D01*
X159811756Y-87933932D01*
X159775764Y-87952724D01*
X159747296Y-87972498D01*
X159739162Y-87979439D01*
X159721722Y-87993821D01*
X159698439Y-88011374D01*
X159674159Y-88028455D01*
X159672621Y-88029490D01*
X159649604Y-88044951D01*
X159628160Y-88059410D01*
X159612489Y-88070036D01*
X159611053Y-88071017D01*
X159591346Y-88083468D01*
X159562519Y-88100298D01*
X159526813Y-88120268D01*
X159486469Y-88142139D01*
X159443729Y-88164671D01*
X159437825Y-88167709D01*
X159414596Y-88179660D01*
X159366446Y-88204036D01*
X159328043Y-88223006D01*
X159297905Y-88237041D01*
X159274552Y-88246614D01*
X159256500Y-88252198D01*
X159242269Y-88254265D01*
X159230378Y-88253287D01*
X159219345Y-88249738D01*
X159209552Y-88245061D01*
X159190699Y-88228718D01*
X159179719Y-88205230D01*
X159177404Y-88177962D01*
X159184545Y-88150283D01*
X159186383Y-88146492D01*
X159196333Y-88132494D01*
X159206979Y-88124493D01*
X159217502Y-88117175D01*
X159230187Y-88103469D01*
X159233982Y-88098422D01*
X159246639Y-88080727D01*
X159262615Y-88058572D01*
X159273835Y-88043103D01*
X159286780Y-88024275D01*
X159437825Y-88024275D01*
X159486771Y-87995009D01*
X159533029Y-87967035D01*
X159569940Y-87943937D01*
X159599286Y-87924527D01*
X159622850Y-87907615D01*
X159642415Y-87892014D01*
X159646484Y-87888532D01*
X159673432Y-87866861D01*
X159701525Y-87848217D01*
X159734040Y-87830721D01*
X159774258Y-87812493D01*
X159776751Y-87811452D01*
X160143989Y-87811452D01*
X160149794Y-87816718D01*
X160164034Y-87828302D01*
X160185030Y-87844879D01*
X160211107Y-87865124D01*
X160237104Y-87885056D01*
X160279749Y-87916907D01*
X160318255Y-87943962D01*
X160355688Y-87968085D01*
X160395113Y-87991145D01*
X160439595Y-88015006D01*
X160492199Y-88041535D01*
X160502183Y-88046450D01*
X160537620Y-88064689D01*
X160562650Y-88080013D01*
X160578744Y-88093927D01*
X160587374Y-88107936D01*
X160590011Y-88123544D01*
X160589188Y-88135422D01*
X160592918Y-88149609D01*
X160605869Y-88168153D01*
X160626200Y-88189222D01*
X160652071Y-88210985D01*
X160681640Y-88231609D01*
X160692458Y-88238183D01*
X160714050Y-88251303D01*
X160732471Y-88263404D01*
X160743854Y-88271942D01*
X160744097Y-88272163D01*
X160776856Y-88301060D01*
X160810545Y-88328527D01*
X160842402Y-88352448D01*
X160869664Y-88370710D01*
X160882136Y-88377801D01*
X160900703Y-88389054D01*
X160916544Y-88401399D01*
X160917501Y-88402315D01*
X160930348Y-88412647D01*
X160949675Y-88425716D01*
X160966606Y-88435957D01*
X161002077Y-88456220D01*
X160992474Y-88437651D01*
X160985730Y-88419639D01*
X160980347Y-88396774D01*
X160979154Y-88388869D01*
X160974549Y-88369460D01*
X160965421Y-88343431D01*
X160953409Y-88315241D01*
X160947973Y-88303980D01*
X160934501Y-88275473D01*
X160922268Y-88246622D01*
X160913281Y-88222267D01*
X160911152Y-88215257D01*
X160904526Y-88192093D01*
X160898023Y-88170842D01*
X160895165Y-88162201D01*
X160889018Y-88143993D01*
X160881712Y-88121595D01*
X160879503Y-88114671D01*
X160870168Y-88086097D01*
X160861140Y-88060947D01*
X160850821Y-88035146D01*
X160837609Y-88004618D01*
X160826894Y-87980715D01*
X160815521Y-87955068D01*
X160806426Y-87933664D01*
X160800709Y-87919148D01*
X160799301Y-87914375D01*
X160796686Y-87907272D01*
X160789400Y-87890598D01*
X160778284Y-87866196D01*
X160764179Y-87835908D01*
X160747925Y-87801577D01*
X160746221Y-87798007D01*
X160728384Y-87760489D01*
X160717326Y-87737014D01*
X160711246Y-87724107D01*
X160696028Y-87691481D01*
X160683954Y-87665229D01*
X160676636Y-87648877D01*
X160667077Y-87629623D01*
X160658162Y-87616324D01*
X160652084Y-87611946D01*
X160643565Y-87614688D01*
X160625373Y-87621552D01*
X160599512Y-87631726D01*
X160567983Y-87644394D01*
X160532789Y-87658745D01*
X160495932Y-87673963D01*
X160459414Y-87689235D01*
X160425237Y-87703748D01*
X160409556Y-87710507D01*
X160382745Y-87721755D01*
X160356998Y-87731913D01*
X160336991Y-87739151D01*
X160333508Y-87740267D01*
X160314943Y-87746400D01*
X160289729Y-87755293D01*
X160263032Y-87765119D01*
X160260629Y-87766026D01*
X160231812Y-87776604D01*
X160201834Y-87787090D01*
X160177154Y-87795225D01*
X160177020Y-87795267D01*
X160158472Y-87801941D01*
X160146598Y-87807955D01*
X160143989Y-87811452D01*
X159776751Y-87811452D01*
X159792270Y-87804972D01*
X159820108Y-87793194D01*
X159845740Y-87781729D01*
X159865413Y-87772284D01*
X159872348Y-87768560D01*
X159892825Y-87756612D01*
X159777288Y-87641045D01*
X159746006Y-87609870D01*
X159717695Y-87581876D01*
X159693573Y-87558250D01*
X159674860Y-87540181D01*
X159662776Y-87528856D01*
X159658583Y-87525412D01*
X159652547Y-87530932D01*
X159643402Y-87546109D01*
X159632152Y-87568610D01*
X159619801Y-87596104D01*
X159614332Y-87609353D01*
X159607354Y-87626257D01*
X159595812Y-87656739D01*
X159586182Y-87685217D01*
X159579529Y-87709082D01*
X159572002Y-87735222D01*
X159561557Y-87764381D01*
X159554777Y-87780558D01*
X159546046Y-87801236D01*
X159540032Y-87818198D01*
X159538174Y-87826630D01*
X159535250Y-87836516D01*
X159527183Y-87855321D01*
X159515026Y-87880908D01*
X159499834Y-87911138D01*
X159482662Y-87943876D01*
X159464565Y-87976984D01*
X159459773Y-87985503D01*
X159437825Y-88024275D01*
X159286780Y-88024275D01*
X159290914Y-88018262D01*
X159310284Y-87987853D01*
X159330844Y-87953855D01*
X159351496Y-87918251D01*
X159371140Y-87883022D01*
X159388676Y-87850147D01*
X159403006Y-87821608D01*
X159413028Y-87799387D01*
X159417645Y-87785463D01*
X159417826Y-87783672D01*
X159420439Y-87773955D01*
X159427149Y-87756980D01*
X159434474Y-87740769D01*
X159445577Y-87714218D01*
X159455472Y-87685219D01*
X159459351Y-87671058D01*
X159483041Y-87593729D01*
X159518144Y-87512570D01*
X159531660Y-87486069D01*
X159564101Y-87424657D01*
X159549737Y-87416970D01*
X159540139Y-87409826D01*
X159530656Y-87401634D01*
X159716204Y-87401634D01*
X159787206Y-87471753D01*
X159817216Y-87501301D01*
X159852759Y-87536157D01*
X159890254Y-87572818D01*
X159926122Y-87607781D01*
X159942238Y-87623446D01*
X160026268Y-87705021D01*
X160059479Y-87695209D01*
X160084401Y-87688017D01*
X160113892Y-87679746D01*
X160133882Y-87674272D01*
X160163496Y-87665611D01*
X160198416Y-87654117D01*
X160239702Y-87639392D01*
X160288411Y-87621036D01*
X160345602Y-87598652D01*
X160412334Y-87571843D01*
X160482435Y-87543185D01*
X160515130Y-87529742D01*
X160544565Y-87517654D01*
X160568341Y-87507905D01*
X160584054Y-87501483D01*
X160588256Y-87499778D01*
X160602186Y-87494177D01*
X160586513Y-87454287D01*
X160575659Y-87427981D01*
X160562086Y-87396904D01*
X160548677Y-87367654D01*
X160548304Y-87366866D01*
X160534923Y-87338754D01*
X160521000Y-87309673D01*
X160509423Y-87285654D01*
X160508854Y-87284481D01*
X160504535Y-87275581D01*
X160648073Y-87275581D01*
X160649534Y-87281737D01*
X160655446Y-87296447D01*
X160664653Y-87316897D01*
X160667893Y-87323750D01*
X160680223Y-87350530D01*
X160691846Y-87377430D01*
X160700375Y-87398911D01*
X160700795Y-87400072D01*
X160708092Y-87418091D01*
X160714700Y-87430616D01*
X160717326Y-87433662D01*
X160726487Y-87432580D01*
X160744454Y-87424396D01*
X160770021Y-87409781D01*
X160801982Y-87389405D01*
X160824651Y-87374054D01*
X160852112Y-87354816D01*
X160870335Y-87341226D01*
X160880713Y-87332031D01*
X160884638Y-87325977D01*
X160883505Y-87321812D01*
X160883146Y-87321430D01*
X160875141Y-87318231D01*
X160857410Y-87313530D01*
X160832716Y-87308001D01*
X160808533Y-87303197D01*
X160759717Y-87294036D01*
X160721938Y-87287002D01*
X160693782Y-87281852D01*
X160673836Y-87278342D01*
X160660685Y-87276229D01*
X160652915Y-87275269D01*
X160649113Y-87275220D01*
X160648073Y-87275581D01*
X160504535Y-87275581D01*
X160491941Y-87249626D01*
X160447580Y-87247735D01*
X160426057Y-87246573D01*
X160417237Y-87246005D01*
X160395151Y-87244581D01*
X160358110Y-87241983D01*
X160318183Y-87239004D01*
X160292315Y-87236978D01*
X160247637Y-87233415D01*
X160195220Y-87229248D01*
X160139962Y-87224866D01*
X160086760Y-87220657D01*
X160054666Y-87218125D01*
X160010667Y-87214251D01*
X159966156Y-87209615D01*
X159924502Y-87204617D01*
X159889074Y-87199659D01*
X159865150Y-87195535D01*
X159838832Y-87190418D01*
X159817779Y-87186643D01*
X159804648Y-87184667D01*
X159801594Y-87184592D01*
X159784378Y-87222826D01*
X159765770Y-87267264D01*
X159748180Y-87312018D01*
X159737379Y-87341473D01*
X159716204Y-87401634D01*
X159530656Y-87401634D01*
X159523105Y-87395111D01*
X159500118Y-87374262D01*
X159472664Y-87348711D01*
X159442226Y-87319894D01*
X159410289Y-87289243D01*
X159378336Y-87258194D01*
X159347854Y-87228180D01*
X159320325Y-87200636D01*
X159297234Y-87176995D01*
X159280065Y-87158692D01*
X159270303Y-87147161D01*
X159269898Y-87146590D01*
X159254138Y-87127689D01*
X159236062Y-87110336D01*
X159411427Y-87110336D01*
X159415807Y-87114960D01*
X159428071Y-87127039D01*
X159446911Y-87145306D01*
X159471015Y-87168491D01*
X159499073Y-87195328D01*
X159512880Y-87208486D01*
X159614332Y-87305067D01*
X159620773Y-87286852D01*
X159626492Y-87272428D01*
X159635792Y-87250752D01*
X159646858Y-87226037D01*
X159649119Y-87221108D01*
X159659231Y-87198755D01*
X159666903Y-87181013D01*
X159670864Y-87170848D01*
X159671141Y-87169692D01*
X159665424Y-87166848D01*
X159650024Y-87162511D01*
X159627735Y-87157422D01*
X159615806Y-87155007D01*
X159584069Y-87148352D01*
X159550953Y-87140649D01*
X159522861Y-87133399D01*
X159519162Y-87132353D01*
X159496584Y-87126326D01*
X159471840Y-87120448D01*
X159447956Y-87115338D01*
X159427961Y-87111614D01*
X159414881Y-87109895D01*
X159411427Y-87110336D01*
X159236062Y-87110336D01*
X159234032Y-87108387D01*
X159225111Y-87101174D01*
X159198910Y-87076354D01*
X159186518Y-87052809D01*
X159846281Y-87052809D01*
X159850039Y-87060540D01*
X159860638Y-87065374D01*
X159878521Y-87069490D01*
X159888040Y-87071471D01*
X159909168Y-87075071D01*
X159940013Y-87079175D01*
X159977647Y-87083450D01*
X160019140Y-87087563D01*
X160061003Y-87091138D01*
X160104431Y-87094576D01*
X160147849Y-87098104D01*
X160188050Y-87101455D01*
X160221826Y-87104361D01*
X160244785Y-87106442D01*
X160291910Y-87110690D01*
X160334227Y-87114061D01*
X160370227Y-87116470D01*
X160398400Y-87117829D01*
X160417237Y-87118053D01*
X160425228Y-87117055D01*
X160425399Y-87116766D01*
X160422739Y-87109723D01*
X160415696Y-87094428D01*
X160405672Y-87073905D01*
X160403358Y-87069289D01*
X160390508Y-87042889D01*
X160378160Y-87016055D01*
X160369146Y-86994984D01*
X160360762Y-86973970D01*
X160349021Y-86944568D01*
X160335159Y-86909876D01*
X160320414Y-86872989D01*
X160306026Y-86837004D01*
X160293230Y-86805018D01*
X160283266Y-86780126D01*
X160279672Y-86771158D01*
X160262855Y-86729047D01*
X160250099Y-86696545D01*
X160240647Y-86671538D01*
X160233746Y-86651910D01*
X160228642Y-86635545D01*
X160224578Y-86620330D01*
X160222025Y-86609556D01*
X160218741Y-86597066D01*
X160213918Y-86582475D01*
X160206863Y-86564107D01*
X160196883Y-86540285D01*
X160183287Y-86509331D01*
X160165381Y-86469571D01*
X160152659Y-86441617D01*
X160140134Y-86413512D01*
X160129416Y-86388245D01*
X160121759Y-86368846D01*
X160118592Y-86359232D01*
X160113280Y-86345464D01*
X160103283Y-86325916D01*
X160093365Y-86309062D01*
X160071843Y-86274736D01*
X160061463Y-86321737D01*
X160055411Y-86350193D01*
X160049696Y-86378815D01*
X160045731Y-86400424D01*
X160037257Y-86443011D01*
X160025209Y-86493153D01*
X160010688Y-86546623D01*
X159994794Y-86599196D01*
X159990398Y-86612725D01*
X159980289Y-86644211D01*
X159970786Y-86675370D01*
X159963213Y-86701780D01*
X159959998Y-86714122D01*
X159944106Y-86777872D01*
X159930054Y-86829926D01*
X159917913Y-86870025D01*
X159907759Y-86897911D01*
X159906562Y-86900686D01*
X159898880Y-86919359D01*
X159893991Y-86933751D01*
X159893064Y-86938497D01*
X159890471Y-86947378D01*
X159883606Y-86964278D01*
X159873840Y-86985866D01*
X159871662Y-86990449D01*
X159857534Y-87019942D01*
X159848927Y-87040003D01*
X159846281Y-87052809D01*
X159186518Y-87052809D01*
X159185282Y-87050461D01*
X159184154Y-87023273D01*
X159192314Y-87000221D01*
X159202700Y-86985914D01*
X159217879Y-86976239D01*
X159240040Y-86970479D01*
X159271370Y-86967919D01*
X159292065Y-86967615D01*
X159332878Y-86969155D01*
X159377212Y-86974020D01*
X159427398Y-86982580D01*
X159485765Y-86995202D01*
X159522330Y-87004043D01*
X159563996Y-87014188D01*
X159604074Y-87023526D01*
X159640392Y-87031588D01*
X159670776Y-87037903D01*
X159693052Y-87042002D01*
X159704528Y-87043413D01*
X159713919Y-87040414D01*
X159715619Y-87036827D01*
X159718064Y-87028366D01*
X159724627Y-87011310D01*
X159734148Y-86988589D01*
X159740091Y-86975038D01*
X159772578Y-86897673D01*
X159798375Y-86825978D01*
X159818936Y-86755911D01*
X159819091Y-86755314D01*
X159827274Y-86723944D01*
X159835414Y-86692807D01*
X159842252Y-86666718D01*
X159844786Y-86657086D01*
X159851132Y-86634706D01*
X159860007Y-86605557D01*
X159869809Y-86574852D01*
X159872999Y-86565195D01*
X159879690Y-86544404D01*
X159886210Y-86522375D01*
X159892938Y-86497529D01*
X159900258Y-86468284D01*
X159908551Y-86433061D01*
X159918199Y-86390279D01*
X159929583Y-86338358D01*
X159943087Y-86275716D01*
X159944203Y-86270509D01*
X159956446Y-86215340D01*
X159967330Y-86170768D01*
X159977368Y-86134850D01*
X159987071Y-86105648D01*
X159988922Y-86100687D01*
X159993394Y-86083733D01*
X159994461Y-86073501D01*
X159998693Y-86054256D01*
X160009339Y-86032988D01*
X160023325Y-86014792D01*
X160035443Y-86005590D01*
X160061048Y-85998519D01*
X160085470Y-86002721D01*
G37*
%TO.C,U1*%
D13*
X146560000Y-68120000D02*
X158810000Y-68120000D01*
X146560000Y-73880000D02*
X146560000Y-68120000D01*
X158820000Y-68130000D02*
X158820000Y-73870000D01*
X158820000Y-73880000D02*
X146560000Y-73880000D01*
X159100000Y-67840000D02*
X157100000Y-67840000D01*
X159100000Y-67840000D02*
X159100000Y-69450000D01*
D12*
%TO.C,G\u002A\u002A\u002A*%
G36*
X158878852Y-80966034D02*
G01*
X158899271Y-80980211D01*
X158916634Y-81005852D01*
X158929322Y-81035351D01*
X158963428Y-81119023D01*
X159000932Y-81195746D01*
X159036723Y-81256710D01*
X159053270Y-81282631D01*
X159074881Y-81317086D01*
X159099183Y-81356262D01*
X159123805Y-81396347D01*
X159133361Y-81412028D01*
X159178066Y-81484369D01*
X159220994Y-81551501D01*
X159261469Y-81612494D01*
X159298814Y-81666417D01*
X159332352Y-81712341D01*
X159361406Y-81749335D01*
X159385299Y-81776470D01*
X159403355Y-81792813D01*
X159413853Y-81797532D01*
X159421368Y-81796772D01*
X159436529Y-81794417D01*
X159459942Y-81790349D01*
X159492209Y-81784453D01*
X159533933Y-81776614D01*
X159585720Y-81766715D01*
X159648171Y-81754639D01*
X159721891Y-81740272D01*
X159807484Y-81723498D01*
X159905552Y-81704200D01*
X160016700Y-81682262D01*
X160107475Y-81664311D01*
X160257550Y-81635559D01*
X160408236Y-81608651D01*
X160562153Y-81583177D01*
X160721918Y-81558722D01*
X160890151Y-81534874D01*
X161069471Y-81511222D01*
X161119799Y-81504857D01*
X161162557Y-81499332D01*
X161208621Y-81493118D01*
X161251380Y-81487118D01*
X161274721Y-81483692D01*
X161333207Y-81476288D01*
X161379469Y-81473831D01*
X161414891Y-81476529D01*
X161440860Y-81484589D01*
X161458760Y-81498221D01*
X161467944Y-81512706D01*
X161475971Y-81541825D01*
X161471161Y-81569623D01*
X161466285Y-81580316D01*
X161449759Y-81599839D01*
X161426414Y-81613509D01*
X161407473Y-81617390D01*
X161393049Y-81621501D01*
X161369414Y-81632876D01*
X161338842Y-81650080D01*
X161303612Y-81671677D01*
X161266000Y-81696232D01*
X161228282Y-81722307D01*
X161192734Y-81748467D01*
X161165752Y-81769843D01*
X161147891Y-81783913D01*
X161121298Y-81803972D01*
X161089047Y-81827740D01*
X161054210Y-81852940D01*
X161039652Y-81863328D01*
X161005754Y-81887967D01*
X160963922Y-81919243D01*
X160917390Y-81954685D01*
X160869392Y-81991824D01*
X160823165Y-82028190D01*
X160810028Y-82038657D01*
X160740288Y-82094025D01*
X160673697Y-82146011D01*
X160607853Y-82196409D01*
X160540351Y-82247016D01*
X160468791Y-82299629D01*
X160390767Y-82356041D01*
X160303878Y-82418051D01*
X160274560Y-82438837D01*
X160228820Y-82471506D01*
X160187189Y-82501788D01*
X160151053Y-82528629D01*
X160121799Y-82550978D01*
X160100814Y-82567782D01*
X160089484Y-82577991D01*
X160087875Y-82580442D01*
X160092888Y-82588437D01*
X160105765Y-82605328D01*
X160124920Y-82629134D01*
X160148765Y-82657871D01*
X160168646Y-82681321D01*
X160198774Y-82717491D01*
X160233508Y-82760751D01*
X160270996Y-82808649D01*
X160309385Y-82858735D01*
X160346824Y-82908555D01*
X160381458Y-82955660D01*
X160411435Y-82997597D01*
X160434903Y-83031915D01*
X160442539Y-83043730D01*
X160458248Y-83068440D01*
X160473847Y-83092612D01*
X160480341Y-83102519D01*
X160494251Y-83134186D01*
X160495128Y-83164470D01*
X160484312Y-83190924D01*
X160463140Y-83211103D01*
X160432954Y-83222558D01*
X160413716Y-83224255D01*
X160392551Y-83221603D01*
X160371054Y-83214925D01*
X160353827Y-83206138D01*
X160345470Y-83197159D01*
X160345262Y-83195733D01*
X160339317Y-83188571D01*
X160330812Y-83184612D01*
X160315695Y-83176955D01*
X160297629Y-83164217D01*
X160295220Y-83162236D01*
X160279951Y-83152394D01*
X160253611Y-83138590D01*
X160218640Y-83121885D01*
X160177473Y-83103339D01*
X160132549Y-83084012D01*
X160086306Y-83064966D01*
X160041180Y-83047260D01*
X159999611Y-83031956D01*
X159981375Y-83025688D01*
X159957767Y-83018173D01*
X159925049Y-83008271D01*
X159885409Y-82996595D01*
X159841032Y-82983758D01*
X159794103Y-82970374D01*
X159746809Y-82957057D01*
X159701336Y-82944420D01*
X159659868Y-82933076D01*
X159624593Y-82923639D01*
X159597695Y-82916724D01*
X159581360Y-82912942D01*
X159577858Y-82912419D01*
X159571464Y-82914683D01*
X159557914Y-82921920D01*
X159536460Y-82934594D01*
X159506354Y-82953169D01*
X159466848Y-82978110D01*
X159417193Y-83009883D01*
X159356642Y-83048952D01*
X159323912Y-83070156D01*
X159279768Y-83098784D01*
X159228337Y-83132132D01*
X159174425Y-83167085D01*
X159122839Y-83200525D01*
X159092450Y-83220222D01*
X158970820Y-83299054D01*
X158962694Y-83334261D01*
X158957751Y-83363719D01*
X158954869Y-83396453D01*
X158954567Y-83408210D01*
X158951181Y-83446850D01*
X158940526Y-83474381D01*
X158921859Y-83492548D01*
X158917494Y-83495008D01*
X158886459Y-83504336D01*
X158856094Y-83499394D01*
X158846062Y-83494673D01*
X158829159Y-83480422D01*
X158818648Y-83464937D01*
X158815830Y-83451976D01*
X158813078Y-83427217D01*
X158810485Y-83393273D01*
X158808142Y-83352757D01*
X158806142Y-83308282D01*
X158804575Y-83262462D01*
X158803533Y-83217909D01*
X158803109Y-83177237D01*
X158803394Y-83143059D01*
X158804479Y-83117988D01*
X158805800Y-83107871D01*
X158983537Y-83107871D01*
X158987148Y-83112043D01*
X158999241Y-83106935D01*
X159006808Y-83102199D01*
X159023299Y-83091629D01*
X159047961Y-83076134D01*
X159076668Y-83058301D01*
X159091354Y-83049250D01*
X159118361Y-83032368D01*
X159153828Y-83009780D01*
X159194218Y-82983763D01*
X159235991Y-82956592D01*
X159263001Y-82938868D01*
X159373520Y-82866048D01*
X159327972Y-82857346D01*
X159305689Y-82852799D01*
X159272768Y-82845707D01*
X159232602Y-82836820D01*
X159188582Y-82826885D01*
X159155239Y-82819234D01*
X159113784Y-82810025D01*
X159077815Y-82802723D01*
X159753635Y-82802723D01*
X159759715Y-82807068D01*
X159777331Y-82814143D01*
X159804060Y-82823100D01*
X159837476Y-82833091D01*
X159852431Y-82837259D01*
X159911910Y-82854145D01*
X159972082Y-82872406D01*
X160029997Y-82891064D01*
X160082701Y-82909137D01*
X160127243Y-82925647D01*
X160159872Y-82939249D01*
X160182992Y-82949800D01*
X160195527Y-82955137D01*
X160200051Y-82955920D01*
X160199141Y-82952806D01*
X160196638Y-82948638D01*
X160181836Y-82926450D01*
X160159204Y-82895967D01*
X160130598Y-82859561D01*
X160097878Y-82819605D01*
X160068243Y-82784652D01*
X160042431Y-82754632D01*
X160018226Y-82726361D01*
X159998091Y-82702722D01*
X159984489Y-82686601D01*
X159982973Y-82684780D01*
X159962954Y-82660623D01*
X159858957Y-82728070D01*
X159824800Y-82750575D01*
X159795202Y-82770747D01*
X159772166Y-82787165D01*
X159757696Y-82798411D01*
X159753635Y-82802723D01*
X159077815Y-82802723D01*
X159076682Y-82802493D01*
X159046405Y-82797082D01*
X159025427Y-82794239D01*
X159016530Y-82794246D01*
X159009515Y-82800981D01*
X159005895Y-82816293D01*
X159004918Y-82840327D01*
X159004166Y-82862769D01*
X159002162Y-82895627D01*
X158999185Y-82934988D01*
X158995514Y-82976938D01*
X158994258Y-82990071D01*
X158990543Y-83028574D01*
X158987378Y-83062363D01*
X158985018Y-83088661D01*
X158983713Y-83104689D01*
X158983537Y-83107871D01*
X158805800Y-83107871D01*
X158806041Y-83106021D01*
X158815118Y-83086231D01*
X158827519Y-83070520D01*
X158834153Y-83062990D01*
X158839164Y-83053148D01*
X158843081Y-83038476D01*
X158846432Y-83016460D01*
X158849743Y-82984581D01*
X158852706Y-82950440D01*
X158856202Y-82908790D01*
X158859655Y-82868228D01*
X158862710Y-82832873D01*
X158865014Y-82806843D01*
X158865389Y-82802723D01*
X158869369Y-82759489D01*
X158794876Y-82742654D01*
X158761081Y-82735209D01*
X158717747Y-82725944D01*
X158669471Y-82715829D01*
X158620853Y-82705831D01*
X158599146Y-82701439D01*
X158549462Y-82691059D01*
X158495604Y-82679162D01*
X158443014Y-82666988D01*
X158397135Y-82655779D01*
X158382976Y-82652132D01*
X158347046Y-82643198D01*
X158300646Y-82632411D01*
X158247473Y-82620589D01*
X158191219Y-82608546D01*
X158135578Y-82597101D01*
X158118709Y-82593737D01*
X158065706Y-82583163D01*
X158012452Y-82572363D01*
X157962221Y-82562013D01*
X157918291Y-82552792D01*
X157883936Y-82545377D01*
X157873716Y-82543092D01*
X157838971Y-82535797D01*
X157794767Y-82527393D01*
X157745919Y-82518748D01*
X157697243Y-82510733D01*
X157679163Y-82507938D01*
X157591756Y-82494611D01*
X157517662Y-82483067D01*
X157455914Y-82473145D01*
X157405546Y-82464688D01*
X157365590Y-82457533D01*
X157335081Y-82451523D01*
X157326085Y-82449577D01*
X157291893Y-82443770D01*
X157253640Y-82439914D01*
X157230252Y-82438987D01*
X157188681Y-82435891D01*
X157158854Y-82426490D01*
X157139273Y-82410178D01*
X157132934Y-82399407D01*
X157125299Y-82368016D01*
X157129419Y-82344870D01*
X157597846Y-82344870D01*
X157602575Y-82347594D01*
X157619316Y-82351776D01*
X157645799Y-82356955D01*
X157679754Y-82362668D01*
X157702328Y-82366097D01*
X157749116Y-82373409D01*
X157798924Y-82381983D01*
X157846311Y-82390833D01*
X157885835Y-82398979D01*
X157891730Y-82400302D01*
X157920812Y-82406741D01*
X157961102Y-82415371D01*
X158009673Y-82425582D01*
X158063595Y-82436760D01*
X158119942Y-82448294D01*
X158165464Y-82457501D01*
X158221652Y-82468996D01*
X158277798Y-82480843D01*
X158330969Y-82492396D01*
X158378233Y-82503010D01*
X158416657Y-82512041D01*
X158439280Y-82517750D01*
X158473940Y-82526472D01*
X158518317Y-82536872D01*
X158567965Y-82547950D01*
X158618442Y-82558705D01*
X158648326Y-82564798D01*
X158692969Y-82573822D01*
X158735670Y-82582657D01*
X158773222Y-82590623D01*
X158802417Y-82597041D01*
X158817659Y-82600620D01*
X158840252Y-82606158D01*
X158856940Y-82610023D01*
X158862695Y-82611160D01*
X158863895Y-82604353D01*
X158865003Y-82584685D01*
X158865987Y-82553706D01*
X158866819Y-82512966D01*
X158867467Y-82464016D01*
X158867611Y-82445544D01*
X159011867Y-82445544D01*
X159012008Y-82497474D01*
X159012310Y-82543924D01*
X159012781Y-82583086D01*
X159013426Y-82613152D01*
X159014255Y-82632314D01*
X159015152Y-82638731D01*
X159022979Y-82641265D01*
X159042985Y-82646383D01*
X159073254Y-82653659D01*
X159111871Y-82662670D01*
X159156921Y-82672989D01*
X159206488Y-82684192D01*
X159258657Y-82695853D01*
X159311513Y-82707548D01*
X159363141Y-82718850D01*
X159411626Y-82729336D01*
X159455051Y-82738580D01*
X159491503Y-82746156D01*
X159519065Y-82751640D01*
X159535823Y-82754607D01*
X159538843Y-82754977D01*
X159548863Y-82751581D01*
X159568295Y-82741642D01*
X159594547Y-82726593D01*
X159625029Y-82707870D01*
X159632517Y-82703098D01*
X159672215Y-82677569D01*
X159716392Y-82649081D01*
X159759163Y-82621433D01*
X159789159Y-82601986D01*
X159863553Y-82553662D01*
X159818071Y-82501653D01*
X159797662Y-82478911D01*
X159769906Y-82448821D01*
X159737553Y-82414319D01*
X159703350Y-82378343D01*
X159678340Y-82352369D01*
X159643223Y-82315556D01*
X159606767Y-82276358D01*
X159572116Y-82238222D01*
X159542416Y-82204596D01*
X159527129Y-82186638D01*
X159497900Y-82151844D01*
X159465040Y-82113250D01*
X159433383Y-82076511D01*
X159415928Y-82056518D01*
X159392558Y-82029714D01*
X159371385Y-82005007D01*
X159355050Y-81985503D01*
X159347276Y-81975782D01*
X159332865Y-81956712D01*
X159178452Y-81988640D01*
X159132999Y-81998074D01*
X159092257Y-82006597D01*
X159058359Y-82013758D01*
X159033438Y-82019106D01*
X159019627Y-82022187D01*
X159017671Y-82022691D01*
X159016611Y-82029962D01*
X159015638Y-82049836D01*
X159014759Y-82080505D01*
X159013982Y-82120160D01*
X159013313Y-82166993D01*
X159012762Y-82219197D01*
X159012334Y-82274962D01*
X159012037Y-82332480D01*
X159011879Y-82389944D01*
X159011867Y-82445544D01*
X158867611Y-82445544D01*
X158867902Y-82408405D01*
X158868093Y-82347684D01*
X158868099Y-82334354D01*
X158868005Y-82272722D01*
X158867738Y-82215848D01*
X158867319Y-82165285D01*
X158866768Y-82122589D01*
X158866107Y-82089315D01*
X158865357Y-82067017D01*
X158864538Y-82057249D01*
X158864360Y-82056936D01*
X158856400Y-82058444D01*
X158836877Y-82062607D01*
X158808281Y-82068880D01*
X158773102Y-82076721D01*
X158750870Y-82081724D01*
X158702125Y-82092418D01*
X158645488Y-82104343D01*
X158587254Y-82116202D01*
X158533717Y-82126697D01*
X158522227Y-82128876D01*
X158480330Y-82137039D01*
X158426254Y-82148022D01*
X158361868Y-82161426D01*
X158289039Y-82176847D01*
X158209634Y-82193885D01*
X158125522Y-82212137D01*
X158038570Y-82231202D01*
X157950646Y-82250678D01*
X157863618Y-82270164D01*
X157830482Y-82277643D01*
X157780469Y-82289426D01*
X157732353Y-82301623D01*
X157688327Y-82313600D01*
X157650586Y-82324722D01*
X157621322Y-82334357D01*
X157602731Y-82341869D01*
X157597846Y-82344870D01*
X157129419Y-82344870D01*
X157130394Y-82339394D01*
X157146544Y-82316000D01*
X157172070Y-82300292D01*
X157204347Y-82294723D01*
X157220417Y-82292524D01*
X157246318Y-82286562D01*
X157278262Y-82277789D01*
X157307385Y-82268817D01*
X157348355Y-82256391D01*
X157393209Y-82244140D01*
X157435194Y-82233856D01*
X157455787Y-82229455D01*
X157493812Y-82220866D01*
X157538135Y-82209170D01*
X157581564Y-82196319D01*
X157599900Y-82190340D01*
X157622405Y-82183587D01*
X157657356Y-82174251D01*
X157703094Y-82162705D01*
X157757963Y-82149329D01*
X157820303Y-82134497D01*
X157888457Y-82118587D01*
X157960767Y-82101974D01*
X158035575Y-82085036D01*
X158111222Y-82068149D01*
X158186052Y-82051690D01*
X158258405Y-82036035D01*
X158326625Y-82021560D01*
X158389052Y-82008643D01*
X158444029Y-81997659D01*
X158471787Y-81992335D01*
X158520833Y-81982829D01*
X158578325Y-81971240D01*
X158638670Y-81958721D01*
X158696270Y-81946427D01*
X158725572Y-81939996D01*
X158770589Y-81929891D01*
X159497004Y-81929891D01*
X159577062Y-82024012D01*
X159612169Y-82064504D01*
X159652557Y-82109843D01*
X159693802Y-82155132D01*
X159731479Y-82195473D01*
X159740221Y-82204627D01*
X159776780Y-82243159D01*
X159817946Y-82287321D01*
X159859110Y-82332124D01*
X159895664Y-82372583D01*
X159901727Y-82379390D01*
X159928214Y-82408923D01*
X159951400Y-82434236D01*
X159969606Y-82453537D01*
X159981151Y-82465036D01*
X159984357Y-82467483D01*
X159990944Y-82463390D01*
X160007981Y-82451779D01*
X160034207Y-82433537D01*
X160068365Y-82409548D01*
X160109194Y-82380698D01*
X160155437Y-82347872D01*
X160205833Y-82311956D01*
X160226368Y-82297283D01*
X160306733Y-82239641D01*
X160377496Y-82188447D01*
X160440935Y-82141984D01*
X160499326Y-82098537D01*
X160554944Y-82056390D01*
X160610066Y-82013828D01*
X160666967Y-81969136D01*
X160727924Y-81920597D01*
X160755985Y-81898087D01*
X160797697Y-81865103D01*
X160843809Y-81829528D01*
X160889929Y-81794696D01*
X160931665Y-81763940D01*
X160950539Y-81750409D01*
X160983828Y-81726707D01*
X161014603Y-81704511D01*
X161040148Y-81685802D01*
X161057744Y-81672560D01*
X161062094Y-81669119D01*
X161083578Y-81651540D01*
X161062094Y-81656047D01*
X161048462Y-81658331D01*
X161023107Y-81662046D01*
X160988607Y-81666834D01*
X160947537Y-81672340D01*
X160902476Y-81678206D01*
X160896496Y-81678972D01*
X160839709Y-81686561D01*
X160774665Y-81695792D01*
X160707299Y-81705790D01*
X160643544Y-81715680D01*
X160604666Y-81722000D01*
X160556413Y-81730001D01*
X160509477Y-81737716D01*
X160467008Y-81744631D01*
X160432160Y-81750233D01*
X160408081Y-81754010D01*
X160406510Y-81754249D01*
X160387048Y-81757516D01*
X160355601Y-81763184D01*
X160314319Y-81770848D01*
X160265353Y-81780104D01*
X160210854Y-81790546D01*
X160152971Y-81801769D01*
X160121886Y-81807850D01*
X160053236Y-81821313D01*
X159978066Y-81836036D01*
X159900480Y-81851217D01*
X159824581Y-81866053D01*
X159754471Y-81879742D01*
X159694253Y-81891482D01*
X159692353Y-81891852D01*
X159497004Y-81929891D01*
X158770589Y-81929891D01*
X158772349Y-81929496D01*
X158806825Y-81921379D01*
X158830795Y-81915037D01*
X158846054Y-81909861D01*
X158854398Y-81905240D01*
X158857623Y-81900565D01*
X158857523Y-81895228D01*
X158857519Y-81895207D01*
X158856074Y-81882616D01*
X158854247Y-81858892D01*
X158852261Y-81827299D01*
X158850338Y-81791102D01*
X158850128Y-81786723D01*
X158847887Y-81748043D01*
X158845048Y-81711486D01*
X158841971Y-81681111D01*
X158839016Y-81660976D01*
X158838944Y-81660624D01*
X158836026Y-81642461D01*
X158832306Y-81613172D01*
X158828152Y-81575991D01*
X158823934Y-81534155D01*
X158821354Y-81506247D01*
X158816875Y-81460023D01*
X158811717Y-81413401D01*
X158811474Y-81411451D01*
X158957437Y-81411451D01*
X158958686Y-81430882D01*
X158961031Y-81458825D01*
X158964178Y-81492379D01*
X158967832Y-81528644D01*
X158971697Y-81564719D01*
X158975479Y-81597704D01*
X158978882Y-81624699D01*
X158981611Y-81642803D01*
X158982286Y-81646213D01*
X158985383Y-81665660D01*
X158988664Y-81695646D01*
X158991767Y-81732307D01*
X158994327Y-81771780D01*
X158994643Y-81777716D01*
X158996794Y-81813614D01*
X158999175Y-81843717D01*
X159001535Y-81865427D01*
X159003624Y-81876142D01*
X159004178Y-81876825D01*
X159012395Y-81875449D01*
X159032242Y-81871627D01*
X159061240Y-81865850D01*
X159096910Y-81858610D01*
X159122099Y-81853434D01*
X159160357Y-81845277D01*
X159193111Y-81837795D01*
X159218000Y-81831568D01*
X159232661Y-81827176D01*
X159235588Y-81825571D01*
X159231424Y-81817869D01*
X159220799Y-81803138D01*
X159212914Y-81793118D01*
X159198870Y-81774434D01*
X159178708Y-81745801D01*
X159153935Y-81709502D01*
X159126061Y-81667817D01*
X159096591Y-81623025D01*
X159067035Y-81577409D01*
X159038900Y-81533249D01*
X159013694Y-81492826D01*
X159005197Y-81478920D01*
X158987453Y-81449900D01*
X158972656Y-81426123D01*
X158962246Y-81409875D01*
X158957666Y-81403443D01*
X158957581Y-81403431D01*
X158957437Y-81411451D01*
X158811474Y-81411451D01*
X158806390Y-81370588D01*
X158801402Y-81335793D01*
X158799154Y-81322502D01*
X158793971Y-81287768D01*
X158789648Y-81246243D01*
X158786275Y-81200739D01*
X158783945Y-81154067D01*
X158782749Y-81109040D01*
X158782777Y-81068468D01*
X158784121Y-81035165D01*
X158786872Y-81011940D01*
X158788851Y-81004872D01*
X158804971Y-80982646D01*
X158829363Y-80966956D01*
X158853688Y-80961674D01*
X158878852Y-80966034D01*
G37*
%TO.C,J1*%
D13*
X137608000Y-74354000D02*
X137608000Y-101532000D01*
X137608000Y-74354000D02*
X165040000Y-74354000D01*
X146184000Y-98805000D02*
X146184000Y-101465000D01*
X153864000Y-98805000D02*
X146184000Y-98805000D01*
X153864000Y-98805000D02*
X153864000Y-101465000D01*
X153864000Y-101465000D02*
X146184000Y-101465000D01*
X155134000Y-98805000D02*
X156464000Y-98805000D01*
X156464000Y-98805000D02*
X156464000Y-100135000D01*
X165040000Y-74354000D02*
X164913000Y-101532000D01*
X165040000Y-79434000D02*
X137608000Y-79434000D01*
X165040000Y-96325000D02*
X137608000Y-96325000D01*
X165040000Y-101532000D02*
X137608000Y-101532000D01*
D12*
%TO.C,G\u002A\u002A\u002A*%
G36*
X148049717Y-81184545D02*
G01*
X148053508Y-81186383D01*
X148067506Y-81196333D01*
X148075507Y-81206979D01*
X148082825Y-81217502D01*
X148096531Y-81230187D01*
X148101578Y-81233982D01*
X148119273Y-81246639D01*
X148141428Y-81262615D01*
X148156897Y-81273835D01*
X148181738Y-81290914D01*
X148212147Y-81310284D01*
X148246145Y-81330844D01*
X148281749Y-81351496D01*
X148316978Y-81371140D01*
X148349853Y-81388676D01*
X148378392Y-81403006D01*
X148400613Y-81413028D01*
X148414537Y-81417645D01*
X148416328Y-81417826D01*
X148426045Y-81420439D01*
X148443020Y-81427149D01*
X148459231Y-81434474D01*
X148485782Y-81445577D01*
X148514781Y-81455472D01*
X148528942Y-81459351D01*
X148606271Y-81483041D01*
X148687430Y-81518144D01*
X148713931Y-81531660D01*
X148775343Y-81564101D01*
X148783030Y-81549737D01*
X148790174Y-81540139D01*
X148804889Y-81523105D01*
X148825738Y-81500118D01*
X148851289Y-81472664D01*
X148880106Y-81442226D01*
X148910757Y-81410289D01*
X148941806Y-81378336D01*
X148971820Y-81347854D01*
X148999364Y-81320325D01*
X149023005Y-81297234D01*
X149041308Y-81280065D01*
X149052839Y-81270303D01*
X149053410Y-81269898D01*
X149072311Y-81254138D01*
X149091613Y-81234032D01*
X149098826Y-81225111D01*
X149123646Y-81198910D01*
X149149539Y-81185282D01*
X149176727Y-81184154D01*
X149199779Y-81192314D01*
X149214086Y-81202700D01*
X149223761Y-81217879D01*
X149229521Y-81240040D01*
X149232081Y-81271370D01*
X149232385Y-81292065D01*
X149230845Y-81332878D01*
X149225980Y-81377212D01*
X149217420Y-81427398D01*
X149204798Y-81485765D01*
X149195957Y-81522330D01*
X149185812Y-81563996D01*
X149176474Y-81604074D01*
X149168412Y-81640392D01*
X149162097Y-81670776D01*
X149157998Y-81693052D01*
X149156587Y-81704528D01*
X149159586Y-81713919D01*
X149163173Y-81715619D01*
X149171634Y-81718064D01*
X149188690Y-81724627D01*
X149211411Y-81734148D01*
X149224962Y-81740091D01*
X149302327Y-81772578D01*
X149374022Y-81798375D01*
X149444089Y-81818936D01*
X149444686Y-81819091D01*
X149476056Y-81827274D01*
X149507193Y-81835414D01*
X149533282Y-81842252D01*
X149542914Y-81844786D01*
X149565294Y-81851132D01*
X149594443Y-81860007D01*
X149625148Y-81869809D01*
X149634805Y-81872999D01*
X149655596Y-81879690D01*
X149677625Y-81886210D01*
X149702471Y-81892938D01*
X149731716Y-81900258D01*
X149766939Y-81908551D01*
X149809721Y-81918199D01*
X149861642Y-81929583D01*
X149924284Y-81943087D01*
X149929491Y-81944203D01*
X149984660Y-81956446D01*
X150029232Y-81967330D01*
X150065150Y-81977368D01*
X150094352Y-81987071D01*
X150099313Y-81988922D01*
X150116267Y-81993394D01*
X150126499Y-81994461D01*
X150145744Y-81998693D01*
X150167012Y-82009339D01*
X150185208Y-82023325D01*
X150194410Y-82035443D01*
X150201481Y-82061048D01*
X150197279Y-82085470D01*
X150192965Y-82094939D01*
X150176505Y-82114017D01*
X150150942Y-82124784D01*
X150122508Y-82127545D01*
X150109639Y-82128586D01*
X150094975Y-82132270D01*
X150076477Y-82139438D01*
X150052106Y-82150931D01*
X150019825Y-82167588D01*
X150000812Y-82177723D01*
X149968149Y-82195104D01*
X149938053Y-82210847D01*
X149912872Y-82223744D01*
X149894953Y-82232588D01*
X149888298Y-82235597D01*
X149875037Y-82241239D01*
X149853346Y-82250764D01*
X149826330Y-82262798D01*
X149799576Y-82274845D01*
X149758694Y-82293316D01*
X149727408Y-82307313D01*
X149703778Y-82317619D01*
X149685866Y-82325013D01*
X149671733Y-82330277D01*
X149659440Y-82334192D01*
X149647048Y-82337539D01*
X149638941Y-82339556D01*
X149608038Y-82347677D01*
X149580029Y-82356498D01*
X149549973Y-82367710D01*
X149517565Y-82381038D01*
X149493641Y-82390928D01*
X149471649Y-82399666D01*
X149457360Y-82404997D01*
X149404345Y-82424511D01*
X149343836Y-82448816D01*
X149279351Y-82476422D01*
X149214406Y-82505841D01*
X149174963Y-82524575D01*
X149063673Y-82578485D01*
X149055989Y-82633442D01*
X149050607Y-82668803D01*
X149043281Y-82712584D01*
X149034739Y-82760814D01*
X149025703Y-82809520D01*
X149016899Y-82854733D01*
X149009051Y-82892481D01*
X149007230Y-82900699D01*
X149002110Y-82925706D01*
X148996238Y-82957909D01*
X148990571Y-82991942D01*
X148988280Y-83006851D01*
X148982255Y-83043907D01*
X148976293Y-83070630D01*
X148969381Y-83089316D01*
X148960509Y-83102260D01*
X148948664Y-83111759D01*
X148939872Y-83116676D01*
X148909537Y-83126981D01*
X148882908Y-83125297D01*
X148860456Y-83111753D01*
X148845085Y-83091154D01*
X148833963Y-83071982D01*
X148820144Y-83049519D01*
X148814122Y-83040120D01*
X148800359Y-83018244D01*
X148787152Y-82996070D01*
X148782628Y-82988046D01*
X148773455Y-82972779D01*
X148759170Y-82950672D01*
X148742043Y-82925188D01*
X148730725Y-82908830D01*
X148711829Y-82880990D01*
X148693351Y-82852288D01*
X148678067Y-82827096D01*
X148672127Y-82816508D01*
X148661270Y-82796905D01*
X148653382Y-82786295D01*
X148645610Y-82782413D01*
X148635099Y-82782995D01*
X148630827Y-82783729D01*
X148618565Y-82787595D01*
X148597026Y-82796111D01*
X148568326Y-82808368D01*
X148534578Y-82823460D01*
X148497899Y-82840479D01*
X148491406Y-82843555D01*
X148410596Y-82881575D01*
X148339150Y-82914397D01*
X148277644Y-82941760D01*
X148226656Y-82963403D01*
X148221582Y-82965477D01*
X148196448Y-82975725D01*
X148170351Y-82986396D01*
X148161377Y-82990074D01*
X148137850Y-82998343D01*
X148113841Y-83004735D01*
X148107510Y-83005952D01*
X148086651Y-83010730D01*
X148068448Y-83017024D01*
X148066317Y-83018023D01*
X148048674Y-83024956D01*
X148028402Y-83030584D01*
X148028293Y-83030607D01*
X148013375Y-83035387D01*
X147990705Y-83044569D01*
X147963760Y-83056683D01*
X147944118Y-83066170D01*
X147914724Y-83079811D01*
X147885540Y-83091657D01*
X147860714Y-83100102D01*
X147849058Y-83102976D01*
X147814040Y-83111089D01*
X147770489Y-83124095D01*
X147721128Y-83141057D01*
X147668679Y-83161039D01*
X147615866Y-83183105D01*
X147615029Y-83183471D01*
X147574250Y-83198458D01*
X147540885Y-83204182D01*
X147513831Y-83200767D01*
X147502993Y-83196046D01*
X147484388Y-83179355D01*
X147472894Y-83156350D01*
X147470833Y-83142786D01*
X147473378Y-83127412D01*
X147479933Y-83110643D01*
X147488274Y-83096961D01*
X147496174Y-83090847D01*
X147496642Y-83090818D01*
X147505511Y-83086157D01*
X147519892Y-83073700D01*
X147537620Y-83055736D01*
X147556532Y-83034553D01*
X147574461Y-83012441D01*
X147581970Y-83002077D01*
X147743780Y-83002077D01*
X147762349Y-82992474D01*
X147780361Y-82985730D01*
X147803226Y-82980347D01*
X147811131Y-82979154D01*
X147830540Y-82974549D01*
X147856569Y-82965421D01*
X147884759Y-82953409D01*
X147896020Y-82947973D01*
X147924527Y-82934501D01*
X147953378Y-82922268D01*
X147977733Y-82913281D01*
X147984743Y-82911152D01*
X148007907Y-82904526D01*
X148029158Y-82898023D01*
X148037799Y-82895165D01*
X148056007Y-82889018D01*
X148078405Y-82881712D01*
X148085329Y-82879503D01*
X148113903Y-82870168D01*
X148139053Y-82861140D01*
X148164854Y-82850821D01*
X148195382Y-82837609D01*
X148219285Y-82826894D01*
X148244932Y-82815521D01*
X148266336Y-82806426D01*
X148280852Y-82800709D01*
X148285625Y-82799301D01*
X148292728Y-82796686D01*
X148309402Y-82789400D01*
X148333804Y-82778284D01*
X148364092Y-82764179D01*
X148398423Y-82747925D01*
X148401993Y-82746221D01*
X148439511Y-82728384D01*
X148462986Y-82717326D01*
X148766338Y-82717326D01*
X148767420Y-82726487D01*
X148775604Y-82744454D01*
X148790219Y-82770021D01*
X148810595Y-82801982D01*
X148825946Y-82824651D01*
X148845184Y-82852112D01*
X148858774Y-82870335D01*
X148867969Y-82880713D01*
X148874023Y-82884638D01*
X148878188Y-82883505D01*
X148878570Y-82883146D01*
X148881769Y-82875141D01*
X148886470Y-82857410D01*
X148891999Y-82832716D01*
X148896803Y-82808533D01*
X148905964Y-82759717D01*
X148912998Y-82721938D01*
X148918148Y-82693782D01*
X148921658Y-82673836D01*
X148923771Y-82660685D01*
X148924731Y-82652915D01*
X148924780Y-82649113D01*
X148924419Y-82648073D01*
X148918263Y-82649534D01*
X148903553Y-82655446D01*
X148883103Y-82664653D01*
X148876250Y-82667893D01*
X148849470Y-82680223D01*
X148822570Y-82691846D01*
X148801089Y-82700375D01*
X148799928Y-82700795D01*
X148781909Y-82708092D01*
X148769384Y-82714700D01*
X148766338Y-82717326D01*
X148462986Y-82717326D01*
X148475893Y-82711246D01*
X148508519Y-82696028D01*
X148534771Y-82683954D01*
X148551123Y-82676636D01*
X148570377Y-82667077D01*
X148583676Y-82658162D01*
X148588054Y-82652084D01*
X148585312Y-82643565D01*
X148578448Y-82625373D01*
X148568274Y-82599512D01*
X148555606Y-82567983D01*
X148541255Y-82532789D01*
X148526037Y-82495932D01*
X148510765Y-82459414D01*
X148496252Y-82425237D01*
X148489493Y-82409556D01*
X148478245Y-82382745D01*
X148468087Y-82356998D01*
X148460849Y-82336991D01*
X148459733Y-82333508D01*
X148453600Y-82314943D01*
X148444707Y-82289729D01*
X148434881Y-82263032D01*
X148433974Y-82260629D01*
X148423396Y-82231812D01*
X148412910Y-82201834D01*
X148404775Y-82177154D01*
X148404733Y-82177020D01*
X148398059Y-82158472D01*
X148392045Y-82146598D01*
X148388548Y-82143989D01*
X148383282Y-82149794D01*
X148371698Y-82164034D01*
X148355121Y-82185030D01*
X148334876Y-82211107D01*
X148314944Y-82237104D01*
X148283093Y-82279749D01*
X148256038Y-82318255D01*
X148231915Y-82355688D01*
X148208855Y-82395113D01*
X148184994Y-82439595D01*
X148158465Y-82492199D01*
X148153550Y-82502183D01*
X148135311Y-82537620D01*
X148119987Y-82562650D01*
X148106073Y-82578744D01*
X148092064Y-82587374D01*
X148076456Y-82590011D01*
X148064578Y-82589188D01*
X148050391Y-82592918D01*
X148031847Y-82605869D01*
X148010778Y-82626200D01*
X147989015Y-82652071D01*
X147968391Y-82681640D01*
X147961817Y-82692458D01*
X147948697Y-82714050D01*
X147936596Y-82732471D01*
X147928058Y-82743854D01*
X147927837Y-82744097D01*
X147898940Y-82776856D01*
X147871473Y-82810545D01*
X147847552Y-82842402D01*
X147829290Y-82869664D01*
X147822199Y-82882136D01*
X147810946Y-82900703D01*
X147798601Y-82916544D01*
X147797685Y-82917501D01*
X147787353Y-82930348D01*
X147774284Y-82949675D01*
X147764043Y-82966606D01*
X147743780Y-83002077D01*
X147581970Y-83002077D01*
X147586549Y-82995758D01*
X147605111Y-82968279D01*
X147618908Y-82947688D01*
X147630298Y-82930391D01*
X147641640Y-82912793D01*
X147655292Y-82891297D01*
X147661369Y-82881687D01*
X147676479Y-82858523D01*
X147690554Y-82838238D01*
X147701212Y-82824223D01*
X147703641Y-82821482D01*
X147716368Y-82805504D01*
X147724098Y-82792964D01*
X147733809Y-82776884D01*
X147746261Y-82759280D01*
X147747168Y-82758109D01*
X147760508Y-82740777D01*
X147772601Y-82724689D01*
X147773160Y-82723930D01*
X147786444Y-82707182D01*
X147796999Y-82695106D01*
X147808982Y-82681129D01*
X147823095Y-82662353D01*
X147841155Y-82636302D01*
X147850848Y-82621856D01*
X147868862Y-82595030D01*
X147882165Y-82575941D01*
X147892949Y-82561691D01*
X147903403Y-82549386D01*
X147915554Y-82536302D01*
X147933478Y-82516565D01*
X147950677Y-82496133D01*
X147965108Y-82477611D01*
X147974727Y-82463603D01*
X147977595Y-82457208D01*
X147981141Y-82450457D01*
X147990579Y-82436137D01*
X148004108Y-82416754D01*
X148019927Y-82394814D01*
X148036235Y-82372820D01*
X148051232Y-82353279D01*
X148060998Y-82341187D01*
X148072701Y-82327943D01*
X148089815Y-82309404D01*
X148108875Y-82289316D01*
X148111124Y-82286984D01*
X148127932Y-82268392D01*
X148149716Y-82242558D01*
X148174009Y-82212496D01*
X148198342Y-82181221D01*
X148205642Y-82171571D01*
X148230130Y-82139522D01*
X148255934Y-82106713D01*
X148280357Y-82076516D01*
X148300703Y-82052300D01*
X148305009Y-82047380D01*
X148322402Y-82026900D01*
X148322889Y-82026268D01*
X148494979Y-82026268D01*
X148504791Y-82059479D01*
X148511983Y-82084401D01*
X148520254Y-82113892D01*
X148525728Y-82133882D01*
X148534389Y-82163496D01*
X148545883Y-82198416D01*
X148560608Y-82239702D01*
X148578964Y-82288411D01*
X148601348Y-82345602D01*
X148628157Y-82412334D01*
X148656815Y-82482435D01*
X148670258Y-82515130D01*
X148682346Y-82544565D01*
X148692095Y-82568341D01*
X148698517Y-82584054D01*
X148700222Y-82588256D01*
X148705823Y-82602186D01*
X148745713Y-82586513D01*
X148772019Y-82575659D01*
X148803096Y-82562086D01*
X148832346Y-82548677D01*
X148833134Y-82548304D01*
X148861246Y-82534923D01*
X148890327Y-82521000D01*
X148914346Y-82509423D01*
X148915519Y-82508854D01*
X148950374Y-82491941D01*
X148952265Y-82447580D01*
X148953427Y-82426057D01*
X148953995Y-82417237D01*
X149081947Y-82417237D01*
X149082945Y-82425228D01*
X149083234Y-82425399D01*
X149090277Y-82422739D01*
X149105572Y-82415696D01*
X149126095Y-82405672D01*
X149130711Y-82403358D01*
X149157111Y-82390508D01*
X149183945Y-82378160D01*
X149205016Y-82369146D01*
X149226030Y-82360762D01*
X149255432Y-82349021D01*
X149290124Y-82335159D01*
X149327011Y-82320414D01*
X149362996Y-82306026D01*
X149394982Y-82293230D01*
X149419874Y-82283266D01*
X149428842Y-82279672D01*
X149470953Y-82262855D01*
X149503455Y-82250099D01*
X149528462Y-82240647D01*
X149548090Y-82233746D01*
X149564455Y-82228642D01*
X149579670Y-82224578D01*
X149590444Y-82222025D01*
X149602934Y-82218741D01*
X149617525Y-82213918D01*
X149635893Y-82206863D01*
X149659715Y-82196883D01*
X149690669Y-82183287D01*
X149730429Y-82165381D01*
X149758383Y-82152659D01*
X149786488Y-82140134D01*
X149811755Y-82129416D01*
X149831154Y-82121759D01*
X149840768Y-82118592D01*
X149854536Y-82113280D01*
X149874084Y-82103283D01*
X149890938Y-82093365D01*
X149925264Y-82071843D01*
X149878263Y-82061463D01*
X149849807Y-82055411D01*
X149821185Y-82049696D01*
X149799576Y-82045731D01*
X149756989Y-82037257D01*
X149706847Y-82025209D01*
X149653377Y-82010688D01*
X149600804Y-81994794D01*
X149587275Y-81990398D01*
X149555789Y-81980289D01*
X149524630Y-81970786D01*
X149498220Y-81963213D01*
X149485878Y-81959998D01*
X149422128Y-81944106D01*
X149370074Y-81930054D01*
X149329975Y-81917913D01*
X149302089Y-81907759D01*
X149299314Y-81906562D01*
X149280641Y-81898880D01*
X149266249Y-81893991D01*
X149261503Y-81893064D01*
X149252622Y-81890471D01*
X149235722Y-81883606D01*
X149214134Y-81873840D01*
X149209551Y-81871662D01*
X149180058Y-81857534D01*
X149159997Y-81848927D01*
X149147191Y-81846281D01*
X149139460Y-81850039D01*
X149134626Y-81860638D01*
X149130510Y-81878521D01*
X149128529Y-81888040D01*
X149124929Y-81909168D01*
X149120825Y-81940013D01*
X149116550Y-81977647D01*
X149112437Y-82019140D01*
X149108862Y-82061003D01*
X149105424Y-82104431D01*
X149101896Y-82147849D01*
X149098545Y-82188050D01*
X149095639Y-82221826D01*
X149093558Y-82244785D01*
X149089310Y-82291910D01*
X149085939Y-82334227D01*
X149083530Y-82370227D01*
X149082171Y-82398400D01*
X149081947Y-82417237D01*
X148953995Y-82417237D01*
X148955419Y-82395151D01*
X148958017Y-82358110D01*
X148960996Y-82318183D01*
X148963022Y-82292315D01*
X148966585Y-82247637D01*
X148970752Y-82195220D01*
X148975134Y-82139962D01*
X148979343Y-82086760D01*
X148981875Y-82054666D01*
X148985749Y-82010667D01*
X148990385Y-81966156D01*
X148995383Y-81924502D01*
X149000341Y-81889074D01*
X149004465Y-81865150D01*
X149009582Y-81838832D01*
X149013357Y-81817779D01*
X149015333Y-81804648D01*
X149015408Y-81801594D01*
X148977174Y-81784378D01*
X148932736Y-81765770D01*
X148887982Y-81748180D01*
X148858527Y-81737379D01*
X148798366Y-81716204D01*
X148728247Y-81787206D01*
X148698699Y-81817216D01*
X148663843Y-81852759D01*
X148627182Y-81890254D01*
X148592219Y-81926122D01*
X148576554Y-81942238D01*
X148494979Y-82026268D01*
X148322889Y-82026268D01*
X148335994Y-82009273D01*
X148343899Y-81997031D01*
X148345140Y-81993513D01*
X148342395Y-81984071D01*
X148335146Y-81966828D01*
X148324841Y-81945173D01*
X148322532Y-81940594D01*
X148308878Y-81912418D01*
X148295278Y-81882150D01*
X148285248Y-81857784D01*
X148266068Y-81811756D01*
X148247276Y-81775764D01*
X148227502Y-81747296D01*
X148220561Y-81739162D01*
X148206179Y-81721722D01*
X148188626Y-81698439D01*
X148171545Y-81674159D01*
X148170510Y-81672621D01*
X148155049Y-81649604D01*
X148140590Y-81628160D01*
X148129964Y-81612489D01*
X148128983Y-81611053D01*
X148116532Y-81591346D01*
X148099702Y-81562519D01*
X148079732Y-81526813D01*
X148057861Y-81486469D01*
X148035329Y-81443729D01*
X148032291Y-81437825D01*
X148175725Y-81437825D01*
X148204991Y-81486771D01*
X148232965Y-81533029D01*
X148256063Y-81569940D01*
X148275473Y-81599286D01*
X148292385Y-81622850D01*
X148307986Y-81642415D01*
X148311468Y-81646484D01*
X148333139Y-81673432D01*
X148351783Y-81701525D01*
X148369279Y-81734040D01*
X148387507Y-81774258D01*
X148395028Y-81792270D01*
X148406806Y-81820108D01*
X148418271Y-81845740D01*
X148427716Y-81865413D01*
X148431440Y-81872348D01*
X148443388Y-81892825D01*
X148558955Y-81777288D01*
X148590130Y-81746006D01*
X148618124Y-81717695D01*
X148641750Y-81693573D01*
X148659819Y-81674860D01*
X148671144Y-81662776D01*
X148674588Y-81658583D01*
X148669068Y-81652547D01*
X148653891Y-81643402D01*
X148631390Y-81632152D01*
X148603896Y-81619801D01*
X148590647Y-81614332D01*
X148894933Y-81614332D01*
X148913148Y-81620773D01*
X148927572Y-81626492D01*
X148949248Y-81635792D01*
X148973963Y-81646858D01*
X148978892Y-81649119D01*
X149001245Y-81659231D01*
X149018987Y-81666903D01*
X149029152Y-81670864D01*
X149030308Y-81671141D01*
X149033152Y-81665424D01*
X149037489Y-81650024D01*
X149042578Y-81627735D01*
X149044993Y-81615806D01*
X149051648Y-81584069D01*
X149059351Y-81550953D01*
X149066601Y-81522861D01*
X149067647Y-81519162D01*
X149073674Y-81496584D01*
X149079552Y-81471840D01*
X149084662Y-81447956D01*
X149088386Y-81427961D01*
X149090105Y-81414881D01*
X149089664Y-81411427D01*
X149085040Y-81415807D01*
X149072961Y-81428071D01*
X149054694Y-81446911D01*
X149031509Y-81471015D01*
X149004672Y-81499073D01*
X148991514Y-81512880D01*
X148894933Y-81614332D01*
X148590647Y-81614332D01*
X148573743Y-81607354D01*
X148543261Y-81595812D01*
X148514783Y-81586182D01*
X148490918Y-81579529D01*
X148464778Y-81572002D01*
X148435619Y-81561557D01*
X148419442Y-81554777D01*
X148398764Y-81546046D01*
X148381802Y-81540032D01*
X148373370Y-81538174D01*
X148363484Y-81535250D01*
X148344679Y-81527183D01*
X148319092Y-81515026D01*
X148288862Y-81499834D01*
X148256124Y-81482662D01*
X148223016Y-81464565D01*
X148214497Y-81459773D01*
X148175725Y-81437825D01*
X148032291Y-81437825D01*
X148020340Y-81414596D01*
X147995964Y-81366446D01*
X147976994Y-81328043D01*
X147962959Y-81297905D01*
X147953386Y-81274552D01*
X147947802Y-81256500D01*
X147945735Y-81242269D01*
X147946713Y-81230378D01*
X147950262Y-81219345D01*
X147954939Y-81209552D01*
X147971282Y-81190699D01*
X147994770Y-81179719D01*
X148022038Y-81177404D01*
X148049717Y-81184545D01*
G37*
%TD*%
M02*
